G04 #@! TF.GenerationSoftware,KiCad,Pcbnew,(5.1.2)-2*
G04 #@! TF.CreationDate,2022-11-30T20:04:11+09:00*
G04 #@! TF.ProjectId,MCU_MotherBoard,4d43555f-4d6f-4746-9865-72426f617264,rev?*
G04 #@! TF.SameCoordinates,Original*
G04 #@! TF.FileFunction,Legend,Top*
G04 #@! TF.FilePolarity,Positive*
%FSLAX46Y46*%
G04 Gerber Fmt 4.6, Leading zero omitted, Abs format (unit mm)*
G04 Created by KiCad (PCBNEW (5.1.2)-2) date 2022-11-30 20:04:11*
%MOMM*%
%LPD*%
G04 APERTURE LIST*
%ADD10C,0.120000*%
%ADD11C,0.100000*%
%ADD12C,0.150000*%
G04 APERTURE END LIST*
D10*
X136600000Y-29637200D02*
X66600000Y-29637200D01*
X136600000Y-112137200D02*
X136600000Y-29637200D01*
X66600000Y-112137200D02*
X136600000Y-112137200D01*
X66600000Y-29637200D02*
X66600000Y-112137200D01*
D11*
X34803400Y-138983400D02*
X34803400Y-128883400D01*
X38493400Y-128783400D02*
X38093400Y-128783400D01*
X38493400Y-128783400D02*
X38493400Y-129183400D01*
X38493400Y-138983400D02*
X34093400Y-138983400D01*
X38493400Y-138983400D02*
X38493400Y-138583400D01*
X33693400Y-138983400D02*
X34093400Y-138983400D01*
X33693400Y-138983400D02*
X33693400Y-138583400D01*
X33693400Y-129183400D02*
X33693400Y-128783400D01*
X33693400Y-128783400D02*
X34093400Y-128783400D01*
D10*
X66513000Y-122708000D02*
X58453000Y-122708000D01*
X66513000Y-127228000D02*
X66513000Y-122708000D01*
X58453000Y-127228000D02*
X66513000Y-127228000D01*
X50250800Y-141401200D02*
X58310800Y-141401200D01*
X50250800Y-136881200D02*
X50250800Y-141401200D01*
X58310800Y-136881200D02*
X50250800Y-136881200D01*
X38833800Y-117653702D02*
X38033800Y-117653702D01*
X38433800Y-117253702D02*
X38433800Y-118053702D01*
X36651800Y-125744400D02*
X35585800Y-125744400D01*
X36886800Y-125704400D02*
X35350800Y-125704400D01*
X37066800Y-125664400D02*
X35170800Y-125664400D01*
X37216800Y-125624400D02*
X35020800Y-125624400D01*
X37347800Y-125584400D02*
X34889800Y-125584400D01*
X37464800Y-125544400D02*
X34772800Y-125544400D01*
X37571800Y-125504400D02*
X34665800Y-125504400D01*
X37670800Y-125464400D02*
X34566800Y-125464400D01*
X37763800Y-125424400D02*
X34473800Y-125424400D01*
X37849800Y-125384400D02*
X34387800Y-125384400D01*
X37931800Y-125344400D02*
X34305800Y-125344400D01*
X38008800Y-125304400D02*
X34228800Y-125304400D01*
X38082800Y-125264400D02*
X34154800Y-125264400D01*
X38152800Y-125224400D02*
X34084800Y-125224400D01*
X38220800Y-125184400D02*
X34016800Y-125184400D01*
X38284800Y-125144400D02*
X33952800Y-125144400D01*
X38346800Y-125104400D02*
X33890800Y-125104400D01*
X38405800Y-125064400D02*
X33831800Y-125064400D01*
X38463800Y-125024400D02*
X33773800Y-125024400D01*
X38518800Y-124984400D02*
X33718800Y-124984400D01*
X38572800Y-124944400D02*
X33664800Y-124944400D01*
X38623800Y-124904400D02*
X33613800Y-124904400D01*
X38674800Y-124864400D02*
X33562800Y-124864400D01*
X38722800Y-124824400D02*
X33514800Y-124824400D01*
X38769800Y-124784400D02*
X33467800Y-124784400D01*
X38815800Y-124744400D02*
X33421800Y-124744400D01*
X38859800Y-124704400D02*
X33377800Y-124704400D01*
X38902800Y-124664400D02*
X33334800Y-124664400D01*
X38944800Y-124624400D02*
X33292800Y-124624400D01*
X38985800Y-124584400D02*
X33251800Y-124584400D01*
X39025800Y-124544400D02*
X33211800Y-124544400D01*
X39063800Y-124504400D02*
X33173800Y-124504400D01*
X39101800Y-124464400D02*
X33135800Y-124464400D01*
X35078800Y-124424400D02*
X33099800Y-124424400D01*
X39137800Y-124424400D02*
X37158800Y-124424400D01*
X35078800Y-124384400D02*
X33063800Y-124384400D01*
X39173800Y-124384400D02*
X37158800Y-124384400D01*
X35078800Y-124344400D02*
X33028800Y-124344400D01*
X39208800Y-124344400D02*
X37158800Y-124344400D01*
X35078800Y-124304400D02*
X32994800Y-124304400D01*
X39242800Y-124304400D02*
X37158800Y-124304400D01*
X35078800Y-124264400D02*
X32962800Y-124264400D01*
X39274800Y-124264400D02*
X37158800Y-124264400D01*
X35078800Y-124224400D02*
X32929800Y-124224400D01*
X39307800Y-124224400D02*
X37158800Y-124224400D01*
X35078800Y-124184400D02*
X32898800Y-124184400D01*
X39338800Y-124184400D02*
X37158800Y-124184400D01*
X35078800Y-124144400D02*
X32868800Y-124144400D01*
X39368800Y-124144400D02*
X37158800Y-124144400D01*
X35078800Y-124104400D02*
X32838800Y-124104400D01*
X39398800Y-124104400D02*
X37158800Y-124104400D01*
X35078800Y-124064400D02*
X32809800Y-124064400D01*
X39427800Y-124064400D02*
X37158800Y-124064400D01*
X35078800Y-124024400D02*
X32780800Y-124024400D01*
X39456800Y-124024400D02*
X37158800Y-124024400D01*
X35078800Y-123984400D02*
X32753800Y-123984400D01*
X39483800Y-123984400D02*
X37158800Y-123984400D01*
X35078800Y-123944400D02*
X32726800Y-123944400D01*
X39510800Y-123944400D02*
X37158800Y-123944400D01*
X35078800Y-123904400D02*
X32700800Y-123904400D01*
X39536800Y-123904400D02*
X37158800Y-123904400D01*
X35078800Y-123864400D02*
X32674800Y-123864400D01*
X39562800Y-123864400D02*
X37158800Y-123864400D01*
X35078800Y-123824400D02*
X32649800Y-123824400D01*
X39587800Y-123824400D02*
X37158800Y-123824400D01*
X35078800Y-123784400D02*
X32625800Y-123784400D01*
X39611800Y-123784400D02*
X37158800Y-123784400D01*
X35078800Y-123744400D02*
X32601800Y-123744400D01*
X39635800Y-123744400D02*
X37158800Y-123744400D01*
X35078800Y-123704400D02*
X32578800Y-123704400D01*
X39658800Y-123704400D02*
X37158800Y-123704400D01*
X35078800Y-123664400D02*
X32556800Y-123664400D01*
X39680800Y-123664400D02*
X37158800Y-123664400D01*
X35078800Y-123624400D02*
X32534800Y-123624400D01*
X39702800Y-123624400D02*
X37158800Y-123624400D01*
X35078800Y-123584400D02*
X32512800Y-123584400D01*
X39724800Y-123584400D02*
X37158800Y-123584400D01*
X35078800Y-123544400D02*
X32491800Y-123544400D01*
X39745800Y-123544400D02*
X37158800Y-123544400D01*
X35078800Y-123504400D02*
X32471800Y-123504400D01*
X39765800Y-123504400D02*
X37158800Y-123504400D01*
X35078800Y-123464400D02*
X32452800Y-123464400D01*
X39784800Y-123464400D02*
X37158800Y-123464400D01*
X35078800Y-123424400D02*
X32432800Y-123424400D01*
X39804800Y-123424400D02*
X37158800Y-123424400D01*
X35078800Y-123384400D02*
X32414800Y-123384400D01*
X39822800Y-123384400D02*
X37158800Y-123384400D01*
X35078800Y-123344400D02*
X32396800Y-123344400D01*
X39840800Y-123344400D02*
X37158800Y-123344400D01*
X35078800Y-123304400D02*
X32378800Y-123304400D01*
X39858800Y-123304400D02*
X37158800Y-123304400D01*
X35078800Y-123264400D02*
X32361800Y-123264400D01*
X39875800Y-123264400D02*
X37158800Y-123264400D01*
X35078800Y-123224400D02*
X32344800Y-123224400D01*
X39892800Y-123224400D02*
X37158800Y-123224400D01*
X35078800Y-123184400D02*
X32328800Y-123184400D01*
X39908800Y-123184400D02*
X37158800Y-123184400D01*
X35078800Y-123144400D02*
X32313800Y-123144400D01*
X39923800Y-123144400D02*
X37158800Y-123144400D01*
X35078800Y-123104400D02*
X32297800Y-123104400D01*
X39939800Y-123104400D02*
X37158800Y-123104400D01*
X35078800Y-123064400D02*
X32283800Y-123064400D01*
X39953800Y-123064400D02*
X37158800Y-123064400D01*
X35078800Y-123024400D02*
X32268800Y-123024400D01*
X39968800Y-123024400D02*
X37158800Y-123024400D01*
X35078800Y-122984400D02*
X32255800Y-122984400D01*
X39981800Y-122984400D02*
X37158800Y-122984400D01*
X35078800Y-122944400D02*
X32241800Y-122944400D01*
X39995800Y-122944400D02*
X37158800Y-122944400D01*
X35078800Y-122904400D02*
X32229800Y-122904400D01*
X40007800Y-122904400D02*
X37158800Y-122904400D01*
X35078800Y-122864400D02*
X32216800Y-122864400D01*
X40020800Y-122864400D02*
X37158800Y-122864400D01*
X35078800Y-122824400D02*
X32204800Y-122824400D01*
X40032800Y-122824400D02*
X37158800Y-122824400D01*
X35078800Y-122784400D02*
X32193800Y-122784400D01*
X40043800Y-122784400D02*
X37158800Y-122784400D01*
X35078800Y-122744400D02*
X32182800Y-122744400D01*
X40054800Y-122744400D02*
X37158800Y-122744400D01*
X35078800Y-122704400D02*
X32171800Y-122704400D01*
X40065800Y-122704400D02*
X37158800Y-122704400D01*
X35078800Y-122664400D02*
X32161800Y-122664400D01*
X40075800Y-122664400D02*
X37158800Y-122664400D01*
X35078800Y-122624400D02*
X32151800Y-122624400D01*
X40085800Y-122624400D02*
X37158800Y-122624400D01*
X35078800Y-122584400D02*
X32142800Y-122584400D01*
X40094800Y-122584400D02*
X37158800Y-122584400D01*
X35078800Y-122544400D02*
X32133800Y-122544400D01*
X40103800Y-122544400D02*
X37158800Y-122544400D01*
X35078800Y-122504400D02*
X32124800Y-122504400D01*
X40112800Y-122504400D02*
X37158800Y-122504400D01*
X35078800Y-122464400D02*
X32116800Y-122464400D01*
X40120800Y-122464400D02*
X37158800Y-122464400D01*
X35078800Y-122424400D02*
X32108800Y-122424400D01*
X40128800Y-122424400D02*
X37158800Y-122424400D01*
X35078800Y-122384400D02*
X32101800Y-122384400D01*
X40135800Y-122384400D02*
X37158800Y-122384400D01*
X40142800Y-122343400D02*
X32094800Y-122343400D01*
X40148800Y-122303400D02*
X32088800Y-122303400D01*
X40155800Y-122263400D02*
X32081800Y-122263400D01*
X40160800Y-122223400D02*
X32076800Y-122223400D01*
X40166800Y-122183400D02*
X32070800Y-122183400D01*
X40170800Y-122143400D02*
X32066800Y-122143400D01*
X40175800Y-122103400D02*
X32061800Y-122103400D01*
X40179800Y-122063400D02*
X32057800Y-122063400D01*
X40183800Y-122023400D02*
X32053800Y-122023400D01*
X40186800Y-121983400D02*
X32050800Y-121983400D01*
X40189800Y-121943400D02*
X32047800Y-121943400D01*
X40192800Y-121903400D02*
X32044800Y-121903400D01*
X40194800Y-121863400D02*
X32042800Y-121863400D01*
X40195800Y-121823400D02*
X32041800Y-121823400D01*
X40197800Y-121783400D02*
X32039800Y-121783400D01*
X40198800Y-121743400D02*
X32038800Y-121743400D01*
X40198800Y-121703400D02*
X32038800Y-121703400D01*
X40198800Y-121663400D02*
X32038800Y-121663400D01*
X40238800Y-121663400D02*
G75*
G03X40238800Y-121663400I-4120000J0D01*
G01*
X50008000Y-126007800D02*
X45068000Y-126007800D01*
X50008000Y-123267800D02*
X45068000Y-123267800D01*
X50008000Y-126007800D02*
X50008000Y-125692800D01*
X50008000Y-123582800D02*
X50008000Y-123267800D01*
X45068000Y-126007800D02*
X45068000Y-125692800D01*
X45068000Y-123582800D02*
X45068000Y-123267800D01*
X53950502Y-22329400D02*
X53950502Y-23129400D01*
X53550502Y-22729400D02*
X54350502Y-22729400D01*
X62041200Y-24511400D02*
X62041200Y-25577400D01*
X62001200Y-24276400D02*
X62001200Y-25812400D01*
X61961200Y-24096400D02*
X61961200Y-25992400D01*
X61921200Y-23946400D02*
X61921200Y-26142400D01*
X61881200Y-23815400D02*
X61881200Y-26273400D01*
X61841200Y-23698400D02*
X61841200Y-26390400D01*
X61801200Y-23591400D02*
X61801200Y-26497400D01*
X61761200Y-23492400D02*
X61761200Y-26596400D01*
X61721200Y-23399400D02*
X61721200Y-26689400D01*
X61681200Y-23313400D02*
X61681200Y-26775400D01*
X61641200Y-23231400D02*
X61641200Y-26857400D01*
X61601200Y-23154400D02*
X61601200Y-26934400D01*
X61561200Y-23080400D02*
X61561200Y-27008400D01*
X61521200Y-23010400D02*
X61521200Y-27078400D01*
X61481200Y-22942400D02*
X61481200Y-27146400D01*
X61441200Y-22878400D02*
X61441200Y-27210400D01*
X61401200Y-22816400D02*
X61401200Y-27272400D01*
X61361200Y-22757400D02*
X61361200Y-27331400D01*
X61321200Y-22699400D02*
X61321200Y-27389400D01*
X61281200Y-22644400D02*
X61281200Y-27444400D01*
X61241200Y-22590400D02*
X61241200Y-27498400D01*
X61201200Y-22539400D02*
X61201200Y-27549400D01*
X61161200Y-22488400D02*
X61161200Y-27600400D01*
X61121200Y-22440400D02*
X61121200Y-27648400D01*
X61081200Y-22393400D02*
X61081200Y-27695400D01*
X61041200Y-22347400D02*
X61041200Y-27741400D01*
X61001200Y-22303400D02*
X61001200Y-27785400D01*
X60961200Y-22260400D02*
X60961200Y-27828400D01*
X60921200Y-22218400D02*
X60921200Y-27870400D01*
X60881200Y-22177400D02*
X60881200Y-27911400D01*
X60841200Y-22137400D02*
X60841200Y-27951400D01*
X60801200Y-22099400D02*
X60801200Y-27989400D01*
X60761200Y-22061400D02*
X60761200Y-28027400D01*
X60721200Y-26084400D02*
X60721200Y-28063400D01*
X60721200Y-22025400D02*
X60721200Y-24004400D01*
X60681200Y-26084400D02*
X60681200Y-28099400D01*
X60681200Y-21989400D02*
X60681200Y-24004400D01*
X60641200Y-26084400D02*
X60641200Y-28134400D01*
X60641200Y-21954400D02*
X60641200Y-24004400D01*
X60601200Y-26084400D02*
X60601200Y-28168400D01*
X60601200Y-21920400D02*
X60601200Y-24004400D01*
X60561200Y-26084400D02*
X60561200Y-28200400D01*
X60561200Y-21888400D02*
X60561200Y-24004400D01*
X60521200Y-26084400D02*
X60521200Y-28233400D01*
X60521200Y-21855400D02*
X60521200Y-24004400D01*
X60481200Y-26084400D02*
X60481200Y-28264400D01*
X60481200Y-21824400D02*
X60481200Y-24004400D01*
X60441200Y-26084400D02*
X60441200Y-28294400D01*
X60441200Y-21794400D02*
X60441200Y-24004400D01*
X60401200Y-26084400D02*
X60401200Y-28324400D01*
X60401200Y-21764400D02*
X60401200Y-24004400D01*
X60361200Y-26084400D02*
X60361200Y-28353400D01*
X60361200Y-21735400D02*
X60361200Y-24004400D01*
X60321200Y-26084400D02*
X60321200Y-28382400D01*
X60321200Y-21706400D02*
X60321200Y-24004400D01*
X60281200Y-26084400D02*
X60281200Y-28409400D01*
X60281200Y-21679400D02*
X60281200Y-24004400D01*
X60241200Y-26084400D02*
X60241200Y-28436400D01*
X60241200Y-21652400D02*
X60241200Y-24004400D01*
X60201200Y-26084400D02*
X60201200Y-28462400D01*
X60201200Y-21626400D02*
X60201200Y-24004400D01*
X60161200Y-26084400D02*
X60161200Y-28488400D01*
X60161200Y-21600400D02*
X60161200Y-24004400D01*
X60121200Y-26084400D02*
X60121200Y-28513400D01*
X60121200Y-21575400D02*
X60121200Y-24004400D01*
X60081200Y-26084400D02*
X60081200Y-28537400D01*
X60081200Y-21551400D02*
X60081200Y-24004400D01*
X60041200Y-26084400D02*
X60041200Y-28561400D01*
X60041200Y-21527400D02*
X60041200Y-24004400D01*
X60001200Y-26084400D02*
X60001200Y-28584400D01*
X60001200Y-21504400D02*
X60001200Y-24004400D01*
X59961200Y-26084400D02*
X59961200Y-28606400D01*
X59961200Y-21482400D02*
X59961200Y-24004400D01*
X59921200Y-26084400D02*
X59921200Y-28628400D01*
X59921200Y-21460400D02*
X59921200Y-24004400D01*
X59881200Y-26084400D02*
X59881200Y-28650400D01*
X59881200Y-21438400D02*
X59881200Y-24004400D01*
X59841200Y-26084400D02*
X59841200Y-28671400D01*
X59841200Y-21417400D02*
X59841200Y-24004400D01*
X59801200Y-26084400D02*
X59801200Y-28691400D01*
X59801200Y-21397400D02*
X59801200Y-24004400D01*
X59761200Y-26084400D02*
X59761200Y-28710400D01*
X59761200Y-21378400D02*
X59761200Y-24004400D01*
X59721200Y-26084400D02*
X59721200Y-28730400D01*
X59721200Y-21358400D02*
X59721200Y-24004400D01*
X59681200Y-26084400D02*
X59681200Y-28748400D01*
X59681200Y-21340400D02*
X59681200Y-24004400D01*
X59641200Y-26084400D02*
X59641200Y-28766400D01*
X59641200Y-21322400D02*
X59641200Y-24004400D01*
X59601200Y-26084400D02*
X59601200Y-28784400D01*
X59601200Y-21304400D02*
X59601200Y-24004400D01*
X59561200Y-26084400D02*
X59561200Y-28801400D01*
X59561200Y-21287400D02*
X59561200Y-24004400D01*
X59521200Y-26084400D02*
X59521200Y-28818400D01*
X59521200Y-21270400D02*
X59521200Y-24004400D01*
X59481200Y-26084400D02*
X59481200Y-28834400D01*
X59481200Y-21254400D02*
X59481200Y-24004400D01*
X59441200Y-26084400D02*
X59441200Y-28849400D01*
X59441200Y-21239400D02*
X59441200Y-24004400D01*
X59401200Y-26084400D02*
X59401200Y-28865400D01*
X59401200Y-21223400D02*
X59401200Y-24004400D01*
X59361200Y-26084400D02*
X59361200Y-28879400D01*
X59361200Y-21209400D02*
X59361200Y-24004400D01*
X59321200Y-26084400D02*
X59321200Y-28894400D01*
X59321200Y-21194400D02*
X59321200Y-24004400D01*
X59281200Y-26084400D02*
X59281200Y-28907400D01*
X59281200Y-21181400D02*
X59281200Y-24004400D01*
X59241200Y-26084400D02*
X59241200Y-28921400D01*
X59241200Y-21167400D02*
X59241200Y-24004400D01*
X59201200Y-26084400D02*
X59201200Y-28933400D01*
X59201200Y-21155400D02*
X59201200Y-24004400D01*
X59161200Y-26084400D02*
X59161200Y-28946400D01*
X59161200Y-21142400D02*
X59161200Y-24004400D01*
X59121200Y-26084400D02*
X59121200Y-28958400D01*
X59121200Y-21130400D02*
X59121200Y-24004400D01*
X59081200Y-26084400D02*
X59081200Y-28969400D01*
X59081200Y-21119400D02*
X59081200Y-24004400D01*
X59041200Y-26084400D02*
X59041200Y-28980400D01*
X59041200Y-21108400D02*
X59041200Y-24004400D01*
X59001200Y-26084400D02*
X59001200Y-28991400D01*
X59001200Y-21097400D02*
X59001200Y-24004400D01*
X58961200Y-26084400D02*
X58961200Y-29001400D01*
X58961200Y-21087400D02*
X58961200Y-24004400D01*
X58921200Y-26084400D02*
X58921200Y-29011400D01*
X58921200Y-21077400D02*
X58921200Y-24004400D01*
X58881200Y-26084400D02*
X58881200Y-29020400D01*
X58881200Y-21068400D02*
X58881200Y-24004400D01*
X58841200Y-26084400D02*
X58841200Y-29029400D01*
X58841200Y-21059400D02*
X58841200Y-24004400D01*
X58801200Y-26084400D02*
X58801200Y-29038400D01*
X58801200Y-21050400D02*
X58801200Y-24004400D01*
X58761200Y-26084400D02*
X58761200Y-29046400D01*
X58761200Y-21042400D02*
X58761200Y-24004400D01*
X58721200Y-26084400D02*
X58721200Y-29054400D01*
X58721200Y-21034400D02*
X58721200Y-24004400D01*
X58681200Y-26084400D02*
X58681200Y-29061400D01*
X58681200Y-21027400D02*
X58681200Y-24004400D01*
X58640200Y-21020400D02*
X58640200Y-29068400D01*
X58600200Y-21014400D02*
X58600200Y-29074400D01*
X58560200Y-21007400D02*
X58560200Y-29081400D01*
X58520200Y-21002400D02*
X58520200Y-29086400D01*
X58480200Y-20996400D02*
X58480200Y-29092400D01*
X58440200Y-20992400D02*
X58440200Y-29096400D01*
X58400200Y-20987400D02*
X58400200Y-29101400D01*
X58360200Y-20983400D02*
X58360200Y-29105400D01*
X58320200Y-20979400D02*
X58320200Y-29109400D01*
X58280200Y-20976400D02*
X58280200Y-29112400D01*
X58240200Y-20973400D02*
X58240200Y-29115400D01*
X58200200Y-20970400D02*
X58200200Y-29118400D01*
X58160200Y-20968400D02*
X58160200Y-29120400D01*
X58120200Y-20967400D02*
X58120200Y-29121400D01*
X58080200Y-20965400D02*
X58080200Y-29123400D01*
X58040200Y-20964400D02*
X58040200Y-29124400D01*
X58000200Y-20964400D02*
X58000200Y-29124400D01*
X57960200Y-20964400D02*
X57960200Y-29124400D01*
X62080200Y-25044400D02*
G75*
G03X62080200Y-25044400I-4120000J0D01*
G01*
X59406500Y-46940800D02*
X64346500Y-46940800D01*
X59406500Y-49680800D02*
X64346500Y-49680800D01*
X59406500Y-46940800D02*
X59406500Y-47255800D01*
X59406500Y-49365800D02*
X59406500Y-49680800D01*
X64346500Y-46940800D02*
X64346500Y-47255800D01*
X64346500Y-49365800D02*
X64346500Y-49680800D01*
X62556500Y-68753200D02*
X62556500Y-63813200D01*
X65296500Y-68753200D02*
X65296500Y-63813200D01*
X62556500Y-68753200D02*
X62871500Y-68753200D01*
X64981500Y-68753200D02*
X65296500Y-68753200D01*
X62556500Y-63813200D02*
X62871500Y-63813200D01*
X64981500Y-63813200D02*
X65296500Y-63813200D01*
X60567200Y-63813200D02*
X60882200Y-63813200D01*
X58142200Y-63813200D02*
X58457200Y-63813200D01*
X60567200Y-68753200D02*
X60882200Y-68753200D01*
X58142200Y-68753200D02*
X58457200Y-68753200D01*
X60882200Y-68753200D02*
X60882200Y-63813200D01*
X58142200Y-68753200D02*
X58142200Y-63813200D01*
X40323400Y-100389200D02*
X40638400Y-100389200D01*
X37898400Y-100389200D02*
X38213400Y-100389200D01*
X40323400Y-105329200D02*
X40638400Y-105329200D01*
X37898400Y-105329200D02*
X38213400Y-105329200D01*
X40638400Y-105329200D02*
X40638400Y-100389200D01*
X37898400Y-105329200D02*
X37898400Y-100389200D01*
X59406500Y-96623200D02*
X64346500Y-96623200D01*
X59406500Y-99363200D02*
X64346500Y-99363200D01*
X59406500Y-96623200D02*
X59406500Y-96938200D01*
X59406500Y-99048200D02*
X59406500Y-99363200D01*
X64346500Y-96623200D02*
X64346500Y-96938200D01*
X64346500Y-99048200D02*
X64346500Y-99363200D01*
X58345400Y-117343400D02*
X58345400Y-112403400D01*
X61085400Y-117343400D02*
X61085400Y-112403400D01*
X58345400Y-117343400D02*
X58660400Y-117343400D01*
X60770400Y-117343400D02*
X61085400Y-117343400D01*
X58345400Y-112403400D02*
X58660400Y-112403400D01*
X60770400Y-112403400D02*
X61085400Y-112403400D01*
X64981500Y-112352600D02*
X65296500Y-112352600D01*
X62556500Y-112352600D02*
X62871500Y-112352600D01*
X64981500Y-117292600D02*
X65296500Y-117292600D01*
X62556500Y-117292600D02*
X62871500Y-117292600D01*
X65296500Y-117292600D02*
X65296500Y-112352600D01*
X62556500Y-117292600D02*
X62556500Y-112352600D01*
X59406500Y-72645600D02*
X64346500Y-72645600D01*
X59406500Y-75385600D02*
X64346500Y-75385600D01*
X59406500Y-72645600D02*
X59406500Y-72960600D01*
X59406500Y-75070600D02*
X59406500Y-75385600D01*
X64346500Y-72645600D02*
X64346500Y-72960600D01*
X64346500Y-75070600D02*
X64346500Y-75385600D01*
X58802600Y-92807000D02*
X58802600Y-87867000D01*
X61542600Y-92807000D02*
X61542600Y-87867000D01*
X58802600Y-92807000D02*
X59117600Y-92807000D01*
X61227600Y-92807000D02*
X61542600Y-92807000D01*
X58802600Y-87867000D02*
X59117600Y-87867000D01*
X61227600Y-87867000D02*
X61542600Y-87867000D01*
X64981500Y-87714600D02*
X65296500Y-87714600D01*
X62556500Y-87714600D02*
X62871500Y-87714600D01*
X64981500Y-92654600D02*
X65296500Y-92654600D01*
X62556500Y-92654600D02*
X62871500Y-92654600D01*
X65296500Y-92654600D02*
X65296500Y-87714600D01*
X62556500Y-92654600D02*
X62556500Y-87714600D01*
X40399600Y-84412600D02*
X40714600Y-84412600D01*
X37974600Y-84412600D02*
X38289600Y-84412600D01*
X40399600Y-89352600D02*
X40714600Y-89352600D01*
X37974600Y-89352600D02*
X38289600Y-89352600D01*
X40714600Y-89352600D02*
X40714600Y-84412600D01*
X37974600Y-89352600D02*
X37974600Y-84412600D01*
X40831400Y-68410600D02*
X41146400Y-68410600D01*
X38406400Y-68410600D02*
X38721400Y-68410600D01*
X40831400Y-73350600D02*
X41146400Y-73350600D01*
X38406400Y-73350600D02*
X38721400Y-73350600D01*
X41146400Y-73350600D02*
X41146400Y-68410600D01*
X38406400Y-73350600D02*
X38406400Y-68410600D01*
X147324800Y-32376800D02*
X147624800Y-31776800D01*
X147924800Y-32376800D02*
X147324800Y-32376800D01*
X147624800Y-31776800D02*
X147924800Y-32376800D01*
X141224800Y-28226800D02*
X145124800Y-28226800D01*
X141224800Y-32726800D02*
X141224800Y-28226800D01*
X140024800Y-32726800D02*
X141224800Y-32726800D01*
X140024800Y-20926800D02*
X140024800Y-32726800D01*
X145124800Y-20926800D02*
X140024800Y-20926800D01*
X149024800Y-28226800D02*
X145124800Y-28226800D01*
X149024800Y-32726800D02*
X149024800Y-28226800D01*
X150224800Y-32726800D02*
X149024800Y-32726800D01*
X150224800Y-20926800D02*
X150224800Y-32726800D01*
X145124800Y-20926800D02*
X150224800Y-20926800D01*
X157088800Y-20926800D02*
X162188800Y-20926800D01*
X162188800Y-20926800D02*
X162188800Y-32726800D01*
X162188800Y-32726800D02*
X160988800Y-32726800D01*
X160988800Y-32726800D02*
X160988800Y-28226800D01*
X160988800Y-28226800D02*
X157088800Y-28226800D01*
X157088800Y-20926800D02*
X151988800Y-20926800D01*
X151988800Y-20926800D02*
X151988800Y-32726800D01*
X151988800Y-32726800D02*
X153188800Y-32726800D01*
X153188800Y-32726800D02*
X153188800Y-28226800D01*
X153188800Y-28226800D02*
X157088800Y-28226800D01*
X159588800Y-31776800D02*
X159888800Y-32376800D01*
X159888800Y-32376800D02*
X159288800Y-32376800D01*
X159288800Y-32376800D02*
X159588800Y-31776800D01*
X32847600Y-154358600D02*
X28997600Y-154358600D01*
X28997600Y-154358600D02*
X28997600Y-142558600D01*
X28997600Y-142558600D02*
X30197600Y-142558600D01*
X30197600Y-142558600D02*
X30197600Y-147058600D01*
X30197600Y-147058600D02*
X32847600Y-147058600D01*
X32847600Y-154358600D02*
X36697600Y-154358600D01*
X36697600Y-154358600D02*
X36697600Y-142558600D01*
X36697600Y-142558600D02*
X35497600Y-142558600D01*
X35497600Y-142558600D02*
X35497600Y-147058600D01*
X35497600Y-147058600D02*
X32847600Y-147058600D01*
X31597600Y-143508600D02*
X31297600Y-142908600D01*
X31297600Y-142908600D02*
X31897600Y-142908600D01*
X31897600Y-142908600D02*
X31597600Y-143508600D01*
X29637600Y-67551400D02*
X29037600Y-67551400D01*
X29637600Y-69151400D02*
X29637600Y-67551400D01*
X29037600Y-69151400D02*
X29637600Y-69151400D01*
X29637600Y-70091400D02*
X29037600Y-70091400D01*
X29637600Y-71691400D02*
X29637600Y-70091400D01*
X29037600Y-71691400D02*
X29637600Y-71691400D01*
X29637600Y-72631400D02*
X29037600Y-72631400D01*
X29637600Y-74231400D02*
X29637600Y-72631400D01*
X29037600Y-74231400D02*
X29637600Y-74231400D01*
X29637600Y-75171400D02*
X29037600Y-75171400D01*
X29637600Y-76771400D02*
X29637600Y-75171400D01*
X29037600Y-76771400D02*
X29637600Y-76771400D01*
X29637600Y-77711400D02*
X29037600Y-77711400D01*
X29637600Y-79311400D02*
X29637600Y-77711400D01*
X29037600Y-79311400D02*
X29637600Y-79311400D01*
X35057600Y-68601400D02*
X34057600Y-68601400D01*
X35057600Y-78261400D02*
X34057600Y-78261400D01*
X33527600Y-68601400D02*
X34057600Y-68351400D01*
X33527600Y-78261400D02*
X33527600Y-68601400D01*
X34057600Y-78511400D02*
X33527600Y-78261400D01*
X34057600Y-68351400D02*
X35057600Y-68351400D01*
X34057600Y-78511400D02*
X34057600Y-68351400D01*
X35057600Y-78511400D02*
X34057600Y-78511400D01*
X30067600Y-80181400D02*
X34067600Y-80181400D01*
X29037600Y-66971400D02*
X29037600Y-79891400D01*
X35057600Y-66971400D02*
X29037600Y-66971400D01*
X35057600Y-79891400D02*
X35057600Y-66971400D01*
X29037600Y-79891400D02*
X35057600Y-79891400D01*
X29037600Y-95868000D02*
X35057600Y-95868000D01*
X35057600Y-95868000D02*
X35057600Y-82948000D01*
X35057600Y-82948000D02*
X29037600Y-82948000D01*
X29037600Y-82948000D02*
X29037600Y-95868000D01*
X30067600Y-96158000D02*
X34067600Y-96158000D01*
X35057600Y-94488000D02*
X34057600Y-94488000D01*
X34057600Y-94488000D02*
X34057600Y-84328000D01*
X34057600Y-84328000D02*
X35057600Y-84328000D01*
X34057600Y-94488000D02*
X33527600Y-94238000D01*
X33527600Y-94238000D02*
X33527600Y-84578000D01*
X33527600Y-84578000D02*
X34057600Y-84328000D01*
X35057600Y-94238000D02*
X34057600Y-94238000D01*
X35057600Y-84578000D02*
X34057600Y-84578000D01*
X29037600Y-95288000D02*
X29637600Y-95288000D01*
X29637600Y-95288000D02*
X29637600Y-93688000D01*
X29637600Y-93688000D02*
X29037600Y-93688000D01*
X29037600Y-92748000D02*
X29637600Y-92748000D01*
X29637600Y-92748000D02*
X29637600Y-91148000D01*
X29637600Y-91148000D02*
X29037600Y-91148000D01*
X29037600Y-90208000D02*
X29637600Y-90208000D01*
X29637600Y-90208000D02*
X29637600Y-88608000D01*
X29637600Y-88608000D02*
X29037600Y-88608000D01*
X29037600Y-87668000D02*
X29637600Y-87668000D01*
X29637600Y-87668000D02*
X29637600Y-86068000D01*
X29637600Y-86068000D02*
X29037600Y-86068000D01*
X29037600Y-85128000D02*
X29637600Y-85128000D01*
X29637600Y-85128000D02*
X29637600Y-83528000D01*
X29637600Y-83528000D02*
X29037600Y-83528000D01*
X29037600Y-111844600D02*
X35057600Y-111844600D01*
X35057600Y-111844600D02*
X35057600Y-98924600D01*
X35057600Y-98924600D02*
X29037600Y-98924600D01*
X29037600Y-98924600D02*
X29037600Y-111844600D01*
X30067600Y-112134600D02*
X34067600Y-112134600D01*
X35057600Y-110464600D02*
X34057600Y-110464600D01*
X34057600Y-110464600D02*
X34057600Y-100304600D01*
X34057600Y-100304600D02*
X35057600Y-100304600D01*
X34057600Y-110464600D02*
X33527600Y-110214600D01*
X33527600Y-110214600D02*
X33527600Y-100554600D01*
X33527600Y-100554600D02*
X34057600Y-100304600D01*
X35057600Y-110214600D02*
X34057600Y-110214600D01*
X35057600Y-100554600D02*
X34057600Y-100554600D01*
X29037600Y-111264600D02*
X29637600Y-111264600D01*
X29637600Y-111264600D02*
X29637600Y-109664600D01*
X29637600Y-109664600D02*
X29037600Y-109664600D01*
X29037600Y-108724600D02*
X29637600Y-108724600D01*
X29637600Y-108724600D02*
X29637600Y-107124600D01*
X29637600Y-107124600D02*
X29037600Y-107124600D01*
X29037600Y-106184600D02*
X29637600Y-106184600D01*
X29637600Y-106184600D02*
X29637600Y-104584600D01*
X29637600Y-104584600D02*
X29037600Y-104584600D01*
X29037600Y-103644600D02*
X29637600Y-103644600D01*
X29637600Y-103644600D02*
X29637600Y-102044600D01*
X29637600Y-102044600D02*
X29037600Y-102044600D01*
X29037600Y-101104600D02*
X29637600Y-101104600D01*
X29637600Y-101104600D02*
X29637600Y-99504600D01*
X29637600Y-99504600D02*
X29037600Y-99504600D01*
X159504900Y-74742040D02*
G75*
G03X159504900Y-74742040I-920000J0D01*
G01*
X159504900Y-74742040D02*
X160124900Y-74742040D01*
X159860500Y-92212160D02*
X160480500Y-92212160D01*
X159860500Y-92212160D02*
G75*
G03X159860500Y-92212160I-920000J0D01*
G01*
X55518800Y-48310800D02*
X54898800Y-48310800D01*
X57358800Y-48310800D02*
G75*
G03X57358800Y-48310800I-920000J0D01*
G01*
X56850800Y-97993200D02*
G75*
G03X56850800Y-97993200I-920000J0D01*
G01*
X55010800Y-97993200D02*
X54390800Y-97993200D01*
X57409600Y-73634600D02*
G75*
G03X57409600Y-73634600I-920000J0D01*
G01*
X55569600Y-73634600D02*
X54949600Y-73634600D01*
D11*
X157036000Y-78165200D02*
X158836000Y-78165200D01*
X154836000Y-81265200D02*
X154836000Y-82165200D01*
X154836000Y-81265200D02*
X154836000Y-80365200D01*
X161036000Y-81265200D02*
X161036000Y-82165200D01*
X161036000Y-81265200D02*
X161036000Y-80365200D01*
X157036000Y-84365200D02*
X158736000Y-84365200D01*
X157317800Y-101870000D02*
X159017800Y-101870000D01*
X161317800Y-98770000D02*
X161317800Y-97870000D01*
X161317800Y-98770000D02*
X161317800Y-99670000D01*
X155117800Y-98770000D02*
X155117800Y-97870000D01*
X155117800Y-98770000D02*
X155117800Y-99670000D01*
X157317800Y-95670000D02*
X159117800Y-95670000D01*
X162388800Y-109461600D02*
X162388800Y-109861600D01*
X161988800Y-109461600D02*
X162388800Y-109461600D01*
X152188800Y-109461600D02*
X152588800Y-109461600D01*
X152188800Y-109461600D02*
X152188800Y-109861600D01*
X152188800Y-114261600D02*
X152588800Y-114261600D01*
X152188800Y-114261600D02*
X152188800Y-109861600D01*
X162388800Y-114261600D02*
X161988800Y-114261600D01*
X162388800Y-114261600D02*
X162388800Y-113861600D01*
X152188800Y-110571600D02*
X162288800Y-110571600D01*
D12*
X55880000Y-133751400D02*
X61030000Y-133751400D01*
X61030000Y-133751400D02*
X61030000Y-129901400D01*
X61030000Y-129901400D02*
X55880000Y-129901400D01*
X55880000Y-129901400D02*
X55880000Y-133701400D01*
D11*
X43769600Y-138881800D02*
X43769600Y-128781800D01*
X47459600Y-128681800D02*
X47059600Y-128681800D01*
X47459600Y-128681800D02*
X47459600Y-129081800D01*
X47459600Y-138881800D02*
X43059600Y-138881800D01*
X47459600Y-138881800D02*
X47459600Y-138481800D01*
X42659600Y-138881800D02*
X43059600Y-138881800D01*
X42659600Y-138881800D02*
X42659600Y-138481800D01*
X42659600Y-129081800D02*
X42659600Y-128681800D01*
X42659600Y-128681800D02*
X43059600Y-128681800D01*
D10*
X129654300Y-154521200D02*
X129654300Y-121501200D01*
X129654300Y-121501200D02*
X101714300Y-121501200D01*
X101714300Y-121501200D02*
X101714300Y-154521200D01*
X101714300Y-154521200D02*
X129654300Y-154521200D01*
X134563800Y-154521200D02*
X162503800Y-154521200D01*
X134563800Y-121501200D02*
X134563800Y-154521200D01*
X162503800Y-121501200D02*
X134563800Y-121501200D01*
X162503800Y-154521200D02*
X162503800Y-121501200D01*
X95656400Y-154521200D02*
X95656400Y-121501200D01*
X95656400Y-121501200D02*
X67716400Y-121501200D01*
X67716400Y-121501200D02*
X67716400Y-154521200D01*
X67716400Y-154521200D02*
X95656400Y-154521200D01*
X140462000Y-75133200D02*
X148082000Y-75133200D01*
X148082000Y-75133200D02*
X148082000Y-92913200D01*
X148082000Y-92913200D02*
X140462000Y-92913200D01*
X140462000Y-92913200D02*
X140462000Y-75133200D01*
X158783000Y-49606200D02*
X138143000Y-49606200D01*
X138143000Y-49606200D02*
X138143000Y-64846200D01*
X138143000Y-64846200D02*
X158783000Y-64846200D01*
X158783000Y-64846200D02*
X158783000Y-49606200D01*
D11*
X148203600Y-109461600D02*
X148203600Y-109861600D01*
X147803600Y-109461600D02*
X148203600Y-109461600D01*
X138003600Y-109461600D02*
X138403600Y-109461600D01*
X138003600Y-109461600D02*
X138003600Y-109861600D01*
X138003600Y-114261600D02*
X138403600Y-114261600D01*
X138003600Y-114261600D02*
X138003600Y-109861600D01*
X148203600Y-114261600D02*
X147803600Y-114261600D01*
X148203600Y-114261600D02*
X148203600Y-113861600D01*
X138003600Y-110571600D02*
X148103600Y-110571600D01*
D10*
X54229000Y-31419800D02*
X64389000Y-31419800D01*
X64389000Y-31419800D02*
X64389000Y-41579800D01*
X54229000Y-41579800D02*
X54229000Y-31419800D01*
X54229000Y-41579800D02*
X54229000Y-44754800D01*
X54229000Y-44754800D02*
X64389000Y-44754800D01*
X64389000Y-44754800D02*
X64389000Y-41579800D01*
X52056500Y-62001400D02*
X52056500Y-51841400D01*
X52056500Y-51841400D02*
X62216500Y-51841400D01*
X62216500Y-62001400D02*
X52056500Y-62001400D01*
X62216500Y-62001400D02*
X65391500Y-62001400D01*
X65391500Y-62001400D02*
X65391500Y-51841400D01*
X65391500Y-51841400D02*
X62216500Y-51841400D01*
X52056500Y-110515400D02*
X52056500Y-100355400D01*
X52056500Y-100355400D02*
X62216500Y-100355400D01*
X62216500Y-110515400D02*
X52056500Y-110515400D01*
X62216500Y-110515400D02*
X65391500Y-110515400D01*
X65391500Y-110515400D02*
X65391500Y-100355400D01*
X65391500Y-100355400D02*
X62216500Y-100355400D01*
X65391500Y-76250800D02*
X62216500Y-76250800D01*
X65391500Y-86410800D02*
X65391500Y-76250800D01*
X62216500Y-86410800D02*
X65391500Y-86410800D01*
X62216500Y-86410800D02*
X52056500Y-86410800D01*
X52056500Y-76250800D02*
X62216500Y-76250800D01*
X52056500Y-86410800D02*
X52056500Y-76250800D01*
D12*
X133381904Y-112939580D02*
X133381904Y-113749104D01*
X133429523Y-113844342D01*
X133477142Y-113891961D01*
X133572380Y-113939580D01*
X133762857Y-113939580D01*
X133858095Y-113891961D01*
X133905714Y-113844342D01*
X133953333Y-113749104D01*
X133953333Y-112939580D01*
X134953333Y-113939580D02*
X134381904Y-113939580D01*
X134667619Y-113939580D02*
X134667619Y-112939580D01*
X134572380Y-113082438D01*
X134477142Y-113177676D01*
X134381904Y-113225295D01*
X135810476Y-113272914D02*
X135810476Y-113939580D01*
X135572380Y-112891961D02*
X135334285Y-113606247D01*
X135953333Y-113606247D01*
X44386666Y-147382380D02*
X44053333Y-146906190D01*
X43815238Y-147382380D02*
X43815238Y-146382380D01*
X44196190Y-146382380D01*
X44291428Y-146430000D01*
X44339047Y-146477619D01*
X44386666Y-146572857D01*
X44386666Y-146715714D01*
X44339047Y-146810952D01*
X44291428Y-146858571D01*
X44196190Y-146906190D01*
X43815238Y-146906190D01*
X44815238Y-146858571D02*
X45148571Y-146858571D01*
X45291428Y-147382380D02*
X44815238Y-147382380D01*
X44815238Y-146382380D01*
X45291428Y-146382380D01*
X46053333Y-146858571D02*
X45720000Y-146858571D01*
X45720000Y-147382380D02*
X45720000Y-146382380D01*
X46196190Y-146382380D01*
X46720000Y-146382380D02*
X46720000Y-146620476D01*
X46481904Y-146525238D02*
X46720000Y-146620476D01*
X46958095Y-146525238D01*
X46577142Y-146810952D02*
X46720000Y-146620476D01*
X46862857Y-146810952D01*
X47481904Y-146382380D02*
X47481904Y-146620476D01*
X47243809Y-146525238D02*
X47481904Y-146620476D01*
X47720000Y-146525238D01*
X47339047Y-146810952D02*
X47481904Y-146620476D01*
X47624761Y-146810952D01*
X44386666Y-20382380D02*
X44053333Y-19906190D01*
X43815238Y-20382380D02*
X43815238Y-19382380D01*
X44196190Y-19382380D01*
X44291428Y-19430000D01*
X44339047Y-19477619D01*
X44386666Y-19572857D01*
X44386666Y-19715714D01*
X44339047Y-19810952D01*
X44291428Y-19858571D01*
X44196190Y-19906190D01*
X43815238Y-19906190D01*
X44815238Y-19858571D02*
X45148571Y-19858571D01*
X45291428Y-20382380D02*
X44815238Y-20382380D01*
X44815238Y-19382380D01*
X45291428Y-19382380D01*
X46053333Y-19858571D02*
X45720000Y-19858571D01*
X45720000Y-20382380D02*
X45720000Y-19382380D01*
X46196190Y-19382380D01*
X46720000Y-19382380D02*
X46720000Y-19620476D01*
X46481904Y-19525238D02*
X46720000Y-19620476D01*
X46958095Y-19525238D01*
X46577142Y-19810952D02*
X46720000Y-19620476D01*
X46862857Y-19810952D01*
X47481904Y-19382380D02*
X47481904Y-19620476D01*
X47243809Y-19525238D02*
X47481904Y-19620476D01*
X47720000Y-19525238D01*
X47339047Y-19810952D02*
X47481904Y-19620476D01*
X47624761Y-19810952D01*
X170116666Y-20382380D02*
X169783333Y-19906190D01*
X169545238Y-20382380D02*
X169545238Y-19382380D01*
X169926190Y-19382380D01*
X170021428Y-19430000D01*
X170069047Y-19477619D01*
X170116666Y-19572857D01*
X170116666Y-19715714D01*
X170069047Y-19810952D01*
X170021428Y-19858571D01*
X169926190Y-19906190D01*
X169545238Y-19906190D01*
X170545238Y-19858571D02*
X170878571Y-19858571D01*
X171021428Y-20382380D02*
X170545238Y-20382380D01*
X170545238Y-19382380D01*
X171021428Y-19382380D01*
X171783333Y-19858571D02*
X171450000Y-19858571D01*
X171450000Y-20382380D02*
X171450000Y-19382380D01*
X171926190Y-19382380D01*
X172450000Y-19382380D02*
X172450000Y-19620476D01*
X172211904Y-19525238D02*
X172450000Y-19620476D01*
X172688095Y-19525238D01*
X172307142Y-19810952D02*
X172450000Y-19620476D01*
X172592857Y-19810952D01*
X173211904Y-19382380D02*
X173211904Y-19620476D01*
X172973809Y-19525238D02*
X173211904Y-19620476D01*
X173450000Y-19525238D01*
X173069047Y-19810952D02*
X173211904Y-19620476D01*
X173354761Y-19810952D01*
X170116666Y-147382380D02*
X169783333Y-146906190D01*
X169545238Y-147382380D02*
X169545238Y-146382380D01*
X169926190Y-146382380D01*
X170021428Y-146430000D01*
X170069047Y-146477619D01*
X170116666Y-146572857D01*
X170116666Y-146715714D01*
X170069047Y-146810952D01*
X170021428Y-146858571D01*
X169926190Y-146906190D01*
X169545238Y-146906190D01*
X170545238Y-146858571D02*
X170878571Y-146858571D01*
X171021428Y-147382380D02*
X170545238Y-147382380D01*
X170545238Y-146382380D01*
X171021428Y-146382380D01*
X171783333Y-146858571D02*
X171450000Y-146858571D01*
X171450000Y-147382380D02*
X171450000Y-146382380D01*
X171926190Y-146382380D01*
X172450000Y-146382380D02*
X172450000Y-146620476D01*
X172211904Y-146525238D02*
X172450000Y-146620476D01*
X172688095Y-146525238D01*
X172307142Y-146810952D02*
X172450000Y-146620476D01*
X172592857Y-146810952D01*
X173211904Y-146382380D02*
X173211904Y-146620476D01*
X172973809Y-146525238D02*
X173211904Y-146620476D01*
X173450000Y-146525238D01*
X173069047Y-146810952D02*
X173211904Y-146620476D01*
X173354761Y-146810952D01*
X32325780Y-134565304D02*
X33135304Y-134565304D01*
X33230542Y-134517685D01*
X33278161Y-134470066D01*
X33325780Y-134374828D01*
X33325780Y-134184352D01*
X33278161Y-134089114D01*
X33230542Y-134041495D01*
X33135304Y-133993876D01*
X32325780Y-133993876D01*
X33325780Y-132993876D02*
X33325780Y-133565304D01*
X33325780Y-133279590D02*
X32325780Y-133279590D01*
X32468638Y-133374828D01*
X32563876Y-133470066D01*
X32611495Y-133565304D01*
X61936333Y-128425142D02*
X61888714Y-128472761D01*
X61745857Y-128520380D01*
X61650619Y-128520380D01*
X61507761Y-128472761D01*
X61412523Y-128377523D01*
X61364904Y-128282285D01*
X61317285Y-128091809D01*
X61317285Y-127948952D01*
X61364904Y-127758476D01*
X61412523Y-127663238D01*
X61507761Y-127568000D01*
X61650619Y-127520380D01*
X61745857Y-127520380D01*
X61888714Y-127568000D01*
X61936333Y-127615619D01*
X62793476Y-127853714D02*
X62793476Y-128520380D01*
X62555380Y-127472761D02*
X62317285Y-128187047D01*
X62936333Y-128187047D01*
X54494133Y-136398342D02*
X54446514Y-136445961D01*
X54303657Y-136493580D01*
X54208419Y-136493580D01*
X54065561Y-136445961D01*
X53970323Y-136350723D01*
X53922704Y-136255485D01*
X53875085Y-136065009D01*
X53875085Y-135922152D01*
X53922704Y-135731676D01*
X53970323Y-135636438D01*
X54065561Y-135541200D01*
X54208419Y-135493580D01*
X54303657Y-135493580D01*
X54446514Y-135541200D01*
X54494133Y-135588819D01*
X54827466Y-135493580D02*
X55446514Y-135493580D01*
X55113180Y-135874533D01*
X55256038Y-135874533D01*
X55351276Y-135922152D01*
X55398895Y-135969771D01*
X55446514Y-136065009D01*
X55446514Y-136303104D01*
X55398895Y-136398342D01*
X55351276Y-136445961D01*
X55256038Y-136493580D01*
X54970323Y-136493580D01*
X54875085Y-136445961D01*
X54827466Y-136398342D01*
X41725942Y-121830066D02*
X41773561Y-121877685D01*
X41821180Y-122020542D01*
X41821180Y-122115780D01*
X41773561Y-122258638D01*
X41678323Y-122353876D01*
X41583085Y-122401495D01*
X41392609Y-122449114D01*
X41249752Y-122449114D01*
X41059276Y-122401495D01*
X40964038Y-122353876D01*
X40868800Y-122258638D01*
X40821180Y-122115780D01*
X40821180Y-122020542D01*
X40868800Y-121877685D01*
X40916419Y-121830066D01*
X41821180Y-120877685D02*
X41821180Y-121449114D01*
X41821180Y-121163400D02*
X40821180Y-121163400D01*
X40964038Y-121258638D01*
X41059276Y-121353876D01*
X41106895Y-121449114D01*
X47371333Y-127494942D02*
X47323714Y-127542561D01*
X47180857Y-127590180D01*
X47085619Y-127590180D01*
X46942761Y-127542561D01*
X46847523Y-127447323D01*
X46799904Y-127352085D01*
X46752285Y-127161609D01*
X46752285Y-127018752D01*
X46799904Y-126828276D01*
X46847523Y-126733038D01*
X46942761Y-126637800D01*
X47085619Y-126590180D01*
X47180857Y-126590180D01*
X47323714Y-126637800D01*
X47371333Y-126685419D01*
X47752285Y-126685419D02*
X47799904Y-126637800D01*
X47895142Y-126590180D01*
X48133238Y-126590180D01*
X48228476Y-126637800D01*
X48276095Y-126685419D01*
X48323714Y-126780657D01*
X48323714Y-126875895D01*
X48276095Y-127018752D01*
X47704666Y-127590180D01*
X48323714Y-127590180D01*
X57317342Y-20151542D02*
X57269723Y-20199161D01*
X57126866Y-20246780D01*
X57031628Y-20246780D01*
X56888771Y-20199161D01*
X56793533Y-20103923D01*
X56745914Y-20008685D01*
X56698295Y-19818209D01*
X56698295Y-19675352D01*
X56745914Y-19484876D01*
X56793533Y-19389638D01*
X56888771Y-19294400D01*
X57031628Y-19246780D01*
X57126866Y-19246780D01*
X57269723Y-19294400D01*
X57317342Y-19342019D01*
X58269723Y-20246780D02*
X57698295Y-20246780D01*
X57984009Y-20246780D02*
X57984009Y-19246780D01*
X57888771Y-19389638D01*
X57793533Y-19484876D01*
X57698295Y-19532495D01*
X58603057Y-19246780D02*
X59269723Y-19246780D01*
X58841152Y-20246780D01*
X61233642Y-46167942D02*
X61186023Y-46215561D01*
X61043166Y-46263180D01*
X60947928Y-46263180D01*
X60805071Y-46215561D01*
X60709833Y-46120323D01*
X60662214Y-46025085D01*
X60614595Y-45834609D01*
X60614595Y-45691752D01*
X60662214Y-45501276D01*
X60709833Y-45406038D01*
X60805071Y-45310800D01*
X60947928Y-45263180D01*
X61043166Y-45263180D01*
X61186023Y-45310800D01*
X61233642Y-45358419D01*
X62186023Y-46263180D02*
X61614595Y-46263180D01*
X61900309Y-46263180D02*
X61900309Y-45263180D01*
X61805071Y-45406038D01*
X61709833Y-45501276D01*
X61614595Y-45548895D01*
X62757452Y-45691752D02*
X62662214Y-45644133D01*
X62614595Y-45596514D01*
X62566976Y-45501276D01*
X62566976Y-45453657D01*
X62614595Y-45358419D01*
X62662214Y-45310800D01*
X62757452Y-45263180D01*
X62947928Y-45263180D01*
X63043166Y-45310800D01*
X63090785Y-45358419D01*
X63138404Y-45453657D01*
X63138404Y-45501276D01*
X63090785Y-45596514D01*
X63043166Y-45644133D01*
X62947928Y-45691752D01*
X62757452Y-45691752D01*
X62662214Y-45739371D01*
X62614595Y-45786990D01*
X62566976Y-45882228D01*
X62566976Y-46072704D01*
X62614595Y-46167942D01*
X62662214Y-46215561D01*
X62757452Y-46263180D01*
X62947928Y-46263180D01*
X63043166Y-46215561D01*
X63090785Y-46167942D01*
X63138404Y-46072704D01*
X63138404Y-45882228D01*
X63090785Y-45786990D01*
X63043166Y-45739371D01*
X62947928Y-45691752D01*
X61783642Y-66926057D02*
X61831261Y-66973676D01*
X61878880Y-67116533D01*
X61878880Y-67211771D01*
X61831261Y-67354628D01*
X61736023Y-67449866D01*
X61640785Y-67497485D01*
X61450309Y-67545104D01*
X61307452Y-67545104D01*
X61116976Y-67497485D01*
X61021738Y-67449866D01*
X60926500Y-67354628D01*
X60878880Y-67211771D01*
X60878880Y-67116533D01*
X60926500Y-66973676D01*
X60974119Y-66926057D01*
X61878880Y-65973676D02*
X61878880Y-66545104D01*
X61878880Y-66259390D02*
X60878880Y-66259390D01*
X61021738Y-66354628D01*
X61116976Y-66449866D01*
X61164595Y-66545104D01*
X61878880Y-65497485D02*
X61878880Y-65307009D01*
X61831261Y-65211771D01*
X61783642Y-65164152D01*
X61640785Y-65068914D01*
X61450309Y-65021295D01*
X61069357Y-65021295D01*
X60974119Y-65068914D01*
X60926500Y-65116533D01*
X60878880Y-65211771D01*
X60878880Y-65402247D01*
X60926500Y-65497485D01*
X60974119Y-65545104D01*
X61069357Y-65592723D01*
X61307452Y-65592723D01*
X61402690Y-65545104D01*
X61450309Y-65497485D01*
X61497928Y-65402247D01*
X61497928Y-65211771D01*
X61450309Y-65116533D01*
X61402690Y-65068914D01*
X61307452Y-65021295D01*
X57369342Y-66926057D02*
X57416961Y-66973676D01*
X57464580Y-67116533D01*
X57464580Y-67211771D01*
X57416961Y-67354628D01*
X57321723Y-67449866D01*
X57226485Y-67497485D01*
X57036009Y-67545104D01*
X56893152Y-67545104D01*
X56702676Y-67497485D01*
X56607438Y-67449866D01*
X56512200Y-67354628D01*
X56464580Y-67211771D01*
X56464580Y-67116533D01*
X56512200Y-66973676D01*
X56559819Y-66926057D01*
X56559819Y-66545104D02*
X56512200Y-66497485D01*
X56464580Y-66402247D01*
X56464580Y-66164152D01*
X56512200Y-66068914D01*
X56559819Y-66021295D01*
X56655057Y-65973676D01*
X56750295Y-65973676D01*
X56893152Y-66021295D01*
X57464580Y-66592723D01*
X57464580Y-65973676D01*
X56464580Y-65354628D02*
X56464580Y-65259390D01*
X56512200Y-65164152D01*
X56559819Y-65116533D01*
X56655057Y-65068914D01*
X56845533Y-65021295D01*
X57083628Y-65021295D01*
X57274104Y-65068914D01*
X57369342Y-65116533D01*
X57416961Y-65164152D01*
X57464580Y-65259390D01*
X57464580Y-65354628D01*
X57416961Y-65449866D01*
X57369342Y-65497485D01*
X57274104Y-65545104D01*
X57083628Y-65592723D01*
X56845533Y-65592723D01*
X56655057Y-65545104D01*
X56559819Y-65497485D01*
X56512200Y-65449866D01*
X56464580Y-65354628D01*
X37125542Y-103502057D02*
X37173161Y-103549676D01*
X37220780Y-103692533D01*
X37220780Y-103787771D01*
X37173161Y-103930628D01*
X37077923Y-104025866D01*
X36982685Y-104073485D01*
X36792209Y-104121104D01*
X36649352Y-104121104D01*
X36458876Y-104073485D01*
X36363638Y-104025866D01*
X36268400Y-103930628D01*
X36220780Y-103787771D01*
X36220780Y-103692533D01*
X36268400Y-103549676D01*
X36316019Y-103502057D01*
X36316019Y-103121104D02*
X36268400Y-103073485D01*
X36220780Y-102978247D01*
X36220780Y-102740152D01*
X36268400Y-102644914D01*
X36316019Y-102597295D01*
X36411257Y-102549676D01*
X36506495Y-102549676D01*
X36649352Y-102597295D01*
X37220780Y-103168723D01*
X37220780Y-102549676D01*
X37220780Y-101597295D02*
X37220780Y-102168723D01*
X37220780Y-101883009D02*
X36220780Y-101883009D01*
X36363638Y-101978247D01*
X36458876Y-102073485D01*
X36506495Y-102168723D01*
X61349842Y-100610942D02*
X61302223Y-100658561D01*
X61159366Y-100706180D01*
X61064128Y-100706180D01*
X60921271Y-100658561D01*
X60826033Y-100563323D01*
X60778414Y-100468085D01*
X60730795Y-100277609D01*
X60730795Y-100134752D01*
X60778414Y-99944276D01*
X60826033Y-99849038D01*
X60921271Y-99753800D01*
X61064128Y-99706180D01*
X61159366Y-99706180D01*
X61302223Y-99753800D01*
X61349842Y-99801419D01*
X61730795Y-99801419D02*
X61778414Y-99753800D01*
X61873652Y-99706180D01*
X62111747Y-99706180D01*
X62206985Y-99753800D01*
X62254604Y-99801419D01*
X62302223Y-99896657D01*
X62302223Y-99991895D01*
X62254604Y-100134752D01*
X61683176Y-100706180D01*
X62302223Y-100706180D01*
X62683176Y-99801419D02*
X62730795Y-99753800D01*
X62826033Y-99706180D01*
X63064128Y-99706180D01*
X63159366Y-99753800D01*
X63206985Y-99801419D01*
X63254604Y-99896657D01*
X63254604Y-99991895D01*
X63206985Y-100134752D01*
X62635557Y-100706180D01*
X63254604Y-100706180D01*
X62333142Y-115516257D02*
X62380761Y-115563876D01*
X62428380Y-115706733D01*
X62428380Y-115801971D01*
X62380761Y-115944828D01*
X62285523Y-116040066D01*
X62190285Y-116087685D01*
X61999809Y-116135304D01*
X61856952Y-116135304D01*
X61666476Y-116087685D01*
X61571238Y-116040066D01*
X61476000Y-115944828D01*
X61428380Y-115801971D01*
X61428380Y-115706733D01*
X61476000Y-115563876D01*
X61523619Y-115516257D01*
X61523619Y-115135304D02*
X61476000Y-115087685D01*
X61428380Y-114992447D01*
X61428380Y-114754352D01*
X61476000Y-114659114D01*
X61523619Y-114611495D01*
X61618857Y-114563876D01*
X61714095Y-114563876D01*
X61856952Y-114611495D01*
X62428380Y-115182923D01*
X62428380Y-114563876D01*
X61428380Y-114230542D02*
X61428380Y-113611495D01*
X61809333Y-113944828D01*
X61809333Y-113801971D01*
X61856952Y-113706733D01*
X61904571Y-113659114D01*
X61999809Y-113611495D01*
X62237904Y-113611495D01*
X62333142Y-113659114D01*
X62380761Y-113706733D01*
X62428380Y-113801971D01*
X62428380Y-114087685D01*
X62380761Y-114182923D01*
X62333142Y-114230542D01*
X66468042Y-115465457D02*
X66515661Y-115513076D01*
X66563280Y-115655933D01*
X66563280Y-115751171D01*
X66515661Y-115894028D01*
X66420423Y-115989266D01*
X66325185Y-116036885D01*
X66134709Y-116084504D01*
X65991852Y-116084504D01*
X65801376Y-116036885D01*
X65706138Y-115989266D01*
X65610900Y-115894028D01*
X65563280Y-115751171D01*
X65563280Y-115655933D01*
X65610900Y-115513076D01*
X65658519Y-115465457D01*
X65658519Y-115084504D02*
X65610900Y-115036885D01*
X65563280Y-114941647D01*
X65563280Y-114703552D01*
X65610900Y-114608314D01*
X65658519Y-114560695D01*
X65753757Y-114513076D01*
X65848995Y-114513076D01*
X65991852Y-114560695D01*
X66563280Y-115132123D01*
X66563280Y-114513076D01*
X65896614Y-113655933D02*
X66563280Y-113655933D01*
X65515661Y-113894028D02*
X66229947Y-114132123D01*
X66229947Y-113513076D01*
X61233642Y-71872742D02*
X61186023Y-71920361D01*
X61043166Y-71967980D01*
X60947928Y-71967980D01*
X60805071Y-71920361D01*
X60709833Y-71825123D01*
X60662214Y-71729885D01*
X60614595Y-71539409D01*
X60614595Y-71396552D01*
X60662214Y-71206076D01*
X60709833Y-71110838D01*
X60805071Y-71015600D01*
X60947928Y-70967980D01*
X61043166Y-70967980D01*
X61186023Y-71015600D01*
X61233642Y-71063219D01*
X61614595Y-71063219D02*
X61662214Y-71015600D01*
X61757452Y-70967980D01*
X61995547Y-70967980D01*
X62090785Y-71015600D01*
X62138404Y-71063219D01*
X62186023Y-71158457D01*
X62186023Y-71253695D01*
X62138404Y-71396552D01*
X61566976Y-71967980D01*
X62186023Y-71967980D01*
X63090785Y-70967980D02*
X62614595Y-70967980D01*
X62566976Y-71444171D01*
X62614595Y-71396552D01*
X62709833Y-71348933D01*
X62947928Y-71348933D01*
X63043166Y-71396552D01*
X63090785Y-71444171D01*
X63138404Y-71539409D01*
X63138404Y-71777504D01*
X63090785Y-71872742D01*
X63043166Y-71920361D01*
X62947928Y-71967980D01*
X62709833Y-71967980D01*
X62614595Y-71920361D01*
X62566976Y-71872742D01*
X58029742Y-90979857D02*
X58077361Y-91027476D01*
X58124980Y-91170333D01*
X58124980Y-91265571D01*
X58077361Y-91408428D01*
X57982123Y-91503666D01*
X57886885Y-91551285D01*
X57696409Y-91598904D01*
X57553552Y-91598904D01*
X57363076Y-91551285D01*
X57267838Y-91503666D01*
X57172600Y-91408428D01*
X57124980Y-91265571D01*
X57124980Y-91170333D01*
X57172600Y-91027476D01*
X57220219Y-90979857D01*
X57220219Y-90598904D02*
X57172600Y-90551285D01*
X57124980Y-90456047D01*
X57124980Y-90217952D01*
X57172600Y-90122714D01*
X57220219Y-90075095D01*
X57315457Y-90027476D01*
X57410695Y-90027476D01*
X57553552Y-90075095D01*
X58124980Y-90646523D01*
X58124980Y-90027476D01*
X57124980Y-89170333D02*
X57124980Y-89360809D01*
X57172600Y-89456047D01*
X57220219Y-89503666D01*
X57363076Y-89598904D01*
X57553552Y-89646523D01*
X57934504Y-89646523D01*
X58029742Y-89598904D01*
X58077361Y-89551285D01*
X58124980Y-89456047D01*
X58124980Y-89265571D01*
X58077361Y-89170333D01*
X58029742Y-89122714D01*
X57934504Y-89075095D01*
X57696409Y-89075095D01*
X57601171Y-89122714D01*
X57553552Y-89170333D01*
X57505933Y-89265571D01*
X57505933Y-89456047D01*
X57553552Y-89551285D01*
X57601171Y-89598904D01*
X57696409Y-89646523D01*
X61783642Y-90827457D02*
X61831261Y-90875076D01*
X61878880Y-91017933D01*
X61878880Y-91113171D01*
X61831261Y-91256028D01*
X61736023Y-91351266D01*
X61640785Y-91398885D01*
X61450309Y-91446504D01*
X61307452Y-91446504D01*
X61116976Y-91398885D01*
X61021738Y-91351266D01*
X60926500Y-91256028D01*
X60878880Y-91113171D01*
X60878880Y-91017933D01*
X60926500Y-90875076D01*
X60974119Y-90827457D01*
X60974119Y-90446504D02*
X60926500Y-90398885D01*
X60878880Y-90303647D01*
X60878880Y-90065552D01*
X60926500Y-89970314D01*
X60974119Y-89922695D01*
X61069357Y-89875076D01*
X61164595Y-89875076D01*
X61307452Y-89922695D01*
X61878880Y-90494123D01*
X61878880Y-89875076D01*
X60878880Y-89541742D02*
X60878880Y-88875076D01*
X61878880Y-89303647D01*
X37201742Y-87525457D02*
X37249361Y-87573076D01*
X37296980Y-87715933D01*
X37296980Y-87811171D01*
X37249361Y-87954028D01*
X37154123Y-88049266D01*
X37058885Y-88096885D01*
X36868409Y-88144504D01*
X36725552Y-88144504D01*
X36535076Y-88096885D01*
X36439838Y-88049266D01*
X36344600Y-87954028D01*
X36296980Y-87811171D01*
X36296980Y-87715933D01*
X36344600Y-87573076D01*
X36392219Y-87525457D01*
X36392219Y-87144504D02*
X36344600Y-87096885D01*
X36296980Y-87001647D01*
X36296980Y-86763552D01*
X36344600Y-86668314D01*
X36392219Y-86620695D01*
X36487457Y-86573076D01*
X36582695Y-86573076D01*
X36725552Y-86620695D01*
X37296980Y-87192123D01*
X37296980Y-86573076D01*
X36725552Y-86001647D02*
X36677933Y-86096885D01*
X36630314Y-86144504D01*
X36535076Y-86192123D01*
X36487457Y-86192123D01*
X36392219Y-86144504D01*
X36344600Y-86096885D01*
X36296980Y-86001647D01*
X36296980Y-85811171D01*
X36344600Y-85715933D01*
X36392219Y-85668314D01*
X36487457Y-85620695D01*
X36535076Y-85620695D01*
X36630314Y-85668314D01*
X36677933Y-85715933D01*
X36725552Y-85811171D01*
X36725552Y-86001647D01*
X36773171Y-86096885D01*
X36820790Y-86144504D01*
X36916028Y-86192123D01*
X37106504Y-86192123D01*
X37201742Y-86144504D01*
X37249361Y-86096885D01*
X37296980Y-86001647D01*
X37296980Y-85811171D01*
X37249361Y-85715933D01*
X37201742Y-85668314D01*
X37106504Y-85620695D01*
X36916028Y-85620695D01*
X36820790Y-85668314D01*
X36773171Y-85715933D01*
X36725552Y-85811171D01*
X37633542Y-71523457D02*
X37681161Y-71571076D01*
X37728780Y-71713933D01*
X37728780Y-71809171D01*
X37681161Y-71952028D01*
X37585923Y-72047266D01*
X37490685Y-72094885D01*
X37300209Y-72142504D01*
X37157352Y-72142504D01*
X36966876Y-72094885D01*
X36871638Y-72047266D01*
X36776400Y-71952028D01*
X36728780Y-71809171D01*
X36728780Y-71713933D01*
X36776400Y-71571076D01*
X36824019Y-71523457D01*
X36824019Y-71142504D02*
X36776400Y-71094885D01*
X36728780Y-70999647D01*
X36728780Y-70761552D01*
X36776400Y-70666314D01*
X36824019Y-70618695D01*
X36919257Y-70571076D01*
X37014495Y-70571076D01*
X37157352Y-70618695D01*
X37728780Y-71190123D01*
X37728780Y-70571076D01*
X37728780Y-70094885D02*
X37728780Y-69904409D01*
X37681161Y-69809171D01*
X37633542Y-69761552D01*
X37490685Y-69666314D01*
X37300209Y-69618695D01*
X36919257Y-69618695D01*
X36824019Y-69666314D01*
X36776400Y-69713933D01*
X36728780Y-69809171D01*
X36728780Y-69999647D01*
X36776400Y-70094885D01*
X36824019Y-70142504D01*
X36919257Y-70190123D01*
X37157352Y-70190123D01*
X37252590Y-70142504D01*
X37300209Y-70094885D01*
X37347828Y-69999647D01*
X37347828Y-69809171D01*
X37300209Y-69713933D01*
X37252590Y-69666314D01*
X37157352Y-69618695D01*
X144791466Y-33229180D02*
X144791466Y-33943466D01*
X144743847Y-34086323D01*
X144648609Y-34181561D01*
X144505752Y-34229180D01*
X144410514Y-34229180D01*
X145791466Y-34229180D02*
X145220038Y-34229180D01*
X145505752Y-34229180D02*
X145505752Y-33229180D01*
X145410514Y-33372038D01*
X145315276Y-33467276D01*
X145220038Y-33514895D01*
X156755466Y-33229180D02*
X156755466Y-33943466D01*
X156707847Y-34086323D01*
X156612609Y-34181561D01*
X156469752Y-34229180D01*
X156374514Y-34229180D01*
X157374514Y-33657752D02*
X157279276Y-33610133D01*
X157231657Y-33562514D01*
X157184038Y-33467276D01*
X157184038Y-33419657D01*
X157231657Y-33324419D01*
X157279276Y-33276800D01*
X157374514Y-33229180D01*
X157564990Y-33229180D01*
X157660228Y-33276800D01*
X157707847Y-33324419D01*
X157755466Y-33419657D01*
X157755466Y-33467276D01*
X157707847Y-33562514D01*
X157660228Y-33610133D01*
X157564990Y-33657752D01*
X157374514Y-33657752D01*
X157279276Y-33705371D01*
X157231657Y-33752990D01*
X157184038Y-33848228D01*
X157184038Y-34038704D01*
X157231657Y-34133942D01*
X157279276Y-34181561D01*
X157374514Y-34229180D01*
X157564990Y-34229180D01*
X157660228Y-34181561D01*
X157707847Y-34133942D01*
X157755466Y-34038704D01*
X157755466Y-33848228D01*
X157707847Y-33752990D01*
X157660228Y-33705371D01*
X157564990Y-33657752D01*
X32514266Y-140960980D02*
X32514266Y-141675266D01*
X32466647Y-141818123D01*
X32371409Y-141913361D01*
X32228552Y-141960980D01*
X32133314Y-141960980D01*
X33038076Y-141960980D02*
X33228552Y-141960980D01*
X33323790Y-141913361D01*
X33371409Y-141865742D01*
X33466647Y-141722885D01*
X33514266Y-141532409D01*
X33514266Y-141151457D01*
X33466647Y-141056219D01*
X33419028Y-141008600D01*
X33323790Y-140960980D01*
X33133314Y-140960980D01*
X33038076Y-141008600D01*
X32990457Y-141056219D01*
X32942838Y-141151457D01*
X32942838Y-141389552D01*
X32990457Y-141484790D01*
X33038076Y-141532409D01*
X33133314Y-141580028D01*
X33323790Y-141580028D01*
X33419028Y-141532409D01*
X33466647Y-141484790D01*
X33514266Y-141389552D01*
X27399980Y-74240923D02*
X28114266Y-74240923D01*
X28257123Y-74288542D01*
X28352361Y-74383780D01*
X28399980Y-74526638D01*
X28399980Y-74621876D01*
X28399980Y-73240923D02*
X28399980Y-73812352D01*
X28399980Y-73526638D02*
X27399980Y-73526638D01*
X27542838Y-73621876D01*
X27638076Y-73717114D01*
X27685695Y-73812352D01*
X28399980Y-72288542D02*
X28399980Y-72859971D01*
X28399980Y-72574257D02*
X27399980Y-72574257D01*
X27542838Y-72669495D01*
X27638076Y-72764733D01*
X27685695Y-72859971D01*
X27399980Y-90217523D02*
X28114266Y-90217523D01*
X28257123Y-90265142D01*
X28352361Y-90360380D01*
X28399980Y-90503238D01*
X28399980Y-90598476D01*
X28399980Y-89217523D02*
X28399980Y-89788952D01*
X28399980Y-89503238D02*
X27399980Y-89503238D01*
X27542838Y-89598476D01*
X27638076Y-89693714D01*
X27685695Y-89788952D01*
X27495219Y-88836571D02*
X27447600Y-88788952D01*
X27399980Y-88693714D01*
X27399980Y-88455619D01*
X27447600Y-88360380D01*
X27495219Y-88312761D01*
X27590457Y-88265142D01*
X27685695Y-88265142D01*
X27828552Y-88312761D01*
X28399980Y-88884190D01*
X28399980Y-88265142D01*
X27399980Y-106194123D02*
X28114266Y-106194123D01*
X28257123Y-106241742D01*
X28352361Y-106336980D01*
X28399980Y-106479838D01*
X28399980Y-106575076D01*
X28399980Y-105194123D02*
X28399980Y-105765552D01*
X28399980Y-105479838D02*
X27399980Y-105479838D01*
X27542838Y-105575076D01*
X27638076Y-105670314D01*
X27685695Y-105765552D01*
X27399980Y-104860790D02*
X27399980Y-104241742D01*
X27780933Y-104575076D01*
X27780933Y-104432219D01*
X27828552Y-104336980D01*
X27876171Y-104289361D01*
X27971409Y-104241742D01*
X28209504Y-104241742D01*
X28304742Y-104289361D01*
X28352361Y-104336980D01*
X28399980Y-104432219D01*
X28399980Y-104717933D01*
X28352361Y-104813171D01*
X28304742Y-104860790D01*
X159688233Y-73274420D02*
X159354900Y-72798230D01*
X159116804Y-73274420D02*
X159116804Y-72274420D01*
X159497757Y-72274420D01*
X159592995Y-72322040D01*
X159640614Y-72369659D01*
X159688233Y-72464897D01*
X159688233Y-72607754D01*
X159640614Y-72702992D01*
X159592995Y-72750611D01*
X159497757Y-72798230D01*
X159116804Y-72798230D01*
X160259661Y-72702992D02*
X160164423Y-72655373D01*
X160116804Y-72607754D01*
X160069185Y-72512516D01*
X160069185Y-72464897D01*
X160116804Y-72369659D01*
X160164423Y-72322040D01*
X160259661Y-72274420D01*
X160450138Y-72274420D01*
X160545376Y-72322040D01*
X160592995Y-72369659D01*
X160640614Y-72464897D01*
X160640614Y-72512516D01*
X160592995Y-72607754D01*
X160545376Y-72655373D01*
X160450138Y-72702992D01*
X160259661Y-72702992D01*
X160164423Y-72750611D01*
X160116804Y-72798230D01*
X160069185Y-72893468D01*
X160069185Y-73083944D01*
X160116804Y-73179182D01*
X160164423Y-73226801D01*
X160259661Y-73274420D01*
X160450138Y-73274420D01*
X160545376Y-73226801D01*
X160592995Y-73179182D01*
X160640614Y-73083944D01*
X160640614Y-72893468D01*
X160592995Y-72798230D01*
X160545376Y-72750611D01*
X160450138Y-72702992D01*
X160043833Y-90744540D02*
X159710500Y-90268350D01*
X159472404Y-90744540D02*
X159472404Y-89744540D01*
X159853357Y-89744540D01*
X159948595Y-89792160D01*
X159996214Y-89839779D01*
X160043833Y-89935017D01*
X160043833Y-90077874D01*
X159996214Y-90173112D01*
X159948595Y-90220731D01*
X159853357Y-90268350D01*
X159472404Y-90268350D01*
X160520023Y-90744540D02*
X160710500Y-90744540D01*
X160805738Y-90696921D01*
X160853357Y-90649302D01*
X160948595Y-90506445D01*
X160996214Y-90315969D01*
X160996214Y-89935017D01*
X160948595Y-89839779D01*
X160900976Y-89792160D01*
X160805738Y-89744540D01*
X160615261Y-89744540D01*
X160520023Y-89792160D01*
X160472404Y-89839779D01*
X160424785Y-89935017D01*
X160424785Y-90173112D01*
X160472404Y-90268350D01*
X160520023Y-90315969D01*
X160615261Y-90363588D01*
X160805738Y-90363588D01*
X160900976Y-90315969D01*
X160948595Y-90268350D01*
X160996214Y-90173112D01*
X54525942Y-50683180D02*
X54192609Y-50206990D01*
X53954514Y-50683180D02*
X53954514Y-49683180D01*
X54335466Y-49683180D01*
X54430704Y-49730800D01*
X54478323Y-49778419D01*
X54525942Y-49873657D01*
X54525942Y-50016514D01*
X54478323Y-50111752D01*
X54430704Y-50159371D01*
X54335466Y-50206990D01*
X53954514Y-50206990D01*
X55478323Y-50683180D02*
X54906895Y-50683180D01*
X55192609Y-50683180D02*
X55192609Y-49683180D01*
X55097371Y-49826038D01*
X55002133Y-49921276D01*
X54906895Y-49968895D01*
X56097371Y-49683180D02*
X56192609Y-49683180D01*
X56287847Y-49730800D01*
X56335466Y-49778419D01*
X56383085Y-49873657D01*
X56430704Y-50064133D01*
X56430704Y-50302228D01*
X56383085Y-50492704D01*
X56335466Y-50587942D01*
X56287847Y-50635561D01*
X56192609Y-50683180D01*
X56097371Y-50683180D01*
X56002133Y-50635561D01*
X55954514Y-50587942D01*
X55906895Y-50492704D01*
X55859276Y-50302228D01*
X55859276Y-50064133D01*
X55906895Y-49873657D01*
X55954514Y-49778419D01*
X56002133Y-49730800D01*
X56097371Y-49683180D01*
X54017942Y-100365580D02*
X53684609Y-99889390D01*
X53446514Y-100365580D02*
X53446514Y-99365580D01*
X53827466Y-99365580D01*
X53922704Y-99413200D01*
X53970323Y-99460819D01*
X54017942Y-99556057D01*
X54017942Y-99698914D01*
X53970323Y-99794152D01*
X53922704Y-99841771D01*
X53827466Y-99889390D01*
X53446514Y-99889390D01*
X54970323Y-100365580D02*
X54398895Y-100365580D01*
X54684609Y-100365580D02*
X54684609Y-99365580D01*
X54589371Y-99508438D01*
X54494133Y-99603676D01*
X54398895Y-99651295D01*
X55922704Y-100365580D02*
X55351276Y-100365580D01*
X55636990Y-100365580D02*
X55636990Y-99365580D01*
X55541752Y-99508438D01*
X55446514Y-99603676D01*
X55351276Y-99651295D01*
X54576742Y-76006980D02*
X54243409Y-75530790D01*
X54005314Y-76006980D02*
X54005314Y-75006980D01*
X54386266Y-75006980D01*
X54481504Y-75054600D01*
X54529123Y-75102219D01*
X54576742Y-75197457D01*
X54576742Y-75340314D01*
X54529123Y-75435552D01*
X54481504Y-75483171D01*
X54386266Y-75530790D01*
X54005314Y-75530790D01*
X55529123Y-76006980D02*
X54957695Y-76006980D01*
X55243409Y-76006980D02*
X55243409Y-75006980D01*
X55148171Y-75149838D01*
X55052933Y-75245076D01*
X54957695Y-75292695D01*
X55910076Y-75102219D02*
X55957695Y-75054600D01*
X56052933Y-75006980D01*
X56291028Y-75006980D01*
X56386266Y-75054600D01*
X56433885Y-75102219D01*
X56481504Y-75197457D01*
X56481504Y-75292695D01*
X56433885Y-75435552D01*
X55862457Y-76006980D01*
X56481504Y-76006980D01*
X157174095Y-77199961D02*
X157316952Y-77247580D01*
X157555047Y-77247580D01*
X157650285Y-77199961D01*
X157697904Y-77152342D01*
X157745523Y-77057104D01*
X157745523Y-76961866D01*
X157697904Y-76866628D01*
X157650285Y-76819009D01*
X157555047Y-76771390D01*
X157364571Y-76723771D01*
X157269333Y-76676152D01*
X157221714Y-76628533D01*
X157174095Y-76533295D01*
X157174095Y-76438057D01*
X157221714Y-76342819D01*
X157269333Y-76295200D01*
X157364571Y-76247580D01*
X157602666Y-76247580D01*
X157745523Y-76295200D01*
X158221714Y-77247580D02*
X158412190Y-77247580D01*
X158507428Y-77199961D01*
X158555047Y-77152342D01*
X158650285Y-77009485D01*
X158697904Y-76819009D01*
X158697904Y-76438057D01*
X158650285Y-76342819D01*
X158602666Y-76295200D01*
X158507428Y-76247580D01*
X158316952Y-76247580D01*
X158221714Y-76295200D01*
X158174095Y-76342819D01*
X158126476Y-76438057D01*
X158126476Y-76676152D01*
X158174095Y-76771390D01*
X158221714Y-76819009D01*
X158316952Y-76866628D01*
X158507428Y-76866628D01*
X158602666Y-76819009D01*
X158650285Y-76771390D01*
X158697904Y-76676152D01*
X156979704Y-94704761D02*
X157122561Y-94752380D01*
X157360657Y-94752380D01*
X157455895Y-94704761D01*
X157503514Y-94657142D01*
X157551133Y-94561904D01*
X157551133Y-94466666D01*
X157503514Y-94371428D01*
X157455895Y-94323809D01*
X157360657Y-94276190D01*
X157170180Y-94228571D01*
X157074942Y-94180952D01*
X157027323Y-94133333D01*
X156979704Y-94038095D01*
X156979704Y-93942857D01*
X157027323Y-93847619D01*
X157074942Y-93800000D01*
X157170180Y-93752380D01*
X157408276Y-93752380D01*
X157551133Y-93800000D01*
X158503514Y-94752380D02*
X157932085Y-94752380D01*
X158217800Y-94752380D02*
X158217800Y-93752380D01*
X158122561Y-93895238D01*
X158027323Y-93990476D01*
X157932085Y-94038095D01*
X159122561Y-93752380D02*
X159217800Y-93752380D01*
X159313038Y-93800000D01*
X159360657Y-93847619D01*
X159408276Y-93942857D01*
X159455895Y-94133333D01*
X159455895Y-94371428D01*
X159408276Y-94561904D01*
X159360657Y-94657142D01*
X159313038Y-94704761D01*
X159217800Y-94752380D01*
X159122561Y-94752380D01*
X159027323Y-94704761D01*
X158979704Y-94657142D01*
X158932085Y-94561904D01*
X158884466Y-94371428D01*
X158884466Y-94133333D01*
X158932085Y-93942857D01*
X158979704Y-93847619D01*
X159027323Y-93800000D01*
X159122561Y-93752380D01*
X156606895Y-108093980D02*
X156606895Y-108903504D01*
X156654514Y-108998742D01*
X156702133Y-109046361D01*
X156797371Y-109093980D01*
X156987847Y-109093980D01*
X157083085Y-109046361D01*
X157130704Y-108998742D01*
X157178323Y-108903504D01*
X157178323Y-108093980D01*
X157606895Y-108189219D02*
X157654514Y-108141600D01*
X157749752Y-108093980D01*
X157987847Y-108093980D01*
X158083085Y-108141600D01*
X158130704Y-108189219D01*
X158178323Y-108284457D01*
X158178323Y-108379695D01*
X158130704Y-108522552D01*
X157559276Y-109093980D01*
X158178323Y-109093980D01*
X51522380Y-132613304D02*
X52331904Y-132613304D01*
X52427142Y-132565685D01*
X52474761Y-132518066D01*
X52522380Y-132422828D01*
X52522380Y-132232352D01*
X52474761Y-132137114D01*
X52427142Y-132089495D01*
X52331904Y-132041876D01*
X51522380Y-132041876D01*
X51522380Y-131660923D02*
X51522380Y-131041876D01*
X51903333Y-131375209D01*
X51903333Y-131232352D01*
X51950952Y-131137114D01*
X51998571Y-131089495D01*
X52093809Y-131041876D01*
X52331904Y-131041876D01*
X52427142Y-131089495D01*
X52474761Y-131137114D01*
X52522380Y-131232352D01*
X52522380Y-131518066D01*
X52474761Y-131613304D01*
X52427142Y-131660923D01*
X41291980Y-134463704D02*
X42101504Y-134463704D01*
X42196742Y-134416085D01*
X42244361Y-134368466D01*
X42291980Y-134273228D01*
X42291980Y-134082752D01*
X42244361Y-133987514D01*
X42196742Y-133939895D01*
X42101504Y-133892276D01*
X41291980Y-133892276D01*
X41625314Y-132987514D02*
X42291980Y-132987514D01*
X41244361Y-133225609D02*
X41958647Y-133463704D01*
X41958647Y-132844657D01*
X113938204Y-145726580D02*
X113938204Y-146536104D01*
X113985823Y-146631342D01*
X114033442Y-146678961D01*
X114128680Y-146726580D01*
X114319157Y-146726580D01*
X114414395Y-146678961D01*
X114462014Y-146631342D01*
X114509633Y-146536104D01*
X114509633Y-145726580D01*
X115509633Y-146726580D02*
X114938204Y-146726580D01*
X115223919Y-146726580D02*
X115223919Y-145726580D01*
X115128680Y-145869438D01*
X115033442Y-145964676D01*
X114938204Y-146012295D01*
X116414395Y-145726580D02*
X115938204Y-145726580D01*
X115890585Y-146202771D01*
X115938204Y-146155152D01*
X116033442Y-146107533D01*
X116271538Y-146107533D01*
X116366776Y-146155152D01*
X116414395Y-146202771D01*
X116462014Y-146298009D01*
X116462014Y-146536104D01*
X116414395Y-146631342D01*
X116366776Y-146678961D01*
X116271538Y-146726580D01*
X116033442Y-146726580D01*
X115938204Y-146678961D01*
X115890585Y-146631342D01*
X146787704Y-145726580D02*
X146787704Y-146536104D01*
X146835323Y-146631342D01*
X146882942Y-146678961D01*
X146978180Y-146726580D01*
X147168657Y-146726580D01*
X147263895Y-146678961D01*
X147311514Y-146631342D01*
X147359133Y-146536104D01*
X147359133Y-145726580D01*
X148359133Y-146726580D02*
X147787704Y-146726580D01*
X148073419Y-146726580D02*
X148073419Y-145726580D01*
X147978180Y-145869438D01*
X147882942Y-145964676D01*
X147787704Y-146012295D01*
X149216276Y-145726580D02*
X149025800Y-145726580D01*
X148930561Y-145774200D01*
X148882942Y-145821819D01*
X148787704Y-145964676D01*
X148740085Y-146155152D01*
X148740085Y-146536104D01*
X148787704Y-146631342D01*
X148835323Y-146678961D01*
X148930561Y-146726580D01*
X149121038Y-146726580D01*
X149216276Y-146678961D01*
X149263895Y-146631342D01*
X149311514Y-146536104D01*
X149311514Y-146298009D01*
X149263895Y-146202771D01*
X149216276Y-146155152D01*
X149121038Y-146107533D01*
X148930561Y-146107533D01*
X148835323Y-146155152D01*
X148787704Y-146202771D01*
X148740085Y-146298009D01*
X79940304Y-145726580D02*
X79940304Y-146536104D01*
X79987923Y-146631342D01*
X80035542Y-146678961D01*
X80130780Y-146726580D01*
X80321257Y-146726580D01*
X80416495Y-146678961D01*
X80464114Y-146631342D01*
X80511733Y-146536104D01*
X80511733Y-145726580D01*
X81511733Y-146726580D02*
X80940304Y-146726580D01*
X81226019Y-146726580D02*
X81226019Y-145726580D01*
X81130780Y-145869438D01*
X81035542Y-145964676D01*
X80940304Y-146012295D01*
X81845066Y-145726580D02*
X82511733Y-145726580D01*
X82083161Y-146726580D01*
X144303904Y-72045580D02*
X144303904Y-72855104D01*
X144351523Y-72950342D01*
X144399142Y-72997961D01*
X144494380Y-73045580D01*
X144684857Y-73045580D01*
X144780095Y-72997961D01*
X144827714Y-72950342D01*
X144875333Y-72855104D01*
X144875333Y-72045580D01*
X145875333Y-73045580D02*
X145303904Y-73045580D01*
X145589619Y-73045580D02*
X145589619Y-72045580D01*
X145494380Y-72188438D01*
X145399142Y-72283676D01*
X145303904Y-72331295D01*
X146446761Y-72474152D02*
X146351523Y-72426533D01*
X146303904Y-72378914D01*
X146256285Y-72283676D01*
X146256285Y-72236057D01*
X146303904Y-72140819D01*
X146351523Y-72093200D01*
X146446761Y-72045580D01*
X146637238Y-72045580D01*
X146732476Y-72093200D01*
X146780095Y-72140819D01*
X146827714Y-72236057D01*
X146827714Y-72283676D01*
X146780095Y-72378914D01*
X146732476Y-72426533D01*
X146637238Y-72474152D01*
X146446761Y-72474152D01*
X146351523Y-72521771D01*
X146303904Y-72569390D01*
X146256285Y-72664628D01*
X146256285Y-72855104D01*
X146303904Y-72950342D01*
X146351523Y-72997961D01*
X146446761Y-73045580D01*
X146637238Y-73045580D01*
X146732476Y-72997961D01*
X146780095Y-72950342D01*
X146827714Y-72855104D01*
X146827714Y-72664628D01*
X146780095Y-72569390D01*
X146732476Y-72521771D01*
X146637238Y-72474152D01*
X136231380Y-63798295D02*
X137040904Y-63798295D01*
X137136142Y-63750676D01*
X137183761Y-63703057D01*
X137231380Y-63607819D01*
X137231380Y-63417342D01*
X137183761Y-63322104D01*
X137136142Y-63274485D01*
X137040904Y-63226866D01*
X136231380Y-63226866D01*
X137231380Y-62226866D02*
X137231380Y-62798295D01*
X137231380Y-62512580D02*
X136231380Y-62512580D01*
X136374238Y-62607819D01*
X136469476Y-62703057D01*
X136517095Y-62798295D01*
X137231380Y-61750676D02*
X137231380Y-61560200D01*
X137183761Y-61464961D01*
X137136142Y-61417342D01*
X136993285Y-61322104D01*
X136802809Y-61274485D01*
X136421857Y-61274485D01*
X136326619Y-61322104D01*
X136279000Y-61369723D01*
X136231380Y-61464961D01*
X136231380Y-61655438D01*
X136279000Y-61750676D01*
X136326619Y-61798295D01*
X136421857Y-61845914D01*
X136659952Y-61845914D01*
X136755190Y-61798295D01*
X136802809Y-61750676D01*
X136850428Y-61655438D01*
X136850428Y-61464961D01*
X136802809Y-61369723D01*
X136755190Y-61322104D01*
X136659952Y-61274485D01*
X141945504Y-108093980D02*
X141945504Y-108903504D01*
X141993123Y-108998742D01*
X142040742Y-109046361D01*
X142135980Y-109093980D01*
X142326457Y-109093980D01*
X142421695Y-109046361D01*
X142469314Y-108998742D01*
X142516933Y-108903504D01*
X142516933Y-108093980D01*
X142945504Y-108189219D02*
X142993123Y-108141600D01*
X143088361Y-108093980D01*
X143326457Y-108093980D01*
X143421695Y-108141600D01*
X143469314Y-108189219D01*
X143516933Y-108284457D01*
X143516933Y-108379695D01*
X143469314Y-108522552D01*
X142897885Y-109093980D01*
X143516933Y-109093980D01*
X144135980Y-108093980D02*
X144231219Y-108093980D01*
X144326457Y-108141600D01*
X144374076Y-108189219D01*
X144421695Y-108284457D01*
X144469314Y-108474933D01*
X144469314Y-108713028D01*
X144421695Y-108903504D01*
X144374076Y-108998742D01*
X144326457Y-109046361D01*
X144231219Y-109093980D01*
X144135980Y-109093980D01*
X144040742Y-109046361D01*
X143993123Y-108998742D01*
X143945504Y-108903504D01*
X143897885Y-108713028D01*
X143897885Y-108474933D01*
X143945504Y-108284457D01*
X143993123Y-108189219D01*
X144040742Y-108141600D01*
X144135980Y-108093980D01*
X58761380Y-39007895D02*
X59570904Y-39007895D01*
X59666142Y-38960276D01*
X59713761Y-38912657D01*
X59761380Y-38817419D01*
X59761380Y-38626942D01*
X59713761Y-38531704D01*
X59666142Y-38484085D01*
X59570904Y-38436466D01*
X58761380Y-38436466D01*
X58856619Y-38007895D02*
X58809000Y-37960276D01*
X58761380Y-37865038D01*
X58761380Y-37626942D01*
X58809000Y-37531704D01*
X58856619Y-37484085D01*
X58951857Y-37436466D01*
X59047095Y-37436466D01*
X59189952Y-37484085D01*
X59761380Y-38055514D01*
X59761380Y-37436466D01*
X59761380Y-36484085D02*
X59761380Y-37055514D01*
X59761380Y-36769800D02*
X58761380Y-36769800D01*
X58904238Y-36865038D01*
X58999476Y-36960276D01*
X59047095Y-37055514D01*
X57168404Y-56373780D02*
X57168404Y-57183304D01*
X57216023Y-57278542D01*
X57263642Y-57326161D01*
X57358880Y-57373780D01*
X57549357Y-57373780D01*
X57644595Y-57326161D01*
X57692214Y-57278542D01*
X57739833Y-57183304D01*
X57739833Y-56373780D01*
X58168404Y-56469019D02*
X58216023Y-56421400D01*
X58311261Y-56373780D01*
X58549357Y-56373780D01*
X58644595Y-56421400D01*
X58692214Y-56469019D01*
X58739833Y-56564257D01*
X58739833Y-56659495D01*
X58692214Y-56802352D01*
X58120785Y-57373780D01*
X58739833Y-57373780D01*
X59120785Y-56469019D02*
X59168404Y-56421400D01*
X59263642Y-56373780D01*
X59501738Y-56373780D01*
X59596976Y-56421400D01*
X59644595Y-56469019D01*
X59692214Y-56564257D01*
X59692214Y-56659495D01*
X59644595Y-56802352D01*
X59073166Y-57373780D01*
X59692214Y-57373780D01*
X57168404Y-104887780D02*
X57168404Y-105697304D01*
X57216023Y-105792542D01*
X57263642Y-105840161D01*
X57358880Y-105887780D01*
X57549357Y-105887780D01*
X57644595Y-105840161D01*
X57692214Y-105792542D01*
X57739833Y-105697304D01*
X57739833Y-104887780D01*
X58168404Y-104983019D02*
X58216023Y-104935400D01*
X58311261Y-104887780D01*
X58549357Y-104887780D01*
X58644595Y-104935400D01*
X58692214Y-104983019D01*
X58739833Y-105078257D01*
X58739833Y-105173495D01*
X58692214Y-105316352D01*
X58120785Y-105887780D01*
X58739833Y-105887780D01*
X59073166Y-104887780D02*
X59692214Y-104887780D01*
X59358880Y-105268733D01*
X59501738Y-105268733D01*
X59596976Y-105316352D01*
X59644595Y-105363971D01*
X59692214Y-105459209D01*
X59692214Y-105697304D01*
X59644595Y-105792542D01*
X59596976Y-105840161D01*
X59501738Y-105887780D01*
X59216023Y-105887780D01*
X59120785Y-105840161D01*
X59073166Y-105792542D01*
X57168404Y-80783180D02*
X57168404Y-81592704D01*
X57216023Y-81687942D01*
X57263642Y-81735561D01*
X57358880Y-81783180D01*
X57549357Y-81783180D01*
X57644595Y-81735561D01*
X57692214Y-81687942D01*
X57739833Y-81592704D01*
X57739833Y-80783180D01*
X58168404Y-80878419D02*
X58216023Y-80830800D01*
X58311261Y-80783180D01*
X58549357Y-80783180D01*
X58644595Y-80830800D01*
X58692214Y-80878419D01*
X58739833Y-80973657D01*
X58739833Y-81068895D01*
X58692214Y-81211752D01*
X58120785Y-81783180D01*
X58739833Y-81783180D01*
X59596976Y-81116514D02*
X59596976Y-81783180D01*
X59358880Y-80735561D02*
X59120785Y-81449847D01*
X59739833Y-81449847D01*
M02*
