M48
; DRILL file {KiCad (5.1.2)-2} date 2022-11-30 오후 8:04:27
; FORMAT={-:-/ absolute / metric / decimal}
; #@! TF.CreationDate,2022-11-30T20:04:27+09:00
; #@! TF.GenerationSoftware,Kicad,Pcbnew,(5.1.2)-2
; #@! TF.FileFunction,Plated,1,2,PTH
FMAT,2
METRIC
T1C0.300
T2C0.700
T3C0.762
T4C0.800
T5C1.000
T6C1.200
%
G90
G05
T1
X25.4Y-72.39
X25.4Y-76.835
X25.4Y-84.455
X25.4Y-91.44
X25.4Y-97.79
X25.4Y-102.235
X25.4Y-106.045
X25.4Y-110.49
X25.4Y-115.57
X36.83Y-77.47
X36.83Y-81.28
X36.83Y-111.76
X37.465Y-93.98
X37.465Y-97.155
X40.005Y-111.76
X40.005Y-115.57
X40.64Y-126.365
X40.64Y-130.81
X40.64Y-137.795
X40.64Y-143.51
X41.275Y-77.47
X41.275Y-81.28
X41.275Y-93.98
X41.275Y-97.155
X42.545Y-89.535
X43.18Y-105.41
X43.18Y-111.76
X43.18Y-115.57
X45.085Y-117.475
X45.085Y-119.38
X45.72Y-77.47
X45.72Y-81.28
X45.72Y-93.98
X45.72Y-97.155
X45.72Y-100.33
X45.72Y-105.41
X45.72Y-111.76
X46.355Y-88.265
X46.355Y-115.57
X47.625Y-85.725
X48.26Y-105.41
X48.26Y-111.76
X49.53Y-66.675
X49.53Y-72.39
X49.53Y-77.47
X49.53Y-81.28
X49.53Y-93.98
X49.53Y-97.155
X49.53Y-100.33
X50.165Y-105.41
X50.165Y-111.76
X50.165Y-115.57
X51.435Y-121.92
X51.435Y-126.365
X51.435Y-128.905
X51.435Y-132.08
X51.435Y-134.62
X53.34Y-88.265
X53.34Y-90.805
X53.34Y-93.98
X53.34Y-111.76
X53.34Y-119.38
X53.34Y-121.92
X53.34Y-124.46
X53.34Y-126.365
X53.34Y-128.905
X53.34Y-132.08
X53.34Y-134.62
X53.975Y-64.135
X53.975Y-67.945
X53.975Y-70.485
X54.61Y-86.995
X55.245Y-115.57
X55.245Y-117.475
X55.245Y-119.38
X55.245Y-121.92
X55.245Y-124.46
X55.245Y-126.365
X56.515Y-60.325
X56.515Y-85.09
X57.15Y-107.315
X57.15Y-113.03
X58.42Y-54.61
X58.42Y-57.785
X58.42Y-77.47
X58.42Y-82.55
X59.055Y-45.72
X59.69Y-66.675
X60.325Y-90.17
X60.325Y-100.33
X60.325Y-103.505
X60.325Y-109.22
X60.96Y-54.61
X60.96Y-72.39
X60.96Y-74.93
X60.96Y-79.375
X61.595Y-97.79
X62.23Y-48.26
X62.23Y-90.17
X64.135Y-66.675
X64.135Y-90.17
X64.135Y-95.25
X67.31Y-97.79
X67.31Y-100.33
X67.31Y-103.505
X67.31Y-106.045
X72.39Y-114.935
X72.39Y-123.19
X76.2Y-138.43
X76.2Y-144.78
X76.632Y-132.029
X80.01Y-81.28
X80.01Y-93.345
X82.55Y-138.43
X82.55Y-144.78
X83.185Y-81.28
X83.185Y-86.995
X83.185Y-93.345
X83.185Y-97.155
X83.185Y-102.235
X83.185Y-107.95
X83.185Y-118.745
X83.185Y-125.73
X83.185Y-132.715
X83.515Y-89.357
X87.63Y-138.43
X87.63Y-144.78
X88.9Y-113.665
X88.9Y-129.54
X91.44Y-86.995
X91.44Y-92.71
X94.615Y-97.155
X94.615Y-102.235
X94.615Y-107.95
X94.615Y-120.65
X97.155Y-132.715
X97.79Y-125.73
X101.6Y-114.935
X104.14Y-120.65
X104.648Y-112.039
X104.775Y-102.235
X104.775Y-123.19
X107.391Y-115.392
X116.154Y-109.855
X118.135Y-117.551
X120.853Y-118.745
X126.365Y-117.475
X126.365Y-123.19
X134.62Y-117.475
X134.62Y-123.19
X137.947Y-74.117
X138.62Y-100.165
X139.7Y-78.105
X139.7Y-81.28
X139.7Y-87.63
X139.7Y-92.075
X141.605Y-117.475
X142.875Y-72.39
X142.875Y-78.105
X142.875Y-81.28
X142.875Y-87.63
X142.875Y-92.075
X145.415Y-69.215
X145.415Y-72.39
X145.415Y-109.22
X145.415Y-117.475
X148.59Y-66.04
X148.59Y-69.215
X148.59Y-72.39
X148.59Y-78.105
X148.59Y-81.28
X148.59Y-85.09
X148.59Y-92.075
X148.59Y-95.25
X151.13Y-29.845
X151.765Y-62.23
X151.765Y-66.04
X151.765Y-69.215
X151.765Y-72.39
X151.765Y-78.105
X151.765Y-81.28
X151.765Y-88.9
X151.765Y-92.075
X151.765Y-95.25
X151.765Y-109.22
X151.765Y-117.475
X151.765Y-126.365
X155.575Y-55.88
X155.575Y-59.055
X155.575Y-62.23
X155.575Y-66.04
X155.575Y-69.215
X155.575Y-72.39
X155.575Y-88.9
X155.575Y-92.075
X159.385Y-59.055
X159.385Y-62.23
X159.385Y-66.04
X159.385Y-69.215
X159.385Y-72.39
X162.56Y-62.23
X162.56Y-66.04
X162.56Y-69.215
X163.83Y-114.935
X163.83Y-119.38
X163.83Y-125.73
X163.83Y-132.08
X163.83Y-137.795
X163.83Y-142.24
T2
X158.585Y-74.742
X161.125Y-74.742
X53.391Y-97.993
X55.931Y-97.993
X158.94Y-92.212
X161.481Y-92.212
X53.95Y-73.635
X56.49Y-73.635
X53.899Y-48.311
X56.439Y-48.311
T3
X70.256Y-126.581
X70.256Y-129.121
X70.256Y-131.661
X70.256Y-134.201
X70.256Y-136.741
X70.256Y-139.281
X70.256Y-141.821
X70.256Y-144.361
X93.116Y-126.581
X93.116Y-129.121
X93.116Y-131.661
X93.116Y-134.201
X93.116Y-136.741
X93.116Y-139.281
X93.116Y-141.821
X93.116Y-144.361
X145.542Y-77.673
X145.542Y-80.213
X145.542Y-82.753
X145.542Y-85.293
X145.542Y-87.833
X145.542Y-90.373
X104.254Y-126.581
X104.254Y-129.121
X104.254Y-131.661
X104.254Y-134.201
X104.254Y-136.741
X104.254Y-139.281
X104.254Y-141.821
X104.254Y-144.361
X127.114Y-126.581
X127.114Y-129.121
X127.114Y-131.661
X127.114Y-134.201
X127.114Y-136.741
X127.114Y-139.281
X127.114Y-141.821
X127.114Y-144.361
X137.104Y-126.581
X137.104Y-129.121
X137.104Y-131.661
X137.104Y-134.201
X137.104Y-136.741
X137.104Y-139.281
X137.104Y-141.821
X137.104Y-144.361
X159.964Y-126.581
X159.964Y-129.121
X159.964Y-131.661
X159.964Y-134.201
X159.964Y-136.741
X159.964Y-139.281
X159.964Y-141.821
X159.964Y-144.361
X53.326Y-77.521
X53.326Y-80.061
X53.326Y-82.601
X53.326Y-85.141
X64.121Y-77.521
X64.121Y-80.061
X64.121Y-82.855
X64.121Y-85.395
X53.326Y-101.625
X53.326Y-104.165
X53.326Y-106.705
X53.326Y-109.245
X64.121Y-101.625
X64.121Y-104.165
X64.121Y-106.959
X64.121Y-109.499
X69.85Y-61.417
X69.85Y-63.957
X69.85Y-66.497
X69.85Y-69.037
X69.85Y-71.577
X69.85Y-74.117
X69.85Y-76.657
X69.85Y-79.197
X69.85Y-81.737
X69.85Y-84.277
X69.85Y-86.817
X69.85Y-89.357
X69.85Y-91.897
X69.85Y-94.437
X69.85Y-96.977
X69.85Y-99.517
X69.85Y-102.057
X69.85Y-104.597
X69.85Y-107.137
X72.39Y-61.417
X72.39Y-63.957
X72.39Y-66.497
X72.39Y-69.037
X72.39Y-71.577
X72.39Y-74.117
X72.39Y-76.657
X72.39Y-79.197
X72.39Y-81.737
X72.39Y-84.277
X72.39Y-86.817
X72.39Y-89.357
X72.39Y-91.897
X72.39Y-94.437
X72.39Y-96.977
X72.39Y-99.517
X72.39Y-102.057
X72.39Y-104.597
X72.39Y-107.137
X130.81Y-61.417
X130.81Y-63.957
X130.81Y-66.497
X130.81Y-69.037
X130.81Y-71.577
X130.81Y-74.117
X130.81Y-76.657
X130.81Y-79.197
X130.81Y-81.737
X130.81Y-84.277
X130.81Y-86.817
X130.81Y-89.357
X130.81Y-91.897
X130.81Y-94.437
X130.81Y-96.977
X130.81Y-99.517
X130.81Y-102.057
X130.81Y-104.597
X130.81Y-107.137
X133.35Y-61.417
X133.35Y-63.957
X133.35Y-66.497
X133.35Y-69.037
X133.35Y-71.577
X133.35Y-74.117
X133.35Y-76.657
X133.35Y-79.197
X133.35Y-81.737
X133.35Y-84.277
X133.35Y-86.817
X133.35Y-89.357
X133.35Y-91.897
X133.35Y-94.437
X133.35Y-96.977
X133.35Y-99.517
X133.35Y-102.057
X133.35Y-104.597
X133.35Y-107.137
X55.245Y-43.485
X55.499Y-32.69
X57.785Y-43.485
X58.039Y-32.69
X60.579Y-32.69
X60.579Y-43.485
X63.119Y-32.69
X63.119Y-43.485
X53.326Y-53.111
X53.326Y-55.651
X53.326Y-58.191
X53.326Y-60.731
X64.121Y-53.111
X64.121Y-55.651
X64.121Y-58.445
X64.121Y-60.985
T4
X36.119Y-119.913
X36.119Y-123.413
X56.21Y-25.044
X59.71Y-25.044
X63.926Y-63.783
X63.926Y-68.783
X60.173Y-87.837
X60.173Y-92.837
X59.377Y-97.993
X64.376Y-97.993
X39.776Y-68.381
X39.776Y-73.381
X63.926Y-112.323
X63.926Y-117.323
X63.926Y-87.685
X63.926Y-92.685
X59.377Y-48.311
X64.376Y-48.311
X59.715Y-112.373
X59.715Y-117.373
X45.038Y-124.638
X50.038Y-124.638
X39.268Y-100.359
X39.268Y-105.359
X59.377Y-74.016
X64.376Y-74.016
X59.512Y-63.783
X59.512Y-68.783
X39.345Y-84.383
X39.345Y-89.383
T5
X109.22Y-107.315
X111.76Y-114.935
X111.76Y-123.19
X113.03Y-138.43
X113.03Y-144.78
X115.57Y-100.33
X120.015Y-138.43
X120.015Y-144.78
X125.095Y-104.14
X144.145Y-134.62
X144.145Y-142.24
X154.305Y-134.62
X154.305Y-142.24
X154.968Y-96.52
X154.968Y-101.02
X161.468Y-96.52
X161.468Y-101.02
X45.06Y-131.242
X45.06Y-133.782
X45.06Y-136.322
X154.749Y-111.862
X157.289Y-111.862
X159.829Y-111.862
X154.686Y-79.015
X154.686Y-83.515
X161.186Y-79.015
X161.186Y-83.515
X36.093Y-131.343
X36.093Y-133.883
X36.093Y-136.423
X142.625Y-30.277
X145.125Y-30.277
X147.625Y-30.277
X31.598Y-145.009
X34.098Y-145.009
X140.564Y-111.862
X143.104Y-111.862
X145.644Y-111.862
X154.589Y-30.277
X157.089Y-30.277
X159.589Y-30.277
X139.573Y-50.876
X142.113Y-50.876
X144.653Y-50.876
X147.193Y-50.876
X149.733Y-50.876
X152.273Y-50.876
X154.813Y-50.876
X157.353Y-50.876
T6
X32.068Y-68.351
X32.068Y-70.891
X32.068Y-73.431
X32.068Y-75.971
X32.068Y-78.511
X32.068Y-84.328
X32.068Y-86.868
X32.068Y-89.408
X32.068Y-91.948
X32.068Y-94.488
X32.068Y-100.305
X32.068Y-102.845
X32.068Y-105.385
X32.068Y-107.925
X32.068Y-110.465
T0
M30
