G04 #@! TF.GenerationSoftware,KiCad,Pcbnew,8.0.0*
G04 #@! TF.CreationDate,2024-03-28T17:26:01-04:00*
G04 #@! TF.ProjectId,4. New_CANOpen,342e204e-6577-45f4-9341-4e4f70656e2e,rev?*
G04 #@! TF.SameCoordinates,Original*
G04 #@! TF.FileFunction,Legend,Top*
G04 #@! TF.FilePolarity,Positive*
%FSLAX46Y46*%
G04 Gerber Fmt 4.6, Leading zero omitted, Abs format (unit mm)*
G04 Created by KiCad (PCBNEW 8.0.0) date 2024-03-28 17:26:01*
%MOMM*%
%LPD*%
G01*
G04 APERTURE LIST*
%ADD10C,0.150000*%
%ADD11C,0.120000*%
%ADD12C,0.152400*%
%ADD13C,0.254000*%
G04 APERTURE END LIST*
D10*
X123684819Y-70583333D02*
X124399104Y-70583333D01*
X124399104Y-70583333D02*
X124541961Y-70630952D01*
X124541961Y-70630952D02*
X124637200Y-70726190D01*
X124637200Y-70726190D02*
X124684819Y-70869047D01*
X124684819Y-70869047D02*
X124684819Y-70964285D01*
X124684819Y-69583333D02*
X124684819Y-70154761D01*
X124684819Y-69869047D02*
X123684819Y-69869047D01*
X123684819Y-69869047D02*
X123827676Y-69964285D01*
X123827676Y-69964285D02*
X123922914Y-70059523D01*
X123922914Y-70059523D02*
X123970533Y-70154761D01*
X39814667Y-79240101D02*
X39957524Y-79287720D01*
X39957524Y-79287720D02*
X40195619Y-79287720D01*
X40195619Y-79287720D02*
X40290857Y-79240101D01*
X40290857Y-79240101D02*
X40338476Y-79192481D01*
X40338476Y-79192481D02*
X40386095Y-79097243D01*
X40386095Y-79097243D02*
X40386095Y-79002005D01*
X40386095Y-79002005D02*
X40338476Y-78906767D01*
X40338476Y-78906767D02*
X40290857Y-78859148D01*
X40290857Y-78859148D02*
X40195619Y-78811529D01*
X40195619Y-78811529D02*
X40005143Y-78763910D01*
X40005143Y-78763910D02*
X39909905Y-78716291D01*
X39909905Y-78716291D02*
X39862286Y-78668672D01*
X39862286Y-78668672D02*
X39814667Y-78573434D01*
X39814667Y-78573434D02*
X39814667Y-78478196D01*
X39814667Y-78478196D02*
X39862286Y-78382958D01*
X39862286Y-78382958D02*
X39909905Y-78335339D01*
X39909905Y-78335339D02*
X40005143Y-78287720D01*
X40005143Y-78287720D02*
X40243238Y-78287720D01*
X40243238Y-78287720D02*
X40386095Y-78335339D01*
X40719429Y-78287720D02*
X40957524Y-79287720D01*
X40957524Y-79287720D02*
X41148000Y-78573434D01*
X41148000Y-78573434D02*
X41338476Y-79287720D01*
X41338476Y-79287720D02*
X41576572Y-78287720D01*
X41909905Y-78382958D02*
X41957524Y-78335339D01*
X41957524Y-78335339D02*
X42052762Y-78287720D01*
X42052762Y-78287720D02*
X42290857Y-78287720D01*
X42290857Y-78287720D02*
X42386095Y-78335339D01*
X42386095Y-78335339D02*
X42433714Y-78382958D01*
X42433714Y-78382958D02*
X42481333Y-78478196D01*
X42481333Y-78478196D02*
X42481333Y-78573434D01*
X42481333Y-78573434D02*
X42433714Y-78716291D01*
X42433714Y-78716291D02*
X41862286Y-79287720D01*
X41862286Y-79287720D02*
X42481333Y-79287720D01*
X51345180Y-93005314D02*
X50630895Y-93005314D01*
X50630895Y-93005314D02*
X50488038Y-92957695D01*
X50488038Y-92957695D02*
X50392800Y-92862457D01*
X50392800Y-92862457D02*
X50345180Y-92719600D01*
X50345180Y-92719600D02*
X50345180Y-92624362D01*
X51345180Y-93957695D02*
X51345180Y-93481505D01*
X51345180Y-93481505D02*
X50868990Y-93433886D01*
X50868990Y-93433886D02*
X50916609Y-93481505D01*
X50916609Y-93481505D02*
X50964228Y-93576743D01*
X50964228Y-93576743D02*
X50964228Y-93814838D01*
X50964228Y-93814838D02*
X50916609Y-93910076D01*
X50916609Y-93910076D02*
X50868990Y-93957695D01*
X50868990Y-93957695D02*
X50773752Y-94005314D01*
X50773752Y-94005314D02*
X50535657Y-94005314D01*
X50535657Y-94005314D02*
X50440419Y-93957695D01*
X50440419Y-93957695D02*
X50392800Y-93910076D01*
X50392800Y-93910076D02*
X50345180Y-93814838D01*
X50345180Y-93814838D02*
X50345180Y-93576743D01*
X50345180Y-93576743D02*
X50392800Y-93481505D01*
X50392800Y-93481505D02*
X50440419Y-93433886D01*
X56406848Y-89719600D02*
X55740181Y-89719600D01*
X56787801Y-89481505D02*
X56073515Y-89243410D01*
X56073515Y-89243410D02*
X56073515Y-89862457D01*
X56740181Y-90148172D02*
X56740181Y-90767219D01*
X56740181Y-90767219D02*
X56359229Y-90433886D01*
X56359229Y-90433886D02*
X56359229Y-90576743D01*
X56359229Y-90576743D02*
X56311610Y-90671981D01*
X56311610Y-90671981D02*
X56263991Y-90719600D01*
X56263991Y-90719600D02*
X56168753Y-90767219D01*
X56168753Y-90767219D02*
X55930658Y-90767219D01*
X55930658Y-90767219D02*
X55835420Y-90719600D01*
X55835420Y-90719600D02*
X55787801Y-90671981D01*
X55787801Y-90671981D02*
X55740181Y-90576743D01*
X55740181Y-90576743D02*
X55740181Y-90291029D01*
X55740181Y-90291029D02*
X55787801Y-90195791D01*
X55787801Y-90195791D02*
X55835420Y-90148172D01*
X56740181Y-91624362D02*
X56740181Y-91433886D01*
X56740181Y-91433886D02*
X56692562Y-91338648D01*
X56692562Y-91338648D02*
X56644943Y-91291029D01*
X56644943Y-91291029D02*
X56502086Y-91195791D01*
X56502086Y-91195791D02*
X56311610Y-91148172D01*
X56311610Y-91148172D02*
X55930658Y-91148172D01*
X55930658Y-91148172D02*
X55835420Y-91195791D01*
X55835420Y-91195791D02*
X55787801Y-91243410D01*
X55787801Y-91243410D02*
X55740181Y-91338648D01*
X55740181Y-91338648D02*
X55740181Y-91529124D01*
X55740181Y-91529124D02*
X55787801Y-91624362D01*
X55787801Y-91624362D02*
X55835420Y-91671981D01*
X55835420Y-91671981D02*
X55930658Y-91719600D01*
X55930658Y-91719600D02*
X56168753Y-91719600D01*
X56168753Y-91719600D02*
X56263991Y-91671981D01*
X56263991Y-91671981D02*
X56311610Y-91624362D01*
X56311610Y-91624362D02*
X56359229Y-91529124D01*
X56359229Y-91529124D02*
X56359229Y-91338648D01*
X56359229Y-91338648D02*
X56311610Y-91243410D01*
X56311610Y-91243410D02*
X56263991Y-91195791D01*
X56263991Y-91195791D02*
X56168753Y-91148172D01*
X56740181Y-92624362D02*
X56740181Y-92148172D01*
X56740181Y-92148172D02*
X56263991Y-92100553D01*
X56263991Y-92100553D02*
X56311610Y-92148172D01*
X56311610Y-92148172D02*
X56359229Y-92243410D01*
X56359229Y-92243410D02*
X56359229Y-92481505D01*
X56359229Y-92481505D02*
X56311610Y-92576743D01*
X56311610Y-92576743D02*
X56263991Y-92624362D01*
X56263991Y-92624362D02*
X56168753Y-92671981D01*
X56168753Y-92671981D02*
X55930658Y-92671981D01*
X55930658Y-92671981D02*
X55835420Y-92624362D01*
X55835420Y-92624362D02*
X55787801Y-92576743D01*
X55787801Y-92576743D02*
X55740181Y-92481505D01*
X55740181Y-92481505D02*
X55740181Y-92243410D01*
X55740181Y-92243410D02*
X55787801Y-92148172D01*
X55787801Y-92148172D02*
X55835420Y-92100553D01*
X56740181Y-93291029D02*
X56740181Y-93386267D01*
X56740181Y-93386267D02*
X56692562Y-93481505D01*
X56692562Y-93481505D02*
X56644943Y-93529124D01*
X56644943Y-93529124D02*
X56549705Y-93576743D01*
X56549705Y-93576743D02*
X56359229Y-93624362D01*
X56359229Y-93624362D02*
X56121134Y-93624362D01*
X56121134Y-93624362D02*
X55930658Y-93576743D01*
X55930658Y-93576743D02*
X55835420Y-93529124D01*
X55835420Y-93529124D02*
X55787801Y-93481505D01*
X55787801Y-93481505D02*
X55740181Y-93386267D01*
X55740181Y-93386267D02*
X55740181Y-93291029D01*
X55740181Y-93291029D02*
X55787801Y-93195791D01*
X55787801Y-93195791D02*
X55835420Y-93148172D01*
X55835420Y-93148172D02*
X55930658Y-93100553D01*
X55930658Y-93100553D02*
X56121134Y-93052934D01*
X56121134Y-93052934D02*
X56359229Y-93052934D01*
X56359229Y-93052934D02*
X56549705Y-93100553D01*
X56549705Y-93100553D02*
X56644943Y-93148172D01*
X56644943Y-93148172D02*
X56692562Y-93195791D01*
X56692562Y-93195791D02*
X56740181Y-93291029D01*
X56740181Y-94243410D02*
X56740181Y-94338648D01*
X56740181Y-94338648D02*
X56692562Y-94433886D01*
X56692562Y-94433886D02*
X56644943Y-94481505D01*
X56644943Y-94481505D02*
X56549705Y-94529124D01*
X56549705Y-94529124D02*
X56359229Y-94576743D01*
X56359229Y-94576743D02*
X56121134Y-94576743D01*
X56121134Y-94576743D02*
X55930658Y-94529124D01*
X55930658Y-94529124D02*
X55835420Y-94481505D01*
X55835420Y-94481505D02*
X55787801Y-94433886D01*
X55787801Y-94433886D02*
X55740181Y-94338648D01*
X55740181Y-94338648D02*
X55740181Y-94243410D01*
X55740181Y-94243410D02*
X55787801Y-94148172D01*
X55787801Y-94148172D02*
X55835420Y-94100553D01*
X55835420Y-94100553D02*
X55930658Y-94052934D01*
X55930658Y-94052934D02*
X56121134Y-94005315D01*
X56121134Y-94005315D02*
X56359229Y-94005315D01*
X56359229Y-94005315D02*
X56549705Y-94052934D01*
X56549705Y-94052934D02*
X56644943Y-94100553D01*
X56644943Y-94100553D02*
X56692562Y-94148172D01*
X56692562Y-94148172D02*
X56740181Y-94243410D01*
X56644943Y-94957696D02*
X56692562Y-95005315D01*
X56692562Y-95005315D02*
X56740181Y-95100553D01*
X56740181Y-95100553D02*
X56740181Y-95338648D01*
X56740181Y-95338648D02*
X56692562Y-95433886D01*
X56692562Y-95433886D02*
X56644943Y-95481505D01*
X56644943Y-95481505D02*
X56549705Y-95529124D01*
X56549705Y-95529124D02*
X56454467Y-95529124D01*
X56454467Y-95529124D02*
X56311610Y-95481505D01*
X56311610Y-95481505D02*
X55740181Y-94910077D01*
X55740181Y-94910077D02*
X55740181Y-95529124D01*
X56644943Y-95910077D02*
X56692562Y-95957696D01*
X56692562Y-95957696D02*
X56740181Y-96052934D01*
X56740181Y-96052934D02*
X56740181Y-96291029D01*
X56740181Y-96291029D02*
X56692562Y-96386267D01*
X56692562Y-96386267D02*
X56644943Y-96433886D01*
X56644943Y-96433886D02*
X56549705Y-96481505D01*
X56549705Y-96481505D02*
X56454467Y-96481505D01*
X56454467Y-96481505D02*
X56311610Y-96433886D01*
X56311610Y-96433886D02*
X55740181Y-95862458D01*
X55740181Y-95862458D02*
X55740181Y-96481505D01*
X56740181Y-96814839D02*
X56740181Y-97481505D01*
X56740181Y-97481505D02*
X55740181Y-97052934D01*
X123609488Y-96709192D02*
X124609488Y-96042526D01*
X123609488Y-96042526D02*
X124609488Y-96709192D01*
X124609488Y-95137764D02*
X124609488Y-95709192D01*
X124609488Y-95423478D02*
X123609488Y-95423478D01*
X123609488Y-95423478D02*
X123752345Y-95518716D01*
X123752345Y-95518716D02*
X123847583Y-95613954D01*
X123847583Y-95613954D02*
X123895202Y-95709192D01*
X51345180Y-137723358D02*
X50630895Y-137723358D01*
X50630895Y-137723358D02*
X50488038Y-137675739D01*
X50488038Y-137675739D02*
X50392800Y-137580501D01*
X50392800Y-137580501D02*
X50345180Y-137437644D01*
X50345180Y-137437644D02*
X50345180Y-137342406D01*
X51345180Y-138104311D02*
X51345180Y-138723358D01*
X51345180Y-138723358D02*
X50964228Y-138390025D01*
X50964228Y-138390025D02*
X50964228Y-138532882D01*
X50964228Y-138532882D02*
X50916609Y-138628120D01*
X50916609Y-138628120D02*
X50868990Y-138675739D01*
X50868990Y-138675739D02*
X50773752Y-138723358D01*
X50773752Y-138723358D02*
X50535657Y-138723358D01*
X50535657Y-138723358D02*
X50440419Y-138675739D01*
X50440419Y-138675739D02*
X50392800Y-138628120D01*
X50392800Y-138628120D02*
X50345180Y-138532882D01*
X50345180Y-138532882D02*
X50345180Y-138247168D01*
X50345180Y-138247168D02*
X50392800Y-138151930D01*
X50392800Y-138151930D02*
X50440419Y-138104311D01*
X56406848Y-134437644D02*
X55740181Y-134437644D01*
X56787801Y-134199549D02*
X56073515Y-133961454D01*
X56073515Y-133961454D02*
X56073515Y-134580501D01*
X56740181Y-134866216D02*
X56740181Y-135485263D01*
X56740181Y-135485263D02*
X56359229Y-135151930D01*
X56359229Y-135151930D02*
X56359229Y-135294787D01*
X56359229Y-135294787D02*
X56311610Y-135390025D01*
X56311610Y-135390025D02*
X56263991Y-135437644D01*
X56263991Y-135437644D02*
X56168753Y-135485263D01*
X56168753Y-135485263D02*
X55930658Y-135485263D01*
X55930658Y-135485263D02*
X55835420Y-135437644D01*
X55835420Y-135437644D02*
X55787801Y-135390025D01*
X55787801Y-135390025D02*
X55740181Y-135294787D01*
X55740181Y-135294787D02*
X55740181Y-135009073D01*
X55740181Y-135009073D02*
X55787801Y-134913835D01*
X55787801Y-134913835D02*
X55835420Y-134866216D01*
X56740181Y-136342406D02*
X56740181Y-136151930D01*
X56740181Y-136151930D02*
X56692562Y-136056692D01*
X56692562Y-136056692D02*
X56644943Y-136009073D01*
X56644943Y-136009073D02*
X56502086Y-135913835D01*
X56502086Y-135913835D02*
X56311610Y-135866216D01*
X56311610Y-135866216D02*
X55930658Y-135866216D01*
X55930658Y-135866216D02*
X55835420Y-135913835D01*
X55835420Y-135913835D02*
X55787801Y-135961454D01*
X55787801Y-135961454D02*
X55740181Y-136056692D01*
X55740181Y-136056692D02*
X55740181Y-136247168D01*
X55740181Y-136247168D02*
X55787801Y-136342406D01*
X55787801Y-136342406D02*
X55835420Y-136390025D01*
X55835420Y-136390025D02*
X55930658Y-136437644D01*
X55930658Y-136437644D02*
X56168753Y-136437644D01*
X56168753Y-136437644D02*
X56263991Y-136390025D01*
X56263991Y-136390025D02*
X56311610Y-136342406D01*
X56311610Y-136342406D02*
X56359229Y-136247168D01*
X56359229Y-136247168D02*
X56359229Y-136056692D01*
X56359229Y-136056692D02*
X56311610Y-135961454D01*
X56311610Y-135961454D02*
X56263991Y-135913835D01*
X56263991Y-135913835D02*
X56168753Y-135866216D01*
X56740181Y-137342406D02*
X56740181Y-136866216D01*
X56740181Y-136866216D02*
X56263991Y-136818597D01*
X56263991Y-136818597D02*
X56311610Y-136866216D01*
X56311610Y-136866216D02*
X56359229Y-136961454D01*
X56359229Y-136961454D02*
X56359229Y-137199549D01*
X56359229Y-137199549D02*
X56311610Y-137294787D01*
X56311610Y-137294787D02*
X56263991Y-137342406D01*
X56263991Y-137342406D02*
X56168753Y-137390025D01*
X56168753Y-137390025D02*
X55930658Y-137390025D01*
X55930658Y-137390025D02*
X55835420Y-137342406D01*
X55835420Y-137342406D02*
X55787801Y-137294787D01*
X55787801Y-137294787D02*
X55740181Y-137199549D01*
X55740181Y-137199549D02*
X55740181Y-136961454D01*
X55740181Y-136961454D02*
X55787801Y-136866216D01*
X55787801Y-136866216D02*
X55835420Y-136818597D01*
X56740181Y-138009073D02*
X56740181Y-138104311D01*
X56740181Y-138104311D02*
X56692562Y-138199549D01*
X56692562Y-138199549D02*
X56644943Y-138247168D01*
X56644943Y-138247168D02*
X56549705Y-138294787D01*
X56549705Y-138294787D02*
X56359229Y-138342406D01*
X56359229Y-138342406D02*
X56121134Y-138342406D01*
X56121134Y-138342406D02*
X55930658Y-138294787D01*
X55930658Y-138294787D02*
X55835420Y-138247168D01*
X55835420Y-138247168D02*
X55787801Y-138199549D01*
X55787801Y-138199549D02*
X55740181Y-138104311D01*
X55740181Y-138104311D02*
X55740181Y-138009073D01*
X55740181Y-138009073D02*
X55787801Y-137913835D01*
X55787801Y-137913835D02*
X55835420Y-137866216D01*
X55835420Y-137866216D02*
X55930658Y-137818597D01*
X55930658Y-137818597D02*
X56121134Y-137770978D01*
X56121134Y-137770978D02*
X56359229Y-137770978D01*
X56359229Y-137770978D02*
X56549705Y-137818597D01*
X56549705Y-137818597D02*
X56644943Y-137866216D01*
X56644943Y-137866216D02*
X56692562Y-137913835D01*
X56692562Y-137913835D02*
X56740181Y-138009073D01*
X56740181Y-138961454D02*
X56740181Y-139056692D01*
X56740181Y-139056692D02*
X56692562Y-139151930D01*
X56692562Y-139151930D02*
X56644943Y-139199549D01*
X56644943Y-139199549D02*
X56549705Y-139247168D01*
X56549705Y-139247168D02*
X56359229Y-139294787D01*
X56359229Y-139294787D02*
X56121134Y-139294787D01*
X56121134Y-139294787D02*
X55930658Y-139247168D01*
X55930658Y-139247168D02*
X55835420Y-139199549D01*
X55835420Y-139199549D02*
X55787801Y-139151930D01*
X55787801Y-139151930D02*
X55740181Y-139056692D01*
X55740181Y-139056692D02*
X55740181Y-138961454D01*
X55740181Y-138961454D02*
X55787801Y-138866216D01*
X55787801Y-138866216D02*
X55835420Y-138818597D01*
X55835420Y-138818597D02*
X55930658Y-138770978D01*
X55930658Y-138770978D02*
X56121134Y-138723359D01*
X56121134Y-138723359D02*
X56359229Y-138723359D01*
X56359229Y-138723359D02*
X56549705Y-138770978D01*
X56549705Y-138770978D02*
X56644943Y-138818597D01*
X56644943Y-138818597D02*
X56692562Y-138866216D01*
X56692562Y-138866216D02*
X56740181Y-138961454D01*
X56644943Y-139675740D02*
X56692562Y-139723359D01*
X56692562Y-139723359D02*
X56740181Y-139818597D01*
X56740181Y-139818597D02*
X56740181Y-140056692D01*
X56740181Y-140056692D02*
X56692562Y-140151930D01*
X56692562Y-140151930D02*
X56644943Y-140199549D01*
X56644943Y-140199549D02*
X56549705Y-140247168D01*
X56549705Y-140247168D02*
X56454467Y-140247168D01*
X56454467Y-140247168D02*
X56311610Y-140199549D01*
X56311610Y-140199549D02*
X55740181Y-139628121D01*
X55740181Y-139628121D02*
X55740181Y-140247168D01*
X56644943Y-140628121D02*
X56692562Y-140675740D01*
X56692562Y-140675740D02*
X56740181Y-140770978D01*
X56740181Y-140770978D02*
X56740181Y-141009073D01*
X56740181Y-141009073D02*
X56692562Y-141104311D01*
X56692562Y-141104311D02*
X56644943Y-141151930D01*
X56644943Y-141151930D02*
X56549705Y-141199549D01*
X56549705Y-141199549D02*
X56454467Y-141199549D01*
X56454467Y-141199549D02*
X56311610Y-141151930D01*
X56311610Y-141151930D02*
X55740181Y-140580502D01*
X55740181Y-140580502D02*
X55740181Y-141199549D01*
X56740181Y-141532883D02*
X56740181Y-142199549D01*
X56740181Y-142199549D02*
X55740181Y-141770978D01*
X51345180Y-107911328D02*
X50630895Y-107911328D01*
X50630895Y-107911328D02*
X50488038Y-107863709D01*
X50488038Y-107863709D02*
X50392800Y-107768471D01*
X50392800Y-107768471D02*
X50345180Y-107625614D01*
X50345180Y-107625614D02*
X50345180Y-107530376D01*
X51249942Y-108339900D02*
X51297561Y-108387519D01*
X51297561Y-108387519D02*
X51345180Y-108482757D01*
X51345180Y-108482757D02*
X51345180Y-108720852D01*
X51345180Y-108720852D02*
X51297561Y-108816090D01*
X51297561Y-108816090D02*
X51249942Y-108863709D01*
X51249942Y-108863709D02*
X51154704Y-108911328D01*
X51154704Y-108911328D02*
X51059466Y-108911328D01*
X51059466Y-108911328D02*
X50916609Y-108863709D01*
X50916609Y-108863709D02*
X50345180Y-108292281D01*
X50345180Y-108292281D02*
X50345180Y-108911328D01*
X56406848Y-104625614D02*
X55740181Y-104625614D01*
X56787801Y-104387519D02*
X56073515Y-104149424D01*
X56073515Y-104149424D02*
X56073515Y-104768471D01*
X56740181Y-105054186D02*
X56740181Y-105673233D01*
X56740181Y-105673233D02*
X56359229Y-105339900D01*
X56359229Y-105339900D02*
X56359229Y-105482757D01*
X56359229Y-105482757D02*
X56311610Y-105577995D01*
X56311610Y-105577995D02*
X56263991Y-105625614D01*
X56263991Y-105625614D02*
X56168753Y-105673233D01*
X56168753Y-105673233D02*
X55930658Y-105673233D01*
X55930658Y-105673233D02*
X55835420Y-105625614D01*
X55835420Y-105625614D02*
X55787801Y-105577995D01*
X55787801Y-105577995D02*
X55740181Y-105482757D01*
X55740181Y-105482757D02*
X55740181Y-105197043D01*
X55740181Y-105197043D02*
X55787801Y-105101805D01*
X55787801Y-105101805D02*
X55835420Y-105054186D01*
X56740181Y-106530376D02*
X56740181Y-106339900D01*
X56740181Y-106339900D02*
X56692562Y-106244662D01*
X56692562Y-106244662D02*
X56644943Y-106197043D01*
X56644943Y-106197043D02*
X56502086Y-106101805D01*
X56502086Y-106101805D02*
X56311610Y-106054186D01*
X56311610Y-106054186D02*
X55930658Y-106054186D01*
X55930658Y-106054186D02*
X55835420Y-106101805D01*
X55835420Y-106101805D02*
X55787801Y-106149424D01*
X55787801Y-106149424D02*
X55740181Y-106244662D01*
X55740181Y-106244662D02*
X55740181Y-106435138D01*
X55740181Y-106435138D02*
X55787801Y-106530376D01*
X55787801Y-106530376D02*
X55835420Y-106577995D01*
X55835420Y-106577995D02*
X55930658Y-106625614D01*
X55930658Y-106625614D02*
X56168753Y-106625614D01*
X56168753Y-106625614D02*
X56263991Y-106577995D01*
X56263991Y-106577995D02*
X56311610Y-106530376D01*
X56311610Y-106530376D02*
X56359229Y-106435138D01*
X56359229Y-106435138D02*
X56359229Y-106244662D01*
X56359229Y-106244662D02*
X56311610Y-106149424D01*
X56311610Y-106149424D02*
X56263991Y-106101805D01*
X56263991Y-106101805D02*
X56168753Y-106054186D01*
X56740181Y-107530376D02*
X56740181Y-107054186D01*
X56740181Y-107054186D02*
X56263991Y-107006567D01*
X56263991Y-107006567D02*
X56311610Y-107054186D01*
X56311610Y-107054186D02*
X56359229Y-107149424D01*
X56359229Y-107149424D02*
X56359229Y-107387519D01*
X56359229Y-107387519D02*
X56311610Y-107482757D01*
X56311610Y-107482757D02*
X56263991Y-107530376D01*
X56263991Y-107530376D02*
X56168753Y-107577995D01*
X56168753Y-107577995D02*
X55930658Y-107577995D01*
X55930658Y-107577995D02*
X55835420Y-107530376D01*
X55835420Y-107530376D02*
X55787801Y-107482757D01*
X55787801Y-107482757D02*
X55740181Y-107387519D01*
X55740181Y-107387519D02*
X55740181Y-107149424D01*
X55740181Y-107149424D02*
X55787801Y-107054186D01*
X55787801Y-107054186D02*
X55835420Y-107006567D01*
X56740181Y-108197043D02*
X56740181Y-108292281D01*
X56740181Y-108292281D02*
X56692562Y-108387519D01*
X56692562Y-108387519D02*
X56644943Y-108435138D01*
X56644943Y-108435138D02*
X56549705Y-108482757D01*
X56549705Y-108482757D02*
X56359229Y-108530376D01*
X56359229Y-108530376D02*
X56121134Y-108530376D01*
X56121134Y-108530376D02*
X55930658Y-108482757D01*
X55930658Y-108482757D02*
X55835420Y-108435138D01*
X55835420Y-108435138D02*
X55787801Y-108387519D01*
X55787801Y-108387519D02*
X55740181Y-108292281D01*
X55740181Y-108292281D02*
X55740181Y-108197043D01*
X55740181Y-108197043D02*
X55787801Y-108101805D01*
X55787801Y-108101805D02*
X55835420Y-108054186D01*
X55835420Y-108054186D02*
X55930658Y-108006567D01*
X55930658Y-108006567D02*
X56121134Y-107958948D01*
X56121134Y-107958948D02*
X56359229Y-107958948D01*
X56359229Y-107958948D02*
X56549705Y-108006567D01*
X56549705Y-108006567D02*
X56644943Y-108054186D01*
X56644943Y-108054186D02*
X56692562Y-108101805D01*
X56692562Y-108101805D02*
X56740181Y-108197043D01*
X56740181Y-109149424D02*
X56740181Y-109244662D01*
X56740181Y-109244662D02*
X56692562Y-109339900D01*
X56692562Y-109339900D02*
X56644943Y-109387519D01*
X56644943Y-109387519D02*
X56549705Y-109435138D01*
X56549705Y-109435138D02*
X56359229Y-109482757D01*
X56359229Y-109482757D02*
X56121134Y-109482757D01*
X56121134Y-109482757D02*
X55930658Y-109435138D01*
X55930658Y-109435138D02*
X55835420Y-109387519D01*
X55835420Y-109387519D02*
X55787801Y-109339900D01*
X55787801Y-109339900D02*
X55740181Y-109244662D01*
X55740181Y-109244662D02*
X55740181Y-109149424D01*
X55740181Y-109149424D02*
X55787801Y-109054186D01*
X55787801Y-109054186D02*
X55835420Y-109006567D01*
X55835420Y-109006567D02*
X55930658Y-108958948D01*
X55930658Y-108958948D02*
X56121134Y-108911329D01*
X56121134Y-108911329D02*
X56359229Y-108911329D01*
X56359229Y-108911329D02*
X56549705Y-108958948D01*
X56549705Y-108958948D02*
X56644943Y-109006567D01*
X56644943Y-109006567D02*
X56692562Y-109054186D01*
X56692562Y-109054186D02*
X56740181Y-109149424D01*
X56644943Y-109863710D02*
X56692562Y-109911329D01*
X56692562Y-109911329D02*
X56740181Y-110006567D01*
X56740181Y-110006567D02*
X56740181Y-110244662D01*
X56740181Y-110244662D02*
X56692562Y-110339900D01*
X56692562Y-110339900D02*
X56644943Y-110387519D01*
X56644943Y-110387519D02*
X56549705Y-110435138D01*
X56549705Y-110435138D02*
X56454467Y-110435138D01*
X56454467Y-110435138D02*
X56311610Y-110387519D01*
X56311610Y-110387519D02*
X55740181Y-109816091D01*
X55740181Y-109816091D02*
X55740181Y-110435138D01*
X56644943Y-110816091D02*
X56692562Y-110863710D01*
X56692562Y-110863710D02*
X56740181Y-110958948D01*
X56740181Y-110958948D02*
X56740181Y-111197043D01*
X56740181Y-111197043D02*
X56692562Y-111292281D01*
X56692562Y-111292281D02*
X56644943Y-111339900D01*
X56644943Y-111339900D02*
X56549705Y-111387519D01*
X56549705Y-111387519D02*
X56454467Y-111387519D01*
X56454467Y-111387519D02*
X56311610Y-111339900D01*
X56311610Y-111339900D02*
X55740181Y-110768472D01*
X55740181Y-110768472D02*
X55740181Y-111387519D01*
X56740181Y-111720853D02*
X56740181Y-112387519D01*
X56740181Y-112387519D02*
X55740181Y-111958948D01*
X130841905Y-125184819D02*
X130841905Y-125994342D01*
X130841905Y-125994342D02*
X130889524Y-126089580D01*
X130889524Y-126089580D02*
X130937143Y-126137200D01*
X130937143Y-126137200D02*
X131032381Y-126184819D01*
X131032381Y-126184819D02*
X131222857Y-126184819D01*
X131222857Y-126184819D02*
X131318095Y-126137200D01*
X131318095Y-126137200D02*
X131365714Y-126089580D01*
X131365714Y-126089580D02*
X131413333Y-125994342D01*
X131413333Y-125994342D02*
X131413333Y-125184819D01*
X132413333Y-126184819D02*
X131841905Y-126184819D01*
X132127619Y-126184819D02*
X132127619Y-125184819D01*
X132127619Y-125184819D02*
X132032381Y-125327676D01*
X132032381Y-125327676D02*
X131937143Y-125422914D01*
X131937143Y-125422914D02*
X131841905Y-125470533D01*
X132889524Y-126184819D02*
X133080000Y-126184819D01*
X133080000Y-126184819D02*
X133175238Y-126137200D01*
X133175238Y-126137200D02*
X133222857Y-126089580D01*
X133222857Y-126089580D02*
X133318095Y-125946723D01*
X133318095Y-125946723D02*
X133365714Y-125756247D01*
X133365714Y-125756247D02*
X133365714Y-125375295D01*
X133365714Y-125375295D02*
X133318095Y-125280057D01*
X133318095Y-125280057D02*
X133270476Y-125232438D01*
X133270476Y-125232438D02*
X133175238Y-125184819D01*
X133175238Y-125184819D02*
X132984762Y-125184819D01*
X132984762Y-125184819D02*
X132889524Y-125232438D01*
X132889524Y-125232438D02*
X132841905Y-125280057D01*
X132841905Y-125280057D02*
X132794286Y-125375295D01*
X132794286Y-125375295D02*
X132794286Y-125613390D01*
X132794286Y-125613390D02*
X132841905Y-125708628D01*
X132841905Y-125708628D02*
X132889524Y-125756247D01*
X132889524Y-125756247D02*
X132984762Y-125803866D01*
X132984762Y-125803866D02*
X133175238Y-125803866D01*
X133175238Y-125803866D02*
X133270476Y-125756247D01*
X133270476Y-125756247D02*
X133318095Y-125708628D01*
X133318095Y-125708628D02*
X133365714Y-125613390D01*
X116211905Y-143924819D02*
X116211905Y-144734342D01*
X116211905Y-144734342D02*
X116259524Y-144829580D01*
X116259524Y-144829580D02*
X116307143Y-144877200D01*
X116307143Y-144877200D02*
X116402381Y-144924819D01*
X116402381Y-144924819D02*
X116592857Y-144924819D01*
X116592857Y-144924819D02*
X116688095Y-144877200D01*
X116688095Y-144877200D02*
X116735714Y-144829580D01*
X116735714Y-144829580D02*
X116783333Y-144734342D01*
X116783333Y-144734342D02*
X116783333Y-143924819D01*
X117783333Y-144924819D02*
X117211905Y-144924819D01*
X117497619Y-144924819D02*
X117497619Y-143924819D01*
X117497619Y-143924819D02*
X117402381Y-144067676D01*
X117402381Y-144067676D02*
X117307143Y-144162914D01*
X117307143Y-144162914D02*
X117211905Y-144210533D01*
X118640476Y-144258152D02*
X118640476Y-144924819D01*
X118402381Y-143877200D02*
X118164286Y-144591485D01*
X118164286Y-144591485D02*
X118783333Y-144591485D01*
X66749819Y-84494666D02*
X66273628Y-84827999D01*
X66749819Y-85066094D02*
X65749819Y-85066094D01*
X65749819Y-85066094D02*
X65749819Y-84685142D01*
X65749819Y-84685142D02*
X65797438Y-84589904D01*
X65797438Y-84589904D02*
X65845057Y-84542285D01*
X65845057Y-84542285D02*
X65940295Y-84494666D01*
X65940295Y-84494666D02*
X66083152Y-84494666D01*
X66083152Y-84494666D02*
X66178390Y-84542285D01*
X66178390Y-84542285D02*
X66226009Y-84589904D01*
X66226009Y-84589904D02*
X66273628Y-84685142D01*
X66273628Y-84685142D02*
X66273628Y-85066094D01*
X66749819Y-84018475D02*
X66749819Y-83827999D01*
X66749819Y-83827999D02*
X66702200Y-83732761D01*
X66702200Y-83732761D02*
X66654580Y-83685142D01*
X66654580Y-83685142D02*
X66511723Y-83589904D01*
X66511723Y-83589904D02*
X66321247Y-83542285D01*
X66321247Y-83542285D02*
X65940295Y-83542285D01*
X65940295Y-83542285D02*
X65845057Y-83589904D01*
X65845057Y-83589904D02*
X65797438Y-83637523D01*
X65797438Y-83637523D02*
X65749819Y-83732761D01*
X65749819Y-83732761D02*
X65749819Y-83923237D01*
X65749819Y-83923237D02*
X65797438Y-84018475D01*
X65797438Y-84018475D02*
X65845057Y-84066094D01*
X65845057Y-84066094D02*
X65940295Y-84113713D01*
X65940295Y-84113713D02*
X66178390Y-84113713D01*
X66178390Y-84113713D02*
X66273628Y-84066094D01*
X66273628Y-84066094D02*
X66321247Y-84018475D01*
X66321247Y-84018475D02*
X66368866Y-83923237D01*
X66368866Y-83923237D02*
X66368866Y-83732761D01*
X66368866Y-83732761D02*
X66321247Y-83637523D01*
X66321247Y-83637523D02*
X66273628Y-83589904D01*
X66273628Y-83589904D02*
X66178390Y-83542285D01*
X51345180Y-122817342D02*
X50630895Y-122817342D01*
X50630895Y-122817342D02*
X50488038Y-122769723D01*
X50488038Y-122769723D02*
X50392800Y-122674485D01*
X50392800Y-122674485D02*
X50345180Y-122531628D01*
X50345180Y-122531628D02*
X50345180Y-122436390D01*
X51011847Y-123722104D02*
X50345180Y-123722104D01*
X51392800Y-123484009D02*
X50678514Y-123245914D01*
X50678514Y-123245914D02*
X50678514Y-123864961D01*
X56406848Y-119531628D02*
X55740181Y-119531628D01*
X56787801Y-119293533D02*
X56073515Y-119055438D01*
X56073515Y-119055438D02*
X56073515Y-119674485D01*
X56740181Y-119960200D02*
X56740181Y-120579247D01*
X56740181Y-120579247D02*
X56359229Y-120245914D01*
X56359229Y-120245914D02*
X56359229Y-120388771D01*
X56359229Y-120388771D02*
X56311610Y-120484009D01*
X56311610Y-120484009D02*
X56263991Y-120531628D01*
X56263991Y-120531628D02*
X56168753Y-120579247D01*
X56168753Y-120579247D02*
X55930658Y-120579247D01*
X55930658Y-120579247D02*
X55835420Y-120531628D01*
X55835420Y-120531628D02*
X55787801Y-120484009D01*
X55787801Y-120484009D02*
X55740181Y-120388771D01*
X55740181Y-120388771D02*
X55740181Y-120103057D01*
X55740181Y-120103057D02*
X55787801Y-120007819D01*
X55787801Y-120007819D02*
X55835420Y-119960200D01*
X56740181Y-121436390D02*
X56740181Y-121245914D01*
X56740181Y-121245914D02*
X56692562Y-121150676D01*
X56692562Y-121150676D02*
X56644943Y-121103057D01*
X56644943Y-121103057D02*
X56502086Y-121007819D01*
X56502086Y-121007819D02*
X56311610Y-120960200D01*
X56311610Y-120960200D02*
X55930658Y-120960200D01*
X55930658Y-120960200D02*
X55835420Y-121007819D01*
X55835420Y-121007819D02*
X55787801Y-121055438D01*
X55787801Y-121055438D02*
X55740181Y-121150676D01*
X55740181Y-121150676D02*
X55740181Y-121341152D01*
X55740181Y-121341152D02*
X55787801Y-121436390D01*
X55787801Y-121436390D02*
X55835420Y-121484009D01*
X55835420Y-121484009D02*
X55930658Y-121531628D01*
X55930658Y-121531628D02*
X56168753Y-121531628D01*
X56168753Y-121531628D02*
X56263991Y-121484009D01*
X56263991Y-121484009D02*
X56311610Y-121436390D01*
X56311610Y-121436390D02*
X56359229Y-121341152D01*
X56359229Y-121341152D02*
X56359229Y-121150676D01*
X56359229Y-121150676D02*
X56311610Y-121055438D01*
X56311610Y-121055438D02*
X56263991Y-121007819D01*
X56263991Y-121007819D02*
X56168753Y-120960200D01*
X56740181Y-122436390D02*
X56740181Y-121960200D01*
X56740181Y-121960200D02*
X56263991Y-121912581D01*
X56263991Y-121912581D02*
X56311610Y-121960200D01*
X56311610Y-121960200D02*
X56359229Y-122055438D01*
X56359229Y-122055438D02*
X56359229Y-122293533D01*
X56359229Y-122293533D02*
X56311610Y-122388771D01*
X56311610Y-122388771D02*
X56263991Y-122436390D01*
X56263991Y-122436390D02*
X56168753Y-122484009D01*
X56168753Y-122484009D02*
X55930658Y-122484009D01*
X55930658Y-122484009D02*
X55835420Y-122436390D01*
X55835420Y-122436390D02*
X55787801Y-122388771D01*
X55787801Y-122388771D02*
X55740181Y-122293533D01*
X55740181Y-122293533D02*
X55740181Y-122055438D01*
X55740181Y-122055438D02*
X55787801Y-121960200D01*
X55787801Y-121960200D02*
X55835420Y-121912581D01*
X56740181Y-123103057D02*
X56740181Y-123198295D01*
X56740181Y-123198295D02*
X56692562Y-123293533D01*
X56692562Y-123293533D02*
X56644943Y-123341152D01*
X56644943Y-123341152D02*
X56549705Y-123388771D01*
X56549705Y-123388771D02*
X56359229Y-123436390D01*
X56359229Y-123436390D02*
X56121134Y-123436390D01*
X56121134Y-123436390D02*
X55930658Y-123388771D01*
X55930658Y-123388771D02*
X55835420Y-123341152D01*
X55835420Y-123341152D02*
X55787801Y-123293533D01*
X55787801Y-123293533D02*
X55740181Y-123198295D01*
X55740181Y-123198295D02*
X55740181Y-123103057D01*
X55740181Y-123103057D02*
X55787801Y-123007819D01*
X55787801Y-123007819D02*
X55835420Y-122960200D01*
X55835420Y-122960200D02*
X55930658Y-122912581D01*
X55930658Y-122912581D02*
X56121134Y-122864962D01*
X56121134Y-122864962D02*
X56359229Y-122864962D01*
X56359229Y-122864962D02*
X56549705Y-122912581D01*
X56549705Y-122912581D02*
X56644943Y-122960200D01*
X56644943Y-122960200D02*
X56692562Y-123007819D01*
X56692562Y-123007819D02*
X56740181Y-123103057D01*
X56740181Y-124055438D02*
X56740181Y-124150676D01*
X56740181Y-124150676D02*
X56692562Y-124245914D01*
X56692562Y-124245914D02*
X56644943Y-124293533D01*
X56644943Y-124293533D02*
X56549705Y-124341152D01*
X56549705Y-124341152D02*
X56359229Y-124388771D01*
X56359229Y-124388771D02*
X56121134Y-124388771D01*
X56121134Y-124388771D02*
X55930658Y-124341152D01*
X55930658Y-124341152D02*
X55835420Y-124293533D01*
X55835420Y-124293533D02*
X55787801Y-124245914D01*
X55787801Y-124245914D02*
X55740181Y-124150676D01*
X55740181Y-124150676D02*
X55740181Y-124055438D01*
X55740181Y-124055438D02*
X55787801Y-123960200D01*
X55787801Y-123960200D02*
X55835420Y-123912581D01*
X55835420Y-123912581D02*
X55930658Y-123864962D01*
X55930658Y-123864962D02*
X56121134Y-123817343D01*
X56121134Y-123817343D02*
X56359229Y-123817343D01*
X56359229Y-123817343D02*
X56549705Y-123864962D01*
X56549705Y-123864962D02*
X56644943Y-123912581D01*
X56644943Y-123912581D02*
X56692562Y-123960200D01*
X56692562Y-123960200D02*
X56740181Y-124055438D01*
X56644943Y-124769724D02*
X56692562Y-124817343D01*
X56692562Y-124817343D02*
X56740181Y-124912581D01*
X56740181Y-124912581D02*
X56740181Y-125150676D01*
X56740181Y-125150676D02*
X56692562Y-125245914D01*
X56692562Y-125245914D02*
X56644943Y-125293533D01*
X56644943Y-125293533D02*
X56549705Y-125341152D01*
X56549705Y-125341152D02*
X56454467Y-125341152D01*
X56454467Y-125341152D02*
X56311610Y-125293533D01*
X56311610Y-125293533D02*
X55740181Y-124722105D01*
X55740181Y-124722105D02*
X55740181Y-125341152D01*
X56644943Y-125722105D02*
X56692562Y-125769724D01*
X56692562Y-125769724D02*
X56740181Y-125864962D01*
X56740181Y-125864962D02*
X56740181Y-126103057D01*
X56740181Y-126103057D02*
X56692562Y-126198295D01*
X56692562Y-126198295D02*
X56644943Y-126245914D01*
X56644943Y-126245914D02*
X56549705Y-126293533D01*
X56549705Y-126293533D02*
X56454467Y-126293533D01*
X56454467Y-126293533D02*
X56311610Y-126245914D01*
X56311610Y-126245914D02*
X55740181Y-125674486D01*
X55740181Y-125674486D02*
X55740181Y-126293533D01*
X56740181Y-126626867D02*
X56740181Y-127293533D01*
X56740181Y-127293533D02*
X55740181Y-126864962D01*
X40120666Y-68007200D02*
X40263523Y-68054819D01*
X40263523Y-68054819D02*
X40501618Y-68054819D01*
X40501618Y-68054819D02*
X40596856Y-68007200D01*
X40596856Y-68007200D02*
X40644475Y-67959580D01*
X40644475Y-67959580D02*
X40692094Y-67864342D01*
X40692094Y-67864342D02*
X40692094Y-67769104D01*
X40692094Y-67769104D02*
X40644475Y-67673866D01*
X40644475Y-67673866D02*
X40596856Y-67626247D01*
X40596856Y-67626247D02*
X40501618Y-67578628D01*
X40501618Y-67578628D02*
X40311142Y-67531009D01*
X40311142Y-67531009D02*
X40215904Y-67483390D01*
X40215904Y-67483390D02*
X40168285Y-67435771D01*
X40168285Y-67435771D02*
X40120666Y-67340533D01*
X40120666Y-67340533D02*
X40120666Y-67245295D01*
X40120666Y-67245295D02*
X40168285Y-67150057D01*
X40168285Y-67150057D02*
X40215904Y-67102438D01*
X40215904Y-67102438D02*
X40311142Y-67054819D01*
X40311142Y-67054819D02*
X40549237Y-67054819D01*
X40549237Y-67054819D02*
X40692094Y-67102438D01*
X41025428Y-67054819D02*
X41263523Y-68054819D01*
X41263523Y-68054819D02*
X41453999Y-67340533D01*
X41453999Y-67340533D02*
X41644475Y-68054819D01*
X41644475Y-68054819D02*
X41882571Y-67054819D01*
X42787332Y-68054819D02*
X42215904Y-68054819D01*
X42501618Y-68054819D02*
X42501618Y-67054819D01*
X42501618Y-67054819D02*
X42406380Y-67197676D01*
X42406380Y-67197676D02*
X42311142Y-67292914D01*
X42311142Y-67292914D02*
X42215904Y-67340533D01*
X77333333Y-68254819D02*
X77000000Y-67778628D01*
X76761905Y-68254819D02*
X76761905Y-67254819D01*
X76761905Y-67254819D02*
X77142857Y-67254819D01*
X77142857Y-67254819D02*
X77238095Y-67302438D01*
X77238095Y-67302438D02*
X77285714Y-67350057D01*
X77285714Y-67350057D02*
X77333333Y-67445295D01*
X77333333Y-67445295D02*
X77333333Y-67588152D01*
X77333333Y-67588152D02*
X77285714Y-67683390D01*
X77285714Y-67683390D02*
X77238095Y-67731009D01*
X77238095Y-67731009D02*
X77142857Y-67778628D01*
X77142857Y-67778628D02*
X76761905Y-67778628D01*
X77904762Y-67683390D02*
X77809524Y-67635771D01*
X77809524Y-67635771D02*
X77761905Y-67588152D01*
X77761905Y-67588152D02*
X77714286Y-67492914D01*
X77714286Y-67492914D02*
X77714286Y-67445295D01*
X77714286Y-67445295D02*
X77761905Y-67350057D01*
X77761905Y-67350057D02*
X77809524Y-67302438D01*
X77809524Y-67302438D02*
X77904762Y-67254819D01*
X77904762Y-67254819D02*
X78095238Y-67254819D01*
X78095238Y-67254819D02*
X78190476Y-67302438D01*
X78190476Y-67302438D02*
X78238095Y-67350057D01*
X78238095Y-67350057D02*
X78285714Y-67445295D01*
X78285714Y-67445295D02*
X78285714Y-67492914D01*
X78285714Y-67492914D02*
X78238095Y-67588152D01*
X78238095Y-67588152D02*
X78190476Y-67635771D01*
X78190476Y-67635771D02*
X78095238Y-67683390D01*
X78095238Y-67683390D02*
X77904762Y-67683390D01*
X77904762Y-67683390D02*
X77809524Y-67731009D01*
X77809524Y-67731009D02*
X77761905Y-67778628D01*
X77761905Y-67778628D02*
X77714286Y-67873866D01*
X77714286Y-67873866D02*
X77714286Y-68064342D01*
X77714286Y-68064342D02*
X77761905Y-68159580D01*
X77761905Y-68159580D02*
X77809524Y-68207200D01*
X77809524Y-68207200D02*
X77904762Y-68254819D01*
X77904762Y-68254819D02*
X78095238Y-68254819D01*
X78095238Y-68254819D02*
X78190476Y-68207200D01*
X78190476Y-68207200D02*
X78238095Y-68159580D01*
X78238095Y-68159580D02*
X78285714Y-68064342D01*
X78285714Y-68064342D02*
X78285714Y-67873866D01*
X78285714Y-67873866D02*
X78238095Y-67778628D01*
X78238095Y-67778628D02*
X78190476Y-67731009D01*
X78190476Y-67731009D02*
X78095238Y-67683390D01*
D11*
X125320000Y-65190000D02*
X125320000Y-66610000D01*
X125320000Y-66610000D02*
X129820000Y-66610000D01*
X125320000Y-73890000D02*
X129820000Y-73890000D01*
X125320000Y-75310000D02*
X125320000Y-73890000D01*
X127230000Y-72450000D02*
X127830000Y-72750000D01*
X127230000Y-73050000D02*
X127230000Y-72450000D01*
X127830000Y-72750000D02*
X127230000Y-73050000D01*
X130930000Y-67500000D02*
X130930000Y-68000000D01*
X130930000Y-68000000D02*
X136430000Y-68000000D01*
X130930000Y-70000000D02*
X130930000Y-70500000D01*
X130930000Y-70500000D02*
X136430000Y-70500000D01*
X130930000Y-72500000D02*
X130930000Y-73000000D01*
X130930000Y-73000000D02*
X136430000Y-73000000D01*
X136430000Y-67500000D02*
X130930000Y-67500000D01*
X136430000Y-68000000D02*
X136430000Y-67500000D01*
X136430000Y-70000000D02*
X130930000Y-70000000D01*
X136430000Y-70500000D02*
X136430000Y-70000000D01*
X136430000Y-72500000D02*
X130930000Y-72500000D01*
X136430000Y-73000000D02*
X136430000Y-72500000D01*
X137040000Y-65190000D02*
X125320000Y-65190000D01*
X137040000Y-70250000D02*
X137040000Y-65190000D01*
X137040000Y-70250000D02*
X137040000Y-75310000D01*
X137040000Y-75310000D02*
X125320000Y-75310000D01*
D12*
X38020998Y-77662656D02*
X38020998Y-80003145D01*
X38539771Y-81959902D02*
X43756229Y-81959902D01*
X43756229Y-75705899D02*
X38539771Y-75705899D01*
X44275002Y-80003145D02*
X44275002Y-77662656D01*
D13*
X38024999Y-74042900D02*
G75*
G02*
X37770999Y-74042900I-127000J0D01*
G01*
X37770999Y-74042900D02*
G75*
G02*
X38024999Y-74042900I127000J0D01*
G01*
D12*
X39440000Y-89643125D02*
X39440000Y-97034187D01*
X40845341Y-98163640D02*
X45009999Y-98163640D01*
X41275000Y-99941640D02*
X41910000Y-98417640D01*
X41910000Y-98417640D02*
X42545000Y-99941640D01*
X42545000Y-99941640D02*
X41275000Y-99941640D01*
X45009999Y-88513659D02*
X40845337Y-88513659D01*
X45009999Y-98163640D02*
X45009999Y-88513659D01*
D11*
X124200331Y-90109669D02*
X124633344Y-90359669D01*
X124200331Y-90609669D02*
X124200331Y-90109669D01*
X124633344Y-90359669D02*
X124200331Y-90609669D01*
X125094669Y-80414669D02*
X137434669Y-80414669D01*
X125094669Y-111384669D02*
X125094669Y-80414669D01*
X137434669Y-111384669D02*
X125094669Y-111384669D01*
D12*
X39440000Y-134361169D02*
X39440000Y-141752231D01*
X40845341Y-142881684D02*
X45009999Y-142881684D01*
X41275000Y-144659684D02*
X41910000Y-143135684D01*
X41910000Y-143135684D02*
X42545000Y-144659684D01*
X42545000Y-144659684D02*
X41275000Y-144659684D01*
X45009999Y-133231703D02*
X40845337Y-133231703D01*
X45009999Y-142881684D02*
X45009999Y-133231703D01*
X39440000Y-104549139D02*
X39440000Y-111940201D01*
X40845341Y-113069654D02*
X45009999Y-113069654D01*
X41275000Y-114847654D02*
X41910000Y-113323654D01*
X41910000Y-113323654D02*
X42545000Y-114847654D01*
X42545000Y-114847654D02*
X41275000Y-114847654D01*
X45009999Y-103419673D02*
X40845337Y-103419673D01*
X45009999Y-113069654D02*
X45009999Y-103419673D01*
D11*
X125010000Y-114920000D02*
X125010000Y-135560000D01*
X125010000Y-135560000D02*
X140250000Y-135560000D01*
X140250000Y-114920000D02*
X125010000Y-114920000D01*
X140250000Y-135560000D02*
X140250000Y-114920000D01*
X49430000Y-60620000D02*
X49430000Y-143120000D01*
X49430000Y-143120000D02*
X119430000Y-143120000D01*
X119430000Y-60620000D02*
X49430000Y-60620000D01*
X119430000Y-143120000D02*
X119430000Y-60620000D01*
X67295000Y-79258000D02*
X67295000Y-89398000D01*
X67295000Y-89398000D02*
X71135000Y-89398000D01*
X69215000Y-78148000D02*
X69215000Y-79258000D01*
X69215000Y-90508000D02*
X69215000Y-89398000D01*
X71135000Y-79258000D02*
X67295000Y-79258000D01*
X71135000Y-89398000D02*
X71135000Y-79258000D01*
D12*
X39440000Y-119455153D02*
X39440000Y-126846215D01*
X40845341Y-127975668D02*
X45009999Y-127975668D01*
X41275000Y-129753668D02*
X41910000Y-128229668D01*
X41910000Y-128229668D02*
X42545000Y-129753668D01*
X42545000Y-129753668D02*
X41275000Y-129753668D01*
X45009999Y-118325687D02*
X40845337Y-118325687D01*
X45009999Y-127975668D02*
X45009999Y-118325687D01*
X38326997Y-66429755D02*
X38326997Y-68770244D01*
X38845770Y-70727001D02*
X44062228Y-70727001D01*
X44062228Y-64472998D02*
X38845770Y-64472998D01*
X44581001Y-68770244D02*
X44581001Y-66429755D01*
D13*
X38330998Y-62809999D02*
G75*
G02*
X38076998Y-62809999I-127000J0D01*
G01*
X38076998Y-62809999D02*
G75*
G02*
X38330998Y-62809999I127000J0D01*
G01*
D11*
X72430000Y-66800000D02*
X82570000Y-66800000D01*
X82570000Y-66800000D02*
X82570000Y-62960000D01*
X71320000Y-64880000D02*
X72430000Y-64880000D01*
X83680000Y-64880000D02*
X82570000Y-64880000D01*
X72430000Y-62960000D02*
X72430000Y-66800000D01*
X82570000Y-62960000D02*
X72430000Y-62960000D01*
M02*
