M48
; DRILL file {KiCad 8.0.0} date 2024-03-28T17:26:06-0400
; FORMAT={-:-/ absolute / inch / decimal}
; #@! TF.CreationDate,2024-03-28T17:26:06-04:00
; #@! TF.GenerationSoftware,Kicad,Pcbnew,8.0.0
; #@! TF.FileFunction,Plated,1,2,PTH
FMAT,2
INCH
; #@! TA.AperFunction,Plated,PTH,ComponentDrill
T1C0.0300
; #@! TA.AperFunction,Plated,PTH,ComponentDrill
T2C0.0374
; #@! TA.AperFunction,Plated,PTH,ComponentDrill
T3C0.0394
; #@! TA.AperFunction,Plated,PTH,ComponentDrill
T4C0.0394
; #@! TA.AperFunction,Plated,PTH,ComponentDrill
T5C0.0402
; #@! TA.AperFunction,Plated,PTH,ComponentDrill
T6C0.0472
; #@! TA.AperFunction,Plated,PTH,ComponentDrill
T7C0.1260
%
G90
G05
T1
X2.074Y-3.6378
X2.074Y-3.7378
X2.074Y-3.8378
X2.074Y-3.9378
X2.074Y-4.0378
X2.074Y-4.1378
X2.074Y-4.2378
X2.074Y-4.3378
X2.074Y-4.4378
X2.074Y-4.5378
X2.074Y-4.6378
X2.074Y-4.7378
X2.074Y-4.8378
X2.074Y-4.9378
X2.074Y-5.0378
X2.074Y-5.1378
X2.074Y-5.2378
X2.074Y-5.3378
X2.074Y-5.4378
X2.174Y-3.6378
X2.174Y-3.7378
X2.174Y-3.8378
X2.174Y-3.9378
X2.174Y-4.0378
X2.174Y-4.1378
X2.174Y-4.2378
X2.174Y-4.3378
X2.174Y-4.4378
X2.174Y-4.5378
X2.174Y-4.6378
X2.174Y-4.7378
X2.174Y-4.8378
X2.174Y-4.9378
X2.174Y-5.0378
X2.174Y-5.1378
X2.174Y-5.2378
X2.174Y-5.3378
X2.174Y-5.4378
X4.474Y-3.6378
X4.474Y-3.7378
X4.474Y-3.8378
X4.474Y-3.9378
X4.474Y-4.0378
X4.474Y-4.1378
X4.474Y-4.2378
X4.474Y-4.3378
X4.474Y-4.4378
X4.474Y-4.5378
X4.474Y-4.6378
X4.474Y-4.7378
X4.474Y-4.8378
X4.474Y-4.9378
X4.474Y-5.0378
X4.474Y-5.1378
X4.474Y-5.2378
X4.474Y-5.3378
X4.474Y-5.4378
X4.574Y-3.6378
X4.574Y-3.7378
X4.574Y-3.8378
X4.574Y-3.9378
X4.574Y-4.0378
X4.574Y-4.1378
X4.574Y-4.2378
X4.574Y-4.3378
X4.574Y-4.4378
X4.574Y-4.5378
X4.574Y-4.6378
X4.574Y-4.7378
X4.574Y-4.8378
X4.574Y-4.9378
X4.574Y-5.0378
X4.574Y-5.1378
X4.574Y-5.2378
X4.574Y-5.3378
X4.574Y-5.4378
T2
X5.0917Y-2.6673
X5.0917Y-2.7657
X5.0917Y-2.8642
T3
X1.492Y-3.0151
X1.492Y-3.1922
X1.5041Y-2.5728
X1.5041Y-2.75
X1.748Y-3.0151
X1.748Y-3.1922
X1.76Y-2.5728
X1.76Y-2.75
T4
X4.9717Y-4.5807
X4.9717Y-4.6807
X4.9717Y-4.7807
X4.9717Y-4.8807
X4.9717Y-4.9807
X4.9717Y-5.0807
X4.9717Y-5.1807
X4.9717Y-5.2807
X4.9982Y-3.5575
X4.9982Y-3.6665
X4.9982Y-3.7756
X4.9982Y-3.8846
X4.9982Y-3.9937
X5.11Y-3.612
X5.11Y-3.721
X5.11Y-3.8301
X5.11Y-3.9392
T5
X1.65Y-3.6157
X1.65Y-3.7338
X1.65Y-4.2025
X1.65Y-4.3207
X1.65Y-4.7894
X1.65Y-4.9075
X1.65Y-5.3762
X1.65Y-5.4944
T6
X2.725Y-3.02
X2.725Y-3.62
X2.7512Y-2.5543
X3.3512Y-2.5543
T7
X5.0541Y-3.2835
X5.0541Y-4.2677
M30
