G04 #@! TF.GenerationSoftware,KiCad,Pcbnew,(5.1.2)-2*
G04 #@! TF.CreationDate,2022-11-30T20:03:35+09:00*
G04 #@! TF.ProjectId,MCU_MotherBoard,4d43555f-4d6f-4746-9865-72426f617264,rev?*
G04 #@! TF.SameCoordinates,Original*
G04 #@! TF.FileFunction,Paste,Top*
G04 #@! TF.FilePolarity,Positive*
%FSLAX46Y46*%
G04 Gerber Fmt 4.6, Leading zero omitted, Abs format (unit mm)*
G04 Created by KiCad (PCBNEW (5.1.2)-2) date 2022-11-30 20:03:35*
%MOMM*%
%LPD*%
G04 APERTURE LIST*
%ADD10C,0.100000*%
%ADD11C,2.075000*%
%ADD12C,0.600000*%
G04 APERTURE END LIST*
D10*
G36*
X59802504Y-123694204D02*
G01*
X59826773Y-123697804D01*
X59850571Y-123703765D01*
X59873671Y-123712030D01*
X59895849Y-123722520D01*
X59916893Y-123735133D01*
X59936598Y-123749747D01*
X59954777Y-123766223D01*
X59971253Y-123784402D01*
X59985867Y-123804107D01*
X59998480Y-123825151D01*
X60008970Y-123847329D01*
X60017235Y-123870429D01*
X60023196Y-123894227D01*
X60026796Y-123918496D01*
X60028000Y-123943000D01*
X60028000Y-125993000D01*
X60026796Y-126017504D01*
X60023196Y-126041773D01*
X60017235Y-126065571D01*
X60008970Y-126088671D01*
X59998480Y-126110849D01*
X59985867Y-126131893D01*
X59971253Y-126151598D01*
X59954777Y-126169777D01*
X59936598Y-126186253D01*
X59916893Y-126200867D01*
X59895849Y-126213480D01*
X59873671Y-126223970D01*
X59850571Y-126232235D01*
X59826773Y-126238196D01*
X59802504Y-126241796D01*
X59778000Y-126243000D01*
X58203000Y-126243000D01*
X58178496Y-126241796D01*
X58154227Y-126238196D01*
X58130429Y-126232235D01*
X58107329Y-126223970D01*
X58085151Y-126213480D01*
X58064107Y-126200867D01*
X58044402Y-126186253D01*
X58026223Y-126169777D01*
X58009747Y-126151598D01*
X57995133Y-126131893D01*
X57982520Y-126110849D01*
X57972030Y-126088671D01*
X57963765Y-126065571D01*
X57957804Y-126041773D01*
X57954204Y-126017504D01*
X57953000Y-125993000D01*
X57953000Y-123943000D01*
X57954204Y-123918496D01*
X57957804Y-123894227D01*
X57963765Y-123870429D01*
X57972030Y-123847329D01*
X57982520Y-123825151D01*
X57995133Y-123804107D01*
X58009747Y-123784402D01*
X58026223Y-123766223D01*
X58044402Y-123749747D01*
X58064107Y-123735133D01*
X58085151Y-123722520D01*
X58107329Y-123712030D01*
X58130429Y-123703765D01*
X58154227Y-123697804D01*
X58178496Y-123694204D01*
X58203000Y-123693000D01*
X59778000Y-123693000D01*
X59802504Y-123694204D01*
X59802504Y-123694204D01*
G37*
D11*
X58990500Y-124968000D03*
D10*
G36*
X66027504Y-123694204D02*
G01*
X66051773Y-123697804D01*
X66075571Y-123703765D01*
X66098671Y-123712030D01*
X66120849Y-123722520D01*
X66141893Y-123735133D01*
X66161598Y-123749747D01*
X66179777Y-123766223D01*
X66196253Y-123784402D01*
X66210867Y-123804107D01*
X66223480Y-123825151D01*
X66233970Y-123847329D01*
X66242235Y-123870429D01*
X66248196Y-123894227D01*
X66251796Y-123918496D01*
X66253000Y-123943000D01*
X66253000Y-125993000D01*
X66251796Y-126017504D01*
X66248196Y-126041773D01*
X66242235Y-126065571D01*
X66233970Y-126088671D01*
X66223480Y-126110849D01*
X66210867Y-126131893D01*
X66196253Y-126151598D01*
X66179777Y-126169777D01*
X66161598Y-126186253D01*
X66141893Y-126200867D01*
X66120849Y-126213480D01*
X66098671Y-126223970D01*
X66075571Y-126232235D01*
X66051773Y-126238196D01*
X66027504Y-126241796D01*
X66003000Y-126243000D01*
X64428000Y-126243000D01*
X64403496Y-126241796D01*
X64379227Y-126238196D01*
X64355429Y-126232235D01*
X64332329Y-126223970D01*
X64310151Y-126213480D01*
X64289107Y-126200867D01*
X64269402Y-126186253D01*
X64251223Y-126169777D01*
X64234747Y-126151598D01*
X64220133Y-126131893D01*
X64207520Y-126110849D01*
X64197030Y-126088671D01*
X64188765Y-126065571D01*
X64182804Y-126041773D01*
X64179204Y-126017504D01*
X64178000Y-125993000D01*
X64178000Y-123943000D01*
X64179204Y-123918496D01*
X64182804Y-123894227D01*
X64188765Y-123870429D01*
X64197030Y-123847329D01*
X64207520Y-123825151D01*
X64220133Y-123804107D01*
X64234747Y-123784402D01*
X64251223Y-123766223D01*
X64269402Y-123749747D01*
X64289107Y-123735133D01*
X64310151Y-123722520D01*
X64332329Y-123712030D01*
X64355429Y-123703765D01*
X64379227Y-123697804D01*
X64403496Y-123694204D01*
X64428000Y-123693000D01*
X66003000Y-123693000D01*
X66027504Y-123694204D01*
X66027504Y-123694204D01*
G37*
D11*
X65215500Y-124968000D03*
D10*
G36*
X58585304Y-137867404D02*
G01*
X58609573Y-137871004D01*
X58633371Y-137876965D01*
X58656471Y-137885230D01*
X58678649Y-137895720D01*
X58699693Y-137908333D01*
X58719398Y-137922947D01*
X58737577Y-137939423D01*
X58754053Y-137957602D01*
X58768667Y-137977307D01*
X58781280Y-137998351D01*
X58791770Y-138020529D01*
X58800035Y-138043629D01*
X58805996Y-138067427D01*
X58809596Y-138091696D01*
X58810800Y-138116200D01*
X58810800Y-140166200D01*
X58809596Y-140190704D01*
X58805996Y-140214973D01*
X58800035Y-140238771D01*
X58791770Y-140261871D01*
X58781280Y-140284049D01*
X58768667Y-140305093D01*
X58754053Y-140324798D01*
X58737577Y-140342977D01*
X58719398Y-140359453D01*
X58699693Y-140374067D01*
X58678649Y-140386680D01*
X58656471Y-140397170D01*
X58633371Y-140405435D01*
X58609573Y-140411396D01*
X58585304Y-140414996D01*
X58560800Y-140416200D01*
X56985800Y-140416200D01*
X56961296Y-140414996D01*
X56937027Y-140411396D01*
X56913229Y-140405435D01*
X56890129Y-140397170D01*
X56867951Y-140386680D01*
X56846907Y-140374067D01*
X56827202Y-140359453D01*
X56809023Y-140342977D01*
X56792547Y-140324798D01*
X56777933Y-140305093D01*
X56765320Y-140284049D01*
X56754830Y-140261871D01*
X56746565Y-140238771D01*
X56740604Y-140214973D01*
X56737004Y-140190704D01*
X56735800Y-140166200D01*
X56735800Y-138116200D01*
X56737004Y-138091696D01*
X56740604Y-138067427D01*
X56746565Y-138043629D01*
X56754830Y-138020529D01*
X56765320Y-137998351D01*
X56777933Y-137977307D01*
X56792547Y-137957602D01*
X56809023Y-137939423D01*
X56827202Y-137922947D01*
X56846907Y-137908333D01*
X56867951Y-137895720D01*
X56890129Y-137885230D01*
X56913229Y-137876965D01*
X56937027Y-137871004D01*
X56961296Y-137867404D01*
X56985800Y-137866200D01*
X58560800Y-137866200D01*
X58585304Y-137867404D01*
X58585304Y-137867404D01*
G37*
D11*
X57773300Y-139141200D03*
D10*
G36*
X52360304Y-137867404D02*
G01*
X52384573Y-137871004D01*
X52408371Y-137876965D01*
X52431471Y-137885230D01*
X52453649Y-137895720D01*
X52474693Y-137908333D01*
X52494398Y-137922947D01*
X52512577Y-137939423D01*
X52529053Y-137957602D01*
X52543667Y-137977307D01*
X52556280Y-137998351D01*
X52566770Y-138020529D01*
X52575035Y-138043629D01*
X52580996Y-138067427D01*
X52584596Y-138091696D01*
X52585800Y-138116200D01*
X52585800Y-140166200D01*
X52584596Y-140190704D01*
X52580996Y-140214973D01*
X52575035Y-140238771D01*
X52566770Y-140261871D01*
X52556280Y-140284049D01*
X52543667Y-140305093D01*
X52529053Y-140324798D01*
X52512577Y-140342977D01*
X52494398Y-140359453D01*
X52474693Y-140374067D01*
X52453649Y-140386680D01*
X52431471Y-140397170D01*
X52408371Y-140405435D01*
X52384573Y-140411396D01*
X52360304Y-140414996D01*
X52335800Y-140416200D01*
X50760800Y-140416200D01*
X50736296Y-140414996D01*
X50712027Y-140411396D01*
X50688229Y-140405435D01*
X50665129Y-140397170D01*
X50642951Y-140386680D01*
X50621907Y-140374067D01*
X50602202Y-140359453D01*
X50584023Y-140342977D01*
X50567547Y-140324798D01*
X50552933Y-140305093D01*
X50540320Y-140284049D01*
X50529830Y-140261871D01*
X50521565Y-140238771D01*
X50515604Y-140214973D01*
X50512004Y-140190704D01*
X50510800Y-140166200D01*
X50510800Y-138116200D01*
X50512004Y-138091696D01*
X50515604Y-138067427D01*
X50521565Y-138043629D01*
X50529830Y-138020529D01*
X50540320Y-137998351D01*
X50552933Y-137977307D01*
X50567547Y-137957602D01*
X50584023Y-137939423D01*
X50602202Y-137922947D01*
X50621907Y-137908333D01*
X50642951Y-137895720D01*
X50665129Y-137885230D01*
X50688229Y-137876965D01*
X50712027Y-137871004D01*
X50736296Y-137867404D01*
X50760800Y-137866200D01*
X52335800Y-137866200D01*
X52360304Y-137867404D01*
X52360304Y-137867404D01*
G37*
D11*
X51548300Y-139141200D03*
D10*
G36*
X56770081Y-133776640D02*
G01*
X56774915Y-133777357D01*
X56779656Y-133778544D01*
X56784258Y-133780191D01*
X56788676Y-133782280D01*
X56792867Y-133784793D01*
X56796793Y-133787704D01*
X56800414Y-133790986D01*
X56803696Y-133794607D01*
X56806607Y-133798533D01*
X56809120Y-133802724D01*
X56811209Y-133807142D01*
X56812856Y-133811744D01*
X56814043Y-133816485D01*
X56814760Y-133821319D01*
X56815000Y-133826200D01*
X56815000Y-135276600D01*
X56814760Y-135281481D01*
X56814043Y-135286315D01*
X56812856Y-135291056D01*
X56811209Y-135295658D01*
X56809120Y-135300076D01*
X56806607Y-135304267D01*
X56803696Y-135308193D01*
X56800414Y-135311814D01*
X56796793Y-135315096D01*
X56792867Y-135318007D01*
X56788676Y-135320520D01*
X56784258Y-135322609D01*
X56779656Y-135324256D01*
X56774915Y-135325443D01*
X56770081Y-135326160D01*
X56765200Y-135326400D01*
X56264800Y-135326400D01*
X56259919Y-135326160D01*
X56255085Y-135325443D01*
X56250344Y-135324256D01*
X56245742Y-135322609D01*
X56241324Y-135320520D01*
X56237133Y-135318007D01*
X56233207Y-135315096D01*
X56229586Y-135311814D01*
X56226304Y-135308193D01*
X56223393Y-135304267D01*
X56220880Y-135300076D01*
X56218791Y-135295658D01*
X56217144Y-135291056D01*
X56215957Y-135286315D01*
X56215240Y-135281481D01*
X56215000Y-135276600D01*
X56215000Y-133826200D01*
X56215240Y-133821319D01*
X56215957Y-133816485D01*
X56217144Y-133811744D01*
X56218791Y-133807142D01*
X56220880Y-133802724D01*
X56223393Y-133798533D01*
X56226304Y-133794607D01*
X56229586Y-133790986D01*
X56233207Y-133787704D01*
X56237133Y-133784793D01*
X56241324Y-133782280D01*
X56245742Y-133780191D01*
X56250344Y-133778544D01*
X56255085Y-133777357D01*
X56259919Y-133776640D01*
X56264800Y-133776400D01*
X56765200Y-133776400D01*
X56770081Y-133776640D01*
X56770081Y-133776640D01*
G37*
D12*
X56515000Y-134551400D03*
D10*
G36*
X58040081Y-133776640D02*
G01*
X58044915Y-133777357D01*
X58049656Y-133778544D01*
X58054258Y-133780191D01*
X58058676Y-133782280D01*
X58062867Y-133784793D01*
X58066793Y-133787704D01*
X58070414Y-133790986D01*
X58073696Y-133794607D01*
X58076607Y-133798533D01*
X58079120Y-133802724D01*
X58081209Y-133807142D01*
X58082856Y-133811744D01*
X58084043Y-133816485D01*
X58084760Y-133821319D01*
X58085000Y-133826200D01*
X58085000Y-135276600D01*
X58084760Y-135281481D01*
X58084043Y-135286315D01*
X58082856Y-135291056D01*
X58081209Y-135295658D01*
X58079120Y-135300076D01*
X58076607Y-135304267D01*
X58073696Y-135308193D01*
X58070414Y-135311814D01*
X58066793Y-135315096D01*
X58062867Y-135318007D01*
X58058676Y-135320520D01*
X58054258Y-135322609D01*
X58049656Y-135324256D01*
X58044915Y-135325443D01*
X58040081Y-135326160D01*
X58035200Y-135326400D01*
X57534800Y-135326400D01*
X57529919Y-135326160D01*
X57525085Y-135325443D01*
X57520344Y-135324256D01*
X57515742Y-135322609D01*
X57511324Y-135320520D01*
X57507133Y-135318007D01*
X57503207Y-135315096D01*
X57499586Y-135311814D01*
X57496304Y-135308193D01*
X57493393Y-135304267D01*
X57490880Y-135300076D01*
X57488791Y-135295658D01*
X57487144Y-135291056D01*
X57485957Y-135286315D01*
X57485240Y-135281481D01*
X57485000Y-135276600D01*
X57485000Y-133826200D01*
X57485240Y-133821319D01*
X57485957Y-133816485D01*
X57487144Y-133811744D01*
X57488791Y-133807142D01*
X57490880Y-133802724D01*
X57493393Y-133798533D01*
X57496304Y-133794607D01*
X57499586Y-133790986D01*
X57503207Y-133787704D01*
X57507133Y-133784793D01*
X57511324Y-133782280D01*
X57515742Y-133780191D01*
X57520344Y-133778544D01*
X57525085Y-133777357D01*
X57529919Y-133776640D01*
X57534800Y-133776400D01*
X58035200Y-133776400D01*
X58040081Y-133776640D01*
X58040081Y-133776640D01*
G37*
D12*
X57785000Y-134551400D03*
D10*
G36*
X59310081Y-133776640D02*
G01*
X59314915Y-133777357D01*
X59319656Y-133778544D01*
X59324258Y-133780191D01*
X59328676Y-133782280D01*
X59332867Y-133784793D01*
X59336793Y-133787704D01*
X59340414Y-133790986D01*
X59343696Y-133794607D01*
X59346607Y-133798533D01*
X59349120Y-133802724D01*
X59351209Y-133807142D01*
X59352856Y-133811744D01*
X59354043Y-133816485D01*
X59354760Y-133821319D01*
X59355000Y-133826200D01*
X59355000Y-135276600D01*
X59354760Y-135281481D01*
X59354043Y-135286315D01*
X59352856Y-135291056D01*
X59351209Y-135295658D01*
X59349120Y-135300076D01*
X59346607Y-135304267D01*
X59343696Y-135308193D01*
X59340414Y-135311814D01*
X59336793Y-135315096D01*
X59332867Y-135318007D01*
X59328676Y-135320520D01*
X59324258Y-135322609D01*
X59319656Y-135324256D01*
X59314915Y-135325443D01*
X59310081Y-135326160D01*
X59305200Y-135326400D01*
X58804800Y-135326400D01*
X58799919Y-135326160D01*
X58795085Y-135325443D01*
X58790344Y-135324256D01*
X58785742Y-135322609D01*
X58781324Y-135320520D01*
X58777133Y-135318007D01*
X58773207Y-135315096D01*
X58769586Y-135311814D01*
X58766304Y-135308193D01*
X58763393Y-135304267D01*
X58760880Y-135300076D01*
X58758791Y-135295658D01*
X58757144Y-135291056D01*
X58755957Y-135286315D01*
X58755240Y-135281481D01*
X58755000Y-135276600D01*
X58755000Y-133826200D01*
X58755240Y-133821319D01*
X58755957Y-133816485D01*
X58757144Y-133811744D01*
X58758791Y-133807142D01*
X58760880Y-133802724D01*
X58763393Y-133798533D01*
X58766304Y-133794607D01*
X58769586Y-133790986D01*
X58773207Y-133787704D01*
X58777133Y-133784793D01*
X58781324Y-133782280D01*
X58785742Y-133780191D01*
X58790344Y-133778544D01*
X58795085Y-133777357D01*
X58799919Y-133776640D01*
X58804800Y-133776400D01*
X59305200Y-133776400D01*
X59310081Y-133776640D01*
X59310081Y-133776640D01*
G37*
D12*
X59055000Y-134551400D03*
D10*
G36*
X60580081Y-133776640D02*
G01*
X60584915Y-133777357D01*
X60589656Y-133778544D01*
X60594258Y-133780191D01*
X60598676Y-133782280D01*
X60602867Y-133784793D01*
X60606793Y-133787704D01*
X60610414Y-133790986D01*
X60613696Y-133794607D01*
X60616607Y-133798533D01*
X60619120Y-133802724D01*
X60621209Y-133807142D01*
X60622856Y-133811744D01*
X60624043Y-133816485D01*
X60624760Y-133821319D01*
X60625000Y-133826200D01*
X60625000Y-135276600D01*
X60624760Y-135281481D01*
X60624043Y-135286315D01*
X60622856Y-135291056D01*
X60621209Y-135295658D01*
X60619120Y-135300076D01*
X60616607Y-135304267D01*
X60613696Y-135308193D01*
X60610414Y-135311814D01*
X60606793Y-135315096D01*
X60602867Y-135318007D01*
X60598676Y-135320520D01*
X60594258Y-135322609D01*
X60589656Y-135324256D01*
X60584915Y-135325443D01*
X60580081Y-135326160D01*
X60575200Y-135326400D01*
X60074800Y-135326400D01*
X60069919Y-135326160D01*
X60065085Y-135325443D01*
X60060344Y-135324256D01*
X60055742Y-135322609D01*
X60051324Y-135320520D01*
X60047133Y-135318007D01*
X60043207Y-135315096D01*
X60039586Y-135311814D01*
X60036304Y-135308193D01*
X60033393Y-135304267D01*
X60030880Y-135300076D01*
X60028791Y-135295658D01*
X60027144Y-135291056D01*
X60025957Y-135286315D01*
X60025240Y-135281481D01*
X60025000Y-135276600D01*
X60025000Y-133826200D01*
X60025240Y-133821319D01*
X60025957Y-133816485D01*
X60027144Y-133811744D01*
X60028791Y-133807142D01*
X60030880Y-133802724D01*
X60033393Y-133798533D01*
X60036304Y-133794607D01*
X60039586Y-133790986D01*
X60043207Y-133787704D01*
X60047133Y-133784793D01*
X60051324Y-133782280D01*
X60055742Y-133780191D01*
X60060344Y-133778544D01*
X60065085Y-133777357D01*
X60069919Y-133776640D01*
X60074800Y-133776400D01*
X60575200Y-133776400D01*
X60580081Y-133776640D01*
X60580081Y-133776640D01*
G37*
D12*
X60325000Y-134551400D03*
D10*
G36*
X56770081Y-128376640D02*
G01*
X56774915Y-128377357D01*
X56779656Y-128378544D01*
X56784258Y-128380191D01*
X56788676Y-128382280D01*
X56792867Y-128384793D01*
X56796793Y-128387704D01*
X56800414Y-128390986D01*
X56803696Y-128394607D01*
X56806607Y-128398533D01*
X56809120Y-128402724D01*
X56811209Y-128407142D01*
X56812856Y-128411744D01*
X56814043Y-128416485D01*
X56814760Y-128421319D01*
X56815000Y-128426200D01*
X56815000Y-129876600D01*
X56814760Y-129881481D01*
X56814043Y-129886315D01*
X56812856Y-129891056D01*
X56811209Y-129895658D01*
X56809120Y-129900076D01*
X56806607Y-129904267D01*
X56803696Y-129908193D01*
X56800414Y-129911814D01*
X56796793Y-129915096D01*
X56792867Y-129918007D01*
X56788676Y-129920520D01*
X56784258Y-129922609D01*
X56779656Y-129924256D01*
X56774915Y-129925443D01*
X56770081Y-129926160D01*
X56765200Y-129926400D01*
X56264800Y-129926400D01*
X56259919Y-129926160D01*
X56255085Y-129925443D01*
X56250344Y-129924256D01*
X56245742Y-129922609D01*
X56241324Y-129920520D01*
X56237133Y-129918007D01*
X56233207Y-129915096D01*
X56229586Y-129911814D01*
X56226304Y-129908193D01*
X56223393Y-129904267D01*
X56220880Y-129900076D01*
X56218791Y-129895658D01*
X56217144Y-129891056D01*
X56215957Y-129886315D01*
X56215240Y-129881481D01*
X56215000Y-129876600D01*
X56215000Y-128426200D01*
X56215240Y-128421319D01*
X56215957Y-128416485D01*
X56217144Y-128411744D01*
X56218791Y-128407142D01*
X56220880Y-128402724D01*
X56223393Y-128398533D01*
X56226304Y-128394607D01*
X56229586Y-128390986D01*
X56233207Y-128387704D01*
X56237133Y-128384793D01*
X56241324Y-128382280D01*
X56245742Y-128380191D01*
X56250344Y-128378544D01*
X56255085Y-128377357D01*
X56259919Y-128376640D01*
X56264800Y-128376400D01*
X56765200Y-128376400D01*
X56770081Y-128376640D01*
X56770081Y-128376640D01*
G37*
D12*
X56515000Y-129151400D03*
D10*
G36*
X58040081Y-128376640D02*
G01*
X58044915Y-128377357D01*
X58049656Y-128378544D01*
X58054258Y-128380191D01*
X58058676Y-128382280D01*
X58062867Y-128384793D01*
X58066793Y-128387704D01*
X58070414Y-128390986D01*
X58073696Y-128394607D01*
X58076607Y-128398533D01*
X58079120Y-128402724D01*
X58081209Y-128407142D01*
X58082856Y-128411744D01*
X58084043Y-128416485D01*
X58084760Y-128421319D01*
X58085000Y-128426200D01*
X58085000Y-129876600D01*
X58084760Y-129881481D01*
X58084043Y-129886315D01*
X58082856Y-129891056D01*
X58081209Y-129895658D01*
X58079120Y-129900076D01*
X58076607Y-129904267D01*
X58073696Y-129908193D01*
X58070414Y-129911814D01*
X58066793Y-129915096D01*
X58062867Y-129918007D01*
X58058676Y-129920520D01*
X58054258Y-129922609D01*
X58049656Y-129924256D01*
X58044915Y-129925443D01*
X58040081Y-129926160D01*
X58035200Y-129926400D01*
X57534800Y-129926400D01*
X57529919Y-129926160D01*
X57525085Y-129925443D01*
X57520344Y-129924256D01*
X57515742Y-129922609D01*
X57511324Y-129920520D01*
X57507133Y-129918007D01*
X57503207Y-129915096D01*
X57499586Y-129911814D01*
X57496304Y-129908193D01*
X57493393Y-129904267D01*
X57490880Y-129900076D01*
X57488791Y-129895658D01*
X57487144Y-129891056D01*
X57485957Y-129886315D01*
X57485240Y-129881481D01*
X57485000Y-129876600D01*
X57485000Y-128426200D01*
X57485240Y-128421319D01*
X57485957Y-128416485D01*
X57487144Y-128411744D01*
X57488791Y-128407142D01*
X57490880Y-128402724D01*
X57493393Y-128398533D01*
X57496304Y-128394607D01*
X57499586Y-128390986D01*
X57503207Y-128387704D01*
X57507133Y-128384793D01*
X57511324Y-128382280D01*
X57515742Y-128380191D01*
X57520344Y-128378544D01*
X57525085Y-128377357D01*
X57529919Y-128376640D01*
X57534800Y-128376400D01*
X58035200Y-128376400D01*
X58040081Y-128376640D01*
X58040081Y-128376640D01*
G37*
D12*
X57785000Y-129151400D03*
D10*
G36*
X59310081Y-128376640D02*
G01*
X59314915Y-128377357D01*
X59319656Y-128378544D01*
X59324258Y-128380191D01*
X59328676Y-128382280D01*
X59332867Y-128384793D01*
X59336793Y-128387704D01*
X59340414Y-128390986D01*
X59343696Y-128394607D01*
X59346607Y-128398533D01*
X59349120Y-128402724D01*
X59351209Y-128407142D01*
X59352856Y-128411744D01*
X59354043Y-128416485D01*
X59354760Y-128421319D01*
X59355000Y-128426200D01*
X59355000Y-129876600D01*
X59354760Y-129881481D01*
X59354043Y-129886315D01*
X59352856Y-129891056D01*
X59351209Y-129895658D01*
X59349120Y-129900076D01*
X59346607Y-129904267D01*
X59343696Y-129908193D01*
X59340414Y-129911814D01*
X59336793Y-129915096D01*
X59332867Y-129918007D01*
X59328676Y-129920520D01*
X59324258Y-129922609D01*
X59319656Y-129924256D01*
X59314915Y-129925443D01*
X59310081Y-129926160D01*
X59305200Y-129926400D01*
X58804800Y-129926400D01*
X58799919Y-129926160D01*
X58795085Y-129925443D01*
X58790344Y-129924256D01*
X58785742Y-129922609D01*
X58781324Y-129920520D01*
X58777133Y-129918007D01*
X58773207Y-129915096D01*
X58769586Y-129911814D01*
X58766304Y-129908193D01*
X58763393Y-129904267D01*
X58760880Y-129900076D01*
X58758791Y-129895658D01*
X58757144Y-129891056D01*
X58755957Y-129886315D01*
X58755240Y-129881481D01*
X58755000Y-129876600D01*
X58755000Y-128426200D01*
X58755240Y-128421319D01*
X58755957Y-128416485D01*
X58757144Y-128411744D01*
X58758791Y-128407142D01*
X58760880Y-128402724D01*
X58763393Y-128398533D01*
X58766304Y-128394607D01*
X58769586Y-128390986D01*
X58773207Y-128387704D01*
X58777133Y-128384793D01*
X58781324Y-128382280D01*
X58785742Y-128380191D01*
X58790344Y-128378544D01*
X58795085Y-128377357D01*
X58799919Y-128376640D01*
X58804800Y-128376400D01*
X59305200Y-128376400D01*
X59310081Y-128376640D01*
X59310081Y-128376640D01*
G37*
D12*
X59055000Y-129151400D03*
D10*
G36*
X60580081Y-128376640D02*
G01*
X60584915Y-128377357D01*
X60589656Y-128378544D01*
X60594258Y-128380191D01*
X60598676Y-128382280D01*
X60602867Y-128384793D01*
X60606793Y-128387704D01*
X60610414Y-128390986D01*
X60613696Y-128394607D01*
X60616607Y-128398533D01*
X60619120Y-128402724D01*
X60621209Y-128407142D01*
X60622856Y-128411744D01*
X60624043Y-128416485D01*
X60624760Y-128421319D01*
X60625000Y-128426200D01*
X60625000Y-129876600D01*
X60624760Y-129881481D01*
X60624043Y-129886315D01*
X60622856Y-129891056D01*
X60621209Y-129895658D01*
X60619120Y-129900076D01*
X60616607Y-129904267D01*
X60613696Y-129908193D01*
X60610414Y-129911814D01*
X60606793Y-129915096D01*
X60602867Y-129918007D01*
X60598676Y-129920520D01*
X60594258Y-129922609D01*
X60589656Y-129924256D01*
X60584915Y-129925443D01*
X60580081Y-129926160D01*
X60575200Y-129926400D01*
X60074800Y-129926400D01*
X60069919Y-129926160D01*
X60065085Y-129925443D01*
X60060344Y-129924256D01*
X60055742Y-129922609D01*
X60051324Y-129920520D01*
X60047133Y-129918007D01*
X60043207Y-129915096D01*
X60039586Y-129911814D01*
X60036304Y-129908193D01*
X60033393Y-129904267D01*
X60030880Y-129900076D01*
X60028791Y-129895658D01*
X60027144Y-129891056D01*
X60025957Y-129886315D01*
X60025240Y-129881481D01*
X60025000Y-129876600D01*
X60025000Y-128426200D01*
X60025240Y-128421319D01*
X60025957Y-128416485D01*
X60027144Y-128411744D01*
X60028791Y-128407142D01*
X60030880Y-128402724D01*
X60033393Y-128398533D01*
X60036304Y-128394607D01*
X60039586Y-128390986D01*
X60043207Y-128387704D01*
X60047133Y-128384793D01*
X60051324Y-128382280D01*
X60055742Y-128380191D01*
X60060344Y-128378544D01*
X60065085Y-128377357D01*
X60069919Y-128376640D01*
X60074800Y-128376400D01*
X60575200Y-128376400D01*
X60580081Y-128376640D01*
X60580081Y-128376640D01*
G37*
D12*
X60325000Y-129151400D03*
M02*
