G04 #@! TF.GenerationSoftware,KiCad,Pcbnew,(5.1.2)-2*
G04 #@! TF.CreationDate,2022-11-28T14:44:14+09:00*
G04 #@! TF.ProjectId,Motor_MotherBoard,4d6f746f-725f-44d6-9f74-686572426f61,rev?*
G04 #@! TF.SameCoordinates,Original*
G04 #@! TF.FileFunction,Soldermask,Top*
G04 #@! TF.FilePolarity,Negative*
%FSLAX46Y46*%
G04 Gerber Fmt 4.6, Leading zero omitted, Abs format (unit mm)*
G04 Created by KiCad (PCBNEW (5.1.2)-2) date 2022-11-28 14:44:14*
%MOMM*%
%LPD*%
G04 APERTURE LIST*
%ADD10C,0.100000*%
G04 APERTURE END LIST*
D10*
G36*
X155375256Y-103391298D02*
G01*
X155481579Y-103412447D01*
X155782042Y-103536903D01*
X156052451Y-103717585D01*
X156282415Y-103947549D01*
X156463097Y-104217958D01*
X156587553Y-104518421D01*
X156651000Y-104837391D01*
X156651000Y-105162609D01*
X156587553Y-105481579D01*
X156463097Y-105782042D01*
X156282415Y-106052451D01*
X156052451Y-106282415D01*
X155782042Y-106463097D01*
X155481579Y-106587553D01*
X155375256Y-106608702D01*
X155162611Y-106651000D01*
X154837389Y-106651000D01*
X154624744Y-106608702D01*
X154518421Y-106587553D01*
X154217958Y-106463097D01*
X153947549Y-106282415D01*
X153717585Y-106052451D01*
X153536903Y-105782042D01*
X153412447Y-105481579D01*
X153349000Y-105162609D01*
X153349000Y-104837391D01*
X153412447Y-104518421D01*
X153536903Y-104217958D01*
X153717585Y-103947549D01*
X153947549Y-103717585D01*
X154217958Y-103536903D01*
X154518421Y-103412447D01*
X154624744Y-103391298D01*
X154837389Y-103349000D01*
X155162611Y-103349000D01*
X155375256Y-103391298D01*
X155375256Y-103391298D01*
G37*
G36*
X40375256Y-103391298D02*
G01*
X40481579Y-103412447D01*
X40782042Y-103536903D01*
X41052451Y-103717585D01*
X41282415Y-103947549D01*
X41463097Y-104217958D01*
X41587553Y-104518421D01*
X41651000Y-104837391D01*
X41651000Y-105162609D01*
X41587553Y-105481579D01*
X41463097Y-105782042D01*
X41282415Y-106052451D01*
X41052451Y-106282415D01*
X40782042Y-106463097D01*
X40481579Y-106587553D01*
X40375256Y-106608702D01*
X40162611Y-106651000D01*
X39837389Y-106651000D01*
X39624744Y-106608702D01*
X39518421Y-106587553D01*
X39217958Y-106463097D01*
X38947549Y-106282415D01*
X38717585Y-106052451D01*
X38536903Y-105782042D01*
X38412447Y-105481579D01*
X38349000Y-105162609D01*
X38349000Y-104837391D01*
X38412447Y-104518421D01*
X38536903Y-104217958D01*
X38717585Y-103947549D01*
X38947549Y-103717585D01*
X39217958Y-103536903D01*
X39518421Y-103412447D01*
X39624744Y-103391298D01*
X39837389Y-103349000D01*
X40162611Y-103349000D01*
X40375256Y-103391298D01*
X40375256Y-103391298D01*
G37*
G36*
X56365512Y-98067927D02*
G01*
X56514812Y-98097624D01*
X56678784Y-98165544D01*
X56826354Y-98264147D01*
X56951853Y-98389646D01*
X57050456Y-98537216D01*
X57118376Y-98701188D01*
X57153000Y-98875259D01*
X57153000Y-99052741D01*
X57118376Y-99226812D01*
X57050456Y-99390784D01*
X56951853Y-99538354D01*
X56826354Y-99663853D01*
X56678784Y-99762456D01*
X56514812Y-99830376D01*
X56365512Y-99860073D01*
X56340742Y-99865000D01*
X56163258Y-99865000D01*
X56138488Y-99860073D01*
X55989188Y-99830376D01*
X55825216Y-99762456D01*
X55677646Y-99663853D01*
X55552147Y-99538354D01*
X55453544Y-99390784D01*
X55385624Y-99226812D01*
X55351000Y-99052741D01*
X55351000Y-98875259D01*
X55385624Y-98701188D01*
X55453544Y-98537216D01*
X55552147Y-98389646D01*
X55677646Y-98264147D01*
X55825216Y-98165544D01*
X55989188Y-98097624D01*
X56138488Y-98067927D01*
X56163258Y-98063000D01*
X56340742Y-98063000D01*
X56365512Y-98067927D01*
X56365512Y-98067927D01*
G37*
G36*
X79987512Y-98067927D02*
G01*
X80136812Y-98097624D01*
X80300784Y-98165544D01*
X80448354Y-98264147D01*
X80573853Y-98389646D01*
X80672456Y-98537216D01*
X80740376Y-98701188D01*
X80775000Y-98875259D01*
X80775000Y-99052741D01*
X80740376Y-99226812D01*
X80672456Y-99390784D01*
X80573853Y-99538354D01*
X80448354Y-99663853D01*
X80300784Y-99762456D01*
X80136812Y-99830376D01*
X79987512Y-99860073D01*
X79962742Y-99865000D01*
X79785258Y-99865000D01*
X79760488Y-99860073D01*
X79611188Y-99830376D01*
X79447216Y-99762456D01*
X79299646Y-99663853D01*
X79174147Y-99538354D01*
X79075544Y-99390784D01*
X79007624Y-99226812D01*
X78973000Y-99052741D01*
X78973000Y-98875259D01*
X79007624Y-98701188D01*
X79075544Y-98537216D01*
X79174147Y-98389646D01*
X79299646Y-98264147D01*
X79447216Y-98165544D01*
X79611188Y-98097624D01*
X79760488Y-98067927D01*
X79785258Y-98063000D01*
X79962742Y-98063000D01*
X79987512Y-98067927D01*
X79987512Y-98067927D01*
G37*
G36*
X53825512Y-98067927D02*
G01*
X53974812Y-98097624D01*
X54138784Y-98165544D01*
X54286354Y-98264147D01*
X54411853Y-98389646D01*
X54510456Y-98537216D01*
X54578376Y-98701188D01*
X54613000Y-98875259D01*
X54613000Y-99052741D01*
X54578376Y-99226812D01*
X54510456Y-99390784D01*
X54411853Y-99538354D01*
X54286354Y-99663853D01*
X54138784Y-99762456D01*
X53974812Y-99830376D01*
X53825512Y-99860073D01*
X53800742Y-99865000D01*
X53623258Y-99865000D01*
X53598488Y-99860073D01*
X53449188Y-99830376D01*
X53285216Y-99762456D01*
X53137646Y-99663853D01*
X53012147Y-99538354D01*
X52913544Y-99390784D01*
X52845624Y-99226812D01*
X52811000Y-99052741D01*
X52811000Y-98875259D01*
X52845624Y-98701188D01*
X52913544Y-98537216D01*
X53012147Y-98389646D01*
X53137646Y-98264147D01*
X53285216Y-98165544D01*
X53449188Y-98097624D01*
X53598488Y-98067927D01*
X53623258Y-98063000D01*
X53800742Y-98063000D01*
X53825512Y-98067927D01*
X53825512Y-98067927D01*
G37*
G36*
X77447512Y-98067927D02*
G01*
X77596812Y-98097624D01*
X77760784Y-98165544D01*
X77908354Y-98264147D01*
X78033853Y-98389646D01*
X78132456Y-98537216D01*
X78200376Y-98701188D01*
X78235000Y-98875259D01*
X78235000Y-99052741D01*
X78200376Y-99226812D01*
X78132456Y-99390784D01*
X78033853Y-99538354D01*
X77908354Y-99663853D01*
X77760784Y-99762456D01*
X77596812Y-99830376D01*
X77447512Y-99860073D01*
X77422742Y-99865000D01*
X77245258Y-99865000D01*
X77220488Y-99860073D01*
X77071188Y-99830376D01*
X76907216Y-99762456D01*
X76759646Y-99663853D01*
X76634147Y-99538354D01*
X76535544Y-99390784D01*
X76467624Y-99226812D01*
X76433000Y-99052741D01*
X76433000Y-98875259D01*
X76467624Y-98701188D01*
X76535544Y-98537216D01*
X76634147Y-98389646D01*
X76759646Y-98264147D01*
X76907216Y-98165544D01*
X77071188Y-98097624D01*
X77220488Y-98067927D01*
X77245258Y-98063000D01*
X77422742Y-98063000D01*
X77447512Y-98067927D01*
X77447512Y-98067927D01*
G37*
G36*
X44339104Y-96203585D02*
G01*
X44507626Y-96273389D01*
X44659291Y-96374728D01*
X44788272Y-96503709D01*
X44889611Y-96655374D01*
X44959415Y-96823896D01*
X44995000Y-97002797D01*
X44995000Y-97185203D01*
X44959415Y-97364104D01*
X44889611Y-97532626D01*
X44788272Y-97684291D01*
X44659291Y-97813272D01*
X44507626Y-97914611D01*
X44339104Y-97984415D01*
X44160203Y-98020000D01*
X43977797Y-98020000D01*
X43798896Y-97984415D01*
X43630374Y-97914611D01*
X43478709Y-97813272D01*
X43349728Y-97684291D01*
X43248389Y-97532626D01*
X43178585Y-97364104D01*
X43143000Y-97185203D01*
X43143000Y-97002797D01*
X43178585Y-96823896D01*
X43248389Y-96655374D01*
X43349728Y-96503709D01*
X43478709Y-96374728D01*
X43630374Y-96273389D01*
X43798896Y-96203585D01*
X43977797Y-96168000D01*
X44160203Y-96168000D01*
X44339104Y-96203585D01*
X44339104Y-96203585D01*
G37*
G36*
X53825512Y-95527927D02*
G01*
X53974812Y-95557624D01*
X54138784Y-95625544D01*
X54286354Y-95724147D01*
X54411853Y-95849646D01*
X54510456Y-95997216D01*
X54578376Y-96161188D01*
X54613000Y-96335259D01*
X54613000Y-96512741D01*
X54578376Y-96686812D01*
X54510456Y-96850784D01*
X54411853Y-96998354D01*
X54286354Y-97123853D01*
X54138784Y-97222456D01*
X53974812Y-97290376D01*
X53825512Y-97320073D01*
X53800742Y-97325000D01*
X53623258Y-97325000D01*
X53598488Y-97320073D01*
X53449188Y-97290376D01*
X53285216Y-97222456D01*
X53137646Y-97123853D01*
X53012147Y-96998354D01*
X52913544Y-96850784D01*
X52845624Y-96686812D01*
X52811000Y-96512741D01*
X52811000Y-96335259D01*
X52845624Y-96161188D01*
X52913544Y-95997216D01*
X53012147Y-95849646D01*
X53137646Y-95724147D01*
X53285216Y-95625544D01*
X53449188Y-95557624D01*
X53598488Y-95527927D01*
X53623258Y-95523000D01*
X53800742Y-95523000D01*
X53825512Y-95527927D01*
X53825512Y-95527927D01*
G37*
G36*
X56365512Y-95527927D02*
G01*
X56514812Y-95557624D01*
X56678784Y-95625544D01*
X56826354Y-95724147D01*
X56951853Y-95849646D01*
X57050456Y-95997216D01*
X57118376Y-96161188D01*
X57153000Y-96335259D01*
X57153000Y-96512741D01*
X57118376Y-96686812D01*
X57050456Y-96850784D01*
X56951853Y-96998354D01*
X56826354Y-97123853D01*
X56678784Y-97222456D01*
X56514812Y-97290376D01*
X56365512Y-97320073D01*
X56340742Y-97325000D01*
X56163258Y-97325000D01*
X56138488Y-97320073D01*
X55989188Y-97290376D01*
X55825216Y-97222456D01*
X55677646Y-97123853D01*
X55552147Y-96998354D01*
X55453544Y-96850784D01*
X55385624Y-96686812D01*
X55351000Y-96512741D01*
X55351000Y-96335259D01*
X55385624Y-96161188D01*
X55453544Y-95997216D01*
X55552147Y-95849646D01*
X55677646Y-95724147D01*
X55825216Y-95625544D01*
X55989188Y-95557624D01*
X56138488Y-95527927D01*
X56163258Y-95523000D01*
X56340742Y-95523000D01*
X56365512Y-95527927D01*
X56365512Y-95527927D01*
G37*
G36*
X77447512Y-95527927D02*
G01*
X77596812Y-95557624D01*
X77760784Y-95625544D01*
X77908354Y-95724147D01*
X78033853Y-95849646D01*
X78132456Y-95997216D01*
X78200376Y-96161188D01*
X78235000Y-96335259D01*
X78235000Y-96512741D01*
X78200376Y-96686812D01*
X78132456Y-96850784D01*
X78033853Y-96998354D01*
X77908354Y-97123853D01*
X77760784Y-97222456D01*
X77596812Y-97290376D01*
X77447512Y-97320073D01*
X77422742Y-97325000D01*
X77245258Y-97325000D01*
X77220488Y-97320073D01*
X77071188Y-97290376D01*
X76907216Y-97222456D01*
X76759646Y-97123853D01*
X76634147Y-96998354D01*
X76535544Y-96850784D01*
X76467624Y-96686812D01*
X76433000Y-96512741D01*
X76433000Y-96335259D01*
X76467624Y-96161188D01*
X76535544Y-95997216D01*
X76634147Y-95849646D01*
X76759646Y-95724147D01*
X76907216Y-95625544D01*
X77071188Y-95557624D01*
X77220488Y-95527927D01*
X77245258Y-95523000D01*
X77422742Y-95523000D01*
X77447512Y-95527927D01*
X77447512Y-95527927D01*
G37*
G36*
X79987512Y-95527927D02*
G01*
X80136812Y-95557624D01*
X80300784Y-95625544D01*
X80448354Y-95724147D01*
X80573853Y-95849646D01*
X80672456Y-95997216D01*
X80740376Y-96161188D01*
X80775000Y-96335259D01*
X80775000Y-96512741D01*
X80740376Y-96686812D01*
X80672456Y-96850784D01*
X80573853Y-96998354D01*
X80448354Y-97123853D01*
X80300784Y-97222456D01*
X80136812Y-97290376D01*
X79987512Y-97320073D01*
X79962742Y-97325000D01*
X79785258Y-97325000D01*
X79760488Y-97320073D01*
X79611188Y-97290376D01*
X79447216Y-97222456D01*
X79299646Y-97123853D01*
X79174147Y-96998354D01*
X79075544Y-96850784D01*
X79007624Y-96686812D01*
X78973000Y-96512741D01*
X78973000Y-96335259D01*
X79007624Y-96161188D01*
X79075544Y-95997216D01*
X79174147Y-95849646D01*
X79299646Y-95724147D01*
X79447216Y-95625544D01*
X79611188Y-95557624D01*
X79760488Y-95527927D01*
X79785258Y-95523000D01*
X79962742Y-95523000D01*
X79987512Y-95527927D01*
X79987512Y-95527927D01*
G37*
G36*
X44339104Y-93703585D02*
G01*
X44507626Y-93773389D01*
X44659291Y-93874728D01*
X44788272Y-94003709D01*
X44889611Y-94155374D01*
X44959415Y-94323896D01*
X44995000Y-94502797D01*
X44995000Y-94685203D01*
X44959415Y-94864104D01*
X44889611Y-95032626D01*
X44788272Y-95184291D01*
X44659291Y-95313272D01*
X44507626Y-95414611D01*
X44339104Y-95484415D01*
X44160203Y-95520000D01*
X43977797Y-95520000D01*
X43798896Y-95484415D01*
X43630374Y-95414611D01*
X43478709Y-95313272D01*
X43349728Y-95184291D01*
X43248389Y-95032626D01*
X43178585Y-94864104D01*
X43143000Y-94685203D01*
X43143000Y-94502797D01*
X43178585Y-94323896D01*
X43248389Y-94155374D01*
X43349728Y-94003709D01*
X43478709Y-93874728D01*
X43630374Y-93773389D01*
X43798896Y-93703585D01*
X43977797Y-93668000D01*
X44160203Y-93668000D01*
X44339104Y-93703585D01*
X44339104Y-93703585D01*
G37*
G36*
X138671400Y-95491400D02*
G01*
X136969400Y-95491400D01*
X136969400Y-93789400D01*
X138671400Y-93789400D01*
X138671400Y-95491400D01*
X138671400Y-95491400D01*
G37*
G36*
X110706000Y-95491400D02*
G01*
X109004000Y-95491400D01*
X109004000Y-93789400D01*
X110706000Y-93789400D01*
X110706000Y-95491400D01*
X110706000Y-95491400D01*
G37*
G36*
X53825512Y-92987927D02*
G01*
X53974812Y-93017624D01*
X54138784Y-93085544D01*
X54286354Y-93184147D01*
X54411853Y-93309646D01*
X54510456Y-93457216D01*
X54578376Y-93621188D01*
X54613000Y-93795259D01*
X54613000Y-93972741D01*
X54578376Y-94146812D01*
X54510456Y-94310784D01*
X54411853Y-94458354D01*
X54286354Y-94583853D01*
X54138784Y-94682456D01*
X53974812Y-94750376D01*
X53825512Y-94780073D01*
X53800742Y-94785000D01*
X53623258Y-94785000D01*
X53598488Y-94780073D01*
X53449188Y-94750376D01*
X53285216Y-94682456D01*
X53137646Y-94583853D01*
X53012147Y-94458354D01*
X52913544Y-94310784D01*
X52845624Y-94146812D01*
X52811000Y-93972741D01*
X52811000Y-93795259D01*
X52845624Y-93621188D01*
X52913544Y-93457216D01*
X53012147Y-93309646D01*
X53137646Y-93184147D01*
X53285216Y-93085544D01*
X53449188Y-93017624D01*
X53598488Y-92987927D01*
X53623258Y-92983000D01*
X53800742Y-92983000D01*
X53825512Y-92987927D01*
X53825512Y-92987927D01*
G37*
G36*
X77447512Y-92987927D02*
G01*
X77596812Y-93017624D01*
X77760784Y-93085544D01*
X77908354Y-93184147D01*
X78033853Y-93309646D01*
X78132456Y-93457216D01*
X78200376Y-93621188D01*
X78235000Y-93795259D01*
X78235000Y-93972741D01*
X78200376Y-94146812D01*
X78132456Y-94310784D01*
X78033853Y-94458354D01*
X77908354Y-94583853D01*
X77760784Y-94682456D01*
X77596812Y-94750376D01*
X77447512Y-94780073D01*
X77422742Y-94785000D01*
X77245258Y-94785000D01*
X77220488Y-94780073D01*
X77071188Y-94750376D01*
X76907216Y-94682456D01*
X76759646Y-94583853D01*
X76634147Y-94458354D01*
X76535544Y-94310784D01*
X76467624Y-94146812D01*
X76433000Y-93972741D01*
X76433000Y-93795259D01*
X76467624Y-93621188D01*
X76535544Y-93457216D01*
X76634147Y-93309646D01*
X76759646Y-93184147D01*
X76907216Y-93085544D01*
X77071188Y-93017624D01*
X77220488Y-92987927D01*
X77245258Y-92983000D01*
X77422742Y-92983000D01*
X77447512Y-92987927D01*
X77447512Y-92987927D01*
G37*
G36*
X79987512Y-92987927D02*
G01*
X80136812Y-93017624D01*
X80300784Y-93085544D01*
X80448354Y-93184147D01*
X80573853Y-93309646D01*
X80672456Y-93457216D01*
X80740376Y-93621188D01*
X80775000Y-93795259D01*
X80775000Y-93972741D01*
X80740376Y-94146812D01*
X80672456Y-94310784D01*
X80573853Y-94458354D01*
X80448354Y-94583853D01*
X80300784Y-94682456D01*
X80136812Y-94750376D01*
X79987512Y-94780073D01*
X79962742Y-94785000D01*
X79785258Y-94785000D01*
X79760488Y-94780073D01*
X79611188Y-94750376D01*
X79447216Y-94682456D01*
X79299646Y-94583853D01*
X79174147Y-94458354D01*
X79075544Y-94310784D01*
X79007624Y-94146812D01*
X78973000Y-93972741D01*
X78973000Y-93795259D01*
X79007624Y-93621188D01*
X79075544Y-93457216D01*
X79174147Y-93309646D01*
X79299646Y-93184147D01*
X79447216Y-93085544D01*
X79611188Y-93017624D01*
X79760488Y-92987927D01*
X79785258Y-92983000D01*
X79962742Y-92983000D01*
X79987512Y-92987927D01*
X79987512Y-92987927D01*
G37*
G36*
X56365512Y-92987927D02*
G01*
X56514812Y-93017624D01*
X56678784Y-93085544D01*
X56826354Y-93184147D01*
X56951853Y-93309646D01*
X57050456Y-93457216D01*
X57118376Y-93621188D01*
X57153000Y-93795259D01*
X57153000Y-93972741D01*
X57118376Y-94146812D01*
X57050456Y-94310784D01*
X56951853Y-94458354D01*
X56826354Y-94583853D01*
X56678784Y-94682456D01*
X56514812Y-94750376D01*
X56365512Y-94780073D01*
X56340742Y-94785000D01*
X56163258Y-94785000D01*
X56138488Y-94780073D01*
X55989188Y-94750376D01*
X55825216Y-94682456D01*
X55677646Y-94583853D01*
X55552147Y-94458354D01*
X55453544Y-94310784D01*
X55385624Y-94146812D01*
X55351000Y-93972741D01*
X55351000Y-93795259D01*
X55385624Y-93621188D01*
X55453544Y-93457216D01*
X55552147Y-93309646D01*
X55677646Y-93184147D01*
X55825216Y-93085544D01*
X55989188Y-93017624D01*
X56138488Y-92987927D01*
X56163258Y-92983000D01*
X56340742Y-92983000D01*
X56365512Y-92987927D01*
X56365512Y-92987927D01*
G37*
G36*
X44995000Y-93020000D02*
G01*
X43143000Y-93020000D01*
X43143000Y-91168000D01*
X44995000Y-91168000D01*
X44995000Y-93020000D01*
X44995000Y-93020000D01*
G37*
G36*
X79987512Y-90447927D02*
G01*
X80136812Y-90477624D01*
X80300784Y-90545544D01*
X80448354Y-90644147D01*
X80573853Y-90769646D01*
X80672456Y-90917216D01*
X80740376Y-91081188D01*
X80775000Y-91255259D01*
X80775000Y-91432741D01*
X80740376Y-91606812D01*
X80672456Y-91770784D01*
X80573853Y-91918354D01*
X80448354Y-92043853D01*
X80300784Y-92142456D01*
X80136812Y-92210376D01*
X79987512Y-92240073D01*
X79962742Y-92245000D01*
X79785258Y-92245000D01*
X79760488Y-92240073D01*
X79611188Y-92210376D01*
X79447216Y-92142456D01*
X79299646Y-92043853D01*
X79174147Y-91918354D01*
X79075544Y-91770784D01*
X79007624Y-91606812D01*
X78973000Y-91432741D01*
X78973000Y-91255259D01*
X79007624Y-91081188D01*
X79075544Y-90917216D01*
X79174147Y-90769646D01*
X79299646Y-90644147D01*
X79447216Y-90545544D01*
X79611188Y-90477624D01*
X79760488Y-90447927D01*
X79785258Y-90443000D01*
X79962742Y-90443000D01*
X79987512Y-90447927D01*
X79987512Y-90447927D01*
G37*
G36*
X77447512Y-90447927D02*
G01*
X77596812Y-90477624D01*
X77760784Y-90545544D01*
X77908354Y-90644147D01*
X78033853Y-90769646D01*
X78132456Y-90917216D01*
X78200376Y-91081188D01*
X78235000Y-91255259D01*
X78235000Y-91432741D01*
X78200376Y-91606812D01*
X78132456Y-91770784D01*
X78033853Y-91918354D01*
X77908354Y-92043853D01*
X77760784Y-92142456D01*
X77596812Y-92210376D01*
X77447512Y-92240073D01*
X77422742Y-92245000D01*
X77245258Y-92245000D01*
X77220488Y-92240073D01*
X77071188Y-92210376D01*
X76907216Y-92142456D01*
X76759646Y-92043853D01*
X76634147Y-91918354D01*
X76535544Y-91770784D01*
X76467624Y-91606812D01*
X76433000Y-91432741D01*
X76433000Y-91255259D01*
X76467624Y-91081188D01*
X76535544Y-90917216D01*
X76634147Y-90769646D01*
X76759646Y-90644147D01*
X76907216Y-90545544D01*
X77071188Y-90477624D01*
X77220488Y-90447927D01*
X77245258Y-90443000D01*
X77422742Y-90443000D01*
X77447512Y-90447927D01*
X77447512Y-90447927D01*
G37*
G36*
X56365512Y-90447927D02*
G01*
X56514812Y-90477624D01*
X56678784Y-90545544D01*
X56826354Y-90644147D01*
X56951853Y-90769646D01*
X57050456Y-90917216D01*
X57118376Y-91081188D01*
X57153000Y-91255259D01*
X57153000Y-91432741D01*
X57118376Y-91606812D01*
X57050456Y-91770784D01*
X56951853Y-91918354D01*
X56826354Y-92043853D01*
X56678784Y-92142456D01*
X56514812Y-92210376D01*
X56365512Y-92240073D01*
X56340742Y-92245000D01*
X56163258Y-92245000D01*
X56138488Y-92240073D01*
X55989188Y-92210376D01*
X55825216Y-92142456D01*
X55677646Y-92043853D01*
X55552147Y-91918354D01*
X55453544Y-91770784D01*
X55385624Y-91606812D01*
X55351000Y-91432741D01*
X55351000Y-91255259D01*
X55385624Y-91081188D01*
X55453544Y-90917216D01*
X55552147Y-90769646D01*
X55677646Y-90644147D01*
X55825216Y-90545544D01*
X55989188Y-90477624D01*
X56138488Y-90447927D01*
X56163258Y-90443000D01*
X56340742Y-90443000D01*
X56365512Y-90447927D01*
X56365512Y-90447927D01*
G37*
G36*
X53825512Y-90447927D02*
G01*
X53974812Y-90477624D01*
X54138784Y-90545544D01*
X54286354Y-90644147D01*
X54411853Y-90769646D01*
X54510456Y-90917216D01*
X54578376Y-91081188D01*
X54613000Y-91255259D01*
X54613000Y-91432741D01*
X54578376Y-91606812D01*
X54510456Y-91770784D01*
X54411853Y-91918354D01*
X54286354Y-92043853D01*
X54138784Y-92142456D01*
X53974812Y-92210376D01*
X53825512Y-92240073D01*
X53800742Y-92245000D01*
X53623258Y-92245000D01*
X53598488Y-92240073D01*
X53449188Y-92210376D01*
X53285216Y-92142456D01*
X53137646Y-92043853D01*
X53012147Y-91918354D01*
X52913544Y-91770784D01*
X52845624Y-91606812D01*
X52811000Y-91432741D01*
X52811000Y-91255259D01*
X52845624Y-91081188D01*
X52913544Y-90917216D01*
X53012147Y-90769646D01*
X53137646Y-90644147D01*
X53285216Y-90545544D01*
X53449188Y-90477624D01*
X53598488Y-90447927D01*
X53623258Y-90443000D01*
X53800742Y-90443000D01*
X53825512Y-90447927D01*
X53825512Y-90447927D01*
G37*
G36*
X110103228Y-90322103D02*
G01*
X110258100Y-90386253D01*
X110397481Y-90479385D01*
X110516015Y-90597919D01*
X110609147Y-90737300D01*
X110673297Y-90892172D01*
X110706000Y-91056584D01*
X110706000Y-91224216D01*
X110673297Y-91388628D01*
X110609147Y-91543500D01*
X110516015Y-91682881D01*
X110397481Y-91801415D01*
X110258100Y-91894547D01*
X110103228Y-91958697D01*
X109938816Y-91991400D01*
X109771184Y-91991400D01*
X109606772Y-91958697D01*
X109451900Y-91894547D01*
X109312519Y-91801415D01*
X109193985Y-91682881D01*
X109100853Y-91543500D01*
X109036703Y-91388628D01*
X109004000Y-91224216D01*
X109004000Y-91056584D01*
X109036703Y-90892172D01*
X109100853Y-90737300D01*
X109193985Y-90597919D01*
X109312519Y-90479385D01*
X109451900Y-90386253D01*
X109606772Y-90322103D01*
X109771184Y-90289400D01*
X109938816Y-90289400D01*
X110103228Y-90322103D01*
X110103228Y-90322103D01*
G37*
G36*
X138068628Y-90322103D02*
G01*
X138223500Y-90386253D01*
X138362881Y-90479385D01*
X138481415Y-90597919D01*
X138574547Y-90737300D01*
X138638697Y-90892172D01*
X138671400Y-91056584D01*
X138671400Y-91224216D01*
X138638697Y-91388628D01*
X138574547Y-91543500D01*
X138481415Y-91682881D01*
X138362881Y-91801415D01*
X138223500Y-91894547D01*
X138068628Y-91958697D01*
X137904216Y-91991400D01*
X137736584Y-91991400D01*
X137572172Y-91958697D01*
X137417300Y-91894547D01*
X137277919Y-91801415D01*
X137159385Y-91682881D01*
X137066253Y-91543500D01*
X137002103Y-91388628D01*
X136969400Y-91224216D01*
X136969400Y-91056584D01*
X137002103Y-90892172D01*
X137066253Y-90737300D01*
X137159385Y-90597919D01*
X137277919Y-90479385D01*
X137417300Y-90386253D01*
X137572172Y-90322103D01*
X137736584Y-90289400D01*
X137904216Y-90289400D01*
X138068628Y-90322103D01*
X138068628Y-90322103D01*
G37*
G36*
X147310459Y-88889060D02*
G01*
X147370694Y-88914010D01*
X147447132Y-88945672D01*
X147570135Y-89027860D01*
X147674740Y-89132465D01*
X147756928Y-89255468D01*
X147756929Y-89255470D01*
X147813540Y-89392141D01*
X147835761Y-89503853D01*
X147842400Y-89537233D01*
X147842400Y-89685167D01*
X147813540Y-89830259D01*
X147756928Y-89966932D01*
X147674740Y-90089935D01*
X147570135Y-90194540D01*
X147447132Y-90276728D01*
X147447131Y-90276729D01*
X147447130Y-90276729D01*
X147310459Y-90333340D01*
X147165368Y-90362200D01*
X147017432Y-90362200D01*
X146872341Y-90333340D01*
X146735670Y-90276729D01*
X146735669Y-90276729D01*
X146735668Y-90276728D01*
X146612665Y-90194540D01*
X146508060Y-90089935D01*
X146425872Y-89966932D01*
X146369260Y-89830259D01*
X146340400Y-89685167D01*
X146340400Y-89537233D01*
X146347040Y-89503853D01*
X146369260Y-89392141D01*
X146425871Y-89255470D01*
X146425872Y-89255468D01*
X146508060Y-89132465D01*
X146612665Y-89027860D01*
X146735668Y-88945672D01*
X146812107Y-88914010D01*
X146872341Y-88889060D01*
X147017432Y-88860200D01*
X147165368Y-88860200D01*
X147310459Y-88889060D01*
X147310459Y-88889060D01*
G37*
G36*
X154785065Y-88863822D02*
G01*
X154858622Y-88871067D01*
X155000186Y-88914010D01*
X155130652Y-88983746D01*
X155160440Y-89008192D01*
X155245007Y-89077593D01*
X155314408Y-89162160D01*
X155338854Y-89191948D01*
X155408590Y-89322414D01*
X155451533Y-89463978D01*
X155466033Y-89611200D01*
X155451533Y-89758422D01*
X155408590Y-89899986D01*
X155338854Y-90030452D01*
X155314408Y-90060240D01*
X155245007Y-90144807D01*
X155184404Y-90194541D01*
X155130652Y-90238654D01*
X155000186Y-90308390D01*
X154858622Y-90351333D01*
X154785065Y-90358578D01*
X154748288Y-90362200D01*
X154674512Y-90362200D01*
X154637735Y-90358578D01*
X154564178Y-90351333D01*
X154422614Y-90308390D01*
X154292148Y-90238654D01*
X154238396Y-90194541D01*
X154177793Y-90144807D01*
X154108392Y-90060240D01*
X154083946Y-90030452D01*
X154014210Y-89899986D01*
X153971267Y-89758422D01*
X153956767Y-89611200D01*
X153971267Y-89463978D01*
X154014210Y-89322414D01*
X154083946Y-89191948D01*
X154108392Y-89162160D01*
X154177793Y-89077593D01*
X154262360Y-89008192D01*
X154292148Y-88983746D01*
X154422614Y-88914010D01*
X154564178Y-88871067D01*
X154637735Y-88863822D01*
X154674512Y-88860200D01*
X154748288Y-88860200D01*
X154785065Y-88863822D01*
X154785065Y-88863822D01*
G37*
G36*
X79987512Y-87907927D02*
G01*
X80136812Y-87937624D01*
X80300784Y-88005544D01*
X80448354Y-88104147D01*
X80573853Y-88229646D01*
X80672456Y-88377216D01*
X80740376Y-88541188D01*
X80775000Y-88715259D01*
X80775000Y-88892741D01*
X80740376Y-89066812D01*
X80672456Y-89230784D01*
X80573853Y-89378354D01*
X80448354Y-89503853D01*
X80300784Y-89602456D01*
X80136812Y-89670376D01*
X79987512Y-89700073D01*
X79962742Y-89705000D01*
X79785258Y-89705000D01*
X79760488Y-89700073D01*
X79611188Y-89670376D01*
X79447216Y-89602456D01*
X79299646Y-89503853D01*
X79174147Y-89378354D01*
X79075544Y-89230784D01*
X79007624Y-89066812D01*
X78973000Y-88892741D01*
X78973000Y-88715259D01*
X79007624Y-88541188D01*
X79075544Y-88377216D01*
X79174147Y-88229646D01*
X79299646Y-88104147D01*
X79447216Y-88005544D01*
X79611188Y-87937624D01*
X79760488Y-87907927D01*
X79785258Y-87903000D01*
X79962742Y-87903000D01*
X79987512Y-87907927D01*
X79987512Y-87907927D01*
G37*
G36*
X77447512Y-87907927D02*
G01*
X77596812Y-87937624D01*
X77760784Y-88005544D01*
X77908354Y-88104147D01*
X78033853Y-88229646D01*
X78132456Y-88377216D01*
X78200376Y-88541188D01*
X78235000Y-88715259D01*
X78235000Y-88892741D01*
X78200376Y-89066812D01*
X78132456Y-89230784D01*
X78033853Y-89378354D01*
X77908354Y-89503853D01*
X77760784Y-89602456D01*
X77596812Y-89670376D01*
X77447512Y-89700073D01*
X77422742Y-89705000D01*
X77245258Y-89705000D01*
X77220488Y-89700073D01*
X77071188Y-89670376D01*
X76907216Y-89602456D01*
X76759646Y-89503853D01*
X76634147Y-89378354D01*
X76535544Y-89230784D01*
X76467624Y-89066812D01*
X76433000Y-88892741D01*
X76433000Y-88715259D01*
X76467624Y-88541188D01*
X76535544Y-88377216D01*
X76634147Y-88229646D01*
X76759646Y-88104147D01*
X76907216Y-88005544D01*
X77071188Y-87937624D01*
X77220488Y-87907927D01*
X77245258Y-87903000D01*
X77422742Y-87903000D01*
X77447512Y-87907927D01*
X77447512Y-87907927D01*
G37*
G36*
X53825512Y-87907927D02*
G01*
X53974812Y-87937624D01*
X54138784Y-88005544D01*
X54286354Y-88104147D01*
X54411853Y-88229646D01*
X54510456Y-88377216D01*
X54578376Y-88541188D01*
X54613000Y-88715259D01*
X54613000Y-88892741D01*
X54578376Y-89066812D01*
X54510456Y-89230784D01*
X54411853Y-89378354D01*
X54286354Y-89503853D01*
X54138784Y-89602456D01*
X53974812Y-89670376D01*
X53825512Y-89700073D01*
X53800742Y-89705000D01*
X53623258Y-89705000D01*
X53598488Y-89700073D01*
X53449188Y-89670376D01*
X53285216Y-89602456D01*
X53137646Y-89503853D01*
X53012147Y-89378354D01*
X52913544Y-89230784D01*
X52845624Y-89066812D01*
X52811000Y-88892741D01*
X52811000Y-88715259D01*
X52845624Y-88541188D01*
X52913544Y-88377216D01*
X53012147Y-88229646D01*
X53137646Y-88104147D01*
X53285216Y-88005544D01*
X53449188Y-87937624D01*
X53598488Y-87907927D01*
X53623258Y-87903000D01*
X53800742Y-87903000D01*
X53825512Y-87907927D01*
X53825512Y-87907927D01*
G37*
G36*
X56365512Y-87907927D02*
G01*
X56514812Y-87937624D01*
X56678784Y-88005544D01*
X56826354Y-88104147D01*
X56951853Y-88229646D01*
X57050456Y-88377216D01*
X57118376Y-88541188D01*
X57153000Y-88715259D01*
X57153000Y-88892741D01*
X57118376Y-89066812D01*
X57050456Y-89230784D01*
X56951853Y-89378354D01*
X56826354Y-89503853D01*
X56678784Y-89602456D01*
X56514812Y-89670376D01*
X56365512Y-89700073D01*
X56340742Y-89705000D01*
X56163258Y-89705000D01*
X56138488Y-89700073D01*
X55989188Y-89670376D01*
X55825216Y-89602456D01*
X55677646Y-89503853D01*
X55552147Y-89378354D01*
X55453544Y-89230784D01*
X55385624Y-89066812D01*
X55351000Y-88892741D01*
X55351000Y-88715259D01*
X55385624Y-88541188D01*
X55453544Y-88377216D01*
X55552147Y-88229646D01*
X55677646Y-88104147D01*
X55825216Y-88005544D01*
X55989188Y-87937624D01*
X56138488Y-87907927D01*
X56163258Y-87903000D01*
X56340742Y-87903000D01*
X56365512Y-87907927D01*
X56365512Y-87907927D01*
G37*
G36*
X79987512Y-85367927D02*
G01*
X80136812Y-85397624D01*
X80300784Y-85465544D01*
X80448354Y-85564147D01*
X80573853Y-85689646D01*
X80672456Y-85837216D01*
X80740376Y-86001188D01*
X80775000Y-86175259D01*
X80775000Y-86352741D01*
X80740376Y-86526812D01*
X80672456Y-86690784D01*
X80573853Y-86838354D01*
X80448354Y-86963853D01*
X80300784Y-87062456D01*
X80136812Y-87130376D01*
X79987512Y-87160073D01*
X79962742Y-87165000D01*
X79785258Y-87165000D01*
X79760488Y-87160073D01*
X79611188Y-87130376D01*
X79447216Y-87062456D01*
X79299646Y-86963853D01*
X79174147Y-86838354D01*
X79075544Y-86690784D01*
X79007624Y-86526812D01*
X78973000Y-86352741D01*
X78973000Y-86175259D01*
X79007624Y-86001188D01*
X79075544Y-85837216D01*
X79174147Y-85689646D01*
X79299646Y-85564147D01*
X79447216Y-85465544D01*
X79611188Y-85397624D01*
X79760488Y-85367927D01*
X79785258Y-85363000D01*
X79962742Y-85363000D01*
X79987512Y-85367927D01*
X79987512Y-85367927D01*
G37*
G36*
X77447512Y-85367927D02*
G01*
X77596812Y-85397624D01*
X77760784Y-85465544D01*
X77908354Y-85564147D01*
X78033853Y-85689646D01*
X78132456Y-85837216D01*
X78200376Y-86001188D01*
X78235000Y-86175259D01*
X78235000Y-86352741D01*
X78200376Y-86526812D01*
X78132456Y-86690784D01*
X78033853Y-86838354D01*
X77908354Y-86963853D01*
X77760784Y-87062456D01*
X77596812Y-87130376D01*
X77447512Y-87160073D01*
X77422742Y-87165000D01*
X77245258Y-87165000D01*
X77220488Y-87160073D01*
X77071188Y-87130376D01*
X76907216Y-87062456D01*
X76759646Y-86963853D01*
X76634147Y-86838354D01*
X76535544Y-86690784D01*
X76467624Y-86526812D01*
X76433000Y-86352741D01*
X76433000Y-86175259D01*
X76467624Y-86001188D01*
X76535544Y-85837216D01*
X76634147Y-85689646D01*
X76759646Y-85564147D01*
X76907216Y-85465544D01*
X77071188Y-85397624D01*
X77220488Y-85367927D01*
X77245258Y-85363000D01*
X77422742Y-85363000D01*
X77447512Y-85367927D01*
X77447512Y-85367927D01*
G37*
G36*
X56365512Y-85367927D02*
G01*
X56514812Y-85397624D01*
X56678784Y-85465544D01*
X56826354Y-85564147D01*
X56951853Y-85689646D01*
X57050456Y-85837216D01*
X57118376Y-86001188D01*
X57153000Y-86175259D01*
X57153000Y-86352741D01*
X57118376Y-86526812D01*
X57050456Y-86690784D01*
X56951853Y-86838354D01*
X56826354Y-86963853D01*
X56678784Y-87062456D01*
X56514812Y-87130376D01*
X56365512Y-87160073D01*
X56340742Y-87165000D01*
X56163258Y-87165000D01*
X56138488Y-87160073D01*
X55989188Y-87130376D01*
X55825216Y-87062456D01*
X55677646Y-86963853D01*
X55552147Y-86838354D01*
X55453544Y-86690784D01*
X55385624Y-86526812D01*
X55351000Y-86352741D01*
X55351000Y-86175259D01*
X55385624Y-86001188D01*
X55453544Y-85837216D01*
X55552147Y-85689646D01*
X55677646Y-85564147D01*
X55825216Y-85465544D01*
X55989188Y-85397624D01*
X56138488Y-85367927D01*
X56163258Y-85363000D01*
X56340742Y-85363000D01*
X56365512Y-85367927D01*
X56365512Y-85367927D01*
G37*
G36*
X53825512Y-85367927D02*
G01*
X53974812Y-85397624D01*
X54138784Y-85465544D01*
X54286354Y-85564147D01*
X54411853Y-85689646D01*
X54510456Y-85837216D01*
X54578376Y-86001188D01*
X54613000Y-86175259D01*
X54613000Y-86352741D01*
X54578376Y-86526812D01*
X54510456Y-86690784D01*
X54411853Y-86838354D01*
X54286354Y-86963853D01*
X54138784Y-87062456D01*
X53974812Y-87130376D01*
X53825512Y-87160073D01*
X53800742Y-87165000D01*
X53623258Y-87165000D01*
X53598488Y-87160073D01*
X53449188Y-87130376D01*
X53285216Y-87062456D01*
X53137646Y-86963853D01*
X53012147Y-86838354D01*
X52913544Y-86690784D01*
X52845624Y-86526812D01*
X52811000Y-86352741D01*
X52811000Y-86175259D01*
X52845624Y-86001188D01*
X52913544Y-85837216D01*
X53012147Y-85689646D01*
X53137646Y-85564147D01*
X53285216Y-85465544D01*
X53449188Y-85397624D01*
X53598488Y-85367927D01*
X53623258Y-85363000D01*
X53800742Y-85363000D01*
X53825512Y-85367927D01*
X53825512Y-85367927D01*
G37*
G36*
X153001000Y-85251000D02*
G01*
X150999000Y-85251000D01*
X150999000Y-83249000D01*
X153001000Y-83249000D01*
X153001000Y-85251000D01*
X153001000Y-85251000D01*
G37*
G36*
X77447512Y-82827927D02*
G01*
X77596812Y-82857624D01*
X77760784Y-82925544D01*
X77908354Y-83024147D01*
X78033853Y-83149646D01*
X78132456Y-83297216D01*
X78200376Y-83461188D01*
X78235000Y-83635259D01*
X78235000Y-83812741D01*
X78200376Y-83986812D01*
X78132456Y-84150784D01*
X78033853Y-84298354D01*
X77908354Y-84423853D01*
X77760784Y-84522456D01*
X77596812Y-84590376D01*
X77447512Y-84620073D01*
X77422742Y-84625000D01*
X77245258Y-84625000D01*
X77220488Y-84620073D01*
X77071188Y-84590376D01*
X76907216Y-84522456D01*
X76759646Y-84423853D01*
X76634147Y-84298354D01*
X76535544Y-84150784D01*
X76467624Y-83986812D01*
X76433000Y-83812741D01*
X76433000Y-83635259D01*
X76467624Y-83461188D01*
X76535544Y-83297216D01*
X76634147Y-83149646D01*
X76759646Y-83024147D01*
X76907216Y-82925544D01*
X77071188Y-82857624D01*
X77220488Y-82827927D01*
X77245258Y-82823000D01*
X77422742Y-82823000D01*
X77447512Y-82827927D01*
X77447512Y-82827927D01*
G37*
G36*
X53825512Y-82827927D02*
G01*
X53974812Y-82857624D01*
X54138784Y-82925544D01*
X54286354Y-83024147D01*
X54411853Y-83149646D01*
X54510456Y-83297216D01*
X54578376Y-83461188D01*
X54613000Y-83635259D01*
X54613000Y-83812741D01*
X54578376Y-83986812D01*
X54510456Y-84150784D01*
X54411853Y-84298354D01*
X54286354Y-84423853D01*
X54138784Y-84522456D01*
X53974812Y-84590376D01*
X53825512Y-84620073D01*
X53800742Y-84625000D01*
X53623258Y-84625000D01*
X53598488Y-84620073D01*
X53449188Y-84590376D01*
X53285216Y-84522456D01*
X53137646Y-84423853D01*
X53012147Y-84298354D01*
X52913544Y-84150784D01*
X52845624Y-83986812D01*
X52811000Y-83812741D01*
X52811000Y-83635259D01*
X52845624Y-83461188D01*
X52913544Y-83297216D01*
X53012147Y-83149646D01*
X53137646Y-83024147D01*
X53285216Y-82925544D01*
X53449188Y-82857624D01*
X53598488Y-82827927D01*
X53623258Y-82823000D01*
X53800742Y-82823000D01*
X53825512Y-82827927D01*
X53825512Y-82827927D01*
G37*
G36*
X56365512Y-82827927D02*
G01*
X56514812Y-82857624D01*
X56678784Y-82925544D01*
X56826354Y-83024147D01*
X56951853Y-83149646D01*
X57050456Y-83297216D01*
X57118376Y-83461188D01*
X57153000Y-83635259D01*
X57153000Y-83812741D01*
X57118376Y-83986812D01*
X57050456Y-84150784D01*
X56951853Y-84298354D01*
X56826354Y-84423853D01*
X56678784Y-84522456D01*
X56514812Y-84590376D01*
X56365512Y-84620073D01*
X56340742Y-84625000D01*
X56163258Y-84625000D01*
X56138488Y-84620073D01*
X55989188Y-84590376D01*
X55825216Y-84522456D01*
X55677646Y-84423853D01*
X55552147Y-84298354D01*
X55453544Y-84150784D01*
X55385624Y-83986812D01*
X55351000Y-83812741D01*
X55351000Y-83635259D01*
X55385624Y-83461188D01*
X55453544Y-83297216D01*
X55552147Y-83149646D01*
X55677646Y-83024147D01*
X55825216Y-82925544D01*
X55989188Y-82857624D01*
X56138488Y-82827927D01*
X56163258Y-82823000D01*
X56340742Y-82823000D01*
X56365512Y-82827927D01*
X56365512Y-82827927D01*
G37*
G36*
X79987512Y-82827927D02*
G01*
X80136812Y-82857624D01*
X80300784Y-82925544D01*
X80448354Y-83024147D01*
X80573853Y-83149646D01*
X80672456Y-83297216D01*
X80740376Y-83461188D01*
X80775000Y-83635259D01*
X80775000Y-83812741D01*
X80740376Y-83986812D01*
X80672456Y-84150784D01*
X80573853Y-84298354D01*
X80448354Y-84423853D01*
X80300784Y-84522456D01*
X80136812Y-84590376D01*
X79987512Y-84620073D01*
X79962742Y-84625000D01*
X79785258Y-84625000D01*
X79760488Y-84620073D01*
X79611188Y-84590376D01*
X79447216Y-84522456D01*
X79299646Y-84423853D01*
X79174147Y-84298354D01*
X79075544Y-84150784D01*
X79007624Y-83986812D01*
X78973000Y-83812741D01*
X78973000Y-83635259D01*
X79007624Y-83461188D01*
X79075544Y-83297216D01*
X79174147Y-83149646D01*
X79299646Y-83024147D01*
X79447216Y-82925544D01*
X79611188Y-82857624D01*
X79760488Y-82827927D01*
X79785258Y-82823000D01*
X79962742Y-82823000D01*
X79987512Y-82827927D01*
X79987512Y-82827927D01*
G37*
G36*
X152139905Y-80757218D02*
G01*
X152291981Y-80787468D01*
X152474151Y-80862926D01*
X152638100Y-80972473D01*
X152777527Y-81111900D01*
X152887074Y-81275849D01*
X152962532Y-81458019D01*
X153001000Y-81651410D01*
X153001000Y-81848590D01*
X152962532Y-82041981D01*
X152887074Y-82224151D01*
X152777527Y-82388100D01*
X152638100Y-82527527D01*
X152474151Y-82637074D01*
X152291981Y-82712532D01*
X152195285Y-82731766D01*
X152098591Y-82751000D01*
X151901409Y-82751000D01*
X151804715Y-82731766D01*
X151708019Y-82712532D01*
X151525849Y-82637074D01*
X151361900Y-82527527D01*
X151222473Y-82388100D01*
X151112926Y-82224151D01*
X151037468Y-82041981D01*
X150999000Y-81848590D01*
X150999000Y-81651410D01*
X151037468Y-81458019D01*
X151112926Y-81275849D01*
X151222473Y-81111900D01*
X151361900Y-80972473D01*
X151525849Y-80862926D01*
X151708019Y-80787468D01*
X151860095Y-80757218D01*
X151901409Y-80749000D01*
X152098591Y-80749000D01*
X152139905Y-80757218D01*
X152139905Y-80757218D01*
G37*
G36*
X135359512Y-80795927D02*
G01*
X135508812Y-80825624D01*
X135672784Y-80893544D01*
X135820354Y-80992147D01*
X135945853Y-81117646D01*
X136044456Y-81265216D01*
X136112376Y-81429188D01*
X136147000Y-81603259D01*
X136147000Y-81780741D01*
X136112376Y-81954812D01*
X136044456Y-82118784D01*
X135945853Y-82266354D01*
X135820354Y-82391853D01*
X135672784Y-82490456D01*
X135508812Y-82558376D01*
X135359512Y-82588073D01*
X135334742Y-82593000D01*
X135157258Y-82593000D01*
X135132488Y-82588073D01*
X134983188Y-82558376D01*
X134819216Y-82490456D01*
X134671646Y-82391853D01*
X134546147Y-82266354D01*
X134447544Y-82118784D01*
X134379624Y-81954812D01*
X134345000Y-81780741D01*
X134345000Y-81603259D01*
X134379624Y-81429188D01*
X134447544Y-81265216D01*
X134546147Y-81117646D01*
X134671646Y-80992147D01*
X134819216Y-80893544D01*
X134983188Y-80825624D01*
X135132488Y-80795927D01*
X135157258Y-80791000D01*
X135334742Y-80791000D01*
X135359512Y-80795927D01*
X135359512Y-80795927D01*
G37*
G36*
X104879512Y-80795927D02*
G01*
X105028812Y-80825624D01*
X105192784Y-80893544D01*
X105340354Y-80992147D01*
X105465853Y-81117646D01*
X105564456Y-81265216D01*
X105632376Y-81429188D01*
X105667000Y-81603259D01*
X105667000Y-81780741D01*
X105632376Y-81954812D01*
X105564456Y-82118784D01*
X105465853Y-82266354D01*
X105340354Y-82391853D01*
X105192784Y-82490456D01*
X105028812Y-82558376D01*
X104879512Y-82588073D01*
X104854742Y-82593000D01*
X104677258Y-82593000D01*
X104652488Y-82588073D01*
X104503188Y-82558376D01*
X104339216Y-82490456D01*
X104191646Y-82391853D01*
X104066147Y-82266354D01*
X103967544Y-82118784D01*
X103899624Y-81954812D01*
X103865000Y-81780741D01*
X103865000Y-81603259D01*
X103899624Y-81429188D01*
X103967544Y-81265216D01*
X104066147Y-81117646D01*
X104191646Y-80992147D01*
X104339216Y-80893544D01*
X104503188Y-80825624D01*
X104652488Y-80795927D01*
X104677258Y-80791000D01*
X104854742Y-80791000D01*
X104879512Y-80795927D01*
X104879512Y-80795927D01*
G37*
G36*
X102339512Y-80795927D02*
G01*
X102488812Y-80825624D01*
X102652784Y-80893544D01*
X102800354Y-80992147D01*
X102925853Y-81117646D01*
X103024456Y-81265216D01*
X103092376Y-81429188D01*
X103127000Y-81603259D01*
X103127000Y-81780741D01*
X103092376Y-81954812D01*
X103024456Y-82118784D01*
X102925853Y-82266354D01*
X102800354Y-82391853D01*
X102652784Y-82490456D01*
X102488812Y-82558376D01*
X102339512Y-82588073D01*
X102314742Y-82593000D01*
X102137258Y-82593000D01*
X102112488Y-82588073D01*
X101963188Y-82558376D01*
X101799216Y-82490456D01*
X101651646Y-82391853D01*
X101526147Y-82266354D01*
X101427544Y-82118784D01*
X101359624Y-81954812D01*
X101325000Y-81780741D01*
X101325000Y-81603259D01*
X101359624Y-81429188D01*
X101427544Y-81265216D01*
X101526147Y-81117646D01*
X101651646Y-80992147D01*
X101799216Y-80893544D01*
X101963188Y-80825624D01*
X102112488Y-80795927D01*
X102137258Y-80791000D01*
X102314742Y-80791000D01*
X102339512Y-80795927D01*
X102339512Y-80795927D01*
G37*
G36*
X99799512Y-80795927D02*
G01*
X99948812Y-80825624D01*
X100112784Y-80893544D01*
X100260354Y-80992147D01*
X100385853Y-81117646D01*
X100484456Y-81265216D01*
X100552376Y-81429188D01*
X100587000Y-81603259D01*
X100587000Y-81780741D01*
X100552376Y-81954812D01*
X100484456Y-82118784D01*
X100385853Y-82266354D01*
X100260354Y-82391853D01*
X100112784Y-82490456D01*
X99948812Y-82558376D01*
X99799512Y-82588073D01*
X99774742Y-82593000D01*
X99597258Y-82593000D01*
X99572488Y-82588073D01*
X99423188Y-82558376D01*
X99259216Y-82490456D01*
X99111646Y-82391853D01*
X98986147Y-82266354D01*
X98887544Y-82118784D01*
X98819624Y-81954812D01*
X98785000Y-81780741D01*
X98785000Y-81603259D01*
X98819624Y-81429188D01*
X98887544Y-81265216D01*
X98986147Y-81117646D01*
X99111646Y-80992147D01*
X99259216Y-80893544D01*
X99423188Y-80825624D01*
X99572488Y-80795927D01*
X99597258Y-80791000D01*
X99774742Y-80791000D01*
X99799512Y-80795927D01*
X99799512Y-80795927D01*
G37*
G36*
X97259512Y-80795927D02*
G01*
X97408812Y-80825624D01*
X97572784Y-80893544D01*
X97720354Y-80992147D01*
X97845853Y-81117646D01*
X97944456Y-81265216D01*
X98012376Y-81429188D01*
X98047000Y-81603259D01*
X98047000Y-81780741D01*
X98012376Y-81954812D01*
X97944456Y-82118784D01*
X97845853Y-82266354D01*
X97720354Y-82391853D01*
X97572784Y-82490456D01*
X97408812Y-82558376D01*
X97259512Y-82588073D01*
X97234742Y-82593000D01*
X97057258Y-82593000D01*
X97032488Y-82588073D01*
X96883188Y-82558376D01*
X96719216Y-82490456D01*
X96571646Y-82391853D01*
X96446147Y-82266354D01*
X96347544Y-82118784D01*
X96279624Y-81954812D01*
X96245000Y-81780741D01*
X96245000Y-81603259D01*
X96279624Y-81429188D01*
X96347544Y-81265216D01*
X96446147Y-81117646D01*
X96571646Y-80992147D01*
X96719216Y-80893544D01*
X96883188Y-80825624D01*
X97032488Y-80795927D01*
X97057258Y-80791000D01*
X97234742Y-80791000D01*
X97259512Y-80795927D01*
X97259512Y-80795927D01*
G37*
G36*
X132819512Y-80795927D02*
G01*
X132968812Y-80825624D01*
X133132784Y-80893544D01*
X133280354Y-80992147D01*
X133405853Y-81117646D01*
X133504456Y-81265216D01*
X133572376Y-81429188D01*
X133607000Y-81603259D01*
X133607000Y-81780741D01*
X133572376Y-81954812D01*
X133504456Y-82118784D01*
X133405853Y-82266354D01*
X133280354Y-82391853D01*
X133132784Y-82490456D01*
X132968812Y-82558376D01*
X132819512Y-82588073D01*
X132794742Y-82593000D01*
X132617258Y-82593000D01*
X132592488Y-82588073D01*
X132443188Y-82558376D01*
X132279216Y-82490456D01*
X132131646Y-82391853D01*
X132006147Y-82266354D01*
X131907544Y-82118784D01*
X131839624Y-81954812D01*
X131805000Y-81780741D01*
X131805000Y-81603259D01*
X131839624Y-81429188D01*
X131907544Y-81265216D01*
X132006147Y-81117646D01*
X132131646Y-80992147D01*
X132279216Y-80893544D01*
X132443188Y-80825624D01*
X132592488Y-80795927D01*
X132617258Y-80791000D01*
X132794742Y-80791000D01*
X132819512Y-80795927D01*
X132819512Y-80795927D01*
G37*
G36*
X140439512Y-80795927D02*
G01*
X140588812Y-80825624D01*
X140752784Y-80893544D01*
X140900354Y-80992147D01*
X141025853Y-81117646D01*
X141124456Y-81265216D01*
X141192376Y-81429188D01*
X141227000Y-81603259D01*
X141227000Y-81780741D01*
X141192376Y-81954812D01*
X141124456Y-82118784D01*
X141025853Y-82266354D01*
X140900354Y-82391853D01*
X140752784Y-82490456D01*
X140588812Y-82558376D01*
X140439512Y-82588073D01*
X140414742Y-82593000D01*
X140237258Y-82593000D01*
X140212488Y-82588073D01*
X140063188Y-82558376D01*
X139899216Y-82490456D01*
X139751646Y-82391853D01*
X139626147Y-82266354D01*
X139527544Y-82118784D01*
X139459624Y-81954812D01*
X139425000Y-81780741D01*
X139425000Y-81603259D01*
X139459624Y-81429188D01*
X139527544Y-81265216D01*
X139626147Y-81117646D01*
X139751646Y-80992147D01*
X139899216Y-80893544D01*
X140063188Y-80825624D01*
X140212488Y-80795927D01*
X140237258Y-80791000D01*
X140414742Y-80791000D01*
X140439512Y-80795927D01*
X140439512Y-80795927D01*
G37*
G36*
X137899512Y-80795927D02*
G01*
X138048812Y-80825624D01*
X138212784Y-80893544D01*
X138360354Y-80992147D01*
X138485853Y-81117646D01*
X138584456Y-81265216D01*
X138652376Y-81429188D01*
X138687000Y-81603259D01*
X138687000Y-81780741D01*
X138652376Y-81954812D01*
X138584456Y-82118784D01*
X138485853Y-82266354D01*
X138360354Y-82391853D01*
X138212784Y-82490456D01*
X138048812Y-82558376D01*
X137899512Y-82588073D01*
X137874742Y-82593000D01*
X137697258Y-82593000D01*
X137672488Y-82588073D01*
X137523188Y-82558376D01*
X137359216Y-82490456D01*
X137211646Y-82391853D01*
X137086147Y-82266354D01*
X136987544Y-82118784D01*
X136919624Y-81954812D01*
X136885000Y-81780741D01*
X136885000Y-81603259D01*
X136919624Y-81429188D01*
X136987544Y-81265216D01*
X137086147Y-81117646D01*
X137211646Y-80992147D01*
X137359216Y-80893544D01*
X137523188Y-80825624D01*
X137672488Y-80795927D01*
X137697258Y-80791000D01*
X137874742Y-80791000D01*
X137899512Y-80795927D01*
X137899512Y-80795927D01*
G37*
G36*
X127739512Y-80795927D02*
G01*
X127888812Y-80825624D01*
X128052784Y-80893544D01*
X128200354Y-80992147D01*
X128325853Y-81117646D01*
X128424456Y-81265216D01*
X128492376Y-81429188D01*
X128527000Y-81603259D01*
X128527000Y-81780741D01*
X128492376Y-81954812D01*
X128424456Y-82118784D01*
X128325853Y-82266354D01*
X128200354Y-82391853D01*
X128052784Y-82490456D01*
X127888812Y-82558376D01*
X127739512Y-82588073D01*
X127714742Y-82593000D01*
X127537258Y-82593000D01*
X127512488Y-82588073D01*
X127363188Y-82558376D01*
X127199216Y-82490456D01*
X127051646Y-82391853D01*
X126926147Y-82266354D01*
X126827544Y-82118784D01*
X126759624Y-81954812D01*
X126725000Y-81780741D01*
X126725000Y-81603259D01*
X126759624Y-81429188D01*
X126827544Y-81265216D01*
X126926147Y-81117646D01*
X127051646Y-80992147D01*
X127199216Y-80893544D01*
X127363188Y-80825624D01*
X127512488Y-80795927D01*
X127537258Y-80791000D01*
X127714742Y-80791000D01*
X127739512Y-80795927D01*
X127739512Y-80795927D01*
G37*
G36*
X130279512Y-80795927D02*
G01*
X130428812Y-80825624D01*
X130592784Y-80893544D01*
X130740354Y-80992147D01*
X130865853Y-81117646D01*
X130964456Y-81265216D01*
X131032376Y-81429188D01*
X131067000Y-81603259D01*
X131067000Y-81780741D01*
X131032376Y-81954812D01*
X130964456Y-82118784D01*
X130865853Y-82266354D01*
X130740354Y-82391853D01*
X130592784Y-82490456D01*
X130428812Y-82558376D01*
X130279512Y-82588073D01*
X130254742Y-82593000D01*
X130077258Y-82593000D01*
X130052488Y-82588073D01*
X129903188Y-82558376D01*
X129739216Y-82490456D01*
X129591646Y-82391853D01*
X129466147Y-82266354D01*
X129367544Y-82118784D01*
X129299624Y-81954812D01*
X129265000Y-81780741D01*
X129265000Y-81603259D01*
X129299624Y-81429188D01*
X129367544Y-81265216D01*
X129466147Y-81117646D01*
X129591646Y-80992147D01*
X129739216Y-80893544D01*
X129903188Y-80825624D01*
X130052488Y-80795927D01*
X130077258Y-80791000D01*
X130254742Y-80791000D01*
X130279512Y-80795927D01*
X130279512Y-80795927D01*
G37*
G36*
X115039512Y-80795927D02*
G01*
X115188812Y-80825624D01*
X115352784Y-80893544D01*
X115500354Y-80992147D01*
X115625853Y-81117646D01*
X115724456Y-81265216D01*
X115792376Y-81429188D01*
X115827000Y-81603259D01*
X115827000Y-81780741D01*
X115792376Y-81954812D01*
X115724456Y-82118784D01*
X115625853Y-82266354D01*
X115500354Y-82391853D01*
X115352784Y-82490456D01*
X115188812Y-82558376D01*
X115039512Y-82588073D01*
X115014742Y-82593000D01*
X114837258Y-82593000D01*
X114812488Y-82588073D01*
X114663188Y-82558376D01*
X114499216Y-82490456D01*
X114351646Y-82391853D01*
X114226147Y-82266354D01*
X114127544Y-82118784D01*
X114059624Y-81954812D01*
X114025000Y-81780741D01*
X114025000Y-81603259D01*
X114059624Y-81429188D01*
X114127544Y-81265216D01*
X114226147Y-81117646D01*
X114351646Y-80992147D01*
X114499216Y-80893544D01*
X114663188Y-80825624D01*
X114812488Y-80795927D01*
X114837258Y-80791000D01*
X115014742Y-80791000D01*
X115039512Y-80795927D01*
X115039512Y-80795927D01*
G37*
G36*
X107419512Y-80795927D02*
G01*
X107568812Y-80825624D01*
X107732784Y-80893544D01*
X107880354Y-80992147D01*
X108005853Y-81117646D01*
X108104456Y-81265216D01*
X108172376Y-81429188D01*
X108207000Y-81603259D01*
X108207000Y-81780741D01*
X108172376Y-81954812D01*
X108104456Y-82118784D01*
X108005853Y-82266354D01*
X107880354Y-82391853D01*
X107732784Y-82490456D01*
X107568812Y-82558376D01*
X107419512Y-82588073D01*
X107394742Y-82593000D01*
X107217258Y-82593000D01*
X107192488Y-82588073D01*
X107043188Y-82558376D01*
X106879216Y-82490456D01*
X106731646Y-82391853D01*
X106606147Y-82266354D01*
X106507544Y-82118784D01*
X106439624Y-81954812D01*
X106405000Y-81780741D01*
X106405000Y-81603259D01*
X106439624Y-81429188D01*
X106507544Y-81265216D01*
X106606147Y-81117646D01*
X106731646Y-80992147D01*
X106879216Y-80893544D01*
X107043188Y-80825624D01*
X107192488Y-80795927D01*
X107217258Y-80791000D01*
X107394742Y-80791000D01*
X107419512Y-80795927D01*
X107419512Y-80795927D01*
G37*
G36*
X112499512Y-80795927D02*
G01*
X112648812Y-80825624D01*
X112812784Y-80893544D01*
X112960354Y-80992147D01*
X113085853Y-81117646D01*
X113184456Y-81265216D01*
X113252376Y-81429188D01*
X113287000Y-81603259D01*
X113287000Y-81780741D01*
X113252376Y-81954812D01*
X113184456Y-82118784D01*
X113085853Y-82266354D01*
X112960354Y-82391853D01*
X112812784Y-82490456D01*
X112648812Y-82558376D01*
X112499512Y-82588073D01*
X112474742Y-82593000D01*
X112297258Y-82593000D01*
X112272488Y-82588073D01*
X112123188Y-82558376D01*
X111959216Y-82490456D01*
X111811646Y-82391853D01*
X111686147Y-82266354D01*
X111587544Y-82118784D01*
X111519624Y-81954812D01*
X111485000Y-81780741D01*
X111485000Y-81603259D01*
X111519624Y-81429188D01*
X111587544Y-81265216D01*
X111686147Y-81117646D01*
X111811646Y-80992147D01*
X111959216Y-80893544D01*
X112123188Y-80825624D01*
X112272488Y-80795927D01*
X112297258Y-80791000D01*
X112474742Y-80791000D01*
X112499512Y-80795927D01*
X112499512Y-80795927D01*
G37*
G36*
X142979512Y-80795927D02*
G01*
X143128812Y-80825624D01*
X143292784Y-80893544D01*
X143440354Y-80992147D01*
X143565853Y-81117646D01*
X143664456Y-81265216D01*
X143732376Y-81429188D01*
X143767000Y-81603259D01*
X143767000Y-81780741D01*
X143732376Y-81954812D01*
X143664456Y-82118784D01*
X143565853Y-82266354D01*
X143440354Y-82391853D01*
X143292784Y-82490456D01*
X143128812Y-82558376D01*
X142979512Y-82588073D01*
X142954742Y-82593000D01*
X142777258Y-82593000D01*
X142752488Y-82588073D01*
X142603188Y-82558376D01*
X142439216Y-82490456D01*
X142291646Y-82391853D01*
X142166147Y-82266354D01*
X142067544Y-82118784D01*
X141999624Y-81954812D01*
X141965000Y-81780741D01*
X141965000Y-81603259D01*
X141999624Y-81429188D01*
X142067544Y-81265216D01*
X142166147Y-81117646D01*
X142291646Y-80992147D01*
X142439216Y-80893544D01*
X142603188Y-80825624D01*
X142752488Y-80795927D01*
X142777258Y-80791000D01*
X142954742Y-80791000D01*
X142979512Y-80795927D01*
X142979512Y-80795927D01*
G37*
G36*
X109959512Y-80795927D02*
G01*
X110108812Y-80825624D01*
X110272784Y-80893544D01*
X110420354Y-80992147D01*
X110545853Y-81117646D01*
X110644456Y-81265216D01*
X110712376Y-81429188D01*
X110747000Y-81603259D01*
X110747000Y-81780741D01*
X110712376Y-81954812D01*
X110644456Y-82118784D01*
X110545853Y-82266354D01*
X110420354Y-82391853D01*
X110272784Y-82490456D01*
X110108812Y-82558376D01*
X109959512Y-82588073D01*
X109934742Y-82593000D01*
X109757258Y-82593000D01*
X109732488Y-82588073D01*
X109583188Y-82558376D01*
X109419216Y-82490456D01*
X109271646Y-82391853D01*
X109146147Y-82266354D01*
X109047544Y-82118784D01*
X108979624Y-81954812D01*
X108945000Y-81780741D01*
X108945000Y-81603259D01*
X108979624Y-81429188D01*
X109047544Y-81265216D01*
X109146147Y-81117646D01*
X109271646Y-80992147D01*
X109419216Y-80893544D01*
X109583188Y-80825624D01*
X109732488Y-80795927D01*
X109757258Y-80791000D01*
X109934742Y-80791000D01*
X109959512Y-80795927D01*
X109959512Y-80795927D01*
G37*
G36*
X125199512Y-80795927D02*
G01*
X125348812Y-80825624D01*
X125512784Y-80893544D01*
X125660354Y-80992147D01*
X125785853Y-81117646D01*
X125884456Y-81265216D01*
X125952376Y-81429188D01*
X125987000Y-81603259D01*
X125987000Y-81780741D01*
X125952376Y-81954812D01*
X125884456Y-82118784D01*
X125785853Y-82266354D01*
X125660354Y-82391853D01*
X125512784Y-82490456D01*
X125348812Y-82558376D01*
X125199512Y-82588073D01*
X125174742Y-82593000D01*
X124997258Y-82593000D01*
X124972488Y-82588073D01*
X124823188Y-82558376D01*
X124659216Y-82490456D01*
X124511646Y-82391853D01*
X124386147Y-82266354D01*
X124287544Y-82118784D01*
X124219624Y-81954812D01*
X124185000Y-81780741D01*
X124185000Y-81603259D01*
X124219624Y-81429188D01*
X124287544Y-81265216D01*
X124386147Y-81117646D01*
X124511646Y-80992147D01*
X124659216Y-80893544D01*
X124823188Y-80825624D01*
X124972488Y-80795927D01*
X124997258Y-80791000D01*
X125174742Y-80791000D01*
X125199512Y-80795927D01*
X125199512Y-80795927D01*
G37*
G36*
X79987512Y-80287927D02*
G01*
X80136812Y-80317624D01*
X80300784Y-80385544D01*
X80448354Y-80484147D01*
X80573853Y-80609646D01*
X80672456Y-80757216D01*
X80740376Y-80921188D01*
X80754490Y-80992147D01*
X80775000Y-81095258D01*
X80775000Y-81272742D01*
X80770073Y-81297512D01*
X80740376Y-81446812D01*
X80672456Y-81610784D01*
X80573853Y-81758354D01*
X80448354Y-81883853D01*
X80300784Y-81982456D01*
X80136812Y-82050376D01*
X79987512Y-82080073D01*
X79962742Y-82085000D01*
X79785258Y-82085000D01*
X79760488Y-82080073D01*
X79611188Y-82050376D01*
X79447216Y-81982456D01*
X79299646Y-81883853D01*
X79174147Y-81758354D01*
X79075544Y-81610784D01*
X79007624Y-81446812D01*
X78977927Y-81297512D01*
X78973000Y-81272742D01*
X78973000Y-81095258D01*
X78993510Y-80992147D01*
X79007624Y-80921188D01*
X79075544Y-80757216D01*
X79174147Y-80609646D01*
X79299646Y-80484147D01*
X79447216Y-80385544D01*
X79611188Y-80317624D01*
X79760488Y-80287927D01*
X79785258Y-80283000D01*
X79962742Y-80283000D01*
X79987512Y-80287927D01*
X79987512Y-80287927D01*
G37*
G36*
X56365512Y-80287927D02*
G01*
X56514812Y-80317624D01*
X56678784Y-80385544D01*
X56826354Y-80484147D01*
X56951853Y-80609646D01*
X57050456Y-80757216D01*
X57118376Y-80921188D01*
X57132490Y-80992147D01*
X57153000Y-81095258D01*
X57153000Y-81272742D01*
X57148073Y-81297512D01*
X57118376Y-81446812D01*
X57050456Y-81610784D01*
X56951853Y-81758354D01*
X56826354Y-81883853D01*
X56678784Y-81982456D01*
X56514812Y-82050376D01*
X56365512Y-82080073D01*
X56340742Y-82085000D01*
X56163258Y-82085000D01*
X56138488Y-82080073D01*
X55989188Y-82050376D01*
X55825216Y-81982456D01*
X55677646Y-81883853D01*
X55552147Y-81758354D01*
X55453544Y-81610784D01*
X55385624Y-81446812D01*
X55355927Y-81297512D01*
X55351000Y-81272742D01*
X55351000Y-81095258D01*
X55371510Y-80992147D01*
X55385624Y-80921188D01*
X55453544Y-80757216D01*
X55552147Y-80609646D01*
X55677646Y-80484147D01*
X55825216Y-80385544D01*
X55989188Y-80317624D01*
X56138488Y-80287927D01*
X56163258Y-80283000D01*
X56340742Y-80283000D01*
X56365512Y-80287927D01*
X56365512Y-80287927D01*
G37*
G36*
X53825512Y-80287927D02*
G01*
X53974812Y-80317624D01*
X54138784Y-80385544D01*
X54286354Y-80484147D01*
X54411853Y-80609646D01*
X54510456Y-80757216D01*
X54578376Y-80921188D01*
X54592490Y-80992147D01*
X54613000Y-81095258D01*
X54613000Y-81272742D01*
X54608073Y-81297512D01*
X54578376Y-81446812D01*
X54510456Y-81610784D01*
X54411853Y-81758354D01*
X54286354Y-81883853D01*
X54138784Y-81982456D01*
X53974812Y-82050376D01*
X53825512Y-82080073D01*
X53800742Y-82085000D01*
X53623258Y-82085000D01*
X53598488Y-82080073D01*
X53449188Y-82050376D01*
X53285216Y-81982456D01*
X53137646Y-81883853D01*
X53012147Y-81758354D01*
X52913544Y-81610784D01*
X52845624Y-81446812D01*
X52815927Y-81297512D01*
X52811000Y-81272742D01*
X52811000Y-81095258D01*
X52831510Y-80992147D01*
X52845624Y-80921188D01*
X52913544Y-80757216D01*
X53012147Y-80609646D01*
X53137646Y-80484147D01*
X53285216Y-80385544D01*
X53449188Y-80317624D01*
X53598488Y-80287927D01*
X53623258Y-80283000D01*
X53800742Y-80283000D01*
X53825512Y-80287927D01*
X53825512Y-80287927D01*
G37*
G36*
X77447512Y-80287927D02*
G01*
X77596812Y-80317624D01*
X77760784Y-80385544D01*
X77908354Y-80484147D01*
X78033853Y-80609646D01*
X78132456Y-80757216D01*
X78200376Y-80921188D01*
X78214490Y-80992147D01*
X78235000Y-81095258D01*
X78235000Y-81272742D01*
X78230073Y-81297512D01*
X78200376Y-81446812D01*
X78132456Y-81610784D01*
X78033853Y-81758354D01*
X77908354Y-81883853D01*
X77760784Y-81982456D01*
X77596812Y-82050376D01*
X77447512Y-82080073D01*
X77422742Y-82085000D01*
X77245258Y-82085000D01*
X77220488Y-82080073D01*
X77071188Y-82050376D01*
X76907216Y-81982456D01*
X76759646Y-81883853D01*
X76634147Y-81758354D01*
X76535544Y-81610784D01*
X76467624Y-81446812D01*
X76437927Y-81297512D01*
X76433000Y-81272742D01*
X76433000Y-81095258D01*
X76453510Y-80992147D01*
X76467624Y-80921188D01*
X76535544Y-80757216D01*
X76634147Y-80609646D01*
X76759646Y-80484147D01*
X76907216Y-80385544D01*
X77071188Y-80317624D01*
X77220488Y-80287927D01*
X77245258Y-80283000D01*
X77422742Y-80283000D01*
X77447512Y-80287927D01*
X77447512Y-80287927D01*
G37*
G36*
X152195285Y-78268234D02*
G01*
X152291981Y-78287468D01*
X152474151Y-78362926D01*
X152638100Y-78472473D01*
X152777527Y-78611900D01*
X152887074Y-78775849D01*
X152962532Y-78958019D01*
X153001000Y-79151410D01*
X153001000Y-79348590D01*
X152962532Y-79541981D01*
X152887074Y-79724151D01*
X152777527Y-79888100D01*
X152638100Y-80027527D01*
X152474151Y-80137074D01*
X152291981Y-80212532D01*
X152195285Y-80231766D01*
X152098591Y-80251000D01*
X151901409Y-80251000D01*
X151804715Y-80231766D01*
X151708019Y-80212532D01*
X151525849Y-80137074D01*
X151361900Y-80027527D01*
X151222473Y-79888100D01*
X151112926Y-79724151D01*
X151037468Y-79541981D01*
X150999000Y-79348590D01*
X150999000Y-79151410D01*
X151037468Y-78958019D01*
X151112926Y-78775849D01*
X151222473Y-78611900D01*
X151361900Y-78472473D01*
X151525849Y-78362926D01*
X151708019Y-78287468D01*
X151804715Y-78268234D01*
X151901409Y-78249000D01*
X152098591Y-78249000D01*
X152195285Y-78268234D01*
X152195285Y-78268234D01*
G37*
G36*
X56365512Y-77747927D02*
G01*
X56514812Y-77777624D01*
X56678784Y-77845544D01*
X56826354Y-77944147D01*
X56951853Y-78069646D01*
X57050456Y-78217216D01*
X57118376Y-78381188D01*
X57153000Y-78555259D01*
X57153000Y-78732741D01*
X57118376Y-78906812D01*
X57050456Y-79070784D01*
X56951853Y-79218354D01*
X56826354Y-79343853D01*
X56678784Y-79442456D01*
X56514812Y-79510376D01*
X56365512Y-79540073D01*
X56340742Y-79545000D01*
X56163258Y-79545000D01*
X56138488Y-79540073D01*
X55989188Y-79510376D01*
X55825216Y-79442456D01*
X55677646Y-79343853D01*
X55552147Y-79218354D01*
X55453544Y-79070784D01*
X55385624Y-78906812D01*
X55351000Y-78732741D01*
X55351000Y-78555259D01*
X55385624Y-78381188D01*
X55453544Y-78217216D01*
X55552147Y-78069646D01*
X55677646Y-77944147D01*
X55825216Y-77845544D01*
X55989188Y-77777624D01*
X56138488Y-77747927D01*
X56163258Y-77743000D01*
X56340742Y-77743000D01*
X56365512Y-77747927D01*
X56365512Y-77747927D01*
G37*
G36*
X53825512Y-77747927D02*
G01*
X53974812Y-77777624D01*
X54138784Y-77845544D01*
X54286354Y-77944147D01*
X54411853Y-78069646D01*
X54510456Y-78217216D01*
X54578376Y-78381188D01*
X54613000Y-78555259D01*
X54613000Y-78732741D01*
X54578376Y-78906812D01*
X54510456Y-79070784D01*
X54411853Y-79218354D01*
X54286354Y-79343853D01*
X54138784Y-79442456D01*
X53974812Y-79510376D01*
X53825512Y-79540073D01*
X53800742Y-79545000D01*
X53623258Y-79545000D01*
X53598488Y-79540073D01*
X53449188Y-79510376D01*
X53285216Y-79442456D01*
X53137646Y-79343853D01*
X53012147Y-79218354D01*
X52913544Y-79070784D01*
X52845624Y-78906812D01*
X52811000Y-78732741D01*
X52811000Y-78555259D01*
X52845624Y-78381188D01*
X52913544Y-78217216D01*
X53012147Y-78069646D01*
X53137646Y-77944147D01*
X53285216Y-77845544D01*
X53449188Y-77777624D01*
X53598488Y-77747927D01*
X53623258Y-77743000D01*
X53800742Y-77743000D01*
X53825512Y-77747927D01*
X53825512Y-77747927D01*
G37*
G36*
X79987512Y-77747927D02*
G01*
X80136812Y-77777624D01*
X80300784Y-77845544D01*
X80448354Y-77944147D01*
X80573853Y-78069646D01*
X80672456Y-78217216D01*
X80740376Y-78381188D01*
X80775000Y-78555259D01*
X80775000Y-78732741D01*
X80740376Y-78906812D01*
X80672456Y-79070784D01*
X80573853Y-79218354D01*
X80448354Y-79343853D01*
X80300784Y-79442456D01*
X80136812Y-79510376D01*
X79987512Y-79540073D01*
X79962742Y-79545000D01*
X79785258Y-79545000D01*
X79760488Y-79540073D01*
X79611188Y-79510376D01*
X79447216Y-79442456D01*
X79299646Y-79343853D01*
X79174147Y-79218354D01*
X79075544Y-79070784D01*
X79007624Y-78906812D01*
X78973000Y-78732741D01*
X78973000Y-78555259D01*
X79007624Y-78381188D01*
X79075544Y-78217216D01*
X79174147Y-78069646D01*
X79299646Y-77944147D01*
X79447216Y-77845544D01*
X79611188Y-77777624D01*
X79760488Y-77747927D01*
X79785258Y-77743000D01*
X79962742Y-77743000D01*
X79987512Y-77747927D01*
X79987512Y-77747927D01*
G37*
G36*
X77447512Y-77747927D02*
G01*
X77596812Y-77777624D01*
X77760784Y-77845544D01*
X77908354Y-77944147D01*
X78033853Y-78069646D01*
X78132456Y-78217216D01*
X78200376Y-78381188D01*
X78235000Y-78555259D01*
X78235000Y-78732741D01*
X78200376Y-78906812D01*
X78132456Y-79070784D01*
X78033853Y-79218354D01*
X77908354Y-79343853D01*
X77760784Y-79442456D01*
X77596812Y-79510376D01*
X77447512Y-79540073D01*
X77422742Y-79545000D01*
X77245258Y-79545000D01*
X77220488Y-79540073D01*
X77071188Y-79510376D01*
X76907216Y-79442456D01*
X76759646Y-79343853D01*
X76634147Y-79218354D01*
X76535544Y-79070784D01*
X76467624Y-78906812D01*
X76433000Y-78732741D01*
X76433000Y-78555259D01*
X76467624Y-78381188D01*
X76535544Y-78217216D01*
X76634147Y-78069646D01*
X76759646Y-77944147D01*
X76907216Y-77845544D01*
X77071188Y-77777624D01*
X77220488Y-77747927D01*
X77245258Y-77743000D01*
X77422742Y-77743000D01*
X77447512Y-77747927D01*
X77447512Y-77747927D01*
G37*
G36*
X53825512Y-75207927D02*
G01*
X53974812Y-75237624D01*
X54138784Y-75305544D01*
X54286354Y-75404147D01*
X54411853Y-75529646D01*
X54510456Y-75677216D01*
X54578376Y-75841188D01*
X54613000Y-76015259D01*
X54613000Y-76192741D01*
X54578376Y-76366812D01*
X54510456Y-76530784D01*
X54411853Y-76678354D01*
X54286354Y-76803853D01*
X54138784Y-76902456D01*
X53974812Y-76970376D01*
X53825512Y-77000073D01*
X53800742Y-77005000D01*
X53623258Y-77005000D01*
X53598488Y-77000073D01*
X53449188Y-76970376D01*
X53285216Y-76902456D01*
X53137646Y-76803853D01*
X53012147Y-76678354D01*
X52913544Y-76530784D01*
X52845624Y-76366812D01*
X52811000Y-76192741D01*
X52811000Y-76015259D01*
X52845624Y-75841188D01*
X52913544Y-75677216D01*
X53012147Y-75529646D01*
X53137646Y-75404147D01*
X53285216Y-75305544D01*
X53449188Y-75237624D01*
X53598488Y-75207927D01*
X53623258Y-75203000D01*
X53800742Y-75203000D01*
X53825512Y-75207927D01*
X53825512Y-75207927D01*
G37*
G36*
X77447512Y-75207927D02*
G01*
X77596812Y-75237624D01*
X77760784Y-75305544D01*
X77908354Y-75404147D01*
X78033853Y-75529646D01*
X78132456Y-75677216D01*
X78200376Y-75841188D01*
X78235000Y-76015259D01*
X78235000Y-76192741D01*
X78200376Y-76366812D01*
X78132456Y-76530784D01*
X78033853Y-76678354D01*
X77908354Y-76803853D01*
X77760784Y-76902456D01*
X77596812Y-76970376D01*
X77447512Y-77000073D01*
X77422742Y-77005000D01*
X77245258Y-77005000D01*
X77220488Y-77000073D01*
X77071188Y-76970376D01*
X76907216Y-76902456D01*
X76759646Y-76803853D01*
X76634147Y-76678354D01*
X76535544Y-76530784D01*
X76467624Y-76366812D01*
X76433000Y-76192741D01*
X76433000Y-76015259D01*
X76467624Y-75841188D01*
X76535544Y-75677216D01*
X76634147Y-75529646D01*
X76759646Y-75404147D01*
X76907216Y-75305544D01*
X77071188Y-75237624D01*
X77220488Y-75207927D01*
X77245258Y-75203000D01*
X77422742Y-75203000D01*
X77447512Y-75207927D01*
X77447512Y-75207927D01*
G37*
G36*
X56365512Y-75207927D02*
G01*
X56514812Y-75237624D01*
X56678784Y-75305544D01*
X56826354Y-75404147D01*
X56951853Y-75529646D01*
X57050456Y-75677216D01*
X57118376Y-75841188D01*
X57153000Y-76015259D01*
X57153000Y-76192741D01*
X57118376Y-76366812D01*
X57050456Y-76530784D01*
X56951853Y-76678354D01*
X56826354Y-76803853D01*
X56678784Y-76902456D01*
X56514812Y-76970376D01*
X56365512Y-77000073D01*
X56340742Y-77005000D01*
X56163258Y-77005000D01*
X56138488Y-77000073D01*
X55989188Y-76970376D01*
X55825216Y-76902456D01*
X55677646Y-76803853D01*
X55552147Y-76678354D01*
X55453544Y-76530784D01*
X55385624Y-76366812D01*
X55351000Y-76192741D01*
X55351000Y-76015259D01*
X55385624Y-75841188D01*
X55453544Y-75677216D01*
X55552147Y-75529646D01*
X55677646Y-75404147D01*
X55825216Y-75305544D01*
X55989188Y-75237624D01*
X56138488Y-75207927D01*
X56163258Y-75203000D01*
X56340742Y-75203000D01*
X56365512Y-75207927D01*
X56365512Y-75207927D01*
G37*
G36*
X79987512Y-75207927D02*
G01*
X80136812Y-75237624D01*
X80300784Y-75305544D01*
X80448354Y-75404147D01*
X80573853Y-75529646D01*
X80672456Y-75677216D01*
X80740376Y-75841188D01*
X80775000Y-76015259D01*
X80775000Y-76192741D01*
X80740376Y-76366812D01*
X80672456Y-76530784D01*
X80573853Y-76678354D01*
X80448354Y-76803853D01*
X80300784Y-76902456D01*
X80136812Y-76970376D01*
X79987512Y-77000073D01*
X79962742Y-77005000D01*
X79785258Y-77005000D01*
X79760488Y-77000073D01*
X79611188Y-76970376D01*
X79447216Y-76902456D01*
X79299646Y-76803853D01*
X79174147Y-76678354D01*
X79075544Y-76530784D01*
X79007624Y-76366812D01*
X78973000Y-76192741D01*
X78973000Y-76015259D01*
X79007624Y-75841188D01*
X79075544Y-75677216D01*
X79174147Y-75529646D01*
X79299646Y-75404147D01*
X79447216Y-75305544D01*
X79611188Y-75237624D01*
X79760488Y-75207927D01*
X79785258Y-75203000D01*
X79962742Y-75203000D01*
X79987512Y-75207927D01*
X79987512Y-75207927D01*
G37*
G36*
X44339104Y-75040985D02*
G01*
X44507626Y-75110789D01*
X44659291Y-75212128D01*
X44788272Y-75341109D01*
X44889611Y-75492774D01*
X44959415Y-75661296D01*
X44995000Y-75840197D01*
X44995000Y-76022603D01*
X44959415Y-76201504D01*
X44889611Y-76370026D01*
X44788272Y-76521691D01*
X44659291Y-76650672D01*
X44507626Y-76752011D01*
X44339104Y-76821815D01*
X44160203Y-76857400D01*
X43977797Y-76857400D01*
X43798896Y-76821815D01*
X43630374Y-76752011D01*
X43478709Y-76650672D01*
X43349728Y-76521691D01*
X43248389Y-76370026D01*
X43178585Y-76201504D01*
X43143000Y-76022603D01*
X43143000Y-75840197D01*
X43178585Y-75661296D01*
X43248389Y-75492774D01*
X43349728Y-75341109D01*
X43478709Y-75212128D01*
X43630374Y-75110789D01*
X43798896Y-75040985D01*
X43977797Y-75005400D01*
X44160203Y-75005400D01*
X44339104Y-75040985D01*
X44339104Y-75040985D01*
G37*
G36*
X79987512Y-72667927D02*
G01*
X80136812Y-72697624D01*
X80300784Y-72765544D01*
X80448354Y-72864147D01*
X80573853Y-72989646D01*
X80672456Y-73137216D01*
X80740376Y-73301188D01*
X80775000Y-73475259D01*
X80775000Y-73652741D01*
X80740376Y-73826812D01*
X80672456Y-73990784D01*
X80573853Y-74138354D01*
X80448354Y-74263853D01*
X80300784Y-74362456D01*
X80136812Y-74430376D01*
X79987512Y-74460073D01*
X79962742Y-74465000D01*
X79785258Y-74465000D01*
X79760488Y-74460073D01*
X79611188Y-74430376D01*
X79447216Y-74362456D01*
X79299646Y-74263853D01*
X79174147Y-74138354D01*
X79075544Y-73990784D01*
X79007624Y-73826812D01*
X78973000Y-73652741D01*
X78973000Y-73475259D01*
X79007624Y-73301188D01*
X79075544Y-73137216D01*
X79174147Y-72989646D01*
X79299646Y-72864147D01*
X79447216Y-72765544D01*
X79611188Y-72697624D01*
X79760488Y-72667927D01*
X79785258Y-72663000D01*
X79962742Y-72663000D01*
X79987512Y-72667927D01*
X79987512Y-72667927D01*
G37*
G36*
X53825512Y-72667927D02*
G01*
X53974812Y-72697624D01*
X54138784Y-72765544D01*
X54286354Y-72864147D01*
X54411853Y-72989646D01*
X54510456Y-73137216D01*
X54578376Y-73301188D01*
X54613000Y-73475259D01*
X54613000Y-73652741D01*
X54578376Y-73826812D01*
X54510456Y-73990784D01*
X54411853Y-74138354D01*
X54286354Y-74263853D01*
X54138784Y-74362456D01*
X53974812Y-74430376D01*
X53825512Y-74460073D01*
X53800742Y-74465000D01*
X53623258Y-74465000D01*
X53598488Y-74460073D01*
X53449188Y-74430376D01*
X53285216Y-74362456D01*
X53137646Y-74263853D01*
X53012147Y-74138354D01*
X52913544Y-73990784D01*
X52845624Y-73826812D01*
X52811000Y-73652741D01*
X52811000Y-73475259D01*
X52845624Y-73301188D01*
X52913544Y-73137216D01*
X53012147Y-72989646D01*
X53137646Y-72864147D01*
X53285216Y-72765544D01*
X53449188Y-72697624D01*
X53598488Y-72667927D01*
X53623258Y-72663000D01*
X53800742Y-72663000D01*
X53825512Y-72667927D01*
X53825512Y-72667927D01*
G37*
G36*
X77447512Y-72667927D02*
G01*
X77596812Y-72697624D01*
X77760784Y-72765544D01*
X77908354Y-72864147D01*
X78033853Y-72989646D01*
X78132456Y-73137216D01*
X78200376Y-73301188D01*
X78235000Y-73475259D01*
X78235000Y-73652741D01*
X78200376Y-73826812D01*
X78132456Y-73990784D01*
X78033853Y-74138354D01*
X77908354Y-74263853D01*
X77760784Y-74362456D01*
X77596812Y-74430376D01*
X77447512Y-74460073D01*
X77422742Y-74465000D01*
X77245258Y-74465000D01*
X77220488Y-74460073D01*
X77071188Y-74430376D01*
X76907216Y-74362456D01*
X76759646Y-74263853D01*
X76634147Y-74138354D01*
X76535544Y-73990784D01*
X76467624Y-73826812D01*
X76433000Y-73652741D01*
X76433000Y-73475259D01*
X76467624Y-73301188D01*
X76535544Y-73137216D01*
X76634147Y-72989646D01*
X76759646Y-72864147D01*
X76907216Y-72765544D01*
X77071188Y-72697624D01*
X77220488Y-72667927D01*
X77245258Y-72663000D01*
X77422742Y-72663000D01*
X77447512Y-72667927D01*
X77447512Y-72667927D01*
G37*
G36*
X56365512Y-72667927D02*
G01*
X56514812Y-72697624D01*
X56678784Y-72765544D01*
X56826354Y-72864147D01*
X56951853Y-72989646D01*
X57050456Y-73137216D01*
X57118376Y-73301188D01*
X57153000Y-73475259D01*
X57153000Y-73652741D01*
X57118376Y-73826812D01*
X57050456Y-73990784D01*
X56951853Y-74138354D01*
X56826354Y-74263853D01*
X56678784Y-74362456D01*
X56514812Y-74430376D01*
X56365512Y-74460073D01*
X56340742Y-74465000D01*
X56163258Y-74465000D01*
X56138488Y-74460073D01*
X55989188Y-74430376D01*
X55825216Y-74362456D01*
X55677646Y-74263853D01*
X55552147Y-74138354D01*
X55453544Y-73990784D01*
X55385624Y-73826812D01*
X55351000Y-73652741D01*
X55351000Y-73475259D01*
X55385624Y-73301188D01*
X55453544Y-73137216D01*
X55552147Y-72989646D01*
X55677646Y-72864147D01*
X55825216Y-72765544D01*
X55989188Y-72697624D01*
X56138488Y-72667927D01*
X56163258Y-72663000D01*
X56340742Y-72663000D01*
X56365512Y-72667927D01*
X56365512Y-72667927D01*
G37*
G36*
X44995000Y-74357400D02*
G01*
X43143000Y-74357400D01*
X43143000Y-72505400D01*
X44995000Y-72505400D01*
X44995000Y-74357400D01*
X44995000Y-74357400D01*
G37*
G36*
X79987512Y-70127927D02*
G01*
X80136812Y-70157624D01*
X80300784Y-70225544D01*
X80448354Y-70324147D01*
X80573853Y-70449646D01*
X80672456Y-70597216D01*
X80740376Y-70761188D01*
X80775000Y-70935259D01*
X80775000Y-71112741D01*
X80740376Y-71286812D01*
X80672456Y-71450784D01*
X80573853Y-71598354D01*
X80448354Y-71723853D01*
X80300784Y-71822456D01*
X80136812Y-71890376D01*
X79987512Y-71920073D01*
X79962742Y-71925000D01*
X79785258Y-71925000D01*
X79760488Y-71920073D01*
X79611188Y-71890376D01*
X79447216Y-71822456D01*
X79299646Y-71723853D01*
X79174147Y-71598354D01*
X79075544Y-71450784D01*
X79007624Y-71286812D01*
X78973000Y-71112741D01*
X78973000Y-70935259D01*
X79007624Y-70761188D01*
X79075544Y-70597216D01*
X79174147Y-70449646D01*
X79299646Y-70324147D01*
X79447216Y-70225544D01*
X79611188Y-70157624D01*
X79760488Y-70127927D01*
X79785258Y-70123000D01*
X79962742Y-70123000D01*
X79987512Y-70127927D01*
X79987512Y-70127927D01*
G37*
G36*
X56365512Y-70127927D02*
G01*
X56514812Y-70157624D01*
X56678784Y-70225544D01*
X56826354Y-70324147D01*
X56951853Y-70449646D01*
X57050456Y-70597216D01*
X57118376Y-70761188D01*
X57153000Y-70935259D01*
X57153000Y-71112741D01*
X57118376Y-71286812D01*
X57050456Y-71450784D01*
X56951853Y-71598354D01*
X56826354Y-71723853D01*
X56678784Y-71822456D01*
X56514812Y-71890376D01*
X56365512Y-71920073D01*
X56340742Y-71925000D01*
X56163258Y-71925000D01*
X56138488Y-71920073D01*
X55989188Y-71890376D01*
X55825216Y-71822456D01*
X55677646Y-71723853D01*
X55552147Y-71598354D01*
X55453544Y-71450784D01*
X55385624Y-71286812D01*
X55351000Y-71112741D01*
X55351000Y-70935259D01*
X55385624Y-70761188D01*
X55453544Y-70597216D01*
X55552147Y-70449646D01*
X55677646Y-70324147D01*
X55825216Y-70225544D01*
X55989188Y-70157624D01*
X56138488Y-70127927D01*
X56163258Y-70123000D01*
X56340742Y-70123000D01*
X56365512Y-70127927D01*
X56365512Y-70127927D01*
G37*
G36*
X53825512Y-70127927D02*
G01*
X53974812Y-70157624D01*
X54138784Y-70225544D01*
X54286354Y-70324147D01*
X54411853Y-70449646D01*
X54510456Y-70597216D01*
X54578376Y-70761188D01*
X54613000Y-70935259D01*
X54613000Y-71112741D01*
X54578376Y-71286812D01*
X54510456Y-71450784D01*
X54411853Y-71598354D01*
X54286354Y-71723853D01*
X54138784Y-71822456D01*
X53974812Y-71890376D01*
X53825512Y-71920073D01*
X53800742Y-71925000D01*
X53623258Y-71925000D01*
X53598488Y-71920073D01*
X53449188Y-71890376D01*
X53285216Y-71822456D01*
X53137646Y-71723853D01*
X53012147Y-71598354D01*
X52913544Y-71450784D01*
X52845624Y-71286812D01*
X52811000Y-71112741D01*
X52811000Y-70935259D01*
X52845624Y-70761188D01*
X52913544Y-70597216D01*
X53012147Y-70449646D01*
X53137646Y-70324147D01*
X53285216Y-70225544D01*
X53449188Y-70157624D01*
X53598488Y-70127927D01*
X53623258Y-70123000D01*
X53800742Y-70123000D01*
X53825512Y-70127927D01*
X53825512Y-70127927D01*
G37*
G36*
X77447512Y-70127927D02*
G01*
X77596812Y-70157624D01*
X77760784Y-70225544D01*
X77908354Y-70324147D01*
X78033853Y-70449646D01*
X78132456Y-70597216D01*
X78200376Y-70761188D01*
X78235000Y-70935259D01*
X78235000Y-71112741D01*
X78200376Y-71286812D01*
X78132456Y-71450784D01*
X78033853Y-71598354D01*
X77908354Y-71723853D01*
X77760784Y-71822456D01*
X77596812Y-71890376D01*
X77447512Y-71920073D01*
X77422742Y-71925000D01*
X77245258Y-71925000D01*
X77220488Y-71920073D01*
X77071188Y-71890376D01*
X76907216Y-71822456D01*
X76759646Y-71723853D01*
X76634147Y-71598354D01*
X76535544Y-71450784D01*
X76467624Y-71286812D01*
X76433000Y-71112741D01*
X76433000Y-70935259D01*
X76467624Y-70761188D01*
X76535544Y-70597216D01*
X76634147Y-70449646D01*
X76759646Y-70324147D01*
X76907216Y-70225544D01*
X77071188Y-70157624D01*
X77220488Y-70127927D01*
X77245258Y-70123000D01*
X77422742Y-70123000D01*
X77447512Y-70127927D01*
X77447512Y-70127927D01*
G37*
G36*
X77447512Y-67587927D02*
G01*
X77596812Y-67617624D01*
X77760784Y-67685544D01*
X77908354Y-67784147D01*
X78033853Y-67909646D01*
X78132456Y-68057216D01*
X78200376Y-68221188D01*
X78235000Y-68395259D01*
X78235000Y-68572741D01*
X78200376Y-68746812D01*
X78132456Y-68910784D01*
X78033853Y-69058354D01*
X77908354Y-69183853D01*
X77760784Y-69282456D01*
X77596812Y-69350376D01*
X77447512Y-69380073D01*
X77422742Y-69385000D01*
X77245258Y-69385000D01*
X77220488Y-69380073D01*
X77071188Y-69350376D01*
X76907216Y-69282456D01*
X76759646Y-69183853D01*
X76634147Y-69058354D01*
X76535544Y-68910784D01*
X76467624Y-68746812D01*
X76433000Y-68572741D01*
X76433000Y-68395259D01*
X76467624Y-68221188D01*
X76535544Y-68057216D01*
X76634147Y-67909646D01*
X76759646Y-67784147D01*
X76907216Y-67685544D01*
X77071188Y-67617624D01*
X77220488Y-67587927D01*
X77245258Y-67583000D01*
X77422742Y-67583000D01*
X77447512Y-67587927D01*
X77447512Y-67587927D01*
G37*
G36*
X53825512Y-67587927D02*
G01*
X53974812Y-67617624D01*
X54138784Y-67685544D01*
X54286354Y-67784147D01*
X54411853Y-67909646D01*
X54510456Y-68057216D01*
X54578376Y-68221188D01*
X54613000Y-68395259D01*
X54613000Y-68572741D01*
X54578376Y-68746812D01*
X54510456Y-68910784D01*
X54411853Y-69058354D01*
X54286354Y-69183853D01*
X54138784Y-69282456D01*
X53974812Y-69350376D01*
X53825512Y-69380073D01*
X53800742Y-69385000D01*
X53623258Y-69385000D01*
X53598488Y-69380073D01*
X53449188Y-69350376D01*
X53285216Y-69282456D01*
X53137646Y-69183853D01*
X53012147Y-69058354D01*
X52913544Y-68910784D01*
X52845624Y-68746812D01*
X52811000Y-68572741D01*
X52811000Y-68395259D01*
X52845624Y-68221188D01*
X52913544Y-68057216D01*
X53012147Y-67909646D01*
X53137646Y-67784147D01*
X53285216Y-67685544D01*
X53449188Y-67617624D01*
X53598488Y-67587927D01*
X53623258Y-67583000D01*
X53800742Y-67583000D01*
X53825512Y-67587927D01*
X53825512Y-67587927D01*
G37*
G36*
X56365512Y-67587927D02*
G01*
X56514812Y-67617624D01*
X56678784Y-67685544D01*
X56826354Y-67784147D01*
X56951853Y-67909646D01*
X57050456Y-68057216D01*
X57118376Y-68221188D01*
X57153000Y-68395259D01*
X57153000Y-68572741D01*
X57118376Y-68746812D01*
X57050456Y-68910784D01*
X56951853Y-69058354D01*
X56826354Y-69183853D01*
X56678784Y-69282456D01*
X56514812Y-69350376D01*
X56365512Y-69380073D01*
X56340742Y-69385000D01*
X56163258Y-69385000D01*
X56138488Y-69380073D01*
X55989188Y-69350376D01*
X55825216Y-69282456D01*
X55677646Y-69183853D01*
X55552147Y-69058354D01*
X55453544Y-68910784D01*
X55385624Y-68746812D01*
X55351000Y-68572741D01*
X55351000Y-68395259D01*
X55385624Y-68221188D01*
X55453544Y-68057216D01*
X55552147Y-67909646D01*
X55677646Y-67784147D01*
X55825216Y-67685544D01*
X55989188Y-67617624D01*
X56138488Y-67587927D01*
X56163258Y-67583000D01*
X56340742Y-67583000D01*
X56365512Y-67587927D01*
X56365512Y-67587927D01*
G37*
G36*
X79987512Y-67587927D02*
G01*
X80136812Y-67617624D01*
X80300784Y-67685544D01*
X80448354Y-67784147D01*
X80573853Y-67909646D01*
X80672456Y-68057216D01*
X80740376Y-68221188D01*
X80775000Y-68395259D01*
X80775000Y-68572741D01*
X80740376Y-68746812D01*
X80672456Y-68910784D01*
X80573853Y-69058354D01*
X80448354Y-69183853D01*
X80300784Y-69282456D01*
X80136812Y-69350376D01*
X79987512Y-69380073D01*
X79962742Y-69385000D01*
X79785258Y-69385000D01*
X79760488Y-69380073D01*
X79611188Y-69350376D01*
X79447216Y-69282456D01*
X79299646Y-69183853D01*
X79174147Y-69058354D01*
X79075544Y-68910784D01*
X79007624Y-68746812D01*
X78973000Y-68572741D01*
X78973000Y-68395259D01*
X79007624Y-68221188D01*
X79075544Y-68057216D01*
X79174147Y-67909646D01*
X79299646Y-67784147D01*
X79447216Y-67685544D01*
X79611188Y-67617624D01*
X79760488Y-67587927D01*
X79785258Y-67583000D01*
X79962742Y-67583000D01*
X79987512Y-67587927D01*
X79987512Y-67587927D01*
G37*
G36*
X53825512Y-65047927D02*
G01*
X53974812Y-65077624D01*
X54138784Y-65145544D01*
X54286354Y-65244147D01*
X54411853Y-65369646D01*
X54510456Y-65517216D01*
X54578376Y-65681188D01*
X54613000Y-65855259D01*
X54613000Y-66032741D01*
X54578376Y-66206812D01*
X54510456Y-66370784D01*
X54411853Y-66518354D01*
X54286354Y-66643853D01*
X54138784Y-66742456D01*
X53974812Y-66810376D01*
X53825512Y-66840073D01*
X53800742Y-66845000D01*
X53623258Y-66845000D01*
X53598488Y-66840073D01*
X53449188Y-66810376D01*
X53285216Y-66742456D01*
X53137646Y-66643853D01*
X53012147Y-66518354D01*
X52913544Y-66370784D01*
X52845624Y-66206812D01*
X52811000Y-66032741D01*
X52811000Y-65855259D01*
X52845624Y-65681188D01*
X52913544Y-65517216D01*
X53012147Y-65369646D01*
X53137646Y-65244147D01*
X53285216Y-65145544D01*
X53449188Y-65077624D01*
X53598488Y-65047927D01*
X53623258Y-65043000D01*
X53800742Y-65043000D01*
X53825512Y-65047927D01*
X53825512Y-65047927D01*
G37*
G36*
X56365512Y-65047927D02*
G01*
X56514812Y-65077624D01*
X56678784Y-65145544D01*
X56826354Y-65244147D01*
X56951853Y-65369646D01*
X57050456Y-65517216D01*
X57118376Y-65681188D01*
X57153000Y-65855259D01*
X57153000Y-66032741D01*
X57118376Y-66206812D01*
X57050456Y-66370784D01*
X56951853Y-66518354D01*
X56826354Y-66643853D01*
X56678784Y-66742456D01*
X56514812Y-66810376D01*
X56365512Y-66840073D01*
X56340742Y-66845000D01*
X56163258Y-66845000D01*
X56138488Y-66840073D01*
X55989188Y-66810376D01*
X55825216Y-66742456D01*
X55677646Y-66643853D01*
X55552147Y-66518354D01*
X55453544Y-66370784D01*
X55385624Y-66206812D01*
X55351000Y-66032741D01*
X55351000Y-65855259D01*
X55385624Y-65681188D01*
X55453544Y-65517216D01*
X55552147Y-65369646D01*
X55677646Y-65244147D01*
X55825216Y-65145544D01*
X55989188Y-65077624D01*
X56138488Y-65047927D01*
X56163258Y-65043000D01*
X56340742Y-65043000D01*
X56365512Y-65047927D01*
X56365512Y-65047927D01*
G37*
G36*
X77447512Y-65047927D02*
G01*
X77596812Y-65077624D01*
X77760784Y-65145544D01*
X77908354Y-65244147D01*
X78033853Y-65369646D01*
X78132456Y-65517216D01*
X78200376Y-65681188D01*
X78235000Y-65855259D01*
X78235000Y-66032741D01*
X78200376Y-66206812D01*
X78132456Y-66370784D01*
X78033853Y-66518354D01*
X77908354Y-66643853D01*
X77760784Y-66742456D01*
X77596812Y-66810376D01*
X77447512Y-66840073D01*
X77422742Y-66845000D01*
X77245258Y-66845000D01*
X77220488Y-66840073D01*
X77071188Y-66810376D01*
X76907216Y-66742456D01*
X76759646Y-66643853D01*
X76634147Y-66518354D01*
X76535544Y-66370784D01*
X76467624Y-66206812D01*
X76433000Y-66032741D01*
X76433000Y-65855259D01*
X76467624Y-65681188D01*
X76535544Y-65517216D01*
X76634147Y-65369646D01*
X76759646Y-65244147D01*
X76907216Y-65145544D01*
X77071188Y-65077624D01*
X77220488Y-65047927D01*
X77245258Y-65043000D01*
X77422742Y-65043000D01*
X77447512Y-65047927D01*
X77447512Y-65047927D01*
G37*
G36*
X79987512Y-65047927D02*
G01*
X80136812Y-65077624D01*
X80300784Y-65145544D01*
X80448354Y-65244147D01*
X80573853Y-65369646D01*
X80672456Y-65517216D01*
X80740376Y-65681188D01*
X80775000Y-65855259D01*
X80775000Y-66032741D01*
X80740376Y-66206812D01*
X80672456Y-66370784D01*
X80573853Y-66518354D01*
X80448354Y-66643853D01*
X80300784Y-66742456D01*
X80136812Y-66810376D01*
X79987512Y-66840073D01*
X79962742Y-66845000D01*
X79785258Y-66845000D01*
X79760488Y-66840073D01*
X79611188Y-66810376D01*
X79447216Y-66742456D01*
X79299646Y-66643853D01*
X79174147Y-66518354D01*
X79075544Y-66370784D01*
X79007624Y-66206812D01*
X78973000Y-66032741D01*
X78973000Y-65855259D01*
X79007624Y-65681188D01*
X79075544Y-65517216D01*
X79174147Y-65369646D01*
X79299646Y-65244147D01*
X79447216Y-65145544D01*
X79611188Y-65077624D01*
X79760488Y-65047927D01*
X79785258Y-65043000D01*
X79962742Y-65043000D01*
X79987512Y-65047927D01*
X79987512Y-65047927D01*
G37*
G36*
X56365512Y-62507927D02*
G01*
X56514812Y-62537624D01*
X56678784Y-62605544D01*
X56826354Y-62704147D01*
X56951853Y-62829646D01*
X57050456Y-62977216D01*
X57118376Y-63141188D01*
X57153000Y-63315259D01*
X57153000Y-63492741D01*
X57118376Y-63666812D01*
X57050456Y-63830784D01*
X56951853Y-63978354D01*
X56826354Y-64103853D01*
X56678784Y-64202456D01*
X56514812Y-64270376D01*
X56365512Y-64300073D01*
X56340742Y-64305000D01*
X56163258Y-64305000D01*
X56138488Y-64300073D01*
X55989188Y-64270376D01*
X55825216Y-64202456D01*
X55677646Y-64103853D01*
X55552147Y-63978354D01*
X55453544Y-63830784D01*
X55385624Y-63666812D01*
X55351000Y-63492741D01*
X55351000Y-63315259D01*
X55385624Y-63141188D01*
X55453544Y-62977216D01*
X55552147Y-62829646D01*
X55677646Y-62704147D01*
X55825216Y-62605544D01*
X55989188Y-62537624D01*
X56138488Y-62507927D01*
X56163258Y-62503000D01*
X56340742Y-62503000D01*
X56365512Y-62507927D01*
X56365512Y-62507927D01*
G37*
G36*
X53825512Y-62507927D02*
G01*
X53974812Y-62537624D01*
X54138784Y-62605544D01*
X54286354Y-62704147D01*
X54411853Y-62829646D01*
X54510456Y-62977216D01*
X54578376Y-63141188D01*
X54613000Y-63315259D01*
X54613000Y-63492741D01*
X54578376Y-63666812D01*
X54510456Y-63830784D01*
X54411853Y-63978354D01*
X54286354Y-64103853D01*
X54138784Y-64202456D01*
X53974812Y-64270376D01*
X53825512Y-64300073D01*
X53800742Y-64305000D01*
X53623258Y-64305000D01*
X53598488Y-64300073D01*
X53449188Y-64270376D01*
X53285216Y-64202456D01*
X53137646Y-64103853D01*
X53012147Y-63978354D01*
X52913544Y-63830784D01*
X52845624Y-63666812D01*
X52811000Y-63492741D01*
X52811000Y-63315259D01*
X52845624Y-63141188D01*
X52913544Y-62977216D01*
X53012147Y-62829646D01*
X53137646Y-62704147D01*
X53285216Y-62605544D01*
X53449188Y-62537624D01*
X53598488Y-62507927D01*
X53623258Y-62503000D01*
X53800742Y-62503000D01*
X53825512Y-62507927D01*
X53825512Y-62507927D01*
G37*
G36*
X77447512Y-62507927D02*
G01*
X77596812Y-62537624D01*
X77760784Y-62605544D01*
X77908354Y-62704147D01*
X78033853Y-62829646D01*
X78132456Y-62977216D01*
X78200376Y-63141188D01*
X78235000Y-63315259D01*
X78235000Y-63492741D01*
X78200376Y-63666812D01*
X78132456Y-63830784D01*
X78033853Y-63978354D01*
X77908354Y-64103853D01*
X77760784Y-64202456D01*
X77596812Y-64270376D01*
X77447512Y-64300073D01*
X77422742Y-64305000D01*
X77245258Y-64305000D01*
X77220488Y-64300073D01*
X77071188Y-64270376D01*
X76907216Y-64202456D01*
X76759646Y-64103853D01*
X76634147Y-63978354D01*
X76535544Y-63830784D01*
X76467624Y-63666812D01*
X76433000Y-63492741D01*
X76433000Y-63315259D01*
X76467624Y-63141188D01*
X76535544Y-62977216D01*
X76634147Y-62829646D01*
X76759646Y-62704147D01*
X76907216Y-62605544D01*
X77071188Y-62537624D01*
X77220488Y-62507927D01*
X77245258Y-62503000D01*
X77422742Y-62503000D01*
X77447512Y-62507927D01*
X77447512Y-62507927D01*
G37*
G36*
X79987512Y-62507927D02*
G01*
X80136812Y-62537624D01*
X80300784Y-62605544D01*
X80448354Y-62704147D01*
X80573853Y-62829646D01*
X80672456Y-62977216D01*
X80740376Y-63141188D01*
X80775000Y-63315259D01*
X80775000Y-63492741D01*
X80740376Y-63666812D01*
X80672456Y-63830784D01*
X80573853Y-63978354D01*
X80448354Y-64103853D01*
X80300784Y-64202456D01*
X80136812Y-64270376D01*
X79987512Y-64300073D01*
X79962742Y-64305000D01*
X79785258Y-64305000D01*
X79760488Y-64300073D01*
X79611188Y-64270376D01*
X79447216Y-64202456D01*
X79299646Y-64103853D01*
X79174147Y-63978354D01*
X79075544Y-63830784D01*
X79007624Y-63666812D01*
X78973000Y-63492741D01*
X78973000Y-63315259D01*
X79007624Y-63141188D01*
X79075544Y-62977216D01*
X79174147Y-62829646D01*
X79299646Y-62704147D01*
X79447216Y-62605544D01*
X79611188Y-62537624D01*
X79760488Y-62507927D01*
X79785258Y-62503000D01*
X79962742Y-62503000D01*
X79987512Y-62507927D01*
X79987512Y-62507927D01*
G37*
G36*
X44339104Y-61191585D02*
G01*
X44507626Y-61261389D01*
X44659291Y-61362728D01*
X44788272Y-61491709D01*
X44889611Y-61643374D01*
X44959415Y-61811896D01*
X44995000Y-61990797D01*
X44995000Y-62173203D01*
X44959415Y-62352104D01*
X44889611Y-62520626D01*
X44788272Y-62672291D01*
X44659291Y-62801272D01*
X44507626Y-62902611D01*
X44339104Y-62972415D01*
X44160203Y-63008000D01*
X43977797Y-63008000D01*
X43798896Y-62972415D01*
X43630374Y-62902611D01*
X43478709Y-62801272D01*
X43349728Y-62672291D01*
X43248389Y-62520626D01*
X43178585Y-62352104D01*
X43143000Y-62173203D01*
X43143000Y-61990797D01*
X43178585Y-61811896D01*
X43248389Y-61643374D01*
X43349728Y-61491709D01*
X43478709Y-61362728D01*
X43630374Y-61261389D01*
X43798896Y-61191585D01*
X43977797Y-61156000D01*
X44160203Y-61156000D01*
X44339104Y-61191585D01*
X44339104Y-61191585D01*
G37*
G36*
X79987512Y-59967927D02*
G01*
X80136812Y-59997624D01*
X80300784Y-60065544D01*
X80448354Y-60164147D01*
X80573853Y-60289646D01*
X80672456Y-60437216D01*
X80740376Y-60601188D01*
X80775000Y-60775259D01*
X80775000Y-60952741D01*
X80740376Y-61126812D01*
X80672456Y-61290784D01*
X80573853Y-61438354D01*
X80448354Y-61563853D01*
X80300784Y-61662456D01*
X80136812Y-61730376D01*
X79987512Y-61760073D01*
X79962742Y-61765000D01*
X79785258Y-61765000D01*
X79760488Y-61760073D01*
X79611188Y-61730376D01*
X79447216Y-61662456D01*
X79299646Y-61563853D01*
X79174147Y-61438354D01*
X79075544Y-61290784D01*
X79007624Y-61126812D01*
X78973000Y-60952741D01*
X78973000Y-60775259D01*
X79007624Y-60601188D01*
X79075544Y-60437216D01*
X79174147Y-60289646D01*
X79299646Y-60164147D01*
X79447216Y-60065544D01*
X79611188Y-59997624D01*
X79760488Y-59967927D01*
X79785258Y-59963000D01*
X79962742Y-59963000D01*
X79987512Y-59967927D01*
X79987512Y-59967927D01*
G37*
G36*
X56365512Y-59967927D02*
G01*
X56514812Y-59997624D01*
X56678784Y-60065544D01*
X56826354Y-60164147D01*
X56951853Y-60289646D01*
X57050456Y-60437216D01*
X57118376Y-60601188D01*
X57153000Y-60775259D01*
X57153000Y-60952741D01*
X57118376Y-61126812D01*
X57050456Y-61290784D01*
X56951853Y-61438354D01*
X56826354Y-61563853D01*
X56678784Y-61662456D01*
X56514812Y-61730376D01*
X56365512Y-61760073D01*
X56340742Y-61765000D01*
X56163258Y-61765000D01*
X56138488Y-61760073D01*
X55989188Y-61730376D01*
X55825216Y-61662456D01*
X55677646Y-61563853D01*
X55552147Y-61438354D01*
X55453544Y-61290784D01*
X55385624Y-61126812D01*
X55351000Y-60952741D01*
X55351000Y-60775259D01*
X55385624Y-60601188D01*
X55453544Y-60437216D01*
X55552147Y-60289646D01*
X55677646Y-60164147D01*
X55825216Y-60065544D01*
X55989188Y-59997624D01*
X56138488Y-59967927D01*
X56163258Y-59963000D01*
X56340742Y-59963000D01*
X56365512Y-59967927D01*
X56365512Y-59967927D01*
G37*
G36*
X53825512Y-59967927D02*
G01*
X53974812Y-59997624D01*
X54138784Y-60065544D01*
X54286354Y-60164147D01*
X54411853Y-60289646D01*
X54510456Y-60437216D01*
X54578376Y-60601188D01*
X54613000Y-60775259D01*
X54613000Y-60952741D01*
X54578376Y-61126812D01*
X54510456Y-61290784D01*
X54411853Y-61438354D01*
X54286354Y-61563853D01*
X54138784Y-61662456D01*
X53974812Y-61730376D01*
X53825512Y-61760073D01*
X53800742Y-61765000D01*
X53623258Y-61765000D01*
X53598488Y-61760073D01*
X53449188Y-61730376D01*
X53285216Y-61662456D01*
X53137646Y-61563853D01*
X53012147Y-61438354D01*
X52913544Y-61290784D01*
X52845624Y-61126812D01*
X52811000Y-60952741D01*
X52811000Y-60775259D01*
X52845624Y-60601188D01*
X52913544Y-60437216D01*
X53012147Y-60289646D01*
X53137646Y-60164147D01*
X53285216Y-60065544D01*
X53449188Y-59997624D01*
X53598488Y-59967927D01*
X53623258Y-59963000D01*
X53800742Y-59963000D01*
X53825512Y-59967927D01*
X53825512Y-59967927D01*
G37*
G36*
X77447512Y-59967927D02*
G01*
X77596812Y-59997624D01*
X77760784Y-60065544D01*
X77908354Y-60164147D01*
X78033853Y-60289646D01*
X78132456Y-60437216D01*
X78200376Y-60601188D01*
X78235000Y-60775259D01*
X78235000Y-60952741D01*
X78200376Y-61126812D01*
X78132456Y-61290784D01*
X78033853Y-61438354D01*
X77908354Y-61563853D01*
X77760784Y-61662456D01*
X77596812Y-61730376D01*
X77447512Y-61760073D01*
X77422742Y-61765000D01*
X77245258Y-61765000D01*
X77220488Y-61760073D01*
X77071188Y-61730376D01*
X76907216Y-61662456D01*
X76759646Y-61563853D01*
X76634147Y-61438354D01*
X76535544Y-61290784D01*
X76467624Y-61126812D01*
X76433000Y-60952741D01*
X76433000Y-60775259D01*
X76467624Y-60601188D01*
X76535544Y-60437216D01*
X76634147Y-60289646D01*
X76759646Y-60164147D01*
X76907216Y-60065544D01*
X77071188Y-59997624D01*
X77220488Y-59967927D01*
X77245258Y-59963000D01*
X77422742Y-59963000D01*
X77447512Y-59967927D01*
X77447512Y-59967927D01*
G37*
G36*
X44995000Y-60508000D02*
G01*
X43143000Y-60508000D01*
X43143000Y-58656000D01*
X44995000Y-58656000D01*
X44995000Y-60508000D01*
X44995000Y-60508000D01*
G37*
G36*
X56365512Y-57427927D02*
G01*
X56514812Y-57457624D01*
X56678784Y-57525544D01*
X56826354Y-57624147D01*
X56951853Y-57749646D01*
X57050456Y-57897216D01*
X57118376Y-58061188D01*
X57153000Y-58235259D01*
X57153000Y-58412741D01*
X57118376Y-58586812D01*
X57050456Y-58750784D01*
X56951853Y-58898354D01*
X56826354Y-59023853D01*
X56678784Y-59122456D01*
X56514812Y-59190376D01*
X56365512Y-59220073D01*
X56340742Y-59225000D01*
X56163258Y-59225000D01*
X56138488Y-59220073D01*
X55989188Y-59190376D01*
X55825216Y-59122456D01*
X55677646Y-59023853D01*
X55552147Y-58898354D01*
X55453544Y-58750784D01*
X55385624Y-58586812D01*
X55351000Y-58412741D01*
X55351000Y-58235259D01*
X55385624Y-58061188D01*
X55453544Y-57897216D01*
X55552147Y-57749646D01*
X55677646Y-57624147D01*
X55825216Y-57525544D01*
X55989188Y-57457624D01*
X56138488Y-57427927D01*
X56163258Y-57423000D01*
X56340742Y-57423000D01*
X56365512Y-57427927D01*
X56365512Y-57427927D01*
G37*
G36*
X53825512Y-57427927D02*
G01*
X53974812Y-57457624D01*
X54138784Y-57525544D01*
X54286354Y-57624147D01*
X54411853Y-57749646D01*
X54510456Y-57897216D01*
X54578376Y-58061188D01*
X54613000Y-58235259D01*
X54613000Y-58412741D01*
X54578376Y-58586812D01*
X54510456Y-58750784D01*
X54411853Y-58898354D01*
X54286354Y-59023853D01*
X54138784Y-59122456D01*
X53974812Y-59190376D01*
X53825512Y-59220073D01*
X53800742Y-59225000D01*
X53623258Y-59225000D01*
X53598488Y-59220073D01*
X53449188Y-59190376D01*
X53285216Y-59122456D01*
X53137646Y-59023853D01*
X53012147Y-58898354D01*
X52913544Y-58750784D01*
X52845624Y-58586812D01*
X52811000Y-58412741D01*
X52811000Y-58235259D01*
X52845624Y-58061188D01*
X52913544Y-57897216D01*
X53012147Y-57749646D01*
X53137646Y-57624147D01*
X53285216Y-57525544D01*
X53449188Y-57457624D01*
X53598488Y-57427927D01*
X53623258Y-57423000D01*
X53800742Y-57423000D01*
X53825512Y-57427927D01*
X53825512Y-57427927D01*
G37*
G36*
X77447512Y-57427927D02*
G01*
X77596812Y-57457624D01*
X77760784Y-57525544D01*
X77908354Y-57624147D01*
X78033853Y-57749646D01*
X78132456Y-57897216D01*
X78200376Y-58061188D01*
X78235000Y-58235259D01*
X78235000Y-58412741D01*
X78200376Y-58586812D01*
X78132456Y-58750784D01*
X78033853Y-58898354D01*
X77908354Y-59023853D01*
X77760784Y-59122456D01*
X77596812Y-59190376D01*
X77447512Y-59220073D01*
X77422742Y-59225000D01*
X77245258Y-59225000D01*
X77220488Y-59220073D01*
X77071188Y-59190376D01*
X76907216Y-59122456D01*
X76759646Y-59023853D01*
X76634147Y-58898354D01*
X76535544Y-58750784D01*
X76467624Y-58586812D01*
X76433000Y-58412741D01*
X76433000Y-58235259D01*
X76467624Y-58061188D01*
X76535544Y-57897216D01*
X76634147Y-57749646D01*
X76759646Y-57624147D01*
X76907216Y-57525544D01*
X77071188Y-57457624D01*
X77220488Y-57427927D01*
X77245258Y-57423000D01*
X77422742Y-57423000D01*
X77447512Y-57427927D01*
X77447512Y-57427927D01*
G37*
G36*
X79987512Y-57427927D02*
G01*
X80136812Y-57457624D01*
X80300784Y-57525544D01*
X80448354Y-57624147D01*
X80573853Y-57749646D01*
X80672456Y-57897216D01*
X80740376Y-58061188D01*
X80775000Y-58235259D01*
X80775000Y-58412741D01*
X80740376Y-58586812D01*
X80672456Y-58750784D01*
X80573853Y-58898354D01*
X80448354Y-59023853D01*
X80300784Y-59122456D01*
X80136812Y-59190376D01*
X79987512Y-59220073D01*
X79962742Y-59225000D01*
X79785258Y-59225000D01*
X79760488Y-59220073D01*
X79611188Y-59190376D01*
X79447216Y-59122456D01*
X79299646Y-59023853D01*
X79174147Y-58898354D01*
X79075544Y-58750784D01*
X79007624Y-58586812D01*
X78973000Y-58412741D01*
X78973000Y-58235259D01*
X79007624Y-58061188D01*
X79075544Y-57897216D01*
X79174147Y-57749646D01*
X79299646Y-57624147D01*
X79447216Y-57525544D01*
X79611188Y-57457624D01*
X79760488Y-57427927D01*
X79785258Y-57423000D01*
X79962742Y-57423000D01*
X79987512Y-57427927D01*
X79987512Y-57427927D01*
G37*
G36*
X79987512Y-54887927D02*
G01*
X80136812Y-54917624D01*
X80300784Y-54985544D01*
X80448354Y-55084147D01*
X80573853Y-55209646D01*
X80672456Y-55357216D01*
X80740376Y-55521188D01*
X80775000Y-55695259D01*
X80775000Y-55872741D01*
X80740376Y-56046812D01*
X80672456Y-56210784D01*
X80573853Y-56358354D01*
X80448354Y-56483853D01*
X80300784Y-56582456D01*
X80136812Y-56650376D01*
X79987512Y-56680073D01*
X79962742Y-56685000D01*
X79785258Y-56685000D01*
X79760488Y-56680073D01*
X79611188Y-56650376D01*
X79447216Y-56582456D01*
X79299646Y-56483853D01*
X79174147Y-56358354D01*
X79075544Y-56210784D01*
X79007624Y-56046812D01*
X78973000Y-55872741D01*
X78973000Y-55695259D01*
X79007624Y-55521188D01*
X79075544Y-55357216D01*
X79174147Y-55209646D01*
X79299646Y-55084147D01*
X79447216Y-54985544D01*
X79611188Y-54917624D01*
X79760488Y-54887927D01*
X79785258Y-54883000D01*
X79962742Y-54883000D01*
X79987512Y-54887927D01*
X79987512Y-54887927D01*
G37*
G36*
X53825512Y-54887927D02*
G01*
X53974812Y-54917624D01*
X54138784Y-54985544D01*
X54286354Y-55084147D01*
X54411853Y-55209646D01*
X54510456Y-55357216D01*
X54578376Y-55521188D01*
X54613000Y-55695259D01*
X54613000Y-55872741D01*
X54578376Y-56046812D01*
X54510456Y-56210784D01*
X54411853Y-56358354D01*
X54286354Y-56483853D01*
X54138784Y-56582456D01*
X53974812Y-56650376D01*
X53825512Y-56680073D01*
X53800742Y-56685000D01*
X53623258Y-56685000D01*
X53598488Y-56680073D01*
X53449188Y-56650376D01*
X53285216Y-56582456D01*
X53137646Y-56483853D01*
X53012147Y-56358354D01*
X52913544Y-56210784D01*
X52845624Y-56046812D01*
X52811000Y-55872741D01*
X52811000Y-55695259D01*
X52845624Y-55521188D01*
X52913544Y-55357216D01*
X53012147Y-55209646D01*
X53137646Y-55084147D01*
X53285216Y-54985544D01*
X53449188Y-54917624D01*
X53598488Y-54887927D01*
X53623258Y-54883000D01*
X53800742Y-54883000D01*
X53825512Y-54887927D01*
X53825512Y-54887927D01*
G37*
G36*
X56365512Y-54887927D02*
G01*
X56514812Y-54917624D01*
X56678784Y-54985544D01*
X56826354Y-55084147D01*
X56951853Y-55209646D01*
X57050456Y-55357216D01*
X57118376Y-55521188D01*
X57153000Y-55695259D01*
X57153000Y-55872741D01*
X57118376Y-56046812D01*
X57050456Y-56210784D01*
X56951853Y-56358354D01*
X56826354Y-56483853D01*
X56678784Y-56582456D01*
X56514812Y-56650376D01*
X56365512Y-56680073D01*
X56340742Y-56685000D01*
X56163258Y-56685000D01*
X56138488Y-56680073D01*
X55989188Y-56650376D01*
X55825216Y-56582456D01*
X55677646Y-56483853D01*
X55552147Y-56358354D01*
X55453544Y-56210784D01*
X55385624Y-56046812D01*
X55351000Y-55872741D01*
X55351000Y-55695259D01*
X55385624Y-55521188D01*
X55453544Y-55357216D01*
X55552147Y-55209646D01*
X55677646Y-55084147D01*
X55825216Y-54985544D01*
X55989188Y-54917624D01*
X56138488Y-54887927D01*
X56163258Y-54883000D01*
X56340742Y-54883000D01*
X56365512Y-54887927D01*
X56365512Y-54887927D01*
G37*
G36*
X77447512Y-54887927D02*
G01*
X77596812Y-54917624D01*
X77760784Y-54985544D01*
X77908354Y-55084147D01*
X78033853Y-55209646D01*
X78132456Y-55357216D01*
X78200376Y-55521188D01*
X78235000Y-55695259D01*
X78235000Y-55872741D01*
X78200376Y-56046812D01*
X78132456Y-56210784D01*
X78033853Y-56358354D01*
X77908354Y-56483853D01*
X77760784Y-56582456D01*
X77596812Y-56650376D01*
X77447512Y-56680073D01*
X77422742Y-56685000D01*
X77245258Y-56685000D01*
X77220488Y-56680073D01*
X77071188Y-56650376D01*
X76907216Y-56582456D01*
X76759646Y-56483853D01*
X76634147Y-56358354D01*
X76535544Y-56210784D01*
X76467624Y-56046812D01*
X76433000Y-55872741D01*
X76433000Y-55695259D01*
X76467624Y-55521188D01*
X76535544Y-55357216D01*
X76634147Y-55209646D01*
X76759646Y-55084147D01*
X76907216Y-54985544D01*
X77071188Y-54917624D01*
X77220488Y-54887927D01*
X77245258Y-54883000D01*
X77422742Y-54883000D01*
X77447512Y-54887927D01*
X77447512Y-54887927D01*
G37*
G36*
X77447512Y-52347927D02*
G01*
X77596812Y-52377624D01*
X77760784Y-52445544D01*
X77908354Y-52544147D01*
X78033853Y-52669646D01*
X78132456Y-52817216D01*
X78200376Y-52981188D01*
X78235000Y-53155259D01*
X78235000Y-53332741D01*
X78200376Y-53506812D01*
X78132456Y-53670784D01*
X78033853Y-53818354D01*
X77908354Y-53943853D01*
X77760784Y-54042456D01*
X77596812Y-54110376D01*
X77447512Y-54140073D01*
X77422742Y-54145000D01*
X77245258Y-54145000D01*
X77220488Y-54140073D01*
X77071188Y-54110376D01*
X76907216Y-54042456D01*
X76759646Y-53943853D01*
X76634147Y-53818354D01*
X76535544Y-53670784D01*
X76467624Y-53506812D01*
X76433000Y-53332741D01*
X76433000Y-53155259D01*
X76467624Y-52981188D01*
X76535544Y-52817216D01*
X76634147Y-52669646D01*
X76759646Y-52544147D01*
X76907216Y-52445544D01*
X77071188Y-52377624D01*
X77220488Y-52347927D01*
X77245258Y-52343000D01*
X77422742Y-52343000D01*
X77447512Y-52347927D01*
X77447512Y-52347927D01*
G37*
G36*
X79987512Y-52347927D02*
G01*
X80136812Y-52377624D01*
X80300784Y-52445544D01*
X80448354Y-52544147D01*
X80573853Y-52669646D01*
X80672456Y-52817216D01*
X80740376Y-52981188D01*
X80775000Y-53155259D01*
X80775000Y-53332741D01*
X80740376Y-53506812D01*
X80672456Y-53670784D01*
X80573853Y-53818354D01*
X80448354Y-53943853D01*
X80300784Y-54042456D01*
X80136812Y-54110376D01*
X79987512Y-54140073D01*
X79962742Y-54145000D01*
X79785258Y-54145000D01*
X79760488Y-54140073D01*
X79611188Y-54110376D01*
X79447216Y-54042456D01*
X79299646Y-53943853D01*
X79174147Y-53818354D01*
X79075544Y-53670784D01*
X79007624Y-53506812D01*
X78973000Y-53332741D01*
X78973000Y-53155259D01*
X79007624Y-52981188D01*
X79075544Y-52817216D01*
X79174147Y-52669646D01*
X79299646Y-52544147D01*
X79447216Y-52445544D01*
X79611188Y-52377624D01*
X79760488Y-52347927D01*
X79785258Y-52343000D01*
X79962742Y-52343000D01*
X79987512Y-52347927D01*
X79987512Y-52347927D01*
G37*
G36*
X56365512Y-52347927D02*
G01*
X56514812Y-52377624D01*
X56678784Y-52445544D01*
X56826354Y-52544147D01*
X56951853Y-52669646D01*
X57050456Y-52817216D01*
X57118376Y-52981188D01*
X57153000Y-53155259D01*
X57153000Y-53332741D01*
X57118376Y-53506812D01*
X57050456Y-53670784D01*
X56951853Y-53818354D01*
X56826354Y-53943853D01*
X56678784Y-54042456D01*
X56514812Y-54110376D01*
X56365512Y-54140073D01*
X56340742Y-54145000D01*
X56163258Y-54145000D01*
X56138488Y-54140073D01*
X55989188Y-54110376D01*
X55825216Y-54042456D01*
X55677646Y-53943853D01*
X55552147Y-53818354D01*
X55453544Y-53670784D01*
X55385624Y-53506812D01*
X55351000Y-53332741D01*
X55351000Y-53155259D01*
X55385624Y-52981188D01*
X55453544Y-52817216D01*
X55552147Y-52669646D01*
X55677646Y-52544147D01*
X55825216Y-52445544D01*
X55989188Y-52377624D01*
X56138488Y-52347927D01*
X56163258Y-52343000D01*
X56340742Y-52343000D01*
X56365512Y-52347927D01*
X56365512Y-52347927D01*
G37*
G36*
X53825512Y-52347927D02*
G01*
X53974812Y-52377624D01*
X54138784Y-52445544D01*
X54286354Y-52544147D01*
X54411853Y-52669646D01*
X54510456Y-52817216D01*
X54578376Y-52981188D01*
X54613000Y-53155259D01*
X54613000Y-53332741D01*
X54578376Y-53506812D01*
X54510456Y-53670784D01*
X54411853Y-53818354D01*
X54286354Y-53943853D01*
X54138784Y-54042456D01*
X53974812Y-54110376D01*
X53825512Y-54140073D01*
X53800742Y-54145000D01*
X53623258Y-54145000D01*
X53598488Y-54140073D01*
X53449188Y-54110376D01*
X53285216Y-54042456D01*
X53137646Y-53943853D01*
X53012147Y-53818354D01*
X52913544Y-53670784D01*
X52845624Y-53506812D01*
X52811000Y-53332741D01*
X52811000Y-53155259D01*
X52845624Y-52981188D01*
X52913544Y-52817216D01*
X53012147Y-52669646D01*
X53137646Y-52544147D01*
X53285216Y-52445544D01*
X53449188Y-52377624D01*
X53598488Y-52347927D01*
X53623258Y-52343000D01*
X53800742Y-52343000D01*
X53825512Y-52347927D01*
X53825512Y-52347927D01*
G37*
G36*
X77447512Y-49807927D02*
G01*
X77596812Y-49837624D01*
X77760784Y-49905544D01*
X77908354Y-50004147D01*
X78033853Y-50129646D01*
X78132456Y-50277216D01*
X78200376Y-50441188D01*
X78235000Y-50615259D01*
X78235000Y-50792741D01*
X78200376Y-50966812D01*
X78132456Y-51130784D01*
X78033853Y-51278354D01*
X77908354Y-51403853D01*
X77760784Y-51502456D01*
X77596812Y-51570376D01*
X77447512Y-51600073D01*
X77422742Y-51605000D01*
X77245258Y-51605000D01*
X77220488Y-51600073D01*
X77071188Y-51570376D01*
X76907216Y-51502456D01*
X76759646Y-51403853D01*
X76634147Y-51278354D01*
X76535544Y-51130784D01*
X76467624Y-50966812D01*
X76433000Y-50792741D01*
X76433000Y-50615259D01*
X76467624Y-50441188D01*
X76535544Y-50277216D01*
X76634147Y-50129646D01*
X76759646Y-50004147D01*
X76907216Y-49905544D01*
X77071188Y-49837624D01*
X77220488Y-49807927D01*
X77245258Y-49803000D01*
X77422742Y-49803000D01*
X77447512Y-49807927D01*
X77447512Y-49807927D01*
G37*
G36*
X56365512Y-49807927D02*
G01*
X56514812Y-49837624D01*
X56678784Y-49905544D01*
X56826354Y-50004147D01*
X56951853Y-50129646D01*
X57050456Y-50277216D01*
X57118376Y-50441188D01*
X57153000Y-50615259D01*
X57153000Y-50792741D01*
X57118376Y-50966812D01*
X57050456Y-51130784D01*
X56951853Y-51278354D01*
X56826354Y-51403853D01*
X56678784Y-51502456D01*
X56514812Y-51570376D01*
X56365512Y-51600073D01*
X56340742Y-51605000D01*
X56163258Y-51605000D01*
X56138488Y-51600073D01*
X55989188Y-51570376D01*
X55825216Y-51502456D01*
X55677646Y-51403853D01*
X55552147Y-51278354D01*
X55453544Y-51130784D01*
X55385624Y-50966812D01*
X55351000Y-50792741D01*
X55351000Y-50615259D01*
X55385624Y-50441188D01*
X55453544Y-50277216D01*
X55552147Y-50129646D01*
X55677646Y-50004147D01*
X55825216Y-49905544D01*
X55989188Y-49837624D01*
X56138488Y-49807927D01*
X56163258Y-49803000D01*
X56340742Y-49803000D01*
X56365512Y-49807927D01*
X56365512Y-49807927D01*
G37*
G36*
X79987512Y-49807927D02*
G01*
X80136812Y-49837624D01*
X80300784Y-49905544D01*
X80448354Y-50004147D01*
X80573853Y-50129646D01*
X80672456Y-50277216D01*
X80740376Y-50441188D01*
X80775000Y-50615259D01*
X80775000Y-50792741D01*
X80740376Y-50966812D01*
X80672456Y-51130784D01*
X80573853Y-51278354D01*
X80448354Y-51403853D01*
X80300784Y-51502456D01*
X80136812Y-51570376D01*
X79987512Y-51600073D01*
X79962742Y-51605000D01*
X79785258Y-51605000D01*
X79760488Y-51600073D01*
X79611188Y-51570376D01*
X79447216Y-51502456D01*
X79299646Y-51403853D01*
X79174147Y-51278354D01*
X79075544Y-51130784D01*
X79007624Y-50966812D01*
X78973000Y-50792741D01*
X78973000Y-50615259D01*
X79007624Y-50441188D01*
X79075544Y-50277216D01*
X79174147Y-50129646D01*
X79299646Y-50004147D01*
X79447216Y-49905544D01*
X79611188Y-49837624D01*
X79760488Y-49807927D01*
X79785258Y-49803000D01*
X79962742Y-49803000D01*
X79987512Y-49807927D01*
X79987512Y-49807927D01*
G37*
G36*
X53825512Y-49807927D02*
G01*
X53974812Y-49837624D01*
X54138784Y-49905544D01*
X54286354Y-50004147D01*
X54411853Y-50129646D01*
X54510456Y-50277216D01*
X54578376Y-50441188D01*
X54613000Y-50615259D01*
X54613000Y-50792741D01*
X54578376Y-50966812D01*
X54510456Y-51130784D01*
X54411853Y-51278354D01*
X54286354Y-51403853D01*
X54138784Y-51502456D01*
X53974812Y-51570376D01*
X53825512Y-51600073D01*
X53800742Y-51605000D01*
X53623258Y-51605000D01*
X53598488Y-51600073D01*
X53449188Y-51570376D01*
X53285216Y-51502456D01*
X53137646Y-51403853D01*
X53012147Y-51278354D01*
X52913544Y-51130784D01*
X52845624Y-50966812D01*
X52811000Y-50792741D01*
X52811000Y-50615259D01*
X52845624Y-50441188D01*
X52913544Y-50277216D01*
X53012147Y-50129646D01*
X53137646Y-50004147D01*
X53285216Y-49905544D01*
X53449188Y-49837624D01*
X53598488Y-49807927D01*
X53623258Y-49803000D01*
X53800742Y-49803000D01*
X53825512Y-49807927D01*
X53825512Y-49807927D01*
G37*
G36*
X56365512Y-47267927D02*
G01*
X56514812Y-47297624D01*
X56678784Y-47365544D01*
X56826354Y-47464147D01*
X56951853Y-47589646D01*
X57050456Y-47737216D01*
X57118376Y-47901188D01*
X57153000Y-48075259D01*
X57153000Y-48252741D01*
X57118376Y-48426812D01*
X57050456Y-48590784D01*
X56951853Y-48738354D01*
X56826354Y-48863853D01*
X56678784Y-48962456D01*
X56514812Y-49030376D01*
X56365512Y-49060073D01*
X56340742Y-49065000D01*
X56163258Y-49065000D01*
X56138488Y-49060073D01*
X55989188Y-49030376D01*
X55825216Y-48962456D01*
X55677646Y-48863853D01*
X55552147Y-48738354D01*
X55453544Y-48590784D01*
X55385624Y-48426812D01*
X55351000Y-48252741D01*
X55351000Y-48075259D01*
X55385624Y-47901188D01*
X55453544Y-47737216D01*
X55552147Y-47589646D01*
X55677646Y-47464147D01*
X55825216Y-47365544D01*
X55989188Y-47297624D01*
X56138488Y-47267927D01*
X56163258Y-47263000D01*
X56340742Y-47263000D01*
X56365512Y-47267927D01*
X56365512Y-47267927D01*
G37*
G36*
X53825512Y-47267927D02*
G01*
X53974812Y-47297624D01*
X54138784Y-47365544D01*
X54286354Y-47464147D01*
X54411853Y-47589646D01*
X54510456Y-47737216D01*
X54578376Y-47901188D01*
X54613000Y-48075259D01*
X54613000Y-48252741D01*
X54578376Y-48426812D01*
X54510456Y-48590784D01*
X54411853Y-48738354D01*
X54286354Y-48863853D01*
X54138784Y-48962456D01*
X53974812Y-49030376D01*
X53825512Y-49060073D01*
X53800742Y-49065000D01*
X53623258Y-49065000D01*
X53598488Y-49060073D01*
X53449188Y-49030376D01*
X53285216Y-48962456D01*
X53137646Y-48863853D01*
X53012147Y-48738354D01*
X52913544Y-48590784D01*
X52845624Y-48426812D01*
X52811000Y-48252741D01*
X52811000Y-48075259D01*
X52845624Y-47901188D01*
X52913544Y-47737216D01*
X53012147Y-47589646D01*
X53137646Y-47464147D01*
X53285216Y-47365544D01*
X53449188Y-47297624D01*
X53598488Y-47267927D01*
X53623258Y-47263000D01*
X53800742Y-47263000D01*
X53825512Y-47267927D01*
X53825512Y-47267927D01*
G37*
G36*
X77447512Y-47267927D02*
G01*
X77596812Y-47297624D01*
X77760784Y-47365544D01*
X77908354Y-47464147D01*
X78033853Y-47589646D01*
X78132456Y-47737216D01*
X78200376Y-47901188D01*
X78235000Y-48075259D01*
X78235000Y-48252741D01*
X78200376Y-48426812D01*
X78132456Y-48590784D01*
X78033853Y-48738354D01*
X77908354Y-48863853D01*
X77760784Y-48962456D01*
X77596812Y-49030376D01*
X77447512Y-49060073D01*
X77422742Y-49065000D01*
X77245258Y-49065000D01*
X77220488Y-49060073D01*
X77071188Y-49030376D01*
X76907216Y-48962456D01*
X76759646Y-48863853D01*
X76634147Y-48738354D01*
X76535544Y-48590784D01*
X76467624Y-48426812D01*
X76433000Y-48252741D01*
X76433000Y-48075259D01*
X76467624Y-47901188D01*
X76535544Y-47737216D01*
X76634147Y-47589646D01*
X76759646Y-47464147D01*
X76907216Y-47365544D01*
X77071188Y-47297624D01*
X77220488Y-47267927D01*
X77245258Y-47263000D01*
X77422742Y-47263000D01*
X77447512Y-47267927D01*
X77447512Y-47267927D01*
G37*
G36*
X79987512Y-47267927D02*
G01*
X80136812Y-47297624D01*
X80300784Y-47365544D01*
X80448354Y-47464147D01*
X80573853Y-47589646D01*
X80672456Y-47737216D01*
X80740376Y-47901188D01*
X80775000Y-48075259D01*
X80775000Y-48252741D01*
X80740376Y-48426812D01*
X80672456Y-48590784D01*
X80573853Y-48738354D01*
X80448354Y-48863853D01*
X80300784Y-48962456D01*
X80136812Y-49030376D01*
X79987512Y-49060073D01*
X79962742Y-49065000D01*
X79785258Y-49065000D01*
X79760488Y-49060073D01*
X79611188Y-49030376D01*
X79447216Y-48962456D01*
X79299646Y-48863853D01*
X79174147Y-48738354D01*
X79075544Y-48590784D01*
X79007624Y-48426812D01*
X78973000Y-48252741D01*
X78973000Y-48075259D01*
X79007624Y-47901188D01*
X79075544Y-47737216D01*
X79174147Y-47589646D01*
X79299646Y-47464147D01*
X79447216Y-47365544D01*
X79611188Y-47297624D01*
X79760488Y-47267927D01*
X79785258Y-47263000D01*
X79962742Y-47263000D01*
X79987512Y-47267927D01*
X79987512Y-47267927D01*
G37*
G36*
X56365512Y-44727927D02*
G01*
X56514812Y-44757624D01*
X56678784Y-44825544D01*
X56826354Y-44924147D01*
X56951853Y-45049646D01*
X57050456Y-45197216D01*
X57118376Y-45361188D01*
X57153000Y-45535259D01*
X57153000Y-45712741D01*
X57118376Y-45886812D01*
X57050456Y-46050784D01*
X56951853Y-46198354D01*
X56826354Y-46323853D01*
X56678784Y-46422456D01*
X56514812Y-46490376D01*
X56365512Y-46520073D01*
X56340742Y-46525000D01*
X56163258Y-46525000D01*
X56138488Y-46520073D01*
X55989188Y-46490376D01*
X55825216Y-46422456D01*
X55677646Y-46323853D01*
X55552147Y-46198354D01*
X55453544Y-46050784D01*
X55385624Y-45886812D01*
X55351000Y-45712741D01*
X55351000Y-45535259D01*
X55385624Y-45361188D01*
X55453544Y-45197216D01*
X55552147Y-45049646D01*
X55677646Y-44924147D01*
X55825216Y-44825544D01*
X55989188Y-44757624D01*
X56138488Y-44727927D01*
X56163258Y-44723000D01*
X56340742Y-44723000D01*
X56365512Y-44727927D01*
X56365512Y-44727927D01*
G37*
G36*
X53825512Y-44727927D02*
G01*
X53974812Y-44757624D01*
X54138784Y-44825544D01*
X54286354Y-44924147D01*
X54411853Y-45049646D01*
X54510456Y-45197216D01*
X54578376Y-45361188D01*
X54613000Y-45535259D01*
X54613000Y-45712741D01*
X54578376Y-45886812D01*
X54510456Y-46050784D01*
X54411853Y-46198354D01*
X54286354Y-46323853D01*
X54138784Y-46422456D01*
X53974812Y-46490376D01*
X53825512Y-46520073D01*
X53800742Y-46525000D01*
X53623258Y-46525000D01*
X53598488Y-46520073D01*
X53449188Y-46490376D01*
X53285216Y-46422456D01*
X53137646Y-46323853D01*
X53012147Y-46198354D01*
X52913544Y-46050784D01*
X52845624Y-45886812D01*
X52811000Y-45712741D01*
X52811000Y-45535259D01*
X52845624Y-45361188D01*
X52913544Y-45197216D01*
X53012147Y-45049646D01*
X53137646Y-44924147D01*
X53285216Y-44825544D01*
X53449188Y-44757624D01*
X53598488Y-44727927D01*
X53623258Y-44723000D01*
X53800742Y-44723000D01*
X53825512Y-44727927D01*
X53825512Y-44727927D01*
G37*
G36*
X77447512Y-44727927D02*
G01*
X77596812Y-44757624D01*
X77760784Y-44825544D01*
X77908354Y-44924147D01*
X78033853Y-45049646D01*
X78132456Y-45197216D01*
X78200376Y-45361188D01*
X78235000Y-45535259D01*
X78235000Y-45712741D01*
X78200376Y-45886812D01*
X78132456Y-46050784D01*
X78033853Y-46198354D01*
X77908354Y-46323853D01*
X77760784Y-46422456D01*
X77596812Y-46490376D01*
X77447512Y-46520073D01*
X77422742Y-46525000D01*
X77245258Y-46525000D01*
X77220488Y-46520073D01*
X77071188Y-46490376D01*
X76907216Y-46422456D01*
X76759646Y-46323853D01*
X76634147Y-46198354D01*
X76535544Y-46050784D01*
X76467624Y-45886812D01*
X76433000Y-45712741D01*
X76433000Y-45535259D01*
X76467624Y-45361188D01*
X76535544Y-45197216D01*
X76634147Y-45049646D01*
X76759646Y-44924147D01*
X76907216Y-44825544D01*
X77071188Y-44757624D01*
X77220488Y-44727927D01*
X77245258Y-44723000D01*
X77422742Y-44723000D01*
X77447512Y-44727927D01*
X77447512Y-44727927D01*
G37*
G36*
X79987512Y-44727927D02*
G01*
X80136812Y-44757624D01*
X80300784Y-44825544D01*
X80448354Y-44924147D01*
X80573853Y-45049646D01*
X80672456Y-45197216D01*
X80740376Y-45361188D01*
X80775000Y-45535259D01*
X80775000Y-45712741D01*
X80740376Y-45886812D01*
X80672456Y-46050784D01*
X80573853Y-46198354D01*
X80448354Y-46323853D01*
X80300784Y-46422456D01*
X80136812Y-46490376D01*
X79987512Y-46520073D01*
X79962742Y-46525000D01*
X79785258Y-46525000D01*
X79760488Y-46520073D01*
X79611188Y-46490376D01*
X79447216Y-46422456D01*
X79299646Y-46323853D01*
X79174147Y-46198354D01*
X79075544Y-46050784D01*
X79007624Y-45886812D01*
X78973000Y-45712741D01*
X78973000Y-45535259D01*
X79007624Y-45361188D01*
X79075544Y-45197216D01*
X79174147Y-45049646D01*
X79299646Y-44924147D01*
X79447216Y-44825544D01*
X79611188Y-44757624D01*
X79760488Y-44727927D01*
X79785258Y-44723000D01*
X79962742Y-44723000D01*
X79987512Y-44727927D01*
X79987512Y-44727927D01*
G37*
G36*
X41851000Y-46475000D02*
G01*
X40149000Y-46475000D01*
X40149000Y-44773000D01*
X41851000Y-44773000D01*
X41851000Y-46475000D01*
X41851000Y-46475000D01*
G37*
G36*
X69952228Y-44805703D02*
G01*
X70107100Y-44869853D01*
X70246481Y-44962985D01*
X70365015Y-45081519D01*
X70458147Y-45220900D01*
X70522297Y-45375772D01*
X70555000Y-45540184D01*
X70555000Y-45707816D01*
X70522297Y-45872228D01*
X70458147Y-46027100D01*
X70365015Y-46166481D01*
X70246481Y-46285015D01*
X70107100Y-46378147D01*
X69952228Y-46442297D01*
X69787816Y-46475000D01*
X69620184Y-46475000D01*
X69455772Y-46442297D01*
X69300900Y-46378147D01*
X69161519Y-46285015D01*
X69042985Y-46166481D01*
X68949853Y-46027100D01*
X68885703Y-45872228D01*
X68853000Y-45707816D01*
X68853000Y-45540184D01*
X68885703Y-45375772D01*
X68949853Y-45220900D01*
X69042985Y-45081519D01*
X69161519Y-44962985D01*
X69300900Y-44869853D01*
X69455772Y-44805703D01*
X69620184Y-44773000D01*
X69787816Y-44773000D01*
X69952228Y-44805703D01*
X69952228Y-44805703D01*
G37*
G36*
X66755000Y-46475000D02*
G01*
X65053000Y-46475000D01*
X65053000Y-44773000D01*
X66755000Y-44773000D01*
X66755000Y-46475000D01*
X66755000Y-46475000D01*
G37*
G36*
X44748228Y-44805703D02*
G01*
X44903100Y-44869853D01*
X45042481Y-44962985D01*
X45161015Y-45081519D01*
X45254147Y-45220900D01*
X45318297Y-45375772D01*
X45351000Y-45540184D01*
X45351000Y-45707816D01*
X45318297Y-45872228D01*
X45254147Y-46027100D01*
X45161015Y-46166481D01*
X45042481Y-46285015D01*
X44903100Y-46378147D01*
X44748228Y-46442297D01*
X44583816Y-46475000D01*
X44416184Y-46475000D01*
X44251772Y-46442297D01*
X44096900Y-46378147D01*
X43957519Y-46285015D01*
X43838985Y-46166481D01*
X43745853Y-46027100D01*
X43681703Y-45872228D01*
X43649000Y-45707816D01*
X43649000Y-45540184D01*
X43681703Y-45375772D01*
X43745853Y-45220900D01*
X43838985Y-45081519D01*
X43957519Y-44962985D01*
X44096900Y-44869853D01*
X44251772Y-44805703D01*
X44416184Y-44773000D01*
X44583816Y-44773000D01*
X44748228Y-44805703D01*
X44748228Y-44805703D01*
G37*
G36*
X127739512Y-42695927D02*
G01*
X127888812Y-42725624D01*
X128052784Y-42793544D01*
X128200354Y-42892147D01*
X128325853Y-43017646D01*
X128424456Y-43165216D01*
X128492376Y-43329188D01*
X128527000Y-43503259D01*
X128527000Y-43680741D01*
X128492376Y-43854812D01*
X128424456Y-44018784D01*
X128325853Y-44166354D01*
X128200354Y-44291853D01*
X128052784Y-44390456D01*
X127888812Y-44458376D01*
X127739512Y-44488073D01*
X127714742Y-44493000D01*
X127537258Y-44493000D01*
X127512488Y-44488073D01*
X127363188Y-44458376D01*
X127199216Y-44390456D01*
X127051646Y-44291853D01*
X126926147Y-44166354D01*
X126827544Y-44018784D01*
X126759624Y-43854812D01*
X126725000Y-43680741D01*
X126725000Y-43503259D01*
X126759624Y-43329188D01*
X126827544Y-43165216D01*
X126926147Y-43017646D01*
X127051646Y-42892147D01*
X127199216Y-42793544D01*
X127363188Y-42725624D01*
X127512488Y-42695927D01*
X127537258Y-42691000D01*
X127714742Y-42691000D01*
X127739512Y-42695927D01*
X127739512Y-42695927D01*
G37*
G36*
X142979512Y-42695927D02*
G01*
X143128812Y-42725624D01*
X143292784Y-42793544D01*
X143440354Y-42892147D01*
X143565853Y-43017646D01*
X143664456Y-43165216D01*
X143732376Y-43329188D01*
X143767000Y-43503259D01*
X143767000Y-43680741D01*
X143732376Y-43854812D01*
X143664456Y-44018784D01*
X143565853Y-44166354D01*
X143440354Y-44291853D01*
X143292784Y-44390456D01*
X143128812Y-44458376D01*
X142979512Y-44488073D01*
X142954742Y-44493000D01*
X142777258Y-44493000D01*
X142752488Y-44488073D01*
X142603188Y-44458376D01*
X142439216Y-44390456D01*
X142291646Y-44291853D01*
X142166147Y-44166354D01*
X142067544Y-44018784D01*
X141999624Y-43854812D01*
X141965000Y-43680741D01*
X141965000Y-43503259D01*
X141999624Y-43329188D01*
X142067544Y-43165216D01*
X142166147Y-43017646D01*
X142291646Y-42892147D01*
X142439216Y-42793544D01*
X142603188Y-42725624D01*
X142752488Y-42695927D01*
X142777258Y-42691000D01*
X142954742Y-42691000D01*
X142979512Y-42695927D01*
X142979512Y-42695927D01*
G37*
G36*
X140439512Y-42695927D02*
G01*
X140588812Y-42725624D01*
X140752784Y-42793544D01*
X140900354Y-42892147D01*
X141025853Y-43017646D01*
X141124456Y-43165216D01*
X141192376Y-43329188D01*
X141227000Y-43503259D01*
X141227000Y-43680741D01*
X141192376Y-43854812D01*
X141124456Y-44018784D01*
X141025853Y-44166354D01*
X140900354Y-44291853D01*
X140752784Y-44390456D01*
X140588812Y-44458376D01*
X140439512Y-44488073D01*
X140414742Y-44493000D01*
X140237258Y-44493000D01*
X140212488Y-44488073D01*
X140063188Y-44458376D01*
X139899216Y-44390456D01*
X139751646Y-44291853D01*
X139626147Y-44166354D01*
X139527544Y-44018784D01*
X139459624Y-43854812D01*
X139425000Y-43680741D01*
X139425000Y-43503259D01*
X139459624Y-43329188D01*
X139527544Y-43165216D01*
X139626147Y-43017646D01*
X139751646Y-42892147D01*
X139899216Y-42793544D01*
X140063188Y-42725624D01*
X140212488Y-42695927D01*
X140237258Y-42691000D01*
X140414742Y-42691000D01*
X140439512Y-42695927D01*
X140439512Y-42695927D01*
G37*
G36*
X137899512Y-42695927D02*
G01*
X138048812Y-42725624D01*
X138212784Y-42793544D01*
X138360354Y-42892147D01*
X138485853Y-43017646D01*
X138584456Y-43165216D01*
X138652376Y-43329188D01*
X138687000Y-43503259D01*
X138687000Y-43680741D01*
X138652376Y-43854812D01*
X138584456Y-44018784D01*
X138485853Y-44166354D01*
X138360354Y-44291853D01*
X138212784Y-44390456D01*
X138048812Y-44458376D01*
X137899512Y-44488073D01*
X137874742Y-44493000D01*
X137697258Y-44493000D01*
X137672488Y-44488073D01*
X137523188Y-44458376D01*
X137359216Y-44390456D01*
X137211646Y-44291853D01*
X137086147Y-44166354D01*
X136987544Y-44018784D01*
X136919624Y-43854812D01*
X136885000Y-43680741D01*
X136885000Y-43503259D01*
X136919624Y-43329188D01*
X136987544Y-43165216D01*
X137086147Y-43017646D01*
X137211646Y-42892147D01*
X137359216Y-42793544D01*
X137523188Y-42725624D01*
X137672488Y-42695927D01*
X137697258Y-42691000D01*
X137874742Y-42691000D01*
X137899512Y-42695927D01*
X137899512Y-42695927D01*
G37*
G36*
X135359512Y-42695927D02*
G01*
X135508812Y-42725624D01*
X135672784Y-42793544D01*
X135820354Y-42892147D01*
X135945853Y-43017646D01*
X136044456Y-43165216D01*
X136112376Y-43329188D01*
X136147000Y-43503259D01*
X136147000Y-43680741D01*
X136112376Y-43854812D01*
X136044456Y-44018784D01*
X135945853Y-44166354D01*
X135820354Y-44291853D01*
X135672784Y-44390456D01*
X135508812Y-44458376D01*
X135359512Y-44488073D01*
X135334742Y-44493000D01*
X135157258Y-44493000D01*
X135132488Y-44488073D01*
X134983188Y-44458376D01*
X134819216Y-44390456D01*
X134671646Y-44291853D01*
X134546147Y-44166354D01*
X134447544Y-44018784D01*
X134379624Y-43854812D01*
X134345000Y-43680741D01*
X134345000Y-43503259D01*
X134379624Y-43329188D01*
X134447544Y-43165216D01*
X134546147Y-43017646D01*
X134671646Y-42892147D01*
X134819216Y-42793544D01*
X134983188Y-42725624D01*
X135132488Y-42695927D01*
X135157258Y-42691000D01*
X135334742Y-42691000D01*
X135359512Y-42695927D01*
X135359512Y-42695927D01*
G37*
G36*
X132819512Y-42695927D02*
G01*
X132968812Y-42725624D01*
X133132784Y-42793544D01*
X133280354Y-42892147D01*
X133405853Y-43017646D01*
X133504456Y-43165216D01*
X133572376Y-43329188D01*
X133607000Y-43503259D01*
X133607000Y-43680741D01*
X133572376Y-43854812D01*
X133504456Y-44018784D01*
X133405853Y-44166354D01*
X133280354Y-44291853D01*
X133132784Y-44390456D01*
X132968812Y-44458376D01*
X132819512Y-44488073D01*
X132794742Y-44493000D01*
X132617258Y-44493000D01*
X132592488Y-44488073D01*
X132443188Y-44458376D01*
X132279216Y-44390456D01*
X132131646Y-44291853D01*
X132006147Y-44166354D01*
X131907544Y-44018784D01*
X131839624Y-43854812D01*
X131805000Y-43680741D01*
X131805000Y-43503259D01*
X131839624Y-43329188D01*
X131907544Y-43165216D01*
X132006147Y-43017646D01*
X132131646Y-42892147D01*
X132279216Y-42793544D01*
X132443188Y-42725624D01*
X132592488Y-42695927D01*
X132617258Y-42691000D01*
X132794742Y-42691000D01*
X132819512Y-42695927D01*
X132819512Y-42695927D01*
G37*
G36*
X130279512Y-42695927D02*
G01*
X130428812Y-42725624D01*
X130592784Y-42793544D01*
X130740354Y-42892147D01*
X130865853Y-43017646D01*
X130964456Y-43165216D01*
X131032376Y-43329188D01*
X131067000Y-43503259D01*
X131067000Y-43680741D01*
X131032376Y-43854812D01*
X130964456Y-44018784D01*
X130865853Y-44166354D01*
X130740354Y-44291853D01*
X130592784Y-44390456D01*
X130428812Y-44458376D01*
X130279512Y-44488073D01*
X130254742Y-44493000D01*
X130077258Y-44493000D01*
X130052488Y-44488073D01*
X129903188Y-44458376D01*
X129739216Y-44390456D01*
X129591646Y-44291853D01*
X129466147Y-44166354D01*
X129367544Y-44018784D01*
X129299624Y-43854812D01*
X129265000Y-43680741D01*
X129265000Y-43503259D01*
X129299624Y-43329188D01*
X129367544Y-43165216D01*
X129466147Y-43017646D01*
X129591646Y-42892147D01*
X129739216Y-42793544D01*
X129903188Y-42725624D01*
X130052488Y-42695927D01*
X130077258Y-42691000D01*
X130254742Y-42691000D01*
X130279512Y-42695927D01*
X130279512Y-42695927D01*
G37*
G36*
X125199512Y-42695927D02*
G01*
X125348812Y-42725624D01*
X125512784Y-42793544D01*
X125660354Y-42892147D01*
X125785853Y-43017646D01*
X125884456Y-43165216D01*
X125952376Y-43329188D01*
X125987000Y-43503259D01*
X125987000Y-43680741D01*
X125952376Y-43854812D01*
X125884456Y-44018784D01*
X125785853Y-44166354D01*
X125660354Y-44291853D01*
X125512784Y-44390456D01*
X125348812Y-44458376D01*
X125199512Y-44488073D01*
X125174742Y-44493000D01*
X124997258Y-44493000D01*
X124972488Y-44488073D01*
X124823188Y-44458376D01*
X124659216Y-44390456D01*
X124511646Y-44291853D01*
X124386147Y-44166354D01*
X124287544Y-44018784D01*
X124219624Y-43854812D01*
X124185000Y-43680741D01*
X124185000Y-43503259D01*
X124219624Y-43329188D01*
X124287544Y-43165216D01*
X124386147Y-43017646D01*
X124511646Y-42892147D01*
X124659216Y-42793544D01*
X124823188Y-42725624D01*
X124972488Y-42695927D01*
X124997258Y-42691000D01*
X125174742Y-42691000D01*
X125199512Y-42695927D01*
X125199512Y-42695927D01*
G37*
G36*
X102339512Y-42695927D02*
G01*
X102488812Y-42725624D01*
X102652784Y-42793544D01*
X102800354Y-42892147D01*
X102925853Y-43017646D01*
X103024456Y-43165216D01*
X103092376Y-43329188D01*
X103127000Y-43503259D01*
X103127000Y-43680741D01*
X103092376Y-43854812D01*
X103024456Y-44018784D01*
X102925853Y-44166354D01*
X102800354Y-44291853D01*
X102652784Y-44390456D01*
X102488812Y-44458376D01*
X102339512Y-44488073D01*
X102314742Y-44493000D01*
X102137258Y-44493000D01*
X102112488Y-44488073D01*
X101963188Y-44458376D01*
X101799216Y-44390456D01*
X101651646Y-44291853D01*
X101526147Y-44166354D01*
X101427544Y-44018784D01*
X101359624Y-43854812D01*
X101325000Y-43680741D01*
X101325000Y-43503259D01*
X101359624Y-43329188D01*
X101427544Y-43165216D01*
X101526147Y-43017646D01*
X101651646Y-42892147D01*
X101799216Y-42793544D01*
X101963188Y-42725624D01*
X102112488Y-42695927D01*
X102137258Y-42691000D01*
X102314742Y-42691000D01*
X102339512Y-42695927D01*
X102339512Y-42695927D01*
G37*
G36*
X104879512Y-42695927D02*
G01*
X105028812Y-42725624D01*
X105192784Y-42793544D01*
X105340354Y-42892147D01*
X105465853Y-43017646D01*
X105564456Y-43165216D01*
X105632376Y-43329188D01*
X105667000Y-43503259D01*
X105667000Y-43680741D01*
X105632376Y-43854812D01*
X105564456Y-44018784D01*
X105465853Y-44166354D01*
X105340354Y-44291853D01*
X105192784Y-44390456D01*
X105028812Y-44458376D01*
X104879512Y-44488073D01*
X104854742Y-44493000D01*
X104677258Y-44493000D01*
X104652488Y-44488073D01*
X104503188Y-44458376D01*
X104339216Y-44390456D01*
X104191646Y-44291853D01*
X104066147Y-44166354D01*
X103967544Y-44018784D01*
X103899624Y-43854812D01*
X103865000Y-43680741D01*
X103865000Y-43503259D01*
X103899624Y-43329188D01*
X103967544Y-43165216D01*
X104066147Y-43017646D01*
X104191646Y-42892147D01*
X104339216Y-42793544D01*
X104503188Y-42725624D01*
X104652488Y-42695927D01*
X104677258Y-42691000D01*
X104854742Y-42691000D01*
X104879512Y-42695927D01*
X104879512Y-42695927D01*
G37*
G36*
X107419512Y-42695927D02*
G01*
X107568812Y-42725624D01*
X107732784Y-42793544D01*
X107880354Y-42892147D01*
X108005853Y-43017646D01*
X108104456Y-43165216D01*
X108172376Y-43329188D01*
X108207000Y-43503259D01*
X108207000Y-43680741D01*
X108172376Y-43854812D01*
X108104456Y-44018784D01*
X108005853Y-44166354D01*
X107880354Y-44291853D01*
X107732784Y-44390456D01*
X107568812Y-44458376D01*
X107419512Y-44488073D01*
X107394742Y-44493000D01*
X107217258Y-44493000D01*
X107192488Y-44488073D01*
X107043188Y-44458376D01*
X106879216Y-44390456D01*
X106731646Y-44291853D01*
X106606147Y-44166354D01*
X106507544Y-44018784D01*
X106439624Y-43854812D01*
X106405000Y-43680741D01*
X106405000Y-43503259D01*
X106439624Y-43329188D01*
X106507544Y-43165216D01*
X106606147Y-43017646D01*
X106731646Y-42892147D01*
X106879216Y-42793544D01*
X107043188Y-42725624D01*
X107192488Y-42695927D01*
X107217258Y-42691000D01*
X107394742Y-42691000D01*
X107419512Y-42695927D01*
X107419512Y-42695927D01*
G37*
G36*
X109959512Y-42695927D02*
G01*
X110108812Y-42725624D01*
X110272784Y-42793544D01*
X110420354Y-42892147D01*
X110545853Y-43017646D01*
X110644456Y-43165216D01*
X110712376Y-43329188D01*
X110747000Y-43503259D01*
X110747000Y-43680741D01*
X110712376Y-43854812D01*
X110644456Y-44018784D01*
X110545853Y-44166354D01*
X110420354Y-44291853D01*
X110272784Y-44390456D01*
X110108812Y-44458376D01*
X109959512Y-44488073D01*
X109934742Y-44493000D01*
X109757258Y-44493000D01*
X109732488Y-44488073D01*
X109583188Y-44458376D01*
X109419216Y-44390456D01*
X109271646Y-44291853D01*
X109146147Y-44166354D01*
X109047544Y-44018784D01*
X108979624Y-43854812D01*
X108945000Y-43680741D01*
X108945000Y-43503259D01*
X108979624Y-43329188D01*
X109047544Y-43165216D01*
X109146147Y-43017646D01*
X109271646Y-42892147D01*
X109419216Y-42793544D01*
X109583188Y-42725624D01*
X109732488Y-42695927D01*
X109757258Y-42691000D01*
X109934742Y-42691000D01*
X109959512Y-42695927D01*
X109959512Y-42695927D01*
G37*
G36*
X115039512Y-42695927D02*
G01*
X115188812Y-42725624D01*
X115352784Y-42793544D01*
X115500354Y-42892147D01*
X115625853Y-43017646D01*
X115724456Y-43165216D01*
X115792376Y-43329188D01*
X115827000Y-43503259D01*
X115827000Y-43680741D01*
X115792376Y-43854812D01*
X115724456Y-44018784D01*
X115625853Y-44166354D01*
X115500354Y-44291853D01*
X115352784Y-44390456D01*
X115188812Y-44458376D01*
X115039512Y-44488073D01*
X115014742Y-44493000D01*
X114837258Y-44493000D01*
X114812488Y-44488073D01*
X114663188Y-44458376D01*
X114499216Y-44390456D01*
X114351646Y-44291853D01*
X114226147Y-44166354D01*
X114127544Y-44018784D01*
X114059624Y-43854812D01*
X114025000Y-43680741D01*
X114025000Y-43503259D01*
X114059624Y-43329188D01*
X114127544Y-43165216D01*
X114226147Y-43017646D01*
X114351646Y-42892147D01*
X114499216Y-42793544D01*
X114663188Y-42725624D01*
X114812488Y-42695927D01*
X114837258Y-42691000D01*
X115014742Y-42691000D01*
X115039512Y-42695927D01*
X115039512Y-42695927D01*
G37*
G36*
X112499512Y-42695927D02*
G01*
X112648812Y-42725624D01*
X112812784Y-42793544D01*
X112960354Y-42892147D01*
X113085853Y-43017646D01*
X113184456Y-43165216D01*
X113252376Y-43329188D01*
X113287000Y-43503259D01*
X113287000Y-43680741D01*
X113252376Y-43854812D01*
X113184456Y-44018784D01*
X113085853Y-44166354D01*
X112960354Y-44291853D01*
X112812784Y-44390456D01*
X112648812Y-44458376D01*
X112499512Y-44488073D01*
X112474742Y-44493000D01*
X112297258Y-44493000D01*
X112272488Y-44488073D01*
X112123188Y-44458376D01*
X111959216Y-44390456D01*
X111811646Y-44291853D01*
X111686147Y-44166354D01*
X111587544Y-44018784D01*
X111519624Y-43854812D01*
X111485000Y-43680741D01*
X111485000Y-43503259D01*
X111519624Y-43329188D01*
X111587544Y-43165216D01*
X111686147Y-43017646D01*
X111811646Y-42892147D01*
X111959216Y-42793544D01*
X112123188Y-42725624D01*
X112272488Y-42695927D01*
X112297258Y-42691000D01*
X112474742Y-42691000D01*
X112499512Y-42695927D01*
X112499512Y-42695927D01*
G37*
G36*
X97259512Y-42695927D02*
G01*
X97408812Y-42725624D01*
X97572784Y-42793544D01*
X97720354Y-42892147D01*
X97845853Y-43017646D01*
X97944456Y-43165216D01*
X98012376Y-43329188D01*
X98047000Y-43503259D01*
X98047000Y-43680741D01*
X98012376Y-43854812D01*
X97944456Y-44018784D01*
X97845853Y-44166354D01*
X97720354Y-44291853D01*
X97572784Y-44390456D01*
X97408812Y-44458376D01*
X97259512Y-44488073D01*
X97234742Y-44493000D01*
X97057258Y-44493000D01*
X97032488Y-44488073D01*
X96883188Y-44458376D01*
X96719216Y-44390456D01*
X96571646Y-44291853D01*
X96446147Y-44166354D01*
X96347544Y-44018784D01*
X96279624Y-43854812D01*
X96245000Y-43680741D01*
X96245000Y-43503259D01*
X96279624Y-43329188D01*
X96347544Y-43165216D01*
X96446147Y-43017646D01*
X96571646Y-42892147D01*
X96719216Y-42793544D01*
X96883188Y-42725624D01*
X97032488Y-42695927D01*
X97057258Y-42691000D01*
X97234742Y-42691000D01*
X97259512Y-42695927D01*
X97259512Y-42695927D01*
G37*
G36*
X99799512Y-42695927D02*
G01*
X99948812Y-42725624D01*
X100112784Y-42793544D01*
X100260354Y-42892147D01*
X100385853Y-43017646D01*
X100484456Y-43165216D01*
X100552376Y-43329188D01*
X100587000Y-43503259D01*
X100587000Y-43680741D01*
X100552376Y-43854812D01*
X100484456Y-44018784D01*
X100385853Y-44166354D01*
X100260354Y-44291853D01*
X100112784Y-44390456D01*
X99948812Y-44458376D01*
X99799512Y-44488073D01*
X99774742Y-44493000D01*
X99597258Y-44493000D01*
X99572488Y-44488073D01*
X99423188Y-44458376D01*
X99259216Y-44390456D01*
X99111646Y-44291853D01*
X98986147Y-44166354D01*
X98887544Y-44018784D01*
X98819624Y-43854812D01*
X98785000Y-43680741D01*
X98785000Y-43503259D01*
X98819624Y-43329188D01*
X98887544Y-43165216D01*
X98986147Y-43017646D01*
X99111646Y-42892147D01*
X99259216Y-42793544D01*
X99423188Y-42725624D01*
X99572488Y-42695927D01*
X99597258Y-42691000D01*
X99774742Y-42691000D01*
X99799512Y-42695927D01*
X99799512Y-42695927D01*
G37*
G36*
X56365512Y-42187927D02*
G01*
X56514812Y-42217624D01*
X56678784Y-42285544D01*
X56826354Y-42384147D01*
X56951853Y-42509646D01*
X57050456Y-42657216D01*
X57118376Y-42821188D01*
X57153000Y-42995259D01*
X57153000Y-43172741D01*
X57118376Y-43346812D01*
X57050456Y-43510784D01*
X56951853Y-43658354D01*
X56826354Y-43783853D01*
X56678784Y-43882456D01*
X56514812Y-43950376D01*
X56365512Y-43980073D01*
X56340742Y-43985000D01*
X56163258Y-43985000D01*
X56138488Y-43980073D01*
X55989188Y-43950376D01*
X55825216Y-43882456D01*
X55677646Y-43783853D01*
X55552147Y-43658354D01*
X55453544Y-43510784D01*
X55385624Y-43346812D01*
X55351000Y-43172741D01*
X55351000Y-42995259D01*
X55385624Y-42821188D01*
X55453544Y-42657216D01*
X55552147Y-42509646D01*
X55677646Y-42384147D01*
X55825216Y-42285544D01*
X55989188Y-42217624D01*
X56138488Y-42187927D01*
X56163258Y-42183000D01*
X56340742Y-42183000D01*
X56365512Y-42187927D01*
X56365512Y-42187927D01*
G37*
G36*
X77447512Y-42187927D02*
G01*
X77596812Y-42217624D01*
X77760784Y-42285544D01*
X77908354Y-42384147D01*
X78033853Y-42509646D01*
X78132456Y-42657216D01*
X78200376Y-42821188D01*
X78235000Y-42995259D01*
X78235000Y-43172741D01*
X78200376Y-43346812D01*
X78132456Y-43510784D01*
X78033853Y-43658354D01*
X77908354Y-43783853D01*
X77760784Y-43882456D01*
X77596812Y-43950376D01*
X77447512Y-43980073D01*
X77422742Y-43985000D01*
X77245258Y-43985000D01*
X77220488Y-43980073D01*
X77071188Y-43950376D01*
X76907216Y-43882456D01*
X76759646Y-43783853D01*
X76634147Y-43658354D01*
X76535544Y-43510784D01*
X76467624Y-43346812D01*
X76433000Y-43172741D01*
X76433000Y-42995259D01*
X76467624Y-42821188D01*
X76535544Y-42657216D01*
X76634147Y-42509646D01*
X76759646Y-42384147D01*
X76907216Y-42285544D01*
X77071188Y-42217624D01*
X77220488Y-42187927D01*
X77245258Y-42183000D01*
X77422742Y-42183000D01*
X77447512Y-42187927D01*
X77447512Y-42187927D01*
G37*
G36*
X79987512Y-42187927D02*
G01*
X80136812Y-42217624D01*
X80300784Y-42285544D01*
X80448354Y-42384147D01*
X80573853Y-42509646D01*
X80672456Y-42657216D01*
X80740376Y-42821188D01*
X80775000Y-42995259D01*
X80775000Y-43172741D01*
X80740376Y-43346812D01*
X80672456Y-43510784D01*
X80573853Y-43658354D01*
X80448354Y-43783853D01*
X80300784Y-43882456D01*
X80136812Y-43950376D01*
X79987512Y-43980073D01*
X79962742Y-43985000D01*
X79785258Y-43985000D01*
X79760488Y-43980073D01*
X79611188Y-43950376D01*
X79447216Y-43882456D01*
X79299646Y-43783853D01*
X79174147Y-43658354D01*
X79075544Y-43510784D01*
X79007624Y-43346812D01*
X78973000Y-43172741D01*
X78973000Y-42995259D01*
X79007624Y-42821188D01*
X79075544Y-42657216D01*
X79174147Y-42509646D01*
X79299646Y-42384147D01*
X79447216Y-42285544D01*
X79611188Y-42217624D01*
X79760488Y-42187927D01*
X79785258Y-42183000D01*
X79962742Y-42183000D01*
X79987512Y-42187927D01*
X79987512Y-42187927D01*
G37*
G36*
X53825512Y-42187927D02*
G01*
X53974812Y-42217624D01*
X54138784Y-42285544D01*
X54286354Y-42384147D01*
X54411853Y-42509646D01*
X54510456Y-42657216D01*
X54578376Y-42821188D01*
X54613000Y-42995259D01*
X54613000Y-43172741D01*
X54578376Y-43346812D01*
X54510456Y-43510784D01*
X54411853Y-43658354D01*
X54286354Y-43783853D01*
X54138784Y-43882456D01*
X53974812Y-43950376D01*
X53825512Y-43980073D01*
X53800742Y-43985000D01*
X53623258Y-43985000D01*
X53598488Y-43980073D01*
X53449188Y-43950376D01*
X53285216Y-43882456D01*
X53137646Y-43783853D01*
X53012147Y-43658354D01*
X52913544Y-43510784D01*
X52845624Y-43346812D01*
X52811000Y-43172741D01*
X52811000Y-42995259D01*
X52845624Y-42821188D01*
X52913544Y-42657216D01*
X53012147Y-42509646D01*
X53137646Y-42384147D01*
X53285216Y-42285544D01*
X53449188Y-42217624D01*
X53598488Y-42187927D01*
X53623258Y-42183000D01*
X53800742Y-42183000D01*
X53825512Y-42187927D01*
X53825512Y-42187927D01*
G37*
G36*
X53825512Y-39647927D02*
G01*
X53974812Y-39677624D01*
X54138784Y-39745544D01*
X54286354Y-39844147D01*
X54411853Y-39969646D01*
X54510456Y-40117216D01*
X54578376Y-40281188D01*
X54613000Y-40455259D01*
X54613000Y-40632741D01*
X54578376Y-40806812D01*
X54510456Y-40970784D01*
X54411853Y-41118354D01*
X54286354Y-41243853D01*
X54138784Y-41342456D01*
X53974812Y-41410376D01*
X53825512Y-41440073D01*
X53800742Y-41445000D01*
X53623258Y-41445000D01*
X53598488Y-41440073D01*
X53449188Y-41410376D01*
X53285216Y-41342456D01*
X53137646Y-41243853D01*
X53012147Y-41118354D01*
X52913544Y-40970784D01*
X52845624Y-40806812D01*
X52811000Y-40632741D01*
X52811000Y-40455259D01*
X52845624Y-40281188D01*
X52913544Y-40117216D01*
X53012147Y-39969646D01*
X53137646Y-39844147D01*
X53285216Y-39745544D01*
X53449188Y-39677624D01*
X53598488Y-39647927D01*
X53623258Y-39643000D01*
X53800742Y-39643000D01*
X53825512Y-39647927D01*
X53825512Y-39647927D01*
G37*
G36*
X77447512Y-39647927D02*
G01*
X77596812Y-39677624D01*
X77760784Y-39745544D01*
X77908354Y-39844147D01*
X78033853Y-39969646D01*
X78132456Y-40117216D01*
X78200376Y-40281188D01*
X78235000Y-40455259D01*
X78235000Y-40632741D01*
X78200376Y-40806812D01*
X78132456Y-40970784D01*
X78033853Y-41118354D01*
X77908354Y-41243853D01*
X77760784Y-41342456D01*
X77596812Y-41410376D01*
X77447512Y-41440073D01*
X77422742Y-41445000D01*
X77245258Y-41445000D01*
X77220488Y-41440073D01*
X77071188Y-41410376D01*
X76907216Y-41342456D01*
X76759646Y-41243853D01*
X76634147Y-41118354D01*
X76535544Y-40970784D01*
X76467624Y-40806812D01*
X76433000Y-40632741D01*
X76433000Y-40455259D01*
X76467624Y-40281188D01*
X76535544Y-40117216D01*
X76634147Y-39969646D01*
X76759646Y-39844147D01*
X76907216Y-39745544D01*
X77071188Y-39677624D01*
X77220488Y-39647927D01*
X77245258Y-39643000D01*
X77422742Y-39643000D01*
X77447512Y-39647927D01*
X77447512Y-39647927D01*
G37*
G36*
X56365512Y-39647927D02*
G01*
X56514812Y-39677624D01*
X56678784Y-39745544D01*
X56826354Y-39844147D01*
X56951853Y-39969646D01*
X57050456Y-40117216D01*
X57118376Y-40281188D01*
X57153000Y-40455259D01*
X57153000Y-40632741D01*
X57118376Y-40806812D01*
X57050456Y-40970784D01*
X56951853Y-41118354D01*
X56826354Y-41243853D01*
X56678784Y-41342456D01*
X56514812Y-41410376D01*
X56365512Y-41440073D01*
X56340742Y-41445000D01*
X56163258Y-41445000D01*
X56138488Y-41440073D01*
X55989188Y-41410376D01*
X55825216Y-41342456D01*
X55677646Y-41243853D01*
X55552147Y-41118354D01*
X55453544Y-40970784D01*
X55385624Y-40806812D01*
X55351000Y-40632741D01*
X55351000Y-40455259D01*
X55385624Y-40281188D01*
X55453544Y-40117216D01*
X55552147Y-39969646D01*
X55677646Y-39844147D01*
X55825216Y-39745544D01*
X55989188Y-39677624D01*
X56138488Y-39647927D01*
X56163258Y-39643000D01*
X56340742Y-39643000D01*
X56365512Y-39647927D01*
X56365512Y-39647927D01*
G37*
G36*
X79987512Y-39647927D02*
G01*
X80136812Y-39677624D01*
X80300784Y-39745544D01*
X80448354Y-39844147D01*
X80573853Y-39969646D01*
X80672456Y-40117216D01*
X80740376Y-40281188D01*
X80775000Y-40455259D01*
X80775000Y-40632741D01*
X80740376Y-40806812D01*
X80672456Y-40970784D01*
X80573853Y-41118354D01*
X80448354Y-41243853D01*
X80300784Y-41342456D01*
X80136812Y-41410376D01*
X79987512Y-41440073D01*
X79962742Y-41445000D01*
X79785258Y-41445000D01*
X79760488Y-41440073D01*
X79611188Y-41410376D01*
X79447216Y-41342456D01*
X79299646Y-41243853D01*
X79174147Y-41118354D01*
X79075544Y-40970784D01*
X79007624Y-40806812D01*
X78973000Y-40632741D01*
X78973000Y-40455259D01*
X79007624Y-40281188D01*
X79075544Y-40117216D01*
X79174147Y-39969646D01*
X79299646Y-39844147D01*
X79447216Y-39745544D01*
X79611188Y-39677624D01*
X79760488Y-39647927D01*
X79785258Y-39643000D01*
X79962742Y-39643000D01*
X79987512Y-39647927D01*
X79987512Y-39647927D01*
G37*
G36*
X53825512Y-37107927D02*
G01*
X53974812Y-37137624D01*
X54138784Y-37205544D01*
X54286354Y-37304147D01*
X54411853Y-37429646D01*
X54510456Y-37577216D01*
X54578376Y-37741188D01*
X54613000Y-37915259D01*
X54613000Y-38092741D01*
X54578376Y-38266812D01*
X54510456Y-38430784D01*
X54411853Y-38578354D01*
X54286354Y-38703853D01*
X54138784Y-38802456D01*
X53974812Y-38870376D01*
X53825512Y-38900073D01*
X53800742Y-38905000D01*
X53623258Y-38905000D01*
X53598488Y-38900073D01*
X53449188Y-38870376D01*
X53285216Y-38802456D01*
X53137646Y-38703853D01*
X53012147Y-38578354D01*
X52913544Y-38430784D01*
X52845624Y-38266812D01*
X52811000Y-38092741D01*
X52811000Y-37915259D01*
X52845624Y-37741188D01*
X52913544Y-37577216D01*
X53012147Y-37429646D01*
X53137646Y-37304147D01*
X53285216Y-37205544D01*
X53449188Y-37137624D01*
X53598488Y-37107927D01*
X53623258Y-37103000D01*
X53800742Y-37103000D01*
X53825512Y-37107927D01*
X53825512Y-37107927D01*
G37*
G36*
X56365512Y-37107927D02*
G01*
X56514812Y-37137624D01*
X56678784Y-37205544D01*
X56826354Y-37304147D01*
X56951853Y-37429646D01*
X57050456Y-37577216D01*
X57118376Y-37741188D01*
X57153000Y-37915259D01*
X57153000Y-38092741D01*
X57118376Y-38266812D01*
X57050456Y-38430784D01*
X56951853Y-38578354D01*
X56826354Y-38703853D01*
X56678784Y-38802456D01*
X56514812Y-38870376D01*
X56365512Y-38900073D01*
X56340742Y-38905000D01*
X56163258Y-38905000D01*
X56138488Y-38900073D01*
X55989188Y-38870376D01*
X55825216Y-38802456D01*
X55677646Y-38703853D01*
X55552147Y-38578354D01*
X55453544Y-38430784D01*
X55385624Y-38266812D01*
X55351000Y-38092741D01*
X55351000Y-37915259D01*
X55385624Y-37741188D01*
X55453544Y-37577216D01*
X55552147Y-37429646D01*
X55677646Y-37304147D01*
X55825216Y-37205544D01*
X55989188Y-37137624D01*
X56138488Y-37107927D01*
X56163258Y-37103000D01*
X56340742Y-37103000D01*
X56365512Y-37107927D01*
X56365512Y-37107927D01*
G37*
G36*
X77447512Y-37107927D02*
G01*
X77596812Y-37137624D01*
X77760784Y-37205544D01*
X77908354Y-37304147D01*
X78033853Y-37429646D01*
X78132456Y-37577216D01*
X78200376Y-37741188D01*
X78235000Y-37915259D01*
X78235000Y-38092741D01*
X78200376Y-38266812D01*
X78132456Y-38430784D01*
X78033853Y-38578354D01*
X77908354Y-38703853D01*
X77760784Y-38802456D01*
X77596812Y-38870376D01*
X77447512Y-38900073D01*
X77422742Y-38905000D01*
X77245258Y-38905000D01*
X77220488Y-38900073D01*
X77071188Y-38870376D01*
X76907216Y-38802456D01*
X76759646Y-38703853D01*
X76634147Y-38578354D01*
X76535544Y-38430784D01*
X76467624Y-38266812D01*
X76433000Y-38092741D01*
X76433000Y-37915259D01*
X76467624Y-37741188D01*
X76535544Y-37577216D01*
X76634147Y-37429646D01*
X76759646Y-37304147D01*
X76907216Y-37205544D01*
X77071188Y-37137624D01*
X77220488Y-37107927D01*
X77245258Y-37103000D01*
X77422742Y-37103000D01*
X77447512Y-37107927D01*
X77447512Y-37107927D01*
G37*
G36*
X79987512Y-37107927D02*
G01*
X80136812Y-37137624D01*
X80300784Y-37205544D01*
X80448354Y-37304147D01*
X80573853Y-37429646D01*
X80672456Y-37577216D01*
X80740376Y-37741188D01*
X80775000Y-37915259D01*
X80775000Y-38092741D01*
X80740376Y-38266812D01*
X80672456Y-38430784D01*
X80573853Y-38578354D01*
X80448354Y-38703853D01*
X80300784Y-38802456D01*
X80136812Y-38870376D01*
X79987512Y-38900073D01*
X79962742Y-38905000D01*
X79785258Y-38905000D01*
X79760488Y-38900073D01*
X79611188Y-38870376D01*
X79447216Y-38802456D01*
X79299646Y-38703853D01*
X79174147Y-38578354D01*
X79075544Y-38430784D01*
X79007624Y-38266812D01*
X78973000Y-38092741D01*
X78973000Y-37915259D01*
X79007624Y-37741188D01*
X79075544Y-37577216D01*
X79174147Y-37429646D01*
X79299646Y-37304147D01*
X79447216Y-37205544D01*
X79611188Y-37137624D01*
X79760488Y-37107927D01*
X79785258Y-37103000D01*
X79962742Y-37103000D01*
X79987512Y-37107927D01*
X79987512Y-37107927D01*
G37*
G36*
X77103600Y-26980600D02*
G01*
X75274400Y-26980600D01*
X75274400Y-25151400D01*
X77103600Y-25151400D01*
X77103600Y-26980600D01*
X77103600Y-26980600D01*
G37*
G36*
X136441294Y-25164633D02*
G01*
X136613695Y-25216931D01*
X136772583Y-25301858D01*
X136911849Y-25416151D01*
X137026142Y-25555417D01*
X137111069Y-25714305D01*
X137163367Y-25886706D01*
X137181025Y-26066000D01*
X137163367Y-26245294D01*
X137111069Y-26417695D01*
X137026142Y-26576583D01*
X136911849Y-26715849D01*
X136772583Y-26830142D01*
X136613695Y-26915069D01*
X136441294Y-26967367D01*
X136306931Y-26980600D01*
X136217069Y-26980600D01*
X136082706Y-26967367D01*
X135910305Y-26915069D01*
X135751417Y-26830142D01*
X135612151Y-26715849D01*
X135497858Y-26576583D01*
X135412931Y-26417695D01*
X135360633Y-26245294D01*
X135342975Y-26066000D01*
X135360633Y-25886706D01*
X135412931Y-25714305D01*
X135497858Y-25555417D01*
X135612151Y-25416151D01*
X135751417Y-25301858D01*
X135910305Y-25216931D01*
X136082706Y-25164633D01*
X136217069Y-25151400D01*
X136306931Y-25151400D01*
X136441294Y-25164633D01*
X136441294Y-25164633D01*
G37*
G36*
X54907294Y-25164633D02*
G01*
X55079695Y-25216931D01*
X55238583Y-25301858D01*
X55377849Y-25416151D01*
X55492142Y-25555417D01*
X55577069Y-25714305D01*
X55629367Y-25886706D01*
X55647025Y-26066000D01*
X55629367Y-26245294D01*
X55577069Y-26417695D01*
X55492142Y-26576583D01*
X55377849Y-26715849D01*
X55238583Y-26830142D01*
X55079695Y-26915069D01*
X54907294Y-26967367D01*
X54772931Y-26980600D01*
X54683069Y-26980600D01*
X54548706Y-26967367D01*
X54376305Y-26915069D01*
X54217417Y-26830142D01*
X54078151Y-26715849D01*
X53963858Y-26576583D01*
X53878931Y-26417695D01*
X53826633Y-26245294D01*
X53808975Y-26066000D01*
X53826633Y-25886706D01*
X53878931Y-25714305D01*
X53963858Y-25555417D01*
X54078151Y-25416151D01*
X54217417Y-25301858D01*
X54376305Y-25216931D01*
X54548706Y-25164633D01*
X54683069Y-25151400D01*
X54772931Y-25151400D01*
X54907294Y-25164633D01*
X54907294Y-25164633D01*
G37*
G36*
X53102600Y-26980600D02*
G01*
X51273400Y-26980600D01*
X51273400Y-25151400D01*
X53102600Y-25151400D01*
X53102600Y-26980600D01*
X53102600Y-26980600D01*
G37*
G36*
X78908294Y-25164633D02*
G01*
X79080695Y-25216931D01*
X79239583Y-25301858D01*
X79378849Y-25416151D01*
X79493142Y-25555417D01*
X79578069Y-25714305D01*
X79630367Y-25886706D01*
X79648025Y-26066000D01*
X79630367Y-26245294D01*
X79578069Y-26417695D01*
X79493142Y-26576583D01*
X79378849Y-26715849D01*
X79239583Y-26830142D01*
X79080695Y-26915069D01*
X78908294Y-26967367D01*
X78773931Y-26980600D01*
X78684069Y-26980600D01*
X78549706Y-26967367D01*
X78377305Y-26915069D01*
X78218417Y-26830142D01*
X78079151Y-26715849D01*
X77964858Y-26576583D01*
X77879931Y-26417695D01*
X77827633Y-26245294D01*
X77809975Y-26066000D01*
X77827633Y-25886706D01*
X77879931Y-25714305D01*
X77964858Y-25555417D01*
X78079151Y-25416151D01*
X78218417Y-25301858D01*
X78377305Y-25216931D01*
X78549706Y-25164633D01*
X78684069Y-25151400D01*
X78773931Y-25151400D01*
X78908294Y-25164633D01*
X78908294Y-25164633D01*
G37*
G36*
X81448294Y-25164633D02*
G01*
X81620695Y-25216931D01*
X81779583Y-25301858D01*
X81918849Y-25416151D01*
X82033142Y-25555417D01*
X82118069Y-25714305D01*
X82170367Y-25886706D01*
X82188025Y-26066000D01*
X82170367Y-26245294D01*
X82118069Y-26417695D01*
X82033142Y-26576583D01*
X81918849Y-26715849D01*
X81779583Y-26830142D01*
X81620695Y-26915069D01*
X81448294Y-26967367D01*
X81313931Y-26980600D01*
X81224069Y-26980600D01*
X81089706Y-26967367D01*
X80917305Y-26915069D01*
X80758417Y-26830142D01*
X80619151Y-26715849D01*
X80504858Y-26576583D01*
X80419931Y-26417695D01*
X80367633Y-26245294D01*
X80349975Y-26066000D01*
X80367633Y-25886706D01*
X80419931Y-25714305D01*
X80504858Y-25555417D01*
X80619151Y-25416151D01*
X80758417Y-25301858D01*
X80917305Y-25216931D01*
X81089706Y-25164633D01*
X81224069Y-25151400D01*
X81313931Y-25151400D01*
X81448294Y-25164633D01*
X81448294Y-25164633D01*
G37*
G36*
X57447294Y-25164633D02*
G01*
X57619695Y-25216931D01*
X57778583Y-25301858D01*
X57917849Y-25416151D01*
X58032142Y-25555417D01*
X58117069Y-25714305D01*
X58169367Y-25886706D01*
X58187025Y-26066000D01*
X58169367Y-26245294D01*
X58117069Y-26417695D01*
X58032142Y-26576583D01*
X57917849Y-26715849D01*
X57778583Y-26830142D01*
X57619695Y-26915069D01*
X57447294Y-26967367D01*
X57312931Y-26980600D01*
X57223069Y-26980600D01*
X57088706Y-26967367D01*
X56916305Y-26915069D01*
X56757417Y-26830142D01*
X56618151Y-26715849D01*
X56503858Y-26576583D01*
X56418931Y-26417695D01*
X56366633Y-26245294D01*
X56348975Y-26066000D01*
X56366633Y-25886706D01*
X56418931Y-25714305D01*
X56503858Y-25555417D01*
X56618151Y-25416151D01*
X56757417Y-25301858D01*
X56916305Y-25216931D01*
X57088706Y-25164633D01*
X57223069Y-25151400D01*
X57312931Y-25151400D01*
X57447294Y-25164633D01*
X57447294Y-25164633D01*
G37*
G36*
X105961294Y-25164633D02*
G01*
X106133695Y-25216931D01*
X106292583Y-25301858D01*
X106431849Y-25416151D01*
X106546142Y-25555417D01*
X106631069Y-25714305D01*
X106683367Y-25886706D01*
X106701025Y-26066000D01*
X106683367Y-26245294D01*
X106631069Y-26417695D01*
X106546142Y-26576583D01*
X106431849Y-26715849D01*
X106292583Y-26830142D01*
X106133695Y-26915069D01*
X105961294Y-26967367D01*
X105826931Y-26980600D01*
X105737069Y-26980600D01*
X105602706Y-26967367D01*
X105430305Y-26915069D01*
X105271417Y-26830142D01*
X105132151Y-26715849D01*
X105017858Y-26576583D01*
X104932931Y-26417695D01*
X104880633Y-26245294D01*
X104862975Y-26066000D01*
X104880633Y-25886706D01*
X104932931Y-25714305D01*
X105017858Y-25555417D01*
X105132151Y-25416151D01*
X105271417Y-25301858D01*
X105430305Y-25216931D01*
X105602706Y-25164633D01*
X105737069Y-25151400D01*
X105826931Y-25151400D01*
X105961294Y-25164633D01*
X105961294Y-25164633D01*
G37*
G36*
X133901294Y-25164633D02*
G01*
X134073695Y-25216931D01*
X134232583Y-25301858D01*
X134371849Y-25416151D01*
X134486142Y-25555417D01*
X134571069Y-25714305D01*
X134623367Y-25886706D01*
X134641025Y-26066000D01*
X134623367Y-26245294D01*
X134571069Y-26417695D01*
X134486142Y-26576583D01*
X134371849Y-26715849D01*
X134232583Y-26830142D01*
X134073695Y-26915069D01*
X133901294Y-26967367D01*
X133766931Y-26980600D01*
X133677069Y-26980600D01*
X133542706Y-26967367D01*
X133370305Y-26915069D01*
X133211417Y-26830142D01*
X133072151Y-26715849D01*
X132957858Y-26576583D01*
X132872931Y-26417695D01*
X132820633Y-26245294D01*
X132802975Y-26066000D01*
X132820633Y-25886706D01*
X132872931Y-25714305D01*
X132957858Y-25555417D01*
X133072151Y-25416151D01*
X133211417Y-25301858D01*
X133370305Y-25216931D01*
X133542706Y-25164633D01*
X133677069Y-25151400D01*
X133766931Y-25151400D01*
X133901294Y-25164633D01*
X133901294Y-25164633D01*
G37*
G36*
X132096600Y-26980600D02*
G01*
X130267400Y-26980600D01*
X130267400Y-25151400D01*
X132096600Y-25151400D01*
X132096600Y-26980600D01*
X132096600Y-26980600D01*
G37*
G36*
X108501294Y-25164633D02*
G01*
X108673695Y-25216931D01*
X108832583Y-25301858D01*
X108971849Y-25416151D01*
X109086142Y-25555417D01*
X109171069Y-25714305D01*
X109223367Y-25886706D01*
X109241025Y-26066000D01*
X109223367Y-26245294D01*
X109171069Y-26417695D01*
X109086142Y-26576583D01*
X108971849Y-26715849D01*
X108832583Y-26830142D01*
X108673695Y-26915069D01*
X108501294Y-26967367D01*
X108366931Y-26980600D01*
X108277069Y-26980600D01*
X108142706Y-26967367D01*
X107970305Y-26915069D01*
X107811417Y-26830142D01*
X107672151Y-26715849D01*
X107557858Y-26576583D01*
X107472931Y-26417695D01*
X107420633Y-26245294D01*
X107402975Y-26066000D01*
X107420633Y-25886706D01*
X107472931Y-25714305D01*
X107557858Y-25555417D01*
X107672151Y-25416151D01*
X107811417Y-25301858D01*
X107970305Y-25216931D01*
X108142706Y-25164633D01*
X108277069Y-25151400D01*
X108366931Y-25151400D01*
X108501294Y-25164633D01*
X108501294Y-25164633D01*
G37*
G36*
X104156600Y-26980600D02*
G01*
X102327400Y-26980600D01*
X102327400Y-25151400D01*
X104156600Y-25151400D01*
X104156600Y-26980600D01*
X104156600Y-26980600D01*
G37*
G36*
X155375256Y-23391298D02*
G01*
X155481579Y-23412447D01*
X155782042Y-23536903D01*
X156052451Y-23717585D01*
X156282415Y-23947549D01*
X156463097Y-24217958D01*
X156528175Y-24375069D01*
X156587553Y-24518422D01*
X156651000Y-24837389D01*
X156651000Y-25162611D01*
X156608702Y-25375256D01*
X156587553Y-25481579D01*
X156463097Y-25782042D01*
X156282415Y-26052451D01*
X156052451Y-26282415D01*
X155782042Y-26463097D01*
X155481579Y-26587553D01*
X155375256Y-26608702D01*
X155162611Y-26651000D01*
X154837389Y-26651000D01*
X154624744Y-26608702D01*
X154518421Y-26587553D01*
X154217958Y-26463097D01*
X153947549Y-26282415D01*
X153717585Y-26052451D01*
X153536903Y-25782042D01*
X153412447Y-25481579D01*
X153391298Y-25375256D01*
X153349000Y-25162611D01*
X153349000Y-24837389D01*
X153412447Y-24518422D01*
X153471826Y-24375069D01*
X153536903Y-24217958D01*
X153717585Y-23947549D01*
X153947549Y-23717585D01*
X154217958Y-23536903D01*
X154518421Y-23412447D01*
X154624744Y-23391298D01*
X154837389Y-23349000D01*
X155162611Y-23349000D01*
X155375256Y-23391298D01*
X155375256Y-23391298D01*
G37*
G36*
X40375256Y-23391298D02*
G01*
X40481579Y-23412447D01*
X40782042Y-23536903D01*
X41052451Y-23717585D01*
X41282415Y-23947549D01*
X41463097Y-24217958D01*
X41528175Y-24375069D01*
X41587553Y-24518422D01*
X41651000Y-24837389D01*
X41651000Y-25162611D01*
X41608702Y-25375256D01*
X41587553Y-25481579D01*
X41463097Y-25782042D01*
X41282415Y-26052451D01*
X41052451Y-26282415D01*
X40782042Y-26463097D01*
X40481579Y-26587553D01*
X40375256Y-26608702D01*
X40162611Y-26651000D01*
X39837389Y-26651000D01*
X39624744Y-26608702D01*
X39518421Y-26587553D01*
X39217958Y-26463097D01*
X38947549Y-26282415D01*
X38717585Y-26052451D01*
X38536903Y-25782042D01*
X38412447Y-25481579D01*
X38391298Y-25375256D01*
X38349000Y-25162611D01*
X38349000Y-24837389D01*
X38412447Y-24518422D01*
X38471826Y-24375069D01*
X38536903Y-24217958D01*
X38717585Y-23947549D01*
X38947549Y-23717585D01*
X39217958Y-23536903D01*
X39518421Y-23412447D01*
X39624744Y-23391298D01*
X39837389Y-23349000D01*
X40162611Y-23349000D01*
X40375256Y-23391298D01*
X40375256Y-23391298D01*
G37*
G36*
X103421294Y-22624633D02*
G01*
X103593695Y-22676931D01*
X103752583Y-22761858D01*
X103891849Y-22876151D01*
X104006142Y-23015417D01*
X104091069Y-23174305D01*
X104143367Y-23346706D01*
X104161025Y-23526000D01*
X104143367Y-23705294D01*
X104091069Y-23877695D01*
X104006142Y-24036583D01*
X103891849Y-24175849D01*
X103752583Y-24290142D01*
X103593695Y-24375069D01*
X103421294Y-24427367D01*
X103286931Y-24440600D01*
X103197069Y-24440600D01*
X103062706Y-24427367D01*
X102890305Y-24375069D01*
X102731417Y-24290142D01*
X102592151Y-24175849D01*
X102477858Y-24036583D01*
X102392931Y-23877695D01*
X102340633Y-23705294D01*
X102322975Y-23526000D01*
X102340633Y-23346706D01*
X102392931Y-23174305D01*
X102477858Y-23015417D01*
X102592151Y-22876151D01*
X102731417Y-22761858D01*
X102890305Y-22676931D01*
X103062706Y-22624633D01*
X103197069Y-22611400D01*
X103286931Y-22611400D01*
X103421294Y-22624633D01*
X103421294Y-22624633D01*
G37*
G36*
X131361294Y-22624633D02*
G01*
X131533695Y-22676931D01*
X131692583Y-22761858D01*
X131831849Y-22876151D01*
X131946142Y-23015417D01*
X132031069Y-23174305D01*
X132083367Y-23346706D01*
X132101025Y-23526000D01*
X132083367Y-23705294D01*
X132031069Y-23877695D01*
X131946142Y-24036583D01*
X131831849Y-24175849D01*
X131692583Y-24290142D01*
X131533695Y-24375069D01*
X131361294Y-24427367D01*
X131226931Y-24440600D01*
X131137069Y-24440600D01*
X131002706Y-24427367D01*
X130830305Y-24375069D01*
X130671417Y-24290142D01*
X130532151Y-24175849D01*
X130417858Y-24036583D01*
X130332931Y-23877695D01*
X130280633Y-23705294D01*
X130262975Y-23526000D01*
X130280633Y-23346706D01*
X130332931Y-23174305D01*
X130417858Y-23015417D01*
X130532151Y-22876151D01*
X130671417Y-22761858D01*
X130830305Y-22676931D01*
X131002706Y-22624633D01*
X131137069Y-22611400D01*
X131226931Y-22611400D01*
X131361294Y-22624633D01*
X131361294Y-22624633D01*
G37*
G36*
X133901294Y-22624633D02*
G01*
X134073695Y-22676931D01*
X134232583Y-22761858D01*
X134371849Y-22876151D01*
X134486142Y-23015417D01*
X134571069Y-23174305D01*
X134623367Y-23346706D01*
X134641025Y-23526000D01*
X134623367Y-23705294D01*
X134571069Y-23877695D01*
X134486142Y-24036583D01*
X134371849Y-24175849D01*
X134232583Y-24290142D01*
X134073695Y-24375069D01*
X133901294Y-24427367D01*
X133766931Y-24440600D01*
X133677069Y-24440600D01*
X133542706Y-24427367D01*
X133370305Y-24375069D01*
X133211417Y-24290142D01*
X133072151Y-24175849D01*
X132957858Y-24036583D01*
X132872931Y-23877695D01*
X132820633Y-23705294D01*
X132802975Y-23526000D01*
X132820633Y-23346706D01*
X132872931Y-23174305D01*
X132957858Y-23015417D01*
X133072151Y-22876151D01*
X133211417Y-22761858D01*
X133370305Y-22676931D01*
X133542706Y-22624633D01*
X133677069Y-22611400D01*
X133766931Y-22611400D01*
X133901294Y-22624633D01*
X133901294Y-22624633D01*
G37*
G36*
X136441294Y-22624633D02*
G01*
X136613695Y-22676931D01*
X136772583Y-22761858D01*
X136911849Y-22876151D01*
X137026142Y-23015417D01*
X137111069Y-23174305D01*
X137163367Y-23346706D01*
X137181025Y-23526000D01*
X137163367Y-23705294D01*
X137111069Y-23877695D01*
X137026142Y-24036583D01*
X136911849Y-24175849D01*
X136772583Y-24290142D01*
X136613695Y-24375069D01*
X136441294Y-24427367D01*
X136306931Y-24440600D01*
X136217069Y-24440600D01*
X136082706Y-24427367D01*
X135910305Y-24375069D01*
X135751417Y-24290142D01*
X135612151Y-24175849D01*
X135497858Y-24036583D01*
X135412931Y-23877695D01*
X135360633Y-23705294D01*
X135342975Y-23526000D01*
X135360633Y-23346706D01*
X135412931Y-23174305D01*
X135497858Y-23015417D01*
X135612151Y-22876151D01*
X135751417Y-22761858D01*
X135910305Y-22676931D01*
X136082706Y-22624633D01*
X136217069Y-22611400D01*
X136306931Y-22611400D01*
X136441294Y-22624633D01*
X136441294Y-22624633D01*
G37*
G36*
X105961294Y-22624633D02*
G01*
X106133695Y-22676931D01*
X106292583Y-22761858D01*
X106431849Y-22876151D01*
X106546142Y-23015417D01*
X106631069Y-23174305D01*
X106683367Y-23346706D01*
X106701025Y-23526000D01*
X106683367Y-23705294D01*
X106631069Y-23877695D01*
X106546142Y-24036583D01*
X106431849Y-24175849D01*
X106292583Y-24290142D01*
X106133695Y-24375069D01*
X105961294Y-24427367D01*
X105826931Y-24440600D01*
X105737069Y-24440600D01*
X105602706Y-24427367D01*
X105430305Y-24375069D01*
X105271417Y-24290142D01*
X105132151Y-24175849D01*
X105017858Y-24036583D01*
X104932931Y-23877695D01*
X104880633Y-23705294D01*
X104862975Y-23526000D01*
X104880633Y-23346706D01*
X104932931Y-23174305D01*
X105017858Y-23015417D01*
X105132151Y-22876151D01*
X105271417Y-22761858D01*
X105430305Y-22676931D01*
X105602706Y-22624633D01*
X105737069Y-22611400D01*
X105826931Y-22611400D01*
X105961294Y-22624633D01*
X105961294Y-22624633D01*
G37*
G36*
X52367294Y-22624633D02*
G01*
X52539695Y-22676931D01*
X52698583Y-22761858D01*
X52837849Y-22876151D01*
X52952142Y-23015417D01*
X53037069Y-23174305D01*
X53089367Y-23346706D01*
X53107025Y-23526000D01*
X53089367Y-23705294D01*
X53037069Y-23877695D01*
X52952142Y-24036583D01*
X52837849Y-24175849D01*
X52698583Y-24290142D01*
X52539695Y-24375069D01*
X52367294Y-24427367D01*
X52232931Y-24440600D01*
X52143069Y-24440600D01*
X52008706Y-24427367D01*
X51836305Y-24375069D01*
X51677417Y-24290142D01*
X51538151Y-24175849D01*
X51423858Y-24036583D01*
X51338931Y-23877695D01*
X51286633Y-23705294D01*
X51268975Y-23526000D01*
X51286633Y-23346706D01*
X51338931Y-23174305D01*
X51423858Y-23015417D01*
X51538151Y-22876151D01*
X51677417Y-22761858D01*
X51836305Y-22676931D01*
X52008706Y-22624633D01*
X52143069Y-22611400D01*
X52232931Y-22611400D01*
X52367294Y-22624633D01*
X52367294Y-22624633D01*
G37*
G36*
X54907294Y-22624633D02*
G01*
X55079695Y-22676931D01*
X55238583Y-22761858D01*
X55377849Y-22876151D01*
X55492142Y-23015417D01*
X55577069Y-23174305D01*
X55629367Y-23346706D01*
X55647025Y-23526000D01*
X55629367Y-23705294D01*
X55577069Y-23877695D01*
X55492142Y-24036583D01*
X55377849Y-24175849D01*
X55238583Y-24290142D01*
X55079695Y-24375069D01*
X54907294Y-24427367D01*
X54772931Y-24440600D01*
X54683069Y-24440600D01*
X54548706Y-24427367D01*
X54376305Y-24375069D01*
X54217417Y-24290142D01*
X54078151Y-24175849D01*
X53963858Y-24036583D01*
X53878931Y-23877695D01*
X53826633Y-23705294D01*
X53808975Y-23526000D01*
X53826633Y-23346706D01*
X53878931Y-23174305D01*
X53963858Y-23015417D01*
X54078151Y-22876151D01*
X54217417Y-22761858D01*
X54376305Y-22676931D01*
X54548706Y-22624633D01*
X54683069Y-22611400D01*
X54772931Y-22611400D01*
X54907294Y-22624633D01*
X54907294Y-22624633D01*
G37*
G36*
X57447294Y-22624633D02*
G01*
X57619695Y-22676931D01*
X57778583Y-22761858D01*
X57917849Y-22876151D01*
X58032142Y-23015417D01*
X58117069Y-23174305D01*
X58169367Y-23346706D01*
X58187025Y-23526000D01*
X58169367Y-23705294D01*
X58117069Y-23877695D01*
X58032142Y-24036583D01*
X57917849Y-24175849D01*
X57778583Y-24290142D01*
X57619695Y-24375069D01*
X57447294Y-24427367D01*
X57312931Y-24440600D01*
X57223069Y-24440600D01*
X57088706Y-24427367D01*
X56916305Y-24375069D01*
X56757417Y-24290142D01*
X56618151Y-24175849D01*
X56503858Y-24036583D01*
X56418931Y-23877695D01*
X56366633Y-23705294D01*
X56348975Y-23526000D01*
X56366633Y-23346706D01*
X56418931Y-23174305D01*
X56503858Y-23015417D01*
X56618151Y-22876151D01*
X56757417Y-22761858D01*
X56916305Y-22676931D01*
X57088706Y-22624633D01*
X57223069Y-22611400D01*
X57312931Y-22611400D01*
X57447294Y-22624633D01*
X57447294Y-22624633D01*
G37*
G36*
X81448294Y-22624633D02*
G01*
X81620695Y-22676931D01*
X81779583Y-22761858D01*
X81918849Y-22876151D01*
X82033142Y-23015417D01*
X82118069Y-23174305D01*
X82170367Y-23346706D01*
X82188025Y-23526000D01*
X82170367Y-23705294D01*
X82118069Y-23877695D01*
X82033142Y-24036583D01*
X81918849Y-24175849D01*
X81779583Y-24290142D01*
X81620695Y-24375069D01*
X81448294Y-24427367D01*
X81313931Y-24440600D01*
X81224069Y-24440600D01*
X81089706Y-24427367D01*
X80917305Y-24375069D01*
X80758417Y-24290142D01*
X80619151Y-24175849D01*
X80504858Y-24036583D01*
X80419931Y-23877695D01*
X80367633Y-23705294D01*
X80349975Y-23526000D01*
X80367633Y-23346706D01*
X80419931Y-23174305D01*
X80504858Y-23015417D01*
X80619151Y-22876151D01*
X80758417Y-22761858D01*
X80917305Y-22676931D01*
X81089706Y-22624633D01*
X81224069Y-22611400D01*
X81313931Y-22611400D01*
X81448294Y-22624633D01*
X81448294Y-22624633D01*
G37*
G36*
X78908294Y-22624633D02*
G01*
X79080695Y-22676931D01*
X79239583Y-22761858D01*
X79378849Y-22876151D01*
X79493142Y-23015417D01*
X79578069Y-23174305D01*
X79630367Y-23346706D01*
X79648025Y-23526000D01*
X79630367Y-23705294D01*
X79578069Y-23877695D01*
X79493142Y-24036583D01*
X79378849Y-24175849D01*
X79239583Y-24290142D01*
X79080695Y-24375069D01*
X78908294Y-24427367D01*
X78773931Y-24440600D01*
X78684069Y-24440600D01*
X78549706Y-24427367D01*
X78377305Y-24375069D01*
X78218417Y-24290142D01*
X78079151Y-24175849D01*
X77964858Y-24036583D01*
X77879931Y-23877695D01*
X77827633Y-23705294D01*
X77809975Y-23526000D01*
X77827633Y-23346706D01*
X77879931Y-23174305D01*
X77964858Y-23015417D01*
X78079151Y-22876151D01*
X78218417Y-22761858D01*
X78377305Y-22676931D01*
X78549706Y-22624633D01*
X78684069Y-22611400D01*
X78773931Y-22611400D01*
X78908294Y-22624633D01*
X78908294Y-22624633D01*
G37*
G36*
X76368294Y-22624633D02*
G01*
X76540695Y-22676931D01*
X76699583Y-22761858D01*
X76838849Y-22876151D01*
X76953142Y-23015417D01*
X77038069Y-23174305D01*
X77090367Y-23346706D01*
X77108025Y-23526000D01*
X77090367Y-23705294D01*
X77038069Y-23877695D01*
X76953142Y-24036583D01*
X76838849Y-24175849D01*
X76699583Y-24290142D01*
X76540695Y-24375069D01*
X76368294Y-24427367D01*
X76233931Y-24440600D01*
X76144069Y-24440600D01*
X76009706Y-24427367D01*
X75837305Y-24375069D01*
X75678417Y-24290142D01*
X75539151Y-24175849D01*
X75424858Y-24036583D01*
X75339931Y-23877695D01*
X75287633Y-23705294D01*
X75269975Y-23526000D01*
X75287633Y-23346706D01*
X75339931Y-23174305D01*
X75424858Y-23015417D01*
X75539151Y-22876151D01*
X75678417Y-22761858D01*
X75837305Y-22676931D01*
X76009706Y-22624633D01*
X76144069Y-22611400D01*
X76233931Y-22611400D01*
X76368294Y-22624633D01*
X76368294Y-22624633D01*
G37*
G36*
X108501294Y-22624633D02*
G01*
X108673695Y-22676931D01*
X108832583Y-22761858D01*
X108971849Y-22876151D01*
X109086142Y-23015417D01*
X109171069Y-23174305D01*
X109223367Y-23346706D01*
X109241025Y-23526000D01*
X109223367Y-23705294D01*
X109171069Y-23877695D01*
X109086142Y-24036583D01*
X108971849Y-24175849D01*
X108832583Y-24290142D01*
X108673695Y-24375069D01*
X108501294Y-24427367D01*
X108366931Y-24440600D01*
X108277069Y-24440600D01*
X108142706Y-24427367D01*
X107970305Y-24375069D01*
X107811417Y-24290142D01*
X107672151Y-24175849D01*
X107557858Y-24036583D01*
X107472931Y-23877695D01*
X107420633Y-23705294D01*
X107402975Y-23526000D01*
X107420633Y-23346706D01*
X107472931Y-23174305D01*
X107557858Y-23015417D01*
X107672151Y-22876151D01*
X107811417Y-22761858D01*
X107970305Y-22676931D01*
X108142706Y-22624633D01*
X108277069Y-22611400D01*
X108366931Y-22611400D01*
X108501294Y-22624633D01*
X108501294Y-22624633D01*
G37*
M02*
