%TF.GenerationSoftware,KiCad,Pcbnew,8.0.0*%
%TF.CreationDate,2024-03-05T11:34:16-05:00*%
%TF.ProjectId,TmotorsPCB,546d6f74-6f72-4735-9043-422e6b696361,rev?*%
%TF.SameCoordinates,Original*%
%TF.FileFunction,Soldermask,Top*%
%TF.FilePolarity,Negative*%
%FSLAX46Y46*%
G04 Gerber Fmt 4.6, Leading zero omitted, Abs format (unit mm)*
G04 Created by KiCad (PCBNEW 8.0.0) date 2024-03-05 11:34:16*
%MOMM*%
%LPD*%
G01*
G04 APERTURE LIST*
G04 Aperture macros list*
%AMRoundRect*
0 Rectangle with rounded corners*
0 $1 Rounding radius*
0 $2 $3 $4 $5 $6 $7 $8 $9 X,Y pos of 4 corners*
0 Add a 4 corners polygon primitive as box body*
4,1,4,$2,$3,$4,$5,$6,$7,$8,$9,$2,$3,0*
0 Add four circle primitives for the rounded corners*
1,1,$1+$1,$2,$3*
1,1,$1+$1,$4,$5*
1,1,$1+$1,$6,$7*
1,1,$1+$1,$8,$9*
0 Add four rect primitives between the rounded corners*
20,1,$1+$1,$2,$3,$4,$5,0*
20,1,$1+$1,$4,$5,$6,$7,0*
20,1,$1+$1,$6,$7,$8,$9,0*
20,1,$1+$1,$8,$9,$2,$3,0*%
G04 Aperture macros list end*
%ADD10C,1.400000*%
%ADD11R,3.500000X3.500000*%
%ADD12C,3.500000*%
%ADD13RoundRect,0.200000X-0.450000X0.200000X-0.450000X-0.200000X0.450000X-0.200000X0.450000X0.200000X0*%
%ADD14O,1.300000X0.800000*%
%ADD15C,3.000000*%
%ADD16R,3.000000X3.000000*%
%ADD17O,1.600000X1.600000*%
%ADD18C,1.600000*%
%ADD19R,1.600000X1.600000*%
%ADD20C,4.000000*%
G04 APERTURE END LIST*
D10*
%TO.C,J13*%
X135000000Y-38150000D03*
X146000000Y-38150000D03*
D11*
X138000000Y-43150000D03*
D12*
X143000000Y-43150000D03*
%TD*%
D10*
%TO.C,J12*%
X111000000Y-37650000D03*
X122000000Y-37650000D03*
D11*
X114000000Y-42650000D03*
D12*
X119000000Y-42650000D03*
%TD*%
D10*
%TO.C,J11*%
X97450000Y-99350000D03*
X86450000Y-99350000D03*
D11*
X94450000Y-94350000D03*
D12*
X89450000Y-94350000D03*
%TD*%
%TO.C,J10*%
X104800000Y-94350000D03*
D11*
X109800000Y-94350000D03*
D10*
X101800000Y-99350000D03*
X112800000Y-99350000D03*
%TD*%
D12*
%TO.C,J9*%
X120150000Y-94350000D03*
D11*
X125150000Y-94350000D03*
D10*
X117150000Y-99350000D03*
X128150000Y-99350000D03*
%TD*%
D12*
%TO.C,J8*%
X138000000Y-94350000D03*
D11*
X143000000Y-94350000D03*
D10*
X135000000Y-99350000D03*
X146000000Y-99350000D03*
%TD*%
%TO.C,J7*%
X92650000Y-44000000D03*
X92650000Y-33000000D03*
D11*
X97650000Y-41000000D03*
D12*
X97650000Y-36000000D03*
%TD*%
D13*
%TO.C,J4*%
X124599100Y-80190000D03*
D14*
X124599100Y-81440000D03*
%TD*%
D13*
%TO.C,J6*%
X134996600Y-80190000D03*
D14*
X134996600Y-81440000D03*
%TD*%
%TO.C,J5*%
X134996600Y-54790000D03*
D13*
X134996600Y-53540000D03*
%TD*%
%TO.C,J3*%
X124599100Y-53540000D03*
D14*
X124599100Y-54790000D03*
%TD*%
D13*
%TO.C,J2*%
X114201600Y-80190000D03*
D14*
X114201600Y-81440000D03*
%TD*%
D15*
%TO.C,SW1*%
X147300000Y-72565000D03*
X147300000Y-81965000D03*
D16*
X147300000Y-77265000D03*
%TD*%
D17*
%TO.C,R2*%
X141500000Y-74770000D03*
D18*
X141500000Y-82390000D03*
%TD*%
%TO.C,X2*%
X104615331Y-63345000D03*
X104615331Y-66115000D03*
X104615331Y-68885000D03*
X104615331Y-71655000D03*
X107455331Y-61960000D03*
X107455331Y-64730000D03*
X107455331Y-67500000D03*
X107455331Y-70270000D03*
D19*
X107455331Y-73040000D03*
D20*
X106035331Y-80000000D03*
X106035331Y-55000000D03*
%TD*%
D16*
%TO.C,SW2*%
X147300000Y-57925000D03*
D15*
X147300000Y-62625000D03*
X147300000Y-53225000D03*
%TD*%
D18*
%TO.C,R1*%
X141971600Y-60210000D03*
D17*
X141971600Y-52590000D03*
%TD*%
D14*
%TO.C,J1*%
X114201600Y-54790000D03*
D13*
X114201600Y-53540000D03*
%TD*%
M02*
