%TF.GenerationSoftware,KiCad,Pcbnew,8.0.0*%
%TF.CreationDate,2024-03-05T11:34:16-05:00*%
%TF.ProjectId,TmotorsPCB,546d6f74-6f72-4735-9043-422e6b696361,rev?*%
%TF.SameCoordinates,Original*%
%TF.FileFunction,Legend,Top*%
%TF.FilePolarity,Positive*%
%FSLAX46Y46*%
G04 Gerber Fmt 4.6, Leading zero omitted, Abs format (unit mm)*
G04 Created by KiCad (PCBNEW 8.0.0) date 2024-03-05 11:34:16*
%MOMM*%
%LPD*%
G01*
G04 APERTURE LIST*
%ADD10C,0.150000*%
%ADD11C,0.120000*%
G04 APERTURE END LIST*
D10*
X139690476Y-27104819D02*
X139690476Y-27819104D01*
X139690476Y-27819104D02*
X139642857Y-27961961D01*
X139642857Y-27961961D02*
X139547619Y-28057200D01*
X139547619Y-28057200D02*
X139404762Y-28104819D01*
X139404762Y-28104819D02*
X139309524Y-28104819D01*
X140690476Y-28104819D02*
X140119048Y-28104819D01*
X140404762Y-28104819D02*
X140404762Y-27104819D01*
X140404762Y-27104819D02*
X140309524Y-27247676D01*
X140309524Y-27247676D02*
X140214286Y-27342914D01*
X140214286Y-27342914D02*
X140119048Y-27390533D01*
X141023810Y-27104819D02*
X141642857Y-27104819D01*
X141642857Y-27104819D02*
X141309524Y-27485771D01*
X141309524Y-27485771D02*
X141452381Y-27485771D01*
X141452381Y-27485771D02*
X141547619Y-27533390D01*
X141547619Y-27533390D02*
X141595238Y-27581009D01*
X141595238Y-27581009D02*
X141642857Y-27676247D01*
X141642857Y-27676247D02*
X141642857Y-27914342D01*
X141642857Y-27914342D02*
X141595238Y-28009580D01*
X141595238Y-28009580D02*
X141547619Y-28057200D01*
X141547619Y-28057200D02*
X141452381Y-28104819D01*
X141452381Y-28104819D02*
X141166667Y-28104819D01*
X141166667Y-28104819D02*
X141071429Y-28057200D01*
X141071429Y-28057200D02*
X141023810Y-28009580D01*
X145428571Y-43264700D02*
X146571429Y-43264700D01*
X146000000Y-43836128D02*
X146000000Y-42693271D01*
X134428571Y-43264700D02*
X135571429Y-43264700D01*
X115690476Y-26604819D02*
X115690476Y-27319104D01*
X115690476Y-27319104D02*
X115642857Y-27461961D01*
X115642857Y-27461961D02*
X115547619Y-27557200D01*
X115547619Y-27557200D02*
X115404762Y-27604819D01*
X115404762Y-27604819D02*
X115309524Y-27604819D01*
X116690476Y-27604819D02*
X116119048Y-27604819D01*
X116404762Y-27604819D02*
X116404762Y-26604819D01*
X116404762Y-26604819D02*
X116309524Y-26747676D01*
X116309524Y-26747676D02*
X116214286Y-26842914D01*
X116214286Y-26842914D02*
X116119048Y-26890533D01*
X117071429Y-26700057D02*
X117119048Y-26652438D01*
X117119048Y-26652438D02*
X117214286Y-26604819D01*
X117214286Y-26604819D02*
X117452381Y-26604819D01*
X117452381Y-26604819D02*
X117547619Y-26652438D01*
X117547619Y-26652438D02*
X117595238Y-26700057D01*
X117595238Y-26700057D02*
X117642857Y-26795295D01*
X117642857Y-26795295D02*
X117642857Y-26890533D01*
X117642857Y-26890533D02*
X117595238Y-27033390D01*
X117595238Y-27033390D02*
X117023810Y-27604819D01*
X117023810Y-27604819D02*
X117642857Y-27604819D01*
X121428571Y-42764700D02*
X122571429Y-42764700D01*
X122000000Y-43336128D02*
X122000000Y-42193271D01*
X110428571Y-42764700D02*
X111571429Y-42764700D01*
X91140476Y-109304819D02*
X91140476Y-110019104D01*
X91140476Y-110019104D02*
X91092857Y-110161961D01*
X91092857Y-110161961D02*
X90997619Y-110257200D01*
X90997619Y-110257200D02*
X90854762Y-110304819D01*
X90854762Y-110304819D02*
X90759524Y-110304819D01*
X92140476Y-110304819D02*
X91569048Y-110304819D01*
X91854762Y-110304819D02*
X91854762Y-109304819D01*
X91854762Y-109304819D02*
X91759524Y-109447676D01*
X91759524Y-109447676D02*
X91664286Y-109542914D01*
X91664286Y-109542914D02*
X91569048Y-109590533D01*
X93092857Y-110304819D02*
X92521429Y-110304819D01*
X92807143Y-110304819D02*
X92807143Y-109304819D01*
X92807143Y-109304819D02*
X92711905Y-109447676D01*
X92711905Y-109447676D02*
X92616667Y-109542914D01*
X92616667Y-109542914D02*
X92521429Y-109590533D01*
X85878571Y-94464700D02*
X87021429Y-94464700D01*
X86450000Y-95036128D02*
X86450000Y-93893271D01*
X96878571Y-94464700D02*
X98021429Y-94464700D01*
X106490476Y-109304819D02*
X106490476Y-110019104D01*
X106490476Y-110019104D02*
X106442857Y-110161961D01*
X106442857Y-110161961D02*
X106347619Y-110257200D01*
X106347619Y-110257200D02*
X106204762Y-110304819D01*
X106204762Y-110304819D02*
X106109524Y-110304819D01*
X107490476Y-110304819D02*
X106919048Y-110304819D01*
X107204762Y-110304819D02*
X107204762Y-109304819D01*
X107204762Y-109304819D02*
X107109524Y-109447676D01*
X107109524Y-109447676D02*
X107014286Y-109542914D01*
X107014286Y-109542914D02*
X106919048Y-109590533D01*
X108109524Y-109304819D02*
X108204762Y-109304819D01*
X108204762Y-109304819D02*
X108300000Y-109352438D01*
X108300000Y-109352438D02*
X108347619Y-109400057D01*
X108347619Y-109400057D02*
X108395238Y-109495295D01*
X108395238Y-109495295D02*
X108442857Y-109685771D01*
X108442857Y-109685771D02*
X108442857Y-109923866D01*
X108442857Y-109923866D02*
X108395238Y-110114342D01*
X108395238Y-110114342D02*
X108347619Y-110209580D01*
X108347619Y-110209580D02*
X108300000Y-110257200D01*
X108300000Y-110257200D02*
X108204762Y-110304819D01*
X108204762Y-110304819D02*
X108109524Y-110304819D01*
X108109524Y-110304819D02*
X108014286Y-110257200D01*
X108014286Y-110257200D02*
X107966667Y-110209580D01*
X107966667Y-110209580D02*
X107919048Y-110114342D01*
X107919048Y-110114342D02*
X107871429Y-109923866D01*
X107871429Y-109923866D02*
X107871429Y-109685771D01*
X107871429Y-109685771D02*
X107919048Y-109495295D01*
X107919048Y-109495295D02*
X107966667Y-109400057D01*
X107966667Y-109400057D02*
X108014286Y-109352438D01*
X108014286Y-109352438D02*
X108109524Y-109304819D01*
X112228571Y-94464700D02*
X113371429Y-94464700D01*
X101228571Y-94464700D02*
X102371429Y-94464700D01*
X101800000Y-95036128D02*
X101800000Y-93893271D01*
X122316666Y-109304819D02*
X122316666Y-110019104D01*
X122316666Y-110019104D02*
X122269047Y-110161961D01*
X122269047Y-110161961D02*
X122173809Y-110257200D01*
X122173809Y-110257200D02*
X122030952Y-110304819D01*
X122030952Y-110304819D02*
X121935714Y-110304819D01*
X122840476Y-110304819D02*
X123030952Y-110304819D01*
X123030952Y-110304819D02*
X123126190Y-110257200D01*
X123126190Y-110257200D02*
X123173809Y-110209580D01*
X123173809Y-110209580D02*
X123269047Y-110066723D01*
X123269047Y-110066723D02*
X123316666Y-109876247D01*
X123316666Y-109876247D02*
X123316666Y-109495295D01*
X123316666Y-109495295D02*
X123269047Y-109400057D01*
X123269047Y-109400057D02*
X123221428Y-109352438D01*
X123221428Y-109352438D02*
X123126190Y-109304819D01*
X123126190Y-109304819D02*
X122935714Y-109304819D01*
X122935714Y-109304819D02*
X122840476Y-109352438D01*
X122840476Y-109352438D02*
X122792857Y-109400057D01*
X122792857Y-109400057D02*
X122745238Y-109495295D01*
X122745238Y-109495295D02*
X122745238Y-109733390D01*
X122745238Y-109733390D02*
X122792857Y-109828628D01*
X122792857Y-109828628D02*
X122840476Y-109876247D01*
X122840476Y-109876247D02*
X122935714Y-109923866D01*
X122935714Y-109923866D02*
X123126190Y-109923866D01*
X123126190Y-109923866D02*
X123221428Y-109876247D01*
X123221428Y-109876247D02*
X123269047Y-109828628D01*
X123269047Y-109828628D02*
X123316666Y-109733390D01*
X127578571Y-94464700D02*
X128721429Y-94464700D01*
X116578571Y-94464700D02*
X117721429Y-94464700D01*
X117150000Y-95036128D02*
X117150000Y-93893271D01*
X140166666Y-109304819D02*
X140166666Y-110019104D01*
X140166666Y-110019104D02*
X140119047Y-110161961D01*
X140119047Y-110161961D02*
X140023809Y-110257200D01*
X140023809Y-110257200D02*
X139880952Y-110304819D01*
X139880952Y-110304819D02*
X139785714Y-110304819D01*
X140785714Y-109733390D02*
X140690476Y-109685771D01*
X140690476Y-109685771D02*
X140642857Y-109638152D01*
X140642857Y-109638152D02*
X140595238Y-109542914D01*
X140595238Y-109542914D02*
X140595238Y-109495295D01*
X140595238Y-109495295D02*
X140642857Y-109400057D01*
X140642857Y-109400057D02*
X140690476Y-109352438D01*
X140690476Y-109352438D02*
X140785714Y-109304819D01*
X140785714Y-109304819D02*
X140976190Y-109304819D01*
X140976190Y-109304819D02*
X141071428Y-109352438D01*
X141071428Y-109352438D02*
X141119047Y-109400057D01*
X141119047Y-109400057D02*
X141166666Y-109495295D01*
X141166666Y-109495295D02*
X141166666Y-109542914D01*
X141166666Y-109542914D02*
X141119047Y-109638152D01*
X141119047Y-109638152D02*
X141071428Y-109685771D01*
X141071428Y-109685771D02*
X140976190Y-109733390D01*
X140976190Y-109733390D02*
X140785714Y-109733390D01*
X140785714Y-109733390D02*
X140690476Y-109781009D01*
X140690476Y-109781009D02*
X140642857Y-109828628D01*
X140642857Y-109828628D02*
X140595238Y-109923866D01*
X140595238Y-109923866D02*
X140595238Y-110114342D01*
X140595238Y-110114342D02*
X140642857Y-110209580D01*
X140642857Y-110209580D02*
X140690476Y-110257200D01*
X140690476Y-110257200D02*
X140785714Y-110304819D01*
X140785714Y-110304819D02*
X140976190Y-110304819D01*
X140976190Y-110304819D02*
X141071428Y-110257200D01*
X141071428Y-110257200D02*
X141119047Y-110209580D01*
X141119047Y-110209580D02*
X141166666Y-110114342D01*
X141166666Y-110114342D02*
X141166666Y-109923866D01*
X141166666Y-109923866D02*
X141119047Y-109828628D01*
X141119047Y-109828628D02*
X141071428Y-109781009D01*
X141071428Y-109781009D02*
X140976190Y-109733390D01*
X145428571Y-94464700D02*
X146571429Y-94464700D01*
X134428571Y-94464700D02*
X135571429Y-94464700D01*
X135000000Y-95036128D02*
X135000000Y-93893271D01*
X81604819Y-38833333D02*
X82319104Y-38833333D01*
X82319104Y-38833333D02*
X82461961Y-38880952D01*
X82461961Y-38880952D02*
X82557200Y-38976190D01*
X82557200Y-38976190D02*
X82604819Y-39119047D01*
X82604819Y-39119047D02*
X82604819Y-39214285D01*
X81604819Y-38452380D02*
X81604819Y-37785714D01*
X81604819Y-37785714D02*
X82604819Y-38214285D01*
X97764700Y-33571428D02*
X97764700Y-32428571D01*
X98336128Y-32999999D02*
X97193271Y-32999999D01*
X97764700Y-44571428D02*
X97764700Y-43428571D01*
X127303919Y-81143333D02*
X128018204Y-81143333D01*
X128018204Y-81143333D02*
X128161061Y-81190952D01*
X128161061Y-81190952D02*
X128256300Y-81286190D01*
X128256300Y-81286190D02*
X128303919Y-81429047D01*
X128303919Y-81429047D02*
X128303919Y-81524285D01*
X127637252Y-80238571D02*
X128303919Y-80238571D01*
X127256300Y-80476666D02*
X127970585Y-80714761D01*
X127970585Y-80714761D02*
X127970585Y-80095714D01*
X137701419Y-81143333D02*
X138415704Y-81143333D01*
X138415704Y-81143333D02*
X138558561Y-81190952D01*
X138558561Y-81190952D02*
X138653800Y-81286190D01*
X138653800Y-81286190D02*
X138701419Y-81429047D01*
X138701419Y-81429047D02*
X138701419Y-81524285D01*
X137701419Y-80238571D02*
X137701419Y-80429047D01*
X137701419Y-80429047D02*
X137749038Y-80524285D01*
X137749038Y-80524285D02*
X137796657Y-80571904D01*
X137796657Y-80571904D02*
X137939514Y-80667142D01*
X137939514Y-80667142D02*
X138129990Y-80714761D01*
X138129990Y-80714761D02*
X138510942Y-80714761D01*
X138510942Y-80714761D02*
X138606180Y-80667142D01*
X138606180Y-80667142D02*
X138653800Y-80619523D01*
X138653800Y-80619523D02*
X138701419Y-80524285D01*
X138701419Y-80524285D02*
X138701419Y-80333809D01*
X138701419Y-80333809D02*
X138653800Y-80238571D01*
X138653800Y-80238571D02*
X138606180Y-80190952D01*
X138606180Y-80190952D02*
X138510942Y-80143333D01*
X138510942Y-80143333D02*
X138272847Y-80143333D01*
X138272847Y-80143333D02*
X138177609Y-80190952D01*
X138177609Y-80190952D02*
X138129990Y-80238571D01*
X138129990Y-80238571D02*
X138082371Y-80333809D01*
X138082371Y-80333809D02*
X138082371Y-80524285D01*
X138082371Y-80524285D02*
X138129990Y-80619523D01*
X138129990Y-80619523D02*
X138177609Y-80667142D01*
X138177609Y-80667142D02*
X138272847Y-80714761D01*
X137701419Y-54493333D02*
X138415704Y-54493333D01*
X138415704Y-54493333D02*
X138558561Y-54540952D01*
X138558561Y-54540952D02*
X138653800Y-54636190D01*
X138653800Y-54636190D02*
X138701419Y-54779047D01*
X138701419Y-54779047D02*
X138701419Y-54874285D01*
X137701419Y-53540952D02*
X137701419Y-54017142D01*
X137701419Y-54017142D02*
X138177609Y-54064761D01*
X138177609Y-54064761D02*
X138129990Y-54017142D01*
X138129990Y-54017142D02*
X138082371Y-53921904D01*
X138082371Y-53921904D02*
X138082371Y-53683809D01*
X138082371Y-53683809D02*
X138129990Y-53588571D01*
X138129990Y-53588571D02*
X138177609Y-53540952D01*
X138177609Y-53540952D02*
X138272847Y-53493333D01*
X138272847Y-53493333D02*
X138510942Y-53493333D01*
X138510942Y-53493333D02*
X138606180Y-53540952D01*
X138606180Y-53540952D02*
X138653800Y-53588571D01*
X138653800Y-53588571D02*
X138701419Y-53683809D01*
X138701419Y-53683809D02*
X138701419Y-53921904D01*
X138701419Y-53921904D02*
X138653800Y-54017142D01*
X138653800Y-54017142D02*
X138606180Y-54064761D01*
X127303919Y-54493333D02*
X128018204Y-54493333D01*
X128018204Y-54493333D02*
X128161061Y-54540952D01*
X128161061Y-54540952D02*
X128256300Y-54636190D01*
X128256300Y-54636190D02*
X128303919Y-54779047D01*
X128303919Y-54779047D02*
X128303919Y-54874285D01*
X127303919Y-54112380D02*
X127303919Y-53493333D01*
X127303919Y-53493333D02*
X127684871Y-53826666D01*
X127684871Y-53826666D02*
X127684871Y-53683809D01*
X127684871Y-53683809D02*
X127732490Y-53588571D01*
X127732490Y-53588571D02*
X127780109Y-53540952D01*
X127780109Y-53540952D02*
X127875347Y-53493333D01*
X127875347Y-53493333D02*
X128113442Y-53493333D01*
X128113442Y-53493333D02*
X128208680Y-53540952D01*
X128208680Y-53540952D02*
X128256300Y-53588571D01*
X128256300Y-53588571D02*
X128303919Y-53683809D01*
X128303919Y-53683809D02*
X128303919Y-53969523D01*
X128303919Y-53969523D02*
X128256300Y-54064761D01*
X128256300Y-54064761D02*
X128208680Y-54112380D01*
X116906419Y-81143333D02*
X117620704Y-81143333D01*
X117620704Y-81143333D02*
X117763561Y-81190952D01*
X117763561Y-81190952D02*
X117858800Y-81286190D01*
X117858800Y-81286190D02*
X117906419Y-81429047D01*
X117906419Y-81429047D02*
X117906419Y-81524285D01*
X117001657Y-80714761D02*
X116954038Y-80667142D01*
X116954038Y-80667142D02*
X116906419Y-80571904D01*
X116906419Y-80571904D02*
X116906419Y-80333809D01*
X116906419Y-80333809D02*
X116954038Y-80238571D01*
X116954038Y-80238571D02*
X117001657Y-80190952D01*
X117001657Y-80190952D02*
X117096895Y-80143333D01*
X117096895Y-80143333D02*
X117192133Y-80143333D01*
X117192133Y-80143333D02*
X117334990Y-80190952D01*
X117334990Y-80190952D02*
X117906419Y-80762380D01*
X117906419Y-80762380D02*
X117906419Y-80143333D01*
X145167200Y-78598332D02*
X145214819Y-78455475D01*
X145214819Y-78455475D02*
X145214819Y-78217380D01*
X145214819Y-78217380D02*
X145167200Y-78122142D01*
X145167200Y-78122142D02*
X145119580Y-78074523D01*
X145119580Y-78074523D02*
X145024342Y-78026904D01*
X145024342Y-78026904D02*
X144929104Y-78026904D01*
X144929104Y-78026904D02*
X144833866Y-78074523D01*
X144833866Y-78074523D02*
X144786247Y-78122142D01*
X144786247Y-78122142D02*
X144738628Y-78217380D01*
X144738628Y-78217380D02*
X144691009Y-78407856D01*
X144691009Y-78407856D02*
X144643390Y-78503094D01*
X144643390Y-78503094D02*
X144595771Y-78550713D01*
X144595771Y-78550713D02*
X144500533Y-78598332D01*
X144500533Y-78598332D02*
X144405295Y-78598332D01*
X144405295Y-78598332D02*
X144310057Y-78550713D01*
X144310057Y-78550713D02*
X144262438Y-78503094D01*
X144262438Y-78503094D02*
X144214819Y-78407856D01*
X144214819Y-78407856D02*
X144214819Y-78169761D01*
X144214819Y-78169761D02*
X144262438Y-78026904D01*
X144214819Y-77693570D02*
X145214819Y-77455475D01*
X145214819Y-77455475D02*
X144500533Y-77264999D01*
X144500533Y-77264999D02*
X145214819Y-77074523D01*
X145214819Y-77074523D02*
X144214819Y-76836428D01*
X145214819Y-75931666D02*
X145214819Y-76503094D01*
X145214819Y-76217380D02*
X144214819Y-76217380D01*
X144214819Y-76217380D02*
X144357676Y-76312618D01*
X144357676Y-76312618D02*
X144452914Y-76407856D01*
X144452914Y-76407856D02*
X144500533Y-76503094D01*
X139584819Y-78746666D02*
X139108628Y-79079999D01*
X139584819Y-79318094D02*
X138584819Y-79318094D01*
X138584819Y-79318094D02*
X138584819Y-78937142D01*
X138584819Y-78937142D02*
X138632438Y-78841904D01*
X138632438Y-78841904D02*
X138680057Y-78794285D01*
X138680057Y-78794285D02*
X138775295Y-78746666D01*
X138775295Y-78746666D02*
X138918152Y-78746666D01*
X138918152Y-78746666D02*
X139013390Y-78794285D01*
X139013390Y-78794285D02*
X139061009Y-78841904D01*
X139061009Y-78841904D02*
X139108628Y-78937142D01*
X139108628Y-78937142D02*
X139108628Y-79318094D01*
X138680057Y-78365713D02*
X138632438Y-78318094D01*
X138632438Y-78318094D02*
X138584819Y-78222856D01*
X138584819Y-78222856D02*
X138584819Y-77984761D01*
X138584819Y-77984761D02*
X138632438Y-77889523D01*
X138632438Y-77889523D02*
X138680057Y-77841904D01*
X138680057Y-77841904D02*
X138775295Y-77794285D01*
X138775295Y-77794285D02*
X138870533Y-77794285D01*
X138870533Y-77794285D02*
X139013390Y-77841904D01*
X139013390Y-77841904D02*
X139584819Y-78413332D01*
X139584819Y-78413332D02*
X139584819Y-77794285D01*
X109710150Y-68309523D02*
X110710150Y-67642857D01*
X109710150Y-67642857D02*
X110710150Y-68309523D01*
X109805388Y-67309523D02*
X109757769Y-67261904D01*
X109757769Y-67261904D02*
X109710150Y-67166666D01*
X109710150Y-67166666D02*
X109710150Y-66928571D01*
X109710150Y-66928571D02*
X109757769Y-66833333D01*
X109757769Y-66833333D02*
X109805388Y-66785714D01*
X109805388Y-66785714D02*
X109900626Y-66738095D01*
X109900626Y-66738095D02*
X109995864Y-66738095D01*
X109995864Y-66738095D02*
X110138721Y-66785714D01*
X110138721Y-66785714D02*
X110710150Y-67357142D01*
X110710150Y-67357142D02*
X110710150Y-66738095D01*
X145167200Y-59258332D02*
X145214819Y-59115475D01*
X145214819Y-59115475D02*
X145214819Y-58877380D01*
X145214819Y-58877380D02*
X145167200Y-58782142D01*
X145167200Y-58782142D02*
X145119580Y-58734523D01*
X145119580Y-58734523D02*
X145024342Y-58686904D01*
X145024342Y-58686904D02*
X144929104Y-58686904D01*
X144929104Y-58686904D02*
X144833866Y-58734523D01*
X144833866Y-58734523D02*
X144786247Y-58782142D01*
X144786247Y-58782142D02*
X144738628Y-58877380D01*
X144738628Y-58877380D02*
X144691009Y-59067856D01*
X144691009Y-59067856D02*
X144643390Y-59163094D01*
X144643390Y-59163094D02*
X144595771Y-59210713D01*
X144595771Y-59210713D02*
X144500533Y-59258332D01*
X144500533Y-59258332D02*
X144405295Y-59258332D01*
X144405295Y-59258332D02*
X144310057Y-59210713D01*
X144310057Y-59210713D02*
X144262438Y-59163094D01*
X144262438Y-59163094D02*
X144214819Y-59067856D01*
X144214819Y-59067856D02*
X144214819Y-58829761D01*
X144214819Y-58829761D02*
X144262438Y-58686904D01*
X144214819Y-58353570D02*
X145214819Y-58115475D01*
X145214819Y-58115475D02*
X144500533Y-57924999D01*
X144500533Y-57924999D02*
X145214819Y-57734523D01*
X145214819Y-57734523D02*
X144214819Y-57496428D01*
X144310057Y-57163094D02*
X144262438Y-57115475D01*
X144262438Y-57115475D02*
X144214819Y-57020237D01*
X144214819Y-57020237D02*
X144214819Y-56782142D01*
X144214819Y-56782142D02*
X144262438Y-56686904D01*
X144262438Y-56686904D02*
X144310057Y-56639285D01*
X144310057Y-56639285D02*
X144405295Y-56591666D01*
X144405295Y-56591666D02*
X144500533Y-56591666D01*
X144500533Y-56591666D02*
X144643390Y-56639285D01*
X144643390Y-56639285D02*
X145214819Y-57210713D01*
X145214819Y-57210713D02*
X145214819Y-56591666D01*
X116906419Y-54493333D02*
X117620704Y-54493333D01*
X117620704Y-54493333D02*
X117763561Y-54540952D01*
X117763561Y-54540952D02*
X117858800Y-54636190D01*
X117858800Y-54636190D02*
X117906419Y-54779047D01*
X117906419Y-54779047D02*
X117906419Y-54874285D01*
X117906419Y-53493333D02*
X117906419Y-54064761D01*
X117906419Y-53779047D02*
X116906419Y-53779047D01*
X116906419Y-53779047D02*
X117049276Y-53874285D01*
X117049276Y-53874285D02*
X117144514Y-53969523D01*
X117144514Y-53969523D02*
X117192133Y-54064761D01*
D11*
%TO.C,J13*%
X134740000Y-37040000D02*
X135440000Y-37040000D01*
X134740000Y-39260000D02*
X146260000Y-39260000D01*
X135440000Y-34990000D02*
X135440000Y-37040000D01*
X135440000Y-34990000D02*
X135970000Y-34990000D01*
X135970000Y-28990000D02*
X135970000Y-34990000D01*
X135970000Y-28990000D02*
X145000000Y-28990000D01*
X145030000Y-28990000D02*
X145030000Y-34990000D01*
X145030000Y-34990000D02*
X145560000Y-34990000D01*
X145560000Y-34990000D02*
X145560000Y-37040000D01*
X145560000Y-37040000D02*
X146260000Y-37040000D01*
X134678271Y-39246634D02*
G75*
G02*
X134850000Y-37040001I171730J1096634D01*
G01*
X146150000Y-37040000D02*
G75*
G02*
X146150000Y-39260000I0J-1110000D01*
G01*
%TO.C,J12*%
X110740000Y-36540000D02*
X111440000Y-36540000D01*
X110740000Y-38760000D02*
X122260000Y-38760000D01*
X111440000Y-34490000D02*
X111440000Y-36540000D01*
X111440000Y-34490000D02*
X111970000Y-34490000D01*
X111970000Y-28490000D02*
X111970000Y-34490000D01*
X111970000Y-28490000D02*
X121000000Y-28490000D01*
X121030000Y-28490000D02*
X121030000Y-34490000D01*
X121030000Y-34490000D02*
X121560000Y-34490000D01*
X121560000Y-34490000D02*
X121560000Y-36540000D01*
X121560000Y-36540000D02*
X122260000Y-36540000D01*
X110678271Y-38746634D02*
G75*
G02*
X110850000Y-36540001I171730J1096634D01*
G01*
X122150000Y-36540000D02*
G75*
G02*
X122150000Y-38760000I0J-1110000D01*
G01*
%TO.C,J11*%
X97710000Y-100460000D02*
X97010000Y-100460000D01*
X97710000Y-98240000D02*
X86190000Y-98240000D01*
X97010000Y-102510000D02*
X97010000Y-100460000D01*
X97010000Y-102510000D02*
X96480000Y-102510000D01*
X96480000Y-108510000D02*
X96480000Y-102510000D01*
X96480000Y-108510000D02*
X87450000Y-108510000D01*
X87420000Y-108510000D02*
X87420000Y-102510000D01*
X87420000Y-102510000D02*
X86890000Y-102510000D01*
X86890000Y-102510000D02*
X86890000Y-100460000D01*
X86890000Y-100460000D02*
X86190000Y-100460000D01*
X97771729Y-98253366D02*
G75*
G02*
X97600000Y-100459999I-171730J-1096634D01*
G01*
X86300000Y-100460000D02*
G75*
G02*
X86300000Y-98240000I0J1110000D01*
G01*
%TO.C,J10*%
X101650000Y-100460000D02*
G75*
G02*
X101650000Y-98240000I0J1110000D01*
G01*
X113121729Y-98253366D02*
G75*
G02*
X112950000Y-100459999I-171730J-1096634D01*
G01*
X102240000Y-100460000D02*
X101540000Y-100460000D01*
X102240000Y-102510000D02*
X102240000Y-100460000D01*
X102770000Y-102510000D02*
X102240000Y-102510000D01*
X102770000Y-108510000D02*
X102770000Y-102510000D01*
X111830000Y-108510000D02*
X102800000Y-108510000D01*
X111830000Y-108510000D02*
X111830000Y-102510000D01*
X112360000Y-102510000D02*
X111830000Y-102510000D01*
X112360000Y-102510000D02*
X112360000Y-100460000D01*
X113060000Y-98240000D02*
X101540000Y-98240000D01*
X113060000Y-100460000D02*
X112360000Y-100460000D01*
%TO.C,J9*%
X117000000Y-100460000D02*
G75*
G02*
X117000000Y-98240000I0J1110000D01*
G01*
X128471729Y-98253366D02*
G75*
G02*
X128300000Y-100459999I-171730J-1096634D01*
G01*
X117590000Y-100460000D02*
X116890000Y-100460000D01*
X117590000Y-102510000D02*
X117590000Y-100460000D01*
X118120000Y-102510000D02*
X117590000Y-102510000D01*
X118120000Y-108510000D02*
X118120000Y-102510000D01*
X127180000Y-108510000D02*
X118150000Y-108510000D01*
X127180000Y-108510000D02*
X127180000Y-102510000D01*
X127710000Y-102510000D02*
X127180000Y-102510000D01*
X127710000Y-102510000D02*
X127710000Y-100460000D01*
X128410000Y-98240000D02*
X116890000Y-98240000D01*
X128410000Y-100460000D02*
X127710000Y-100460000D01*
%TO.C,J8*%
X134850000Y-100460000D02*
G75*
G02*
X134850000Y-98240000I0J1110000D01*
G01*
X146321729Y-98253366D02*
G75*
G02*
X146150000Y-100459999I-171730J-1096634D01*
G01*
X135440000Y-100460000D02*
X134740000Y-100460000D01*
X135440000Y-102510000D02*
X135440000Y-100460000D01*
X135970000Y-102510000D02*
X135440000Y-102510000D01*
X135970000Y-108510000D02*
X135970000Y-102510000D01*
X145030000Y-108510000D02*
X136000000Y-108510000D01*
X145030000Y-108510000D02*
X145030000Y-102510000D01*
X145560000Y-102510000D02*
X145030000Y-102510000D01*
X145560000Y-102510000D02*
X145560000Y-100460000D01*
X146260000Y-98240000D02*
X134740000Y-98240000D01*
X146260000Y-100460000D02*
X145560000Y-100460000D01*
%TO.C,J7*%
X91540000Y-44260000D02*
X91540000Y-43560000D01*
X93760000Y-44260000D02*
X93760000Y-32740000D01*
X89490000Y-43560000D02*
X91540000Y-43560000D01*
X89490000Y-43560000D02*
X89490000Y-43030000D01*
X83490000Y-43030000D02*
X89490000Y-43030000D01*
X83490000Y-43030000D02*
X83490000Y-34000000D01*
X83490000Y-33970000D02*
X89490000Y-33970000D01*
X89490000Y-33970000D02*
X89490000Y-33440000D01*
X89490000Y-33440000D02*
X91540000Y-33440000D01*
X91540000Y-33440000D02*
X91540000Y-32740000D01*
X93746634Y-44321729D02*
G75*
G02*
X91540001Y-44150000I-1096634J171730D01*
G01*
X91540000Y-32850000D02*
G75*
G02*
X93760000Y-32850000I1110000J0D01*
G01*
%TO.C,J4*%
X123049100Y-78290000D02*
X124049100Y-78290000D01*
X123049100Y-78290000D02*
X123049100Y-79290000D01*
X126759100Y-78580000D02*
X123339100Y-78580000D01*
X123339100Y-78580000D02*
X123339100Y-83050000D01*
X125399100Y-78890000D02*
X125399100Y-79090000D01*
X124599100Y-78890000D02*
X125399100Y-78890000D01*
X126249100Y-79090000D02*
X126249100Y-80815000D01*
X125399100Y-79090000D02*
X126249100Y-79090000D01*
X124599100Y-79090000D02*
X124599100Y-78890000D01*
X123849100Y-79090000D02*
X124599100Y-79090000D01*
X123849100Y-80815000D02*
X123849100Y-79090000D01*
X123849100Y-80815000D02*
X123849100Y-82540000D01*
X126249100Y-82540000D02*
X126249100Y-80815000D01*
X125399100Y-82540000D02*
X126249100Y-82540000D01*
X124599100Y-82540000D02*
X124599100Y-82740000D01*
X123849100Y-82540000D02*
X124599100Y-82540000D01*
X125399100Y-82740000D02*
X125399100Y-82540000D01*
X124599100Y-82740000D02*
X125399100Y-82740000D01*
X126759100Y-83050000D02*
X126759100Y-78580000D01*
X123339100Y-83050000D02*
X126759100Y-83050000D01*
%TO.C,J6*%
X133446600Y-78290000D02*
X134446600Y-78290000D01*
X133446600Y-78290000D02*
X133446600Y-79290000D01*
X137156600Y-78580000D02*
X133736600Y-78580000D01*
X133736600Y-78580000D02*
X133736600Y-83050000D01*
X135796600Y-78890000D02*
X135796600Y-79090000D01*
X134996600Y-78890000D02*
X135796600Y-78890000D01*
X136646600Y-79090000D02*
X136646600Y-80815000D01*
X135796600Y-79090000D02*
X136646600Y-79090000D01*
X134996600Y-79090000D02*
X134996600Y-78890000D01*
X134246600Y-79090000D02*
X134996600Y-79090000D01*
X134246600Y-80815000D02*
X134246600Y-79090000D01*
X134246600Y-80815000D02*
X134246600Y-82540000D01*
X136646600Y-82540000D02*
X136646600Y-80815000D01*
X135796600Y-82540000D02*
X136646600Y-82540000D01*
X134996600Y-82540000D02*
X134996600Y-82740000D01*
X134246600Y-82540000D02*
X134996600Y-82540000D01*
X135796600Y-82740000D02*
X135796600Y-82540000D01*
X134996600Y-82740000D02*
X135796600Y-82740000D01*
X137156600Y-83050000D02*
X137156600Y-78580000D01*
X133736600Y-83050000D02*
X137156600Y-83050000D01*
%TO.C,J5*%
X133736600Y-56400000D02*
X137156600Y-56400000D01*
X137156600Y-56400000D02*
X137156600Y-51930000D01*
X134996600Y-56090000D02*
X135796600Y-56090000D01*
X135796600Y-56090000D02*
X135796600Y-55890000D01*
X134246600Y-55890000D02*
X134996600Y-55890000D01*
X134996600Y-55890000D02*
X134996600Y-56090000D01*
X135796600Y-55890000D02*
X136646600Y-55890000D01*
X136646600Y-55890000D02*
X136646600Y-54165000D01*
X134246600Y-54165000D02*
X134246600Y-55890000D01*
X134246600Y-54165000D02*
X134246600Y-52440000D01*
X134246600Y-52440000D02*
X134996600Y-52440000D01*
X134996600Y-52440000D02*
X134996600Y-52240000D01*
X135796600Y-52440000D02*
X136646600Y-52440000D01*
X136646600Y-52440000D02*
X136646600Y-54165000D01*
X134996600Y-52240000D02*
X135796600Y-52240000D01*
X135796600Y-52240000D02*
X135796600Y-52440000D01*
X133736600Y-51930000D02*
X133736600Y-56400000D01*
X137156600Y-51930000D02*
X133736600Y-51930000D01*
X133446600Y-51640000D02*
X133446600Y-52640000D01*
X133446600Y-51640000D02*
X134446600Y-51640000D01*
%TO.C,J3*%
X123049100Y-51640000D02*
X124049100Y-51640000D01*
X123049100Y-51640000D02*
X123049100Y-52640000D01*
X126759100Y-51930000D02*
X123339100Y-51930000D01*
X123339100Y-51930000D02*
X123339100Y-56400000D01*
X125399100Y-52240000D02*
X125399100Y-52440000D01*
X124599100Y-52240000D02*
X125399100Y-52240000D01*
X126249100Y-52440000D02*
X126249100Y-54165000D01*
X125399100Y-52440000D02*
X126249100Y-52440000D01*
X124599100Y-52440000D02*
X124599100Y-52240000D01*
X123849100Y-52440000D02*
X124599100Y-52440000D01*
X123849100Y-54165000D02*
X123849100Y-52440000D01*
X123849100Y-54165000D02*
X123849100Y-55890000D01*
X126249100Y-55890000D02*
X126249100Y-54165000D01*
X125399100Y-55890000D02*
X126249100Y-55890000D01*
X124599100Y-55890000D02*
X124599100Y-56090000D01*
X123849100Y-55890000D02*
X124599100Y-55890000D01*
X125399100Y-56090000D02*
X125399100Y-55890000D01*
X124599100Y-56090000D02*
X125399100Y-56090000D01*
X126759100Y-56400000D02*
X126759100Y-51930000D01*
X123339100Y-56400000D02*
X126759100Y-56400000D01*
%TO.C,J2*%
X112651600Y-78290000D02*
X113651600Y-78290000D01*
X112651600Y-78290000D02*
X112651600Y-79290000D01*
X116361600Y-78580000D02*
X112941600Y-78580000D01*
X112941600Y-78580000D02*
X112941600Y-83050000D01*
X115001600Y-78890000D02*
X115001600Y-79090000D01*
X114201600Y-78890000D02*
X115001600Y-78890000D01*
X115851600Y-79090000D02*
X115851600Y-80815000D01*
X115001600Y-79090000D02*
X115851600Y-79090000D01*
X114201600Y-79090000D02*
X114201600Y-78890000D01*
X113451600Y-79090000D02*
X114201600Y-79090000D01*
X113451600Y-80815000D02*
X113451600Y-79090000D01*
X113451600Y-80815000D02*
X113451600Y-82540000D01*
X115851600Y-82540000D02*
X115851600Y-80815000D01*
X115001600Y-82540000D02*
X115851600Y-82540000D01*
X114201600Y-82540000D02*
X114201600Y-82740000D01*
X113451600Y-82540000D02*
X114201600Y-82540000D01*
X115001600Y-82740000D02*
X115001600Y-82540000D01*
X114201600Y-82740000D02*
X115001600Y-82740000D01*
X116361600Y-83050000D02*
X116361600Y-78580000D01*
X112941600Y-83050000D02*
X116361600Y-83050000D01*
%TO.C,SW1*%
X143870000Y-83615000D02*
X150730000Y-83615000D01*
X150730000Y-70915000D01*
X143870000Y-70915000D01*
X143870000Y-83615000D01*
%TO.C,R2*%
X142870000Y-75310000D02*
X142540000Y-75310000D01*
X140130000Y-75310000D02*
X140460000Y-75310000D01*
X142870000Y-81850000D02*
X142870000Y-75310000D01*
X142540000Y-81850000D02*
X142870000Y-81850000D01*
X140460000Y-81850000D02*
X140130000Y-81850000D01*
X140130000Y-81850000D02*
X140130000Y-75310000D01*
%TO.C,X2*%
X109315331Y-82985000D02*
X90115331Y-82985000D01*
X110209669Y-73290000D02*
X109776656Y-73040000D01*
X109776656Y-73040000D02*
X110209669Y-72790000D01*
X110209669Y-72790000D02*
X110209669Y-73290000D01*
X90115331Y-52015000D02*
X109315331Y-52015000D01*
X109315331Y-52015000D02*
X109315331Y-82985000D01*
%TO.C,SW2*%
X143870000Y-64275000D02*
X150730000Y-64275000D01*
X150730000Y-51575000D01*
X143870000Y-51575000D01*
X143870000Y-64275000D01*
%TO.C,R1*%
X140601600Y-59670000D02*
X140601600Y-53130000D01*
X140931600Y-59670000D02*
X140601600Y-59670000D01*
X143011600Y-59670000D02*
X143341600Y-59670000D01*
X143341600Y-59670000D02*
X143341600Y-53130000D01*
X140601600Y-53130000D02*
X140931600Y-53130000D01*
X143341600Y-53130000D02*
X143011600Y-53130000D01*
%TO.C,J1*%
X112941600Y-56400000D02*
X116361600Y-56400000D01*
X116361600Y-56400000D02*
X116361600Y-51930000D01*
X114201600Y-56090000D02*
X115001600Y-56090000D01*
X115001600Y-56090000D02*
X115001600Y-55890000D01*
X113451600Y-55890000D02*
X114201600Y-55890000D01*
X114201600Y-55890000D02*
X114201600Y-56090000D01*
X115001600Y-55890000D02*
X115851600Y-55890000D01*
X115851600Y-55890000D02*
X115851600Y-54165000D01*
X113451600Y-54165000D02*
X113451600Y-55890000D01*
X113451600Y-54165000D02*
X113451600Y-52440000D01*
X113451600Y-52440000D02*
X114201600Y-52440000D01*
X114201600Y-52440000D02*
X114201600Y-52240000D01*
X115001600Y-52440000D02*
X115851600Y-52440000D01*
X115851600Y-52440000D02*
X115851600Y-54165000D01*
X114201600Y-52240000D02*
X115001600Y-52240000D01*
X115001600Y-52240000D02*
X115001600Y-52440000D01*
X112941600Y-51930000D02*
X112941600Y-56400000D01*
X116361600Y-51930000D02*
X112941600Y-51930000D01*
X112651600Y-51640000D02*
X112651600Y-52640000D01*
X112651600Y-51640000D02*
X113651600Y-51640000D01*
%TD*%
M02*
