M48
; DRILL file {KiCad 8.0.0} date 2024-03-05T11:34:40-0500
; FORMAT={-:-/ absolute / inch / decimal}
; #@! TF.CreationDate,2024-03-05T11:34:40-05:00
; #@! TF.GenerationSoftware,Kicad,Pcbnew,8.0.0
; #@! TF.FileFunction,Plated,1,2,PTH
FMAT,2
INCH
; #@! TA.AperFunction,Plated,PTH,ViaDrill
T1C0.0157
; #@! TA.AperFunction,Plated,PTH,ComponentDrill
T2C0.0197
; #@! TA.AperFunction,Plated,PTH,ComponentDrill
T3C0.0315
; #@! TA.AperFunction,Plated,PTH,ComponentDrill
T4C0.0394
; #@! TA.AperFunction,Plated,PTH,ComponentDrill
T5C0.0748
; #@! TA.AperFunction,Plated,PTH,ComponentDrill
T6C0.1260
%
G90
G05
T1
X4.4055Y-2.7181
X4.4055Y-2.8126
X4.4094Y-2.6787
X4.4449Y-2.7772
X4.6535Y-2.7181
X4.689Y-2.8244
X4.7047Y-2.6906
X4.7047Y-2.7732
X5.0354Y-2.7181
X5.0787Y-2.8323
T2
X4.4961Y-2.1079
X4.4961Y-2.1571
X4.4961Y-3.1571
X4.4961Y-3.2063
X4.9055Y-2.1079
X4.9055Y-2.1571
X4.9055Y-3.1571
X4.9055Y-3.2063
X5.3148Y-2.1079
X5.3148Y-2.1571
X5.3148Y-3.1571
X5.3148Y-3.2063
T3
X5.5709Y-2.9437
X5.5709Y-3.2437
X5.5894Y-2.0705
X5.5894Y-2.3705
T4
X3.4035Y-3.9114
X3.6476Y-1.2992
X3.6476Y-1.7323
X3.8366Y-3.9114
X4.0079Y-3.9114
X4.1187Y-2.4939
X4.1187Y-2.603
X4.1187Y-2.712
X4.1187Y-2.8211
X4.2305Y-2.4394
X4.2305Y-2.5484
X4.2305Y-2.6575
X4.2305Y-2.7665
X4.2305Y-2.8756
X4.3701Y-1.4823
X4.4409Y-3.9114
X4.6122Y-3.9114
X4.8031Y-1.4823
X5.0453Y-3.9114
X5.315Y-1.502
X5.315Y-3.9114
X5.748Y-1.502
X5.748Y-3.9114
T5
X3.5217Y-3.7146
X3.7185Y-3.7146
X3.8445Y-1.4173
X3.8445Y-1.6142
X4.126Y-3.7146
X4.3228Y-3.7146
X4.4882Y-1.6791
X4.685Y-1.6791
X4.7303Y-3.7146
X4.9272Y-3.7146
X5.4331Y-1.6988
X5.4331Y-3.7146
X5.6299Y-1.6988
X5.6299Y-3.7146
X5.7992Y-2.0955
X5.7992Y-2.2805
X5.7992Y-2.4656
X5.7992Y-2.8569
X5.7992Y-3.0419
X5.7992Y-3.227
T6
X4.1746Y-2.1654
X4.1746Y-3.1496
M30
