G04 #@! TF.GenerationSoftware,KiCad,Pcbnew,(5.1.2)-2*
G04 #@! TF.CreationDate,2022-11-28T14:44:13+09:00*
G04 #@! TF.ProjectId,Motor_MotherBoard,4d6f746f-725f-44d6-9f74-686572426f61,rev?*
G04 #@! TF.SameCoordinates,Original*
G04 #@! TF.FileFunction,Copper,L1,Top*
G04 #@! TF.FilePolarity,Positive*
%FSLAX46Y46*%
G04 Gerber Fmt 4.6, Leading zero omitted, Abs format (unit mm)*
G04 Created by KiCad (PCBNEW (5.1.2)-2) date 2022-11-28 14:44:14*
%MOMM*%
%LPD*%
G04 APERTURE LIST*
%ADD10C,1.750000*%
%ADD11R,1.750000X1.750000*%
%ADD12O,1.400000X1.400000*%
%ADD13C,1.400000*%
%ADD14C,1.600000*%
%ADD15R,1.600000X1.600000*%
%ADD16R,1.727200X1.727200*%
%ADD17O,1.727200X1.727200*%
%ADD18R,1.900000X1.900000*%
%ADD19C,1.900000*%
%ADD20C,1.700000*%
%ADD21C,0.600000*%
%ADD22C,0.250000*%
%ADD23C,1.000000*%
%ADD24C,0.254000*%
G04 APERTURE END LIST*
D10*
X44069000Y-75931400D03*
D11*
X44069000Y-73431400D03*
D12*
X154711400Y-89611200D03*
D13*
X147091400Y-89611200D03*
D14*
X44500000Y-45624000D03*
D15*
X41000000Y-45624000D03*
D14*
X109855000Y-91140400D03*
D15*
X109855000Y-94640400D03*
X65904000Y-45624000D03*
D14*
X69704000Y-45624000D03*
D15*
X137820400Y-94640400D03*
D14*
X137820400Y-91140400D03*
D16*
X52188000Y-26066000D03*
D17*
X52188000Y-23526000D03*
X54728000Y-26066000D03*
X54728000Y-23526000D03*
X57268000Y-26066000D03*
X57268000Y-23526000D03*
X81269000Y-23526000D03*
X81269000Y-26066000D03*
X78729000Y-23526000D03*
X78729000Y-26066000D03*
X76189000Y-23526000D03*
D16*
X76189000Y-26066000D03*
X103242000Y-26066000D03*
D17*
X103242000Y-23526000D03*
X105782000Y-26066000D03*
X105782000Y-23526000D03*
X108322000Y-26066000D03*
X108322000Y-23526000D03*
X136262000Y-23526000D03*
X136262000Y-26066000D03*
X133722000Y-23526000D03*
X133722000Y-26066000D03*
X131182000Y-23526000D03*
D16*
X131182000Y-26066000D03*
D11*
X44069000Y-92094000D03*
D10*
X44069000Y-94594000D03*
X44069000Y-97094000D03*
D11*
X44069000Y-59582000D03*
D10*
X44069000Y-62082000D03*
D18*
X152000000Y-84250000D03*
D19*
X152000000Y-81750000D03*
X152000000Y-79250000D03*
D20*
X56252000Y-38004000D03*
X53712000Y-38004000D03*
X56252000Y-40544000D03*
X53712000Y-40544000D03*
X56252000Y-43084000D03*
X53712000Y-43084000D03*
X56252000Y-45624000D03*
X53712000Y-45624000D03*
X56252000Y-48164000D03*
X53712000Y-48164000D03*
X56252000Y-50704000D03*
X53712000Y-50704000D03*
X56252000Y-53244000D03*
X53712000Y-53244000D03*
X56252000Y-55784000D03*
X53712000Y-55784000D03*
X56252000Y-58324000D03*
X53712000Y-58324000D03*
X56252000Y-60864000D03*
X53712000Y-60864000D03*
X56252000Y-63404000D03*
X53712000Y-63404000D03*
X56252000Y-65944000D03*
X53712000Y-65944000D03*
X56252000Y-68484000D03*
X53712000Y-68484000D03*
X56252000Y-71024000D03*
X53712000Y-71024000D03*
X56252000Y-73564000D03*
X53712000Y-73564000D03*
X56252000Y-76104000D03*
X53712000Y-76104000D03*
X56252000Y-78644000D03*
X53712000Y-78644000D03*
X56252000Y-81184000D03*
X53712000Y-81184000D03*
X56252000Y-83724000D03*
X53712000Y-83724000D03*
X56252000Y-86264000D03*
X53712000Y-86264000D03*
X56252000Y-88804000D03*
X53712000Y-88804000D03*
X56252000Y-91344000D03*
X53712000Y-91344000D03*
X56252000Y-93884000D03*
X53712000Y-93884000D03*
X56252000Y-96424000D03*
X53712000Y-96424000D03*
X56252000Y-98964000D03*
X53712000Y-98964000D03*
X77334000Y-98964000D03*
X79874000Y-98964000D03*
X77334000Y-96424000D03*
X79874000Y-96424000D03*
X77334000Y-93884000D03*
X79874000Y-93884000D03*
X77334000Y-91344000D03*
X79874000Y-91344000D03*
X77334000Y-88804000D03*
X79874000Y-88804000D03*
X77334000Y-86264000D03*
X79874000Y-86264000D03*
X77334000Y-83724000D03*
X79874000Y-83724000D03*
X77334000Y-81184000D03*
X79874000Y-81184000D03*
X77334000Y-78644000D03*
X79874000Y-78644000D03*
X77334000Y-76104000D03*
X79874000Y-76104000D03*
X77334000Y-73564000D03*
X79874000Y-73564000D03*
X77334000Y-71024000D03*
X79874000Y-71024000D03*
X77334000Y-68484000D03*
X79874000Y-68484000D03*
X77334000Y-65944000D03*
X79874000Y-65944000D03*
X77334000Y-63404000D03*
X79874000Y-63404000D03*
X77334000Y-60864000D03*
X79874000Y-60864000D03*
X77334000Y-58324000D03*
X79874000Y-58324000D03*
X77334000Y-55784000D03*
X79874000Y-55784000D03*
X77334000Y-53244000D03*
X79874000Y-53244000D03*
X77334000Y-50704000D03*
X79874000Y-50704000D03*
X77334000Y-48164000D03*
X79874000Y-48164000D03*
X77334000Y-45624000D03*
X79874000Y-45624000D03*
X77334000Y-43084000D03*
X79874000Y-43084000D03*
X77334000Y-40544000D03*
X79874000Y-40544000D03*
X77334000Y-38004000D03*
X79874000Y-38004000D03*
X142866000Y-43592000D03*
X142866000Y-81692000D03*
X140326000Y-43592000D03*
X140326000Y-81692000D03*
X137786000Y-43592000D03*
X137786000Y-81692000D03*
X135246000Y-43592000D03*
X135246000Y-81692000D03*
X132706000Y-43592000D03*
X132706000Y-81692000D03*
X130166000Y-43592000D03*
X130166000Y-81692000D03*
X127626000Y-43592000D03*
X127626000Y-81692000D03*
X125086000Y-43592000D03*
X125086000Y-81692000D03*
X97146000Y-81692000D03*
X97146000Y-43592000D03*
X99686000Y-81692000D03*
X99686000Y-43592000D03*
X102226000Y-81692000D03*
X102226000Y-43592000D03*
X104766000Y-81692000D03*
X104766000Y-43592000D03*
X107306000Y-81692000D03*
X107306000Y-43592000D03*
X109846000Y-81692000D03*
X109846000Y-43592000D03*
X112386000Y-81692000D03*
X112386000Y-43592000D03*
X114926000Y-81692000D03*
X114926000Y-43592000D03*
D21*
X103225600Y-32715200D03*
X103225600Y-37084000D03*
X106756200Y-37084000D03*
X106756200Y-32664400D03*
X134620000Y-37007800D03*
X134670800Y-32588200D03*
X80289400Y-28956000D03*
X86410800Y-37134800D03*
X86461600Y-32537400D03*
X86461600Y-42291000D03*
D13*
X85922600Y-45624000D03*
X60353979Y-47804098D03*
D22*
X55049919Y-48164000D02*
X53712000Y-48164000D01*
X56252000Y-48164000D02*
X55049919Y-48164000D01*
X78671919Y-48164000D02*
X77334000Y-48164000D01*
X79874000Y-48164000D02*
X78671919Y-48164000D01*
D23*
X69704000Y-45624000D02*
X77334000Y-45624000D01*
X137786000Y-91106000D02*
X137820400Y-91140400D01*
X109846000Y-91131400D02*
X109855000Y-91140400D01*
X53712000Y-45624000D02*
X56252000Y-45624000D01*
X46080002Y-62082000D02*
X48437800Y-59724202D01*
X44130000Y-62082000D02*
X46080002Y-62082000D01*
X52216800Y-45782800D02*
X52216800Y-45624000D01*
X48437800Y-49561800D02*
X52216800Y-45782800D01*
X48437800Y-59724202D02*
X48437800Y-49561800D01*
X44500000Y-45624000D02*
X52216800Y-45624000D01*
X52216800Y-45624000D02*
X53712000Y-45624000D01*
X109846000Y-81692000D02*
X109846000Y-81365200D01*
X81076081Y-50704000D02*
X79874000Y-50704000D01*
X86055200Y-45724881D02*
X81076081Y-50704000D01*
X86055200Y-45669200D02*
X86055200Y-45724881D01*
X79874000Y-45624000D02*
X85922600Y-45624000D01*
X86010000Y-45624000D02*
X86055200Y-45669200D01*
X85922600Y-45624000D02*
X86010000Y-45624000D01*
X44069000Y-62082000D02*
X46308600Y-62082000D01*
X46308600Y-62082000D02*
X48768000Y-64541400D01*
X45306436Y-75931400D02*
X44069000Y-75931400D01*
X46019002Y-75931400D02*
X45306436Y-75931400D01*
X48768000Y-73182402D02*
X46019002Y-75931400D01*
X48768000Y-64541400D02*
X48768000Y-73182402D01*
X60353979Y-45624000D02*
X56252000Y-45624000D01*
X60325591Y-47832490D02*
X60325591Y-47832486D01*
X57454081Y-50704000D02*
X60325591Y-47832490D01*
X56252000Y-50704000D02*
X57454081Y-50704000D01*
X60353979Y-47804098D02*
X60353979Y-47804098D01*
X60325591Y-47832486D02*
X60353979Y-47804098D01*
X60353979Y-47804098D02*
X60353979Y-45624000D01*
X109846000Y-87265400D02*
X109864000Y-87265400D01*
X109846000Y-87265400D02*
X109846000Y-91131400D01*
X109846000Y-81692000D02*
X109846000Y-87265400D01*
X109864000Y-87265400D02*
X111861600Y-85267800D01*
X135890000Y-85267800D02*
X137786000Y-87163800D01*
X111861600Y-85267800D02*
X135890000Y-85267800D01*
X137786000Y-81692000D02*
X137786000Y-87163800D01*
X137786000Y-87163800D02*
X137786000Y-91106000D01*
X77334000Y-45624000D02*
X79874000Y-45624000D01*
X53712000Y-40544000D02*
X56252000Y-40544000D01*
X57454081Y-40544000D02*
X56252000Y-40544000D01*
X58602001Y-39396080D02*
X57454081Y-40544000D01*
X58602001Y-33438131D02*
X58602001Y-39396080D01*
X52188000Y-27024130D02*
X58602001Y-33438131D01*
X52188000Y-26066000D02*
X52188000Y-27024130D01*
X56252000Y-38004000D02*
X53712000Y-38004000D01*
X50966686Y-23526000D02*
X52188000Y-23526000D01*
X50300798Y-23526000D02*
X50966686Y-23526000D01*
X49784000Y-24042798D02*
X50300798Y-23526000D01*
X49784000Y-35278081D02*
X49784000Y-24042798D01*
X52509919Y-38004000D02*
X49784000Y-35278081D01*
X53712000Y-38004000D02*
X52509919Y-38004000D01*
X54728000Y-23526000D02*
X54728000Y-22304686D01*
X63449200Y-23647400D02*
X63449200Y-52328881D01*
X55870287Y-21162399D02*
X60964199Y-21162399D01*
X57454081Y-58324000D02*
X56252000Y-58324000D01*
X63449200Y-52328881D02*
X57454081Y-58324000D01*
X60964199Y-21162399D02*
X63449200Y-23647400D01*
X54728000Y-22304686D02*
X55870287Y-21162399D01*
D22*
X57454081Y-60864000D02*
X56252000Y-60864000D01*
X52247800Y-55067200D02*
X52247800Y-58547000D01*
X52247800Y-58547000D02*
X53389799Y-59688999D01*
X52706001Y-54608999D02*
X52247800Y-55067200D01*
X53389799Y-59688999D02*
X54693997Y-59688999D01*
X55868998Y-60864000D02*
X56252000Y-60864000D01*
X54693997Y-59688999D02*
X55868998Y-60864000D01*
X57963801Y-54608999D02*
X52706001Y-54608999D01*
X61950600Y-50622200D02*
X57963801Y-54608999D01*
X61950600Y-28208600D02*
X61950600Y-50622200D01*
X57268000Y-23526000D02*
X61950600Y-28208600D01*
X78315997Y-59688999D02*
X79490998Y-60864000D01*
X74599800Y-57518800D02*
X76769999Y-59688999D01*
X79490998Y-60864000D02*
X79874000Y-60864000D01*
X74599800Y-55575200D02*
X74599800Y-57518800D01*
X76769999Y-59688999D02*
X78315997Y-59688999D01*
X75566001Y-54608999D02*
X74599800Y-55575200D01*
X86012802Y-48844200D02*
X80248003Y-54608999D01*
X80248003Y-54608999D02*
X75566001Y-54608999D01*
X88112600Y-46744402D02*
X86012802Y-48844200D01*
X81269000Y-23526000D02*
X88112600Y-30369600D01*
X88112600Y-30369600D02*
X88112600Y-46744402D01*
D23*
X86258400Y-53141681D02*
X86258400Y-53141681D01*
X86258400Y-53141681D02*
X86258400Y-53141681D01*
X81076081Y-58324000D02*
X79874000Y-58324000D01*
X78729000Y-23526000D02*
X78729000Y-22304686D01*
X85195799Y-21162399D02*
X90195400Y-26162000D01*
X79871287Y-21162399D02*
X85195799Y-21162399D01*
X90195400Y-26162000D02*
X90195400Y-49204681D01*
X78729000Y-22304686D02*
X79871287Y-21162399D01*
X90195400Y-49204681D02*
X81076081Y-58324000D01*
X76484001Y-37154001D02*
X77334000Y-38004000D01*
X73825399Y-34495399D02*
X76484001Y-37154001D01*
X73825399Y-24002399D02*
X73825399Y-34495399D01*
X74301798Y-23526000D02*
X73825399Y-24002399D01*
X76189000Y-23526000D02*
X74301798Y-23526000D01*
X77334000Y-38004000D02*
X79874000Y-38004000D01*
X81076081Y-40544000D02*
X79874000Y-40544000D01*
X82224001Y-39396080D02*
X81076081Y-40544000D01*
X82224001Y-36875999D02*
X82224001Y-39396080D01*
X76189000Y-30840998D02*
X82224001Y-36875999D01*
X76189000Y-26066000D02*
X76189000Y-30840998D01*
X77334000Y-40544000D02*
X79874000Y-40544000D01*
D22*
X102128400Y-26066000D02*
X103242000Y-26066000D01*
X99686000Y-28508400D02*
X102128400Y-26066000D01*
X99686000Y-43592000D02*
X99686000Y-28508400D01*
X99132800Y-46685200D02*
X102226000Y-43592000D01*
X103242000Y-23526000D02*
X96062800Y-30705200D01*
X96040800Y-30705200D02*
X94589600Y-32156400D01*
X96062800Y-30705200D02*
X96040800Y-30705200D01*
X94589600Y-32156400D02*
X94589600Y-45364400D01*
X94589600Y-45364400D02*
X95910400Y-46685200D01*
X95910400Y-46685200D02*
X99132800Y-46685200D01*
D23*
X105782000Y-23526000D02*
X105782000Y-21903800D01*
X105782000Y-21903800D02*
X107594400Y-20091400D01*
X107594400Y-20091400D02*
X113741200Y-20091400D01*
X113741200Y-20091400D02*
X119100600Y-25450800D01*
X119100600Y-25450800D02*
X119100600Y-44932600D01*
X119100600Y-44932600D02*
X116636800Y-47396400D01*
X107306000Y-44794081D02*
X107306000Y-43592000D01*
X109908319Y-47396400D02*
X107306000Y-44794081D01*
X116636800Y-47396400D02*
X109908319Y-47396400D01*
D22*
X109846000Y-42389919D02*
X109846000Y-43592000D01*
X109846000Y-28811314D02*
X109846000Y-42389919D01*
X108322000Y-27287314D02*
X109846000Y-28811314D01*
X108322000Y-26066000D02*
X108322000Y-27287314D01*
X108322000Y-23526000D02*
X110140000Y-23526000D01*
X112386000Y-25772000D02*
X112386000Y-43592000D01*
X110140000Y-23526000D02*
X112386000Y-25772000D01*
X140326000Y-27590000D02*
X140326000Y-43592000D01*
X136262000Y-23526000D02*
X140326000Y-27590000D01*
X137786000Y-42389919D02*
X137786000Y-43592000D01*
X137786000Y-27042000D02*
X137786000Y-42389919D01*
X136262000Y-26066000D02*
X136810000Y-26066000D01*
X136810000Y-26066000D02*
X137786000Y-27042000D01*
D23*
X135246000Y-44794081D02*
X135246000Y-43592000D01*
X137848319Y-47396400D02*
X135246000Y-44794081D01*
X145618200Y-47396400D02*
X137848319Y-47396400D01*
X133722000Y-23526000D02*
X133722000Y-22304686D01*
X135960686Y-20066000D02*
X142189200Y-20066000D01*
X133722000Y-22304686D02*
X135960686Y-20066000D01*
X146939000Y-24815800D02*
X146939000Y-46075600D01*
X142189200Y-20066000D02*
X146939000Y-24815800D01*
X146939000Y-46075600D02*
X145618200Y-47396400D01*
D22*
X122453400Y-45135800D02*
X123545600Y-46228000D01*
X122453400Y-32232600D02*
X122453400Y-45135800D01*
X123888999Y-30797001D02*
X122453400Y-32232600D01*
X131182000Y-23526000D02*
X123910999Y-30797001D01*
X123910999Y-30797001D02*
X123888999Y-30797001D01*
X127504600Y-46253400D02*
X130166000Y-43592000D01*
X123571000Y-46253400D02*
X127504600Y-46253400D01*
X131182000Y-40036000D02*
X127626000Y-43592000D01*
X131182000Y-26066000D02*
X131182000Y-40036000D01*
X154711400Y-88621251D02*
X154711400Y-89611200D01*
X154711400Y-85761400D02*
X154711400Y-88621251D01*
X153200000Y-84250000D02*
X154711400Y-85761400D01*
X152000000Y-84250000D02*
X153200000Y-84250000D01*
X44840000Y-93884000D02*
X44130000Y-94594000D01*
X53712000Y-93884000D02*
X44840000Y-93884000D01*
X96296001Y-82541999D02*
X97146000Y-81692000D01*
X86229600Y-92608400D02*
X96296001Y-82541999D01*
X79410598Y-92608400D02*
X86229600Y-92608400D01*
X78134998Y-93884000D02*
X79410598Y-92608400D01*
X77334000Y-93884000D02*
X78134998Y-93884000D01*
X124236001Y-80842001D02*
X125086000Y-81692000D01*
X122494182Y-79100182D02*
X124236001Y-80842001D01*
X99737818Y-79100182D02*
X122494182Y-79100182D01*
X97146000Y-81692000D02*
X99737818Y-79100182D01*
X151050001Y-80800001D02*
X152000000Y-81750000D01*
X148888400Y-78638400D02*
X151050001Y-80800001D01*
X125086000Y-81692000D02*
X128139600Y-78638400D01*
X128139600Y-78638400D02*
X148888400Y-78638400D01*
X58070000Y-93884000D02*
X77334000Y-93884000D01*
X56894999Y-92708999D02*
X58070000Y-93884000D01*
X55687999Y-92708999D02*
X56894999Y-92708999D01*
X53712000Y-93884000D02*
X54512998Y-93884000D01*
X54512998Y-93884000D02*
X55687999Y-92708999D01*
X55402001Y-95574001D02*
X56252000Y-96424000D01*
X55076999Y-95248999D02*
X55402001Y-95574001D01*
X53147999Y-95248999D02*
X55076999Y-95248999D01*
X53146998Y-95250000D02*
X53147999Y-95248999D01*
X44130000Y-97094000D02*
X45974000Y-95250000D01*
X45974000Y-95250000D02*
X53146998Y-95250000D01*
X78522200Y-95072200D02*
X79874000Y-96424000D01*
X76403200Y-95072200D02*
X78522200Y-95072200D01*
X75895200Y-94564200D02*
X76403200Y-95072200D01*
X56252000Y-96424000D02*
X58111800Y-94564200D01*
X58111800Y-94564200D02*
X75895200Y-94564200D01*
X98321001Y-81692000D02*
X99686000Y-81692000D01*
X98321001Y-82256001D02*
X98321001Y-81692000D01*
X79874000Y-96097200D02*
X82702400Y-93268800D01*
X79874000Y-96424000D02*
X79874000Y-96097200D01*
X82702400Y-93268800D02*
X86487000Y-93268800D01*
X86487000Y-93268800D02*
X96888799Y-82867001D01*
X96888799Y-82867001D02*
X97710001Y-82867001D01*
X97710001Y-82867001D02*
X98321001Y-82256001D01*
X126776001Y-82541999D02*
X127626000Y-81692000D01*
X99686000Y-79993600D02*
X100129408Y-79550192D01*
X99686000Y-81692000D02*
X99686000Y-79993600D01*
X100129408Y-79550192D02*
X121205190Y-79550192D01*
X121205190Y-79550192D02*
X124521999Y-82867001D01*
X124521999Y-82867001D02*
X126450999Y-82867001D01*
X126450999Y-82867001D02*
X126776001Y-82541999D01*
X127626000Y-80069800D02*
X128447800Y-79248000D01*
X127626000Y-81692000D02*
X127626000Y-80069800D01*
X147091400Y-88621251D02*
X146304000Y-87833851D01*
X147091400Y-89611200D02*
X147091400Y-88621251D01*
X146304000Y-79324200D02*
X146227800Y-79248000D01*
X146304000Y-87833851D02*
X146304000Y-79324200D01*
X128447800Y-79248000D02*
X146227800Y-79248000D01*
D24*
G36*
X166319200Y-111887000D02*
G01*
X31775469Y-111887000D01*
X31779331Y-104779872D01*
X37765000Y-104779872D01*
X37765000Y-105220128D01*
X37850890Y-105651925D01*
X38019369Y-106058669D01*
X38263962Y-106424729D01*
X38575271Y-106736038D01*
X38941331Y-106980631D01*
X39348075Y-107149110D01*
X39779872Y-107235000D01*
X40220128Y-107235000D01*
X40651925Y-107149110D01*
X41058669Y-106980631D01*
X41424729Y-106736038D01*
X41736038Y-106424729D01*
X41980631Y-106058669D01*
X42149110Y-105651925D01*
X42235000Y-105220128D01*
X42235000Y-104779872D01*
X152765000Y-104779872D01*
X152765000Y-105220128D01*
X152850890Y-105651925D01*
X153019369Y-106058669D01*
X153263962Y-106424729D01*
X153575271Y-106736038D01*
X153941331Y-106980631D01*
X154348075Y-107149110D01*
X154779872Y-107235000D01*
X155220128Y-107235000D01*
X155651925Y-107149110D01*
X156058669Y-106980631D01*
X156424729Y-106736038D01*
X156736038Y-106424729D01*
X156980631Y-106058669D01*
X157149110Y-105651925D01*
X157235000Y-105220128D01*
X157235000Y-104779872D01*
X157149110Y-104348075D01*
X156980631Y-103941331D01*
X156736038Y-103575271D01*
X156424729Y-103263962D01*
X156058669Y-103019369D01*
X155651925Y-102850890D01*
X155220128Y-102765000D01*
X154779872Y-102765000D01*
X154348075Y-102850890D01*
X153941331Y-103019369D01*
X153575271Y-103263962D01*
X153263962Y-103575271D01*
X153019369Y-103941331D01*
X152850890Y-104348075D01*
X152765000Y-104779872D01*
X42235000Y-104779872D01*
X42149110Y-104348075D01*
X41980631Y-103941331D01*
X41736038Y-103575271D01*
X41424729Y-103263962D01*
X41058669Y-103019369D01*
X40651925Y-102850890D01*
X40220128Y-102765000D01*
X39779872Y-102765000D01*
X39348075Y-102850890D01*
X38941331Y-103019369D01*
X38575271Y-103263962D01*
X38263962Y-103575271D01*
X38019369Y-103941331D01*
X37850890Y-104348075D01*
X37765000Y-104779872D01*
X31779331Y-104779872D01*
X31786700Y-91219000D01*
X42555928Y-91219000D01*
X42559000Y-91808250D01*
X42717750Y-91967000D01*
X43942000Y-91967000D01*
X43942000Y-90742750D01*
X44196000Y-90742750D01*
X44196000Y-91967000D01*
X45420250Y-91967000D01*
X45579000Y-91808250D01*
X45582072Y-91219000D01*
X45569812Y-91094518D01*
X45533502Y-90974820D01*
X45474537Y-90864506D01*
X45395185Y-90767815D01*
X45298494Y-90688463D01*
X45188180Y-90629498D01*
X45068482Y-90593188D01*
X44944000Y-90580928D01*
X44354750Y-90584000D01*
X44196000Y-90742750D01*
X43942000Y-90742750D01*
X43783250Y-90584000D01*
X43194000Y-90580928D01*
X43069518Y-90593188D01*
X42949820Y-90629498D01*
X42839506Y-90688463D01*
X42742815Y-90767815D01*
X42663463Y-90864506D01*
X42604498Y-90974820D01*
X42568188Y-91094518D01*
X42555928Y-91219000D01*
X31786700Y-91219000D01*
X31789355Y-86332531D01*
X52221389Y-86332531D01*
X52263401Y-86622019D01*
X52361081Y-86897747D01*
X52434528Y-87035157D01*
X52683603Y-87112792D01*
X53532395Y-86264000D01*
X52683603Y-85415208D01*
X52434528Y-85492843D01*
X52308629Y-85756883D01*
X52236661Y-86040411D01*
X52221389Y-86332531D01*
X31789355Y-86332531D01*
X31796842Y-72556400D01*
X42555928Y-72556400D01*
X42559000Y-73145650D01*
X42717750Y-73304400D01*
X43942000Y-73304400D01*
X43942000Y-72080150D01*
X44196000Y-72080150D01*
X44196000Y-73304400D01*
X45420250Y-73304400D01*
X45579000Y-73145650D01*
X45582072Y-72556400D01*
X45569812Y-72431918D01*
X45533502Y-72312220D01*
X45474537Y-72201906D01*
X45395185Y-72105215D01*
X45298494Y-72025863D01*
X45188180Y-71966898D01*
X45068482Y-71930588D01*
X44944000Y-71918328D01*
X44354750Y-71921400D01*
X44196000Y-72080150D01*
X43942000Y-72080150D01*
X43783250Y-71921400D01*
X43194000Y-71918328D01*
X43069518Y-71930588D01*
X42949820Y-71966898D01*
X42839506Y-72025863D01*
X42742815Y-72105215D01*
X42663463Y-72201906D01*
X42604498Y-72312220D01*
X42568188Y-72431918D01*
X42555928Y-72556400D01*
X31796842Y-72556400D01*
X31802642Y-61884820D01*
X42067000Y-61884820D01*
X42067000Y-62279180D01*
X42143936Y-62665962D01*
X42294850Y-63030303D01*
X42513945Y-63358201D01*
X42792799Y-63637055D01*
X43120697Y-63856150D01*
X43485038Y-64007064D01*
X43871820Y-64084000D01*
X44266180Y-64084000D01*
X44652962Y-64007064D01*
X45017303Y-63856150D01*
X45237528Y-63709000D01*
X45634675Y-63709000D01*
X47141000Y-65215326D01*
X47141001Y-72508475D01*
X45580832Y-74068644D01*
X45579000Y-73717150D01*
X45420250Y-73558400D01*
X44196000Y-73558400D01*
X44196000Y-73578400D01*
X43942000Y-73578400D01*
X43942000Y-73558400D01*
X42717750Y-73558400D01*
X42559000Y-73717150D01*
X42555928Y-74306400D01*
X42568188Y-74430882D01*
X42604498Y-74550580D01*
X42609398Y-74559746D01*
X42513945Y-74655199D01*
X42294850Y-74983097D01*
X42143936Y-75347438D01*
X42067000Y-75734220D01*
X42067000Y-76128580D01*
X42143936Y-76515362D01*
X42294850Y-76879703D01*
X42513945Y-77207601D01*
X42792799Y-77486455D01*
X43120697Y-77705550D01*
X43485038Y-77856464D01*
X43871820Y-77933400D01*
X44266180Y-77933400D01*
X44652962Y-77856464D01*
X45017303Y-77705550D01*
X45237528Y-77558400D01*
X45939088Y-77558400D01*
X46019002Y-77566271D01*
X46098916Y-77558400D01*
X46098927Y-77558400D01*
X46337950Y-77534858D01*
X46644640Y-77441825D01*
X46927288Y-77290746D01*
X47175031Y-77087429D01*
X47225981Y-77025346D01*
X49861951Y-74389377D01*
X49924029Y-74338431D01*
X49974975Y-74276353D01*
X49974978Y-74276350D01*
X50127346Y-74090688D01*
X50278424Y-73808042D01*
X50278425Y-73808040D01*
X50371458Y-73501350D01*
X50395000Y-73262327D01*
X50395000Y-73262317D01*
X50402871Y-73182403D01*
X50395000Y-73102488D01*
X50395000Y-64621325D01*
X50402872Y-64541400D01*
X50371458Y-64222452D01*
X50278425Y-63915763D01*
X50278425Y-63915762D01*
X50127346Y-63633114D01*
X49974978Y-63447452D01*
X49974975Y-63447449D01*
X49924029Y-63385371D01*
X49861952Y-63334426D01*
X48495226Y-61967701D01*
X49531752Y-60931176D01*
X49593829Y-60880231D01*
X49644775Y-60818153D01*
X49644778Y-60818150D01*
X49797146Y-60632488D01*
X49853560Y-60526945D01*
X49948225Y-60349840D01*
X50041258Y-60043150D01*
X50064800Y-59804127D01*
X50064800Y-59804119D01*
X50072671Y-59724202D01*
X50064800Y-59644285D01*
X50064800Y-50235725D01*
X52229851Y-48070675D01*
X52221389Y-48232531D01*
X52263401Y-48522019D01*
X52361081Y-48797747D01*
X52434528Y-48935157D01*
X52683603Y-49012792D01*
X53532395Y-48164000D01*
X53518253Y-48149858D01*
X53697858Y-47970253D01*
X53712000Y-47984395D01*
X53726143Y-47970253D01*
X53905748Y-48149858D01*
X53891605Y-48164000D01*
X54740397Y-49012792D01*
X54982000Y-48937486D01*
X55223601Y-49012791D01*
X55221657Y-49014735D01*
X54991736Y-49168364D01*
X54716364Y-49443736D01*
X54649214Y-49544232D01*
X54485271Y-49434689D01*
X54560792Y-49192397D01*
X53712000Y-48343605D01*
X52863208Y-49192397D01*
X52938729Y-49434689D01*
X52765368Y-49550525D01*
X52558525Y-49757368D01*
X52396010Y-50000589D01*
X52284068Y-50270842D01*
X52227000Y-50557740D01*
X52227000Y-50850260D01*
X52284068Y-51137158D01*
X52396010Y-51407411D01*
X52558525Y-51650632D01*
X52765368Y-51857475D01*
X52939760Y-51974000D01*
X52765368Y-52090525D01*
X52558525Y-52297368D01*
X52396010Y-52540589D01*
X52284068Y-52810842D01*
X52227000Y-53097740D01*
X52227000Y-53390260D01*
X52284068Y-53677158D01*
X52384319Y-53919186D01*
X52281724Y-53974025D01*
X52239147Y-54008968D01*
X52166000Y-54068998D01*
X52142197Y-54098002D01*
X51736803Y-54503396D01*
X51707799Y-54527199D01*
X51652671Y-54594374D01*
X51612826Y-54642924D01*
X51597321Y-54671932D01*
X51542254Y-54774954D01*
X51498797Y-54918215D01*
X51487800Y-55029868D01*
X51487800Y-55029878D01*
X51484124Y-55067200D01*
X51487800Y-55104523D01*
X51487801Y-58509668D01*
X51484124Y-58547000D01*
X51498798Y-58695985D01*
X51542254Y-58839246D01*
X51612826Y-58971276D01*
X51622820Y-58983453D01*
X51707800Y-59087001D01*
X51736798Y-59110799D01*
X52552453Y-59926455D01*
X52396010Y-60160589D01*
X52284068Y-60430842D01*
X52227000Y-60717740D01*
X52227000Y-61010260D01*
X52284068Y-61297158D01*
X52396010Y-61567411D01*
X52558525Y-61810632D01*
X52765368Y-62017475D01*
X52939760Y-62134000D01*
X52765368Y-62250525D01*
X52558525Y-62457368D01*
X52396010Y-62700589D01*
X52284068Y-62970842D01*
X52227000Y-63257740D01*
X52227000Y-63550260D01*
X52284068Y-63837158D01*
X52396010Y-64107411D01*
X52558525Y-64350632D01*
X52765368Y-64557475D01*
X52939760Y-64674000D01*
X52765368Y-64790525D01*
X52558525Y-64997368D01*
X52396010Y-65240589D01*
X52284068Y-65510842D01*
X52227000Y-65797740D01*
X52227000Y-66090260D01*
X52284068Y-66377158D01*
X52396010Y-66647411D01*
X52558525Y-66890632D01*
X52765368Y-67097475D01*
X52939760Y-67214000D01*
X52765368Y-67330525D01*
X52558525Y-67537368D01*
X52396010Y-67780589D01*
X52284068Y-68050842D01*
X52227000Y-68337740D01*
X52227000Y-68630260D01*
X52284068Y-68917158D01*
X52396010Y-69187411D01*
X52558525Y-69430632D01*
X52765368Y-69637475D01*
X52939760Y-69754000D01*
X52765368Y-69870525D01*
X52558525Y-70077368D01*
X52396010Y-70320589D01*
X52284068Y-70590842D01*
X52227000Y-70877740D01*
X52227000Y-71170260D01*
X52284068Y-71457158D01*
X52396010Y-71727411D01*
X52558525Y-71970632D01*
X52765368Y-72177475D01*
X52939760Y-72294000D01*
X52765368Y-72410525D01*
X52558525Y-72617368D01*
X52396010Y-72860589D01*
X52284068Y-73130842D01*
X52227000Y-73417740D01*
X52227000Y-73710260D01*
X52284068Y-73997158D01*
X52396010Y-74267411D01*
X52558525Y-74510632D01*
X52765368Y-74717475D01*
X52939760Y-74834000D01*
X52765368Y-74950525D01*
X52558525Y-75157368D01*
X52396010Y-75400589D01*
X52284068Y-75670842D01*
X52227000Y-75957740D01*
X52227000Y-76250260D01*
X52284068Y-76537158D01*
X52396010Y-76807411D01*
X52558525Y-77050632D01*
X52765368Y-77257475D01*
X52939760Y-77374000D01*
X52765368Y-77490525D01*
X52558525Y-77697368D01*
X52396010Y-77940589D01*
X52284068Y-78210842D01*
X52227000Y-78497740D01*
X52227000Y-78790260D01*
X52284068Y-79077158D01*
X52396010Y-79347411D01*
X52558525Y-79590632D01*
X52765368Y-79797475D01*
X52939760Y-79914000D01*
X52765368Y-80030525D01*
X52558525Y-80237368D01*
X52396010Y-80480589D01*
X52284068Y-80750842D01*
X52227000Y-81037740D01*
X52227000Y-81330260D01*
X52284068Y-81617158D01*
X52396010Y-81887411D01*
X52558525Y-82130632D01*
X52765368Y-82337475D01*
X52939760Y-82454000D01*
X52765368Y-82570525D01*
X52558525Y-82777368D01*
X52396010Y-83020589D01*
X52284068Y-83290842D01*
X52227000Y-83577740D01*
X52227000Y-83870260D01*
X52284068Y-84157158D01*
X52396010Y-84427411D01*
X52558525Y-84670632D01*
X52765368Y-84877475D01*
X52938729Y-84993311D01*
X52863208Y-85235603D01*
X53712000Y-86084395D01*
X54560792Y-85235603D01*
X54485271Y-84993311D01*
X54658632Y-84877475D01*
X54865475Y-84670632D01*
X54982000Y-84496240D01*
X55098525Y-84670632D01*
X55305368Y-84877475D01*
X55479760Y-84994000D01*
X55305368Y-85110525D01*
X55098525Y-85317368D01*
X54982689Y-85490729D01*
X54740397Y-85415208D01*
X53891605Y-86264000D01*
X54740397Y-87112792D01*
X54982689Y-87037271D01*
X55098525Y-87210632D01*
X55305368Y-87417475D01*
X55479760Y-87534000D01*
X55305368Y-87650525D01*
X55098525Y-87857368D01*
X54982000Y-88031760D01*
X54865475Y-87857368D01*
X54658632Y-87650525D01*
X54485271Y-87534689D01*
X54560792Y-87292397D01*
X53712000Y-86443605D01*
X52863208Y-87292397D01*
X52938729Y-87534689D01*
X52765368Y-87650525D01*
X52558525Y-87857368D01*
X52396010Y-88100589D01*
X52284068Y-88370842D01*
X52227000Y-88657740D01*
X52227000Y-88950260D01*
X52284068Y-89237158D01*
X52396010Y-89507411D01*
X52558525Y-89750632D01*
X52765368Y-89957475D01*
X52939760Y-90074000D01*
X52765368Y-90190525D01*
X52558525Y-90397368D01*
X52396010Y-90640589D01*
X52284068Y-90910842D01*
X52227000Y-91197740D01*
X52227000Y-91490260D01*
X52284068Y-91777158D01*
X52396010Y-92047411D01*
X52558525Y-92290632D01*
X52765368Y-92497475D01*
X52939760Y-92614000D01*
X52765368Y-92730525D01*
X52558525Y-92937368D01*
X52433822Y-93124000D01*
X45560554Y-93124000D01*
X45569812Y-93093482D01*
X45582072Y-92969000D01*
X45579000Y-92379750D01*
X45420250Y-92221000D01*
X44196000Y-92221000D01*
X44196000Y-92241000D01*
X43942000Y-92241000D01*
X43942000Y-92221000D01*
X42717750Y-92221000D01*
X42559000Y-92379750D01*
X42555928Y-92969000D01*
X42568188Y-93093482D01*
X42604498Y-93213180D01*
X42663463Y-93323494D01*
X42742815Y-93420185D01*
X42839506Y-93499537D01*
X42949820Y-93558502D01*
X42964564Y-93562974D01*
X42896107Y-93631431D01*
X42730856Y-93878747D01*
X42617029Y-94153549D01*
X42559000Y-94445278D01*
X42559000Y-94742722D01*
X42617029Y-95034451D01*
X42730856Y-95309253D01*
X42896107Y-95556569D01*
X43106431Y-95766893D01*
X43221830Y-95844000D01*
X43106431Y-95921107D01*
X42896107Y-96131431D01*
X42730856Y-96378747D01*
X42617029Y-96653549D01*
X42559000Y-96945278D01*
X42559000Y-97242722D01*
X42617029Y-97534451D01*
X42730856Y-97809253D01*
X42896107Y-98056569D01*
X43106431Y-98266893D01*
X43353747Y-98432144D01*
X43628549Y-98545971D01*
X43920278Y-98604000D01*
X44217722Y-98604000D01*
X44509451Y-98545971D01*
X44784253Y-98432144D01*
X45031569Y-98266893D01*
X45241893Y-98056569D01*
X45407144Y-97809253D01*
X45520971Y-97534451D01*
X45579000Y-97242722D01*
X45579000Y-96945278D01*
X45541591Y-96757211D01*
X46288802Y-96010000D01*
X52284993Y-96010000D01*
X52236661Y-96200411D01*
X52221389Y-96492531D01*
X52263401Y-96782019D01*
X52361081Y-97057747D01*
X52434528Y-97195157D01*
X52683603Y-97272792D01*
X53532395Y-96424000D01*
X53518253Y-96409858D01*
X53697858Y-96230253D01*
X53712000Y-96244395D01*
X53726143Y-96230253D01*
X53905748Y-96409858D01*
X53891605Y-96424000D01*
X54740397Y-97272792D01*
X54982689Y-97197271D01*
X55098525Y-97370632D01*
X55305368Y-97577475D01*
X55479760Y-97694000D01*
X55305368Y-97810525D01*
X55098525Y-98017368D01*
X54982000Y-98191760D01*
X54865475Y-98017368D01*
X54658632Y-97810525D01*
X54485271Y-97694689D01*
X54560792Y-97452397D01*
X53712000Y-96603605D01*
X52863208Y-97452397D01*
X52938729Y-97694689D01*
X52765368Y-97810525D01*
X52558525Y-98017368D01*
X52396010Y-98260589D01*
X52284068Y-98530842D01*
X52227000Y-98817740D01*
X52227000Y-99110260D01*
X52284068Y-99397158D01*
X52396010Y-99667411D01*
X52558525Y-99910632D01*
X52765368Y-100117475D01*
X53008589Y-100279990D01*
X53278842Y-100391932D01*
X53565740Y-100449000D01*
X53858260Y-100449000D01*
X54145158Y-100391932D01*
X54415411Y-100279990D01*
X54658632Y-100117475D01*
X54865475Y-99910632D01*
X54982000Y-99736240D01*
X55098525Y-99910632D01*
X55305368Y-100117475D01*
X55548589Y-100279990D01*
X55818842Y-100391932D01*
X56105740Y-100449000D01*
X56398260Y-100449000D01*
X56685158Y-100391932D01*
X56955411Y-100279990D01*
X57198632Y-100117475D01*
X57405475Y-99910632D01*
X57567990Y-99667411D01*
X57679932Y-99397158D01*
X57737000Y-99110260D01*
X57737000Y-98817740D01*
X57679932Y-98530842D01*
X57567990Y-98260589D01*
X57405475Y-98017368D01*
X57198632Y-97810525D01*
X57024240Y-97694000D01*
X57198632Y-97577475D01*
X57405475Y-97370632D01*
X57567990Y-97127411D01*
X57679932Y-96857158D01*
X57737000Y-96570260D01*
X57737000Y-96277740D01*
X57693210Y-96057592D01*
X58426603Y-95324200D01*
X75580399Y-95324200D01*
X75839400Y-95583202D01*
X75863199Y-95612201D01*
X75978924Y-95707174D01*
X76020122Y-95729195D01*
X75930629Y-95916883D01*
X75858661Y-96200411D01*
X75843389Y-96492531D01*
X75885401Y-96782019D01*
X75983081Y-97057747D01*
X76056528Y-97195157D01*
X76305603Y-97272792D01*
X77154395Y-96424000D01*
X77140253Y-96409858D01*
X77319858Y-96230253D01*
X77334000Y-96244395D01*
X77348143Y-96230253D01*
X77527748Y-96409858D01*
X77513605Y-96424000D01*
X78362397Y-97272792D01*
X78604689Y-97197271D01*
X78720525Y-97370632D01*
X78927368Y-97577475D01*
X79101760Y-97694000D01*
X78927368Y-97810525D01*
X78720525Y-98017368D01*
X78604000Y-98191760D01*
X78487475Y-98017368D01*
X78280632Y-97810525D01*
X78107271Y-97694689D01*
X78182792Y-97452397D01*
X77334000Y-96603605D01*
X76485208Y-97452397D01*
X76560729Y-97694689D01*
X76387368Y-97810525D01*
X76180525Y-98017368D01*
X76018010Y-98260589D01*
X75906068Y-98530842D01*
X75849000Y-98817740D01*
X75849000Y-99110260D01*
X75906068Y-99397158D01*
X76018010Y-99667411D01*
X76180525Y-99910632D01*
X76387368Y-100117475D01*
X76630589Y-100279990D01*
X76900842Y-100391932D01*
X77187740Y-100449000D01*
X77480260Y-100449000D01*
X77767158Y-100391932D01*
X78037411Y-100279990D01*
X78280632Y-100117475D01*
X78487475Y-99910632D01*
X78604000Y-99736240D01*
X78720525Y-99910632D01*
X78927368Y-100117475D01*
X79170589Y-100279990D01*
X79440842Y-100391932D01*
X79727740Y-100449000D01*
X80020260Y-100449000D01*
X80307158Y-100391932D01*
X80577411Y-100279990D01*
X80820632Y-100117475D01*
X81027475Y-99910632D01*
X81189990Y-99667411D01*
X81301932Y-99397158D01*
X81359000Y-99110260D01*
X81359000Y-98817740D01*
X81301932Y-98530842D01*
X81189990Y-98260589D01*
X81027475Y-98017368D01*
X80820632Y-97810525D01*
X80646240Y-97694000D01*
X80820632Y-97577475D01*
X81027475Y-97370632D01*
X81189990Y-97127411D01*
X81301932Y-96857158D01*
X81359000Y-96570260D01*
X81359000Y-96277740D01*
X81301932Y-95990842D01*
X81229654Y-95816347D01*
X81605601Y-95440400D01*
X108416928Y-95440400D01*
X108429188Y-95564882D01*
X108465498Y-95684580D01*
X108524463Y-95794894D01*
X108603815Y-95891585D01*
X108700506Y-95970937D01*
X108810820Y-96029902D01*
X108930518Y-96066212D01*
X109055000Y-96078472D01*
X109569250Y-96075400D01*
X109728000Y-95916650D01*
X109728000Y-94767400D01*
X109982000Y-94767400D01*
X109982000Y-95916650D01*
X110140750Y-96075400D01*
X110655000Y-96078472D01*
X110779482Y-96066212D01*
X110899180Y-96029902D01*
X111009494Y-95970937D01*
X111106185Y-95891585D01*
X111185537Y-95794894D01*
X111244502Y-95684580D01*
X111280812Y-95564882D01*
X111293072Y-95440400D01*
X136382328Y-95440400D01*
X136394588Y-95564882D01*
X136430898Y-95684580D01*
X136489863Y-95794894D01*
X136569215Y-95891585D01*
X136665906Y-95970937D01*
X136776220Y-96029902D01*
X136895918Y-96066212D01*
X137020400Y-96078472D01*
X137534650Y-96075400D01*
X137693400Y-95916650D01*
X137693400Y-94767400D01*
X137947400Y-94767400D01*
X137947400Y-95916650D01*
X138106150Y-96075400D01*
X138620400Y-96078472D01*
X138744882Y-96066212D01*
X138864580Y-96029902D01*
X138974894Y-95970937D01*
X139071585Y-95891585D01*
X139150937Y-95794894D01*
X139209902Y-95684580D01*
X139246212Y-95564882D01*
X139258472Y-95440400D01*
X139255400Y-94926150D01*
X139096650Y-94767400D01*
X137947400Y-94767400D01*
X137693400Y-94767400D01*
X136544150Y-94767400D01*
X136385400Y-94926150D01*
X136382328Y-95440400D01*
X111293072Y-95440400D01*
X111290000Y-94926150D01*
X111131250Y-94767400D01*
X109982000Y-94767400D01*
X109728000Y-94767400D01*
X108578750Y-94767400D01*
X108420000Y-94926150D01*
X108416928Y-95440400D01*
X81605601Y-95440400D01*
X83017202Y-94028800D01*
X86449678Y-94028800D01*
X86487000Y-94032476D01*
X86524322Y-94028800D01*
X86524333Y-94028800D01*
X86635986Y-94017803D01*
X86779247Y-93974346D01*
X86911276Y-93903774D01*
X86988497Y-93840400D01*
X108416928Y-93840400D01*
X108420000Y-94354650D01*
X108578750Y-94513400D01*
X109728000Y-94513400D01*
X109728000Y-93364150D01*
X109982000Y-93364150D01*
X109982000Y-94513400D01*
X111131250Y-94513400D01*
X111290000Y-94354650D01*
X111293072Y-93840400D01*
X136382328Y-93840400D01*
X136385400Y-94354650D01*
X136544150Y-94513400D01*
X137693400Y-94513400D01*
X137693400Y-93364150D01*
X137947400Y-93364150D01*
X137947400Y-94513400D01*
X139096650Y-94513400D01*
X139255400Y-94354650D01*
X139258472Y-93840400D01*
X139246212Y-93715918D01*
X139209902Y-93596220D01*
X139150937Y-93485906D01*
X139071585Y-93389215D01*
X138974894Y-93309863D01*
X138864580Y-93250898D01*
X138744882Y-93214588D01*
X138620400Y-93202328D01*
X138106150Y-93205400D01*
X137947400Y-93364150D01*
X137693400Y-93364150D01*
X137534650Y-93205400D01*
X137020400Y-93202328D01*
X136895918Y-93214588D01*
X136776220Y-93250898D01*
X136665906Y-93309863D01*
X136569215Y-93389215D01*
X136489863Y-93485906D01*
X136430898Y-93596220D01*
X136394588Y-93715918D01*
X136382328Y-93840400D01*
X111293072Y-93840400D01*
X111280812Y-93715918D01*
X111244502Y-93596220D01*
X111185537Y-93485906D01*
X111106185Y-93389215D01*
X111009494Y-93309863D01*
X110899180Y-93250898D01*
X110779482Y-93214588D01*
X110655000Y-93202328D01*
X110140750Y-93205400D01*
X109982000Y-93364150D01*
X109728000Y-93364150D01*
X109569250Y-93205400D01*
X109055000Y-93202328D01*
X108930518Y-93214588D01*
X108810820Y-93250898D01*
X108700506Y-93309863D01*
X108603815Y-93389215D01*
X108524463Y-93485906D01*
X108465498Y-93596220D01*
X108429188Y-93715918D01*
X108416928Y-93840400D01*
X86988497Y-93840400D01*
X87027001Y-93808801D01*
X87050804Y-93779797D01*
X97203601Y-83627001D01*
X97672679Y-83627001D01*
X97710001Y-83630677D01*
X97747323Y-83627001D01*
X97747334Y-83627001D01*
X97858987Y-83616004D01*
X98002248Y-83572547D01*
X98134277Y-83501975D01*
X98250002Y-83407002D01*
X98273804Y-83377999D01*
X98779509Y-82872296D01*
X98982589Y-83007990D01*
X99252842Y-83119932D01*
X99539740Y-83177000D01*
X99832260Y-83177000D01*
X100119158Y-83119932D01*
X100389411Y-83007990D01*
X100632632Y-82845475D01*
X100757710Y-82720397D01*
X101377208Y-82720397D01*
X101454843Y-82969472D01*
X101718883Y-83095371D01*
X102002411Y-83167339D01*
X102294531Y-83182611D01*
X102584019Y-83140599D01*
X102859747Y-83042919D01*
X102997157Y-82969472D01*
X103074792Y-82720397D01*
X102226000Y-81871605D01*
X101377208Y-82720397D01*
X100757710Y-82720397D01*
X100839475Y-82638632D01*
X100955311Y-82465271D01*
X101197603Y-82540792D01*
X102046395Y-81692000D01*
X101197603Y-80843208D01*
X100955311Y-80918729D01*
X100839475Y-80745368D01*
X100632632Y-80538525D01*
X100446000Y-80413822D01*
X100446000Y-80310192D01*
X101679445Y-80310192D01*
X101592253Y-80341081D01*
X101454843Y-80414528D01*
X101377208Y-80663603D01*
X102226000Y-81512395D01*
X103074792Y-80663603D01*
X102997157Y-80414528D01*
X102778340Y-80310192D01*
X104221488Y-80310192D01*
X104062589Y-80376010D01*
X103819368Y-80538525D01*
X103612525Y-80745368D01*
X103496689Y-80918729D01*
X103254397Y-80843208D01*
X102405605Y-81692000D01*
X103254397Y-82540792D01*
X103496689Y-82465271D01*
X103612525Y-82638632D01*
X103819368Y-82845475D01*
X104062589Y-83007990D01*
X104332842Y-83119932D01*
X104619740Y-83177000D01*
X104912260Y-83177000D01*
X105199158Y-83119932D01*
X105469411Y-83007990D01*
X105712632Y-82845475D01*
X105919475Y-82638632D01*
X106036000Y-82464240D01*
X106152525Y-82638632D01*
X106359368Y-82845475D01*
X106602589Y-83007990D01*
X106872842Y-83119932D01*
X107159740Y-83177000D01*
X107452260Y-83177000D01*
X107739158Y-83119932D01*
X108009411Y-83007990D01*
X108219000Y-82867947D01*
X108219001Y-87185465D01*
X108211128Y-87265400D01*
X108219000Y-87345325D01*
X108219001Y-90120337D01*
X108147315Y-90227623D01*
X108002053Y-90578315D01*
X107928000Y-90950607D01*
X107928000Y-91330193D01*
X108002053Y-91702485D01*
X108147315Y-92053177D01*
X108358201Y-92368791D01*
X108626609Y-92637199D01*
X108942223Y-92848085D01*
X109292915Y-92993347D01*
X109665207Y-93067400D01*
X110044793Y-93067400D01*
X110417085Y-92993347D01*
X110767777Y-92848085D01*
X111083391Y-92637199D01*
X111351799Y-92368791D01*
X111562685Y-92053177D01*
X111707947Y-91702485D01*
X111782000Y-91330193D01*
X111782000Y-90950607D01*
X111707947Y-90578315D01*
X111562685Y-90227623D01*
X111473000Y-90093400D01*
X111473000Y-87957325D01*
X112535526Y-86894800D01*
X135216075Y-86894800D01*
X136159000Y-87837726D01*
X136159001Y-90158351D01*
X136112715Y-90227623D01*
X135967453Y-90578315D01*
X135893400Y-90950607D01*
X135893400Y-91330193D01*
X135967453Y-91702485D01*
X136112715Y-92053177D01*
X136323601Y-92368791D01*
X136592009Y-92637199D01*
X136907623Y-92848085D01*
X137258315Y-92993347D01*
X137630607Y-93067400D01*
X138010193Y-93067400D01*
X138382485Y-92993347D01*
X138733177Y-92848085D01*
X139048791Y-92637199D01*
X139317199Y-92368791D01*
X139528085Y-92053177D01*
X139673347Y-91702485D01*
X139747400Y-91330193D01*
X139747400Y-90950607D01*
X139673347Y-90578315D01*
X139528085Y-90227623D01*
X139413000Y-90055386D01*
X139413000Y-87243717D01*
X139420871Y-87163800D01*
X139413000Y-87083883D01*
X139413000Y-82815529D01*
X139475265Y-82722343D01*
X139477209Y-82720399D01*
X139554843Y-82969472D01*
X139818883Y-83095371D01*
X140102411Y-83167339D01*
X140394531Y-83182611D01*
X140684019Y-83140599D01*
X140959747Y-83042919D01*
X141097157Y-82969472D01*
X141174792Y-82720397D01*
X140326000Y-81871605D01*
X140311858Y-81885748D01*
X140132253Y-81706143D01*
X140146395Y-81692000D01*
X140505605Y-81692000D01*
X141354397Y-82540792D01*
X141596689Y-82465271D01*
X141712525Y-82638632D01*
X141919368Y-82845475D01*
X142162589Y-83007990D01*
X142432842Y-83119932D01*
X142719740Y-83177000D01*
X143012260Y-83177000D01*
X143299158Y-83119932D01*
X143569411Y-83007990D01*
X143812632Y-82845475D01*
X144019475Y-82638632D01*
X144181990Y-82395411D01*
X144293932Y-82125158D01*
X144351000Y-81838260D01*
X144351000Y-81545740D01*
X144293932Y-81258842D01*
X144181990Y-80988589D01*
X144019475Y-80745368D01*
X143812632Y-80538525D01*
X143569411Y-80376010D01*
X143299158Y-80264068D01*
X143012260Y-80207000D01*
X142719740Y-80207000D01*
X142432842Y-80264068D01*
X142162589Y-80376010D01*
X141919368Y-80538525D01*
X141712525Y-80745368D01*
X141596689Y-80918729D01*
X141354397Y-80843208D01*
X140505605Y-81692000D01*
X140146395Y-81692000D01*
X140132253Y-81677858D01*
X140311858Y-81498253D01*
X140326000Y-81512395D01*
X141174792Y-80663603D01*
X141097157Y-80414528D01*
X140833117Y-80288629D01*
X140549589Y-80216661D01*
X140257469Y-80201389D01*
X139967981Y-80243401D01*
X139692253Y-80341081D01*
X139554843Y-80414528D01*
X139477209Y-80663601D01*
X139475265Y-80661657D01*
X139321636Y-80431736D01*
X139046264Y-80156364D01*
X138824222Y-80008000D01*
X145544001Y-80008000D01*
X145544000Y-87796529D01*
X145540324Y-87833851D01*
X145544000Y-87871173D01*
X145544000Y-87871183D01*
X145554997Y-87982836D01*
X145593646Y-88110248D01*
X145598454Y-88126097D01*
X145669026Y-88258127D01*
X145699712Y-88295517D01*
X145763999Y-88373852D01*
X145793002Y-88397654D01*
X146104986Y-88709639D01*
X146054438Y-88760187D01*
X145908339Y-88978841D01*
X145807704Y-89221795D01*
X145756400Y-89479714D01*
X145756400Y-89742686D01*
X145807704Y-90000605D01*
X145908339Y-90243559D01*
X146054438Y-90462213D01*
X146240387Y-90648162D01*
X146459041Y-90794261D01*
X146701995Y-90894896D01*
X146959914Y-90946200D01*
X147222886Y-90946200D01*
X147480805Y-90894896D01*
X147723759Y-90794261D01*
X147942413Y-90648162D01*
X148128362Y-90462213D01*
X148274461Y-90243559D01*
X148375096Y-90000605D01*
X148426400Y-89742686D01*
X148426400Y-89479714D01*
X148375096Y-89221795D01*
X148274461Y-88978841D01*
X148128362Y-88760187D01*
X147942413Y-88574238D01*
X147843968Y-88508460D01*
X147840403Y-88472265D01*
X147796946Y-88329004D01*
X147726374Y-88196975D01*
X147631401Y-88081250D01*
X147602402Y-88057452D01*
X147064000Y-87519050D01*
X147064000Y-79398400D01*
X148573599Y-79398400D01*
X150473747Y-81298550D01*
X150415000Y-81593891D01*
X150415000Y-81906109D01*
X150475911Y-82212327D01*
X150595391Y-82500779D01*
X150754021Y-82738186D01*
X150695506Y-82769463D01*
X150598815Y-82848815D01*
X150519463Y-82945506D01*
X150460498Y-83055820D01*
X150424188Y-83175518D01*
X150411928Y-83300000D01*
X150411928Y-85200000D01*
X150424188Y-85324482D01*
X150460498Y-85444180D01*
X150519463Y-85554494D01*
X150598815Y-85651185D01*
X150695506Y-85730537D01*
X150805820Y-85789502D01*
X150925518Y-85825812D01*
X151050000Y-85838072D01*
X152950000Y-85838072D01*
X153074482Y-85825812D01*
X153194180Y-85789502D01*
X153304494Y-85730537D01*
X153401185Y-85651185D01*
X153457618Y-85582420D01*
X153951400Y-86076203D01*
X153951401Y-88507902D01*
X153762845Y-88662645D01*
X153596018Y-88865925D01*
X153472053Y-89097846D01*
X153395717Y-89349494D01*
X153369941Y-89611200D01*
X153395717Y-89872906D01*
X153472053Y-90124554D01*
X153596018Y-90356475D01*
X153762845Y-90559755D01*
X153966125Y-90726582D01*
X154198046Y-90850547D01*
X154449694Y-90926883D01*
X154645821Y-90946200D01*
X154776979Y-90946200D01*
X154973106Y-90926883D01*
X155224754Y-90850547D01*
X155456675Y-90726582D01*
X155659955Y-90559755D01*
X155826782Y-90356475D01*
X155950747Y-90124554D01*
X156027083Y-89872906D01*
X156052859Y-89611200D01*
X156027083Y-89349494D01*
X155950747Y-89097846D01*
X155826782Y-88865925D01*
X155659955Y-88662645D01*
X155471400Y-88507902D01*
X155471400Y-85798722D01*
X155475076Y-85761399D01*
X155471400Y-85724076D01*
X155471400Y-85724067D01*
X155460403Y-85612414D01*
X155416946Y-85469153D01*
X155346374Y-85337124D01*
X155330161Y-85317368D01*
X155275199Y-85250396D01*
X155275195Y-85250392D01*
X155251401Y-85221399D01*
X155222409Y-85197606D01*
X153763803Y-83739002D01*
X153740001Y-83709999D01*
X153624276Y-83615026D01*
X153588072Y-83595674D01*
X153588072Y-83300000D01*
X153575812Y-83175518D01*
X153539502Y-83055820D01*
X153480537Y-82945506D01*
X153401185Y-82848815D01*
X153304494Y-82769463D01*
X153245979Y-82738186D01*
X153404609Y-82500779D01*
X153524089Y-82212327D01*
X153585000Y-81906109D01*
X153585000Y-81593891D01*
X153524089Y-81287673D01*
X153404609Y-80999221D01*
X153231150Y-80739621D01*
X153010379Y-80518850D01*
X152982168Y-80500000D01*
X153010379Y-80481150D01*
X153231150Y-80260379D01*
X153404609Y-80000779D01*
X153524089Y-79712327D01*
X153585000Y-79406109D01*
X153585000Y-79093891D01*
X153524089Y-78787673D01*
X153404609Y-78499221D01*
X153231150Y-78239621D01*
X153010379Y-78018850D01*
X152750779Y-77845391D01*
X152462327Y-77725911D01*
X152156109Y-77665000D01*
X151843891Y-77665000D01*
X151537673Y-77725911D01*
X151249221Y-77845391D01*
X150989621Y-78018850D01*
X150768850Y-78239621D01*
X150595391Y-78499221D01*
X150475911Y-78787673D01*
X150415613Y-79090811D01*
X149452204Y-78127402D01*
X149428401Y-78098399D01*
X149312676Y-78003426D01*
X149180647Y-77932854D01*
X149037386Y-77889397D01*
X148925733Y-77878400D01*
X148925722Y-77878400D01*
X148888400Y-77874724D01*
X148851078Y-77878400D01*
X128176933Y-77878400D01*
X128139600Y-77874723D01*
X128102267Y-77878400D01*
X127990614Y-77889397D01*
X127847353Y-77932854D01*
X127715324Y-78003426D01*
X127599599Y-78098399D01*
X127575801Y-78127397D01*
X125452408Y-80250791D01*
X125232260Y-80207000D01*
X124939740Y-80207000D01*
X124719592Y-80250790D01*
X123057986Y-78589185D01*
X123034183Y-78560181D01*
X122918458Y-78465208D01*
X122786429Y-78394636D01*
X122643168Y-78351179D01*
X122531515Y-78340182D01*
X122531504Y-78340182D01*
X122494182Y-78336506D01*
X122456860Y-78340182D01*
X99775140Y-78340182D01*
X99737817Y-78336506D01*
X99700494Y-78340182D01*
X99700485Y-78340182D01*
X99588832Y-78351179D01*
X99445571Y-78394636D01*
X99313542Y-78465208D01*
X99197817Y-78560181D01*
X99174019Y-78589179D01*
X97512408Y-80250791D01*
X97292260Y-80207000D01*
X96999740Y-80207000D01*
X96712842Y-80264068D01*
X96442589Y-80376010D01*
X96199368Y-80538525D01*
X95992525Y-80745368D01*
X95830010Y-80988589D01*
X95718068Y-81258842D01*
X95661000Y-81545740D01*
X95661000Y-81838260D01*
X95704790Y-82058408D01*
X85914799Y-91848400D01*
X81272423Y-91848400D01*
X81301932Y-91777158D01*
X81359000Y-91490260D01*
X81359000Y-91197740D01*
X81301932Y-90910842D01*
X81189990Y-90640589D01*
X81027475Y-90397368D01*
X80820632Y-90190525D01*
X80646240Y-90074000D01*
X80820632Y-89957475D01*
X81027475Y-89750632D01*
X81189990Y-89507411D01*
X81301932Y-89237158D01*
X81359000Y-88950260D01*
X81359000Y-88657740D01*
X81301932Y-88370842D01*
X81189990Y-88100589D01*
X81027475Y-87857368D01*
X80820632Y-87650525D01*
X80646240Y-87534000D01*
X80820632Y-87417475D01*
X81027475Y-87210632D01*
X81189990Y-86967411D01*
X81301932Y-86697158D01*
X81359000Y-86410260D01*
X81359000Y-86117740D01*
X81301932Y-85830842D01*
X81189990Y-85560589D01*
X81027475Y-85317368D01*
X80820632Y-85110525D01*
X80646240Y-84994000D01*
X80820632Y-84877475D01*
X81027475Y-84670632D01*
X81189990Y-84427411D01*
X81301932Y-84157158D01*
X81359000Y-83870260D01*
X81359000Y-83577740D01*
X81301932Y-83290842D01*
X81189990Y-83020589D01*
X81027475Y-82777368D01*
X80820632Y-82570525D01*
X80646240Y-82454000D01*
X80820632Y-82337475D01*
X81027475Y-82130632D01*
X81189990Y-81887411D01*
X81301932Y-81617158D01*
X81359000Y-81330260D01*
X81359000Y-81037740D01*
X81301932Y-80750842D01*
X81189990Y-80480589D01*
X81027475Y-80237368D01*
X80820632Y-80030525D01*
X80646240Y-79914000D01*
X80820632Y-79797475D01*
X81027475Y-79590632D01*
X81189990Y-79347411D01*
X81301932Y-79077158D01*
X81359000Y-78790260D01*
X81359000Y-78497740D01*
X81301932Y-78210842D01*
X81189990Y-77940589D01*
X81027475Y-77697368D01*
X80820632Y-77490525D01*
X80647271Y-77374689D01*
X80722792Y-77132397D01*
X79874000Y-76283605D01*
X79025208Y-77132397D01*
X79100729Y-77374689D01*
X78927368Y-77490525D01*
X78720525Y-77697368D01*
X78604000Y-77871760D01*
X78487475Y-77697368D01*
X78280632Y-77490525D01*
X78106240Y-77374000D01*
X78280632Y-77257475D01*
X78487475Y-77050632D01*
X78603311Y-76877271D01*
X78845603Y-76952792D01*
X79694395Y-76104000D01*
X80053605Y-76104000D01*
X80902397Y-76952792D01*
X81151472Y-76875157D01*
X81277371Y-76611117D01*
X81349339Y-76327589D01*
X81364611Y-76035469D01*
X81322599Y-75745981D01*
X81224919Y-75470253D01*
X81151472Y-75332843D01*
X80902397Y-75255208D01*
X80053605Y-76104000D01*
X79694395Y-76104000D01*
X78845603Y-75255208D01*
X78603311Y-75330729D01*
X78487475Y-75157368D01*
X78280632Y-74950525D01*
X78106240Y-74834000D01*
X78280632Y-74717475D01*
X78487475Y-74510632D01*
X78604000Y-74336240D01*
X78720525Y-74510632D01*
X78927368Y-74717475D01*
X79100729Y-74833311D01*
X79025208Y-75075603D01*
X79874000Y-75924395D01*
X80722792Y-75075603D01*
X80647271Y-74833311D01*
X80820632Y-74717475D01*
X81027475Y-74510632D01*
X81189990Y-74267411D01*
X81301932Y-73997158D01*
X81359000Y-73710260D01*
X81359000Y-73417740D01*
X81301932Y-73130842D01*
X81189990Y-72860589D01*
X81027475Y-72617368D01*
X80820632Y-72410525D01*
X80646240Y-72294000D01*
X80820632Y-72177475D01*
X81027475Y-71970632D01*
X81189990Y-71727411D01*
X81301932Y-71457158D01*
X81359000Y-71170260D01*
X81359000Y-70877740D01*
X81301932Y-70590842D01*
X81189990Y-70320589D01*
X81027475Y-70077368D01*
X80820632Y-69870525D01*
X80646240Y-69754000D01*
X80820632Y-69637475D01*
X81027475Y-69430632D01*
X81189990Y-69187411D01*
X81301932Y-68917158D01*
X81359000Y-68630260D01*
X81359000Y-68337740D01*
X81301932Y-68050842D01*
X81189990Y-67780589D01*
X81027475Y-67537368D01*
X80820632Y-67330525D01*
X80646240Y-67214000D01*
X80820632Y-67097475D01*
X81027475Y-66890632D01*
X81189990Y-66647411D01*
X81301932Y-66377158D01*
X81359000Y-66090260D01*
X81359000Y-65797740D01*
X81301932Y-65510842D01*
X81189990Y-65240589D01*
X81027475Y-64997368D01*
X80820632Y-64790525D01*
X80646240Y-64674000D01*
X80820632Y-64557475D01*
X81027475Y-64350632D01*
X81189990Y-64107411D01*
X81301932Y-63837158D01*
X81359000Y-63550260D01*
X81359000Y-63257740D01*
X81301932Y-62970842D01*
X81189990Y-62700589D01*
X81027475Y-62457368D01*
X80820632Y-62250525D01*
X80646240Y-62134000D01*
X80820632Y-62017475D01*
X81027475Y-61810632D01*
X81189990Y-61567411D01*
X81301932Y-61297158D01*
X81359000Y-61010260D01*
X81359000Y-60717740D01*
X81301932Y-60430842D01*
X81189990Y-60160589D01*
X81053736Y-59956670D01*
X81076081Y-59958871D01*
X81155995Y-59951000D01*
X81156006Y-59951000D01*
X81395029Y-59927458D01*
X81701719Y-59834425D01*
X81984367Y-59683346D01*
X82232110Y-59480029D01*
X82283061Y-59417945D01*
X87352345Y-54348661D01*
X87414429Y-54297710D01*
X87465380Y-54235626D01*
X91289345Y-50411661D01*
X91351429Y-50360710D01*
X91554746Y-50112967D01*
X91705825Y-49830319D01*
X91798858Y-49523629D01*
X91822400Y-49284606D01*
X91830272Y-49204681D01*
X91822400Y-49124756D01*
X91822400Y-26241925D01*
X91830272Y-26162000D01*
X91798858Y-25843052D01*
X91757579Y-25706973D01*
X91705825Y-25536362D01*
X91554746Y-25253714D01*
X91351429Y-25005971D01*
X91289347Y-24955022D01*
X86402779Y-20068454D01*
X86351828Y-20006370D01*
X86104085Y-19803053D01*
X85821437Y-19651974D01*
X85514747Y-19558941D01*
X85275724Y-19535399D01*
X85275713Y-19535399D01*
X85195799Y-19527528D01*
X85115885Y-19535399D01*
X79951212Y-19535399D01*
X79871287Y-19527527D01*
X79791362Y-19535399D01*
X79552339Y-19558941D01*
X79245649Y-19651974D01*
X78963001Y-19803053D01*
X78777339Y-19955421D01*
X78777336Y-19955424D01*
X78715258Y-20006370D01*
X78664312Y-20068448D01*
X77635049Y-21097711D01*
X77572972Y-21148657D01*
X77522026Y-21210735D01*
X77522022Y-21210739D01*
X77466690Y-21278162D01*
X77369655Y-21396400D01*
X77218575Y-21679048D01*
X77181991Y-21799648D01*
X76954455Y-21678028D01*
X76579226Y-21564203D01*
X76286785Y-21535400D01*
X76091215Y-21535400D01*
X75798774Y-21564203D01*
X75423545Y-21678028D01*
X75077731Y-21862869D01*
X75033705Y-21899000D01*
X74381715Y-21899000D01*
X74301798Y-21891129D01*
X74221881Y-21899000D01*
X74221873Y-21899000D01*
X73982850Y-21922542D01*
X73676160Y-22015575D01*
X73393512Y-22166654D01*
X73145769Y-22369971D01*
X73094818Y-22432055D01*
X72731454Y-22795419D01*
X72669370Y-22846370D01*
X72466053Y-23094114D01*
X72314974Y-23376762D01*
X72221941Y-23683452D01*
X72198399Y-23922475D01*
X72198399Y-23922485D01*
X72190528Y-24002399D01*
X72198399Y-24082314D01*
X72198400Y-34415475D01*
X72190528Y-34495399D01*
X72198400Y-34575324D01*
X72221942Y-34814347D01*
X72290875Y-35041588D01*
X72314975Y-35121037D01*
X72466053Y-35403684D01*
X72618421Y-35589346D01*
X72618425Y-35589350D01*
X72669371Y-35651428D01*
X72731449Y-35702374D01*
X75389083Y-38360009D01*
X75432975Y-38580670D01*
X75582005Y-38940461D01*
X75798364Y-39264264D01*
X75808100Y-39274000D01*
X75798364Y-39283736D01*
X75582005Y-39607539D01*
X75432975Y-39967330D01*
X75357000Y-40349282D01*
X75357000Y-40738718D01*
X75432975Y-41120670D01*
X75582005Y-41480461D01*
X75798364Y-41804264D01*
X76073736Y-42079636D01*
X76174232Y-42146786D01*
X76018010Y-42380589D01*
X75906068Y-42650842D01*
X75849000Y-42937740D01*
X75849000Y-43230260D01*
X75906068Y-43517158D01*
X76018010Y-43787411D01*
X76158053Y-43997000D01*
X70737531Y-43997000D01*
X70616777Y-43916315D01*
X70266085Y-43771053D01*
X69893793Y-43697000D01*
X69514207Y-43697000D01*
X69141915Y-43771053D01*
X68791223Y-43916315D01*
X68475609Y-44127201D01*
X68207201Y-44395609D01*
X67996315Y-44711223D01*
X67851053Y-45061915D01*
X67777000Y-45434207D01*
X67777000Y-45813793D01*
X67851053Y-46186085D01*
X67996315Y-46536777D01*
X68207201Y-46852391D01*
X68475609Y-47120799D01*
X68791223Y-47331685D01*
X69141915Y-47476947D01*
X69514207Y-47551000D01*
X69893793Y-47551000D01*
X70266085Y-47476947D01*
X70616777Y-47331685D01*
X70737531Y-47251000D01*
X76210471Y-47251000D01*
X76303657Y-47313265D01*
X76305601Y-47315209D01*
X76056528Y-47392843D01*
X75930629Y-47656883D01*
X75858661Y-47940411D01*
X75843389Y-48232531D01*
X75885401Y-48522019D01*
X75983081Y-48797747D01*
X76056528Y-48935157D01*
X76305603Y-49012792D01*
X77154395Y-48164000D01*
X77140253Y-48149858D01*
X77319858Y-47970253D01*
X77334000Y-47984395D01*
X77348143Y-47970253D01*
X77527748Y-48149858D01*
X77513605Y-48164000D01*
X78362397Y-49012792D01*
X78604000Y-48937486D01*
X78845601Y-49012791D01*
X78843657Y-49014735D01*
X78613736Y-49168364D01*
X78338364Y-49443736D01*
X78271214Y-49544232D01*
X78107271Y-49434689D01*
X78182792Y-49192397D01*
X77334000Y-48343605D01*
X76485208Y-49192397D01*
X76560729Y-49434689D01*
X76387368Y-49550525D01*
X76180525Y-49757368D01*
X76018010Y-50000589D01*
X75906068Y-50270842D01*
X75849000Y-50557740D01*
X75849000Y-50850260D01*
X75906068Y-51137158D01*
X76018010Y-51407411D01*
X76180525Y-51650632D01*
X76387368Y-51857475D01*
X76561760Y-51974000D01*
X76387368Y-52090525D01*
X76180525Y-52297368D01*
X76018010Y-52540589D01*
X75906068Y-52810842D01*
X75849000Y-53097740D01*
X75849000Y-53390260D01*
X75906068Y-53677158D01*
X75977247Y-53848999D01*
X75603334Y-53848999D01*
X75566001Y-53845322D01*
X75528668Y-53848999D01*
X75417015Y-53859996D01*
X75273754Y-53903453D01*
X75141725Y-53974025D01*
X75026000Y-54068998D01*
X75002202Y-54097996D01*
X74088802Y-55011396D01*
X74059799Y-55035199D01*
X74033537Y-55067200D01*
X73964826Y-55150924D01*
X73953134Y-55172798D01*
X73894254Y-55282954D01*
X73850797Y-55426215D01*
X73839800Y-55537868D01*
X73839800Y-55537878D01*
X73836124Y-55575200D01*
X73839800Y-55612523D01*
X73839801Y-57481468D01*
X73836124Y-57518800D01*
X73850798Y-57667785D01*
X73894254Y-57811046D01*
X73964826Y-57943076D01*
X74015689Y-58005052D01*
X74059800Y-58058801D01*
X74088798Y-58082599D01*
X76077602Y-60071404D01*
X76018010Y-60160589D01*
X75906068Y-60430842D01*
X75849000Y-60717740D01*
X75849000Y-61010260D01*
X75906068Y-61297158D01*
X76018010Y-61567411D01*
X76180525Y-61810632D01*
X76387368Y-62017475D01*
X76561760Y-62134000D01*
X76387368Y-62250525D01*
X76180525Y-62457368D01*
X76018010Y-62700589D01*
X75906068Y-62970842D01*
X75849000Y-63257740D01*
X75849000Y-63550260D01*
X75906068Y-63837158D01*
X76018010Y-64107411D01*
X76180525Y-64350632D01*
X76387368Y-64557475D01*
X76561760Y-64674000D01*
X76387368Y-64790525D01*
X76180525Y-64997368D01*
X76018010Y-65240589D01*
X75906068Y-65510842D01*
X75849000Y-65797740D01*
X75849000Y-66090260D01*
X75906068Y-66377158D01*
X76018010Y-66647411D01*
X76180525Y-66890632D01*
X76387368Y-67097475D01*
X76561760Y-67214000D01*
X76387368Y-67330525D01*
X76180525Y-67537368D01*
X76018010Y-67780589D01*
X75906068Y-68050842D01*
X75849000Y-68337740D01*
X75849000Y-68630260D01*
X75906068Y-68917158D01*
X76018010Y-69187411D01*
X76180525Y-69430632D01*
X76387368Y-69637475D01*
X76561760Y-69754000D01*
X76387368Y-69870525D01*
X76180525Y-70077368D01*
X76018010Y-70320589D01*
X75906068Y-70590842D01*
X75849000Y-70877740D01*
X75849000Y-71170260D01*
X75906068Y-71457158D01*
X76018010Y-71727411D01*
X76180525Y-71970632D01*
X76387368Y-72177475D01*
X76561760Y-72294000D01*
X76387368Y-72410525D01*
X76180525Y-72617368D01*
X76018010Y-72860589D01*
X75906068Y-73130842D01*
X75849000Y-73417740D01*
X75849000Y-73710260D01*
X75906068Y-73997158D01*
X76018010Y-74267411D01*
X76180525Y-74510632D01*
X76387368Y-74717475D01*
X76561760Y-74834000D01*
X76387368Y-74950525D01*
X76180525Y-75157368D01*
X76018010Y-75400589D01*
X75906068Y-75670842D01*
X75849000Y-75957740D01*
X75849000Y-76250260D01*
X75906068Y-76537158D01*
X76018010Y-76807411D01*
X76180525Y-77050632D01*
X76387368Y-77257475D01*
X76561760Y-77374000D01*
X76387368Y-77490525D01*
X76180525Y-77697368D01*
X76018010Y-77940589D01*
X75906068Y-78210842D01*
X75849000Y-78497740D01*
X75849000Y-78790260D01*
X75906068Y-79077158D01*
X76018010Y-79347411D01*
X76180525Y-79590632D01*
X76387368Y-79797475D01*
X76561760Y-79914000D01*
X76387368Y-80030525D01*
X76180525Y-80237368D01*
X76018010Y-80480589D01*
X75906068Y-80750842D01*
X75849000Y-81037740D01*
X75849000Y-81330260D01*
X75906068Y-81617158D01*
X76018010Y-81887411D01*
X76180525Y-82130632D01*
X76387368Y-82337475D01*
X76561760Y-82454000D01*
X76387368Y-82570525D01*
X76180525Y-82777368D01*
X76018010Y-83020589D01*
X75906068Y-83290842D01*
X75849000Y-83577740D01*
X75849000Y-83870260D01*
X75906068Y-84157158D01*
X76018010Y-84427411D01*
X76180525Y-84670632D01*
X76387368Y-84877475D01*
X76560729Y-84993311D01*
X76485208Y-85235603D01*
X77334000Y-86084395D01*
X78182792Y-85235603D01*
X78107271Y-84993311D01*
X78280632Y-84877475D01*
X78487475Y-84670632D01*
X78604000Y-84496240D01*
X78720525Y-84670632D01*
X78927368Y-84877475D01*
X79101760Y-84994000D01*
X78927368Y-85110525D01*
X78720525Y-85317368D01*
X78604689Y-85490729D01*
X78362397Y-85415208D01*
X77513605Y-86264000D01*
X78362397Y-87112792D01*
X78604689Y-87037271D01*
X78720525Y-87210632D01*
X78927368Y-87417475D01*
X79101760Y-87534000D01*
X78927368Y-87650525D01*
X78720525Y-87857368D01*
X78604000Y-88031760D01*
X78487475Y-87857368D01*
X78280632Y-87650525D01*
X78107271Y-87534689D01*
X78182792Y-87292397D01*
X77334000Y-86443605D01*
X76485208Y-87292397D01*
X76560729Y-87534689D01*
X76387368Y-87650525D01*
X76180525Y-87857368D01*
X76018010Y-88100589D01*
X75906068Y-88370842D01*
X75849000Y-88657740D01*
X75849000Y-88950260D01*
X75906068Y-89237158D01*
X76018010Y-89507411D01*
X76180525Y-89750632D01*
X76387368Y-89957475D01*
X76561760Y-90074000D01*
X76387368Y-90190525D01*
X76180525Y-90397368D01*
X76018010Y-90640589D01*
X75906068Y-90910842D01*
X75849000Y-91197740D01*
X75849000Y-91490260D01*
X75906068Y-91777158D01*
X76018010Y-92047411D01*
X76180525Y-92290632D01*
X76387368Y-92497475D01*
X76561760Y-92614000D01*
X76387368Y-92730525D01*
X76180525Y-92937368D01*
X76055822Y-93124000D01*
X58384802Y-93124000D01*
X57463938Y-92203137D01*
X57567990Y-92047411D01*
X57679932Y-91777158D01*
X57737000Y-91490260D01*
X57737000Y-91197740D01*
X57679932Y-90910842D01*
X57567990Y-90640589D01*
X57405475Y-90397368D01*
X57198632Y-90190525D01*
X57024240Y-90074000D01*
X57198632Y-89957475D01*
X57405475Y-89750632D01*
X57567990Y-89507411D01*
X57679932Y-89237158D01*
X57737000Y-88950260D01*
X57737000Y-88657740D01*
X57679932Y-88370842D01*
X57567990Y-88100589D01*
X57405475Y-87857368D01*
X57198632Y-87650525D01*
X57024240Y-87534000D01*
X57198632Y-87417475D01*
X57405475Y-87210632D01*
X57567990Y-86967411D01*
X57679932Y-86697158D01*
X57737000Y-86410260D01*
X57737000Y-86332531D01*
X75843389Y-86332531D01*
X75885401Y-86622019D01*
X75983081Y-86897747D01*
X76056528Y-87035157D01*
X76305603Y-87112792D01*
X77154395Y-86264000D01*
X76305603Y-85415208D01*
X76056528Y-85492843D01*
X75930629Y-85756883D01*
X75858661Y-86040411D01*
X75843389Y-86332531D01*
X57737000Y-86332531D01*
X57737000Y-86117740D01*
X57679932Y-85830842D01*
X57567990Y-85560589D01*
X57405475Y-85317368D01*
X57198632Y-85110525D01*
X57024240Y-84994000D01*
X57198632Y-84877475D01*
X57405475Y-84670632D01*
X57567990Y-84427411D01*
X57679932Y-84157158D01*
X57737000Y-83870260D01*
X57737000Y-83577740D01*
X57679932Y-83290842D01*
X57567990Y-83020589D01*
X57405475Y-82777368D01*
X57198632Y-82570525D01*
X57024240Y-82454000D01*
X57198632Y-82337475D01*
X57405475Y-82130632D01*
X57567990Y-81887411D01*
X57679932Y-81617158D01*
X57737000Y-81330260D01*
X57737000Y-81037740D01*
X57679932Y-80750842D01*
X57567990Y-80480589D01*
X57405475Y-80237368D01*
X57198632Y-80030525D01*
X57024240Y-79914000D01*
X57198632Y-79797475D01*
X57405475Y-79590632D01*
X57567990Y-79347411D01*
X57679932Y-79077158D01*
X57737000Y-78790260D01*
X57737000Y-78497740D01*
X57679932Y-78210842D01*
X57567990Y-77940589D01*
X57405475Y-77697368D01*
X57198632Y-77490525D01*
X57025271Y-77374689D01*
X57100792Y-77132397D01*
X56252000Y-76283605D01*
X55403208Y-77132397D01*
X55478729Y-77374689D01*
X55305368Y-77490525D01*
X55098525Y-77697368D01*
X54982000Y-77871760D01*
X54865475Y-77697368D01*
X54658632Y-77490525D01*
X54484240Y-77374000D01*
X54658632Y-77257475D01*
X54865475Y-77050632D01*
X54981311Y-76877271D01*
X55223603Y-76952792D01*
X56072395Y-76104000D01*
X56431605Y-76104000D01*
X57280397Y-76952792D01*
X57529472Y-76875157D01*
X57655371Y-76611117D01*
X57727339Y-76327589D01*
X57742611Y-76035469D01*
X57700599Y-75745981D01*
X57602919Y-75470253D01*
X57529472Y-75332843D01*
X57280397Y-75255208D01*
X56431605Y-76104000D01*
X56072395Y-76104000D01*
X55223603Y-75255208D01*
X54981311Y-75330729D01*
X54865475Y-75157368D01*
X54658632Y-74950525D01*
X54484240Y-74834000D01*
X54658632Y-74717475D01*
X54865475Y-74510632D01*
X54982000Y-74336240D01*
X55098525Y-74510632D01*
X55305368Y-74717475D01*
X55478729Y-74833311D01*
X55403208Y-75075603D01*
X56252000Y-75924395D01*
X57100792Y-75075603D01*
X57025271Y-74833311D01*
X57198632Y-74717475D01*
X57405475Y-74510632D01*
X57567990Y-74267411D01*
X57679932Y-73997158D01*
X57737000Y-73710260D01*
X57737000Y-73417740D01*
X57679932Y-73130842D01*
X57567990Y-72860589D01*
X57405475Y-72617368D01*
X57198632Y-72410525D01*
X57024240Y-72294000D01*
X57198632Y-72177475D01*
X57405475Y-71970632D01*
X57567990Y-71727411D01*
X57679932Y-71457158D01*
X57737000Y-71170260D01*
X57737000Y-70877740D01*
X57679932Y-70590842D01*
X57567990Y-70320589D01*
X57405475Y-70077368D01*
X57198632Y-69870525D01*
X57024240Y-69754000D01*
X57198632Y-69637475D01*
X57405475Y-69430632D01*
X57567990Y-69187411D01*
X57679932Y-68917158D01*
X57737000Y-68630260D01*
X57737000Y-68337740D01*
X57679932Y-68050842D01*
X57567990Y-67780589D01*
X57405475Y-67537368D01*
X57198632Y-67330525D01*
X57024240Y-67214000D01*
X57198632Y-67097475D01*
X57405475Y-66890632D01*
X57567990Y-66647411D01*
X57679932Y-66377158D01*
X57737000Y-66090260D01*
X57737000Y-65797740D01*
X57679932Y-65510842D01*
X57567990Y-65240589D01*
X57405475Y-64997368D01*
X57198632Y-64790525D01*
X57024240Y-64674000D01*
X57198632Y-64557475D01*
X57405475Y-64350632D01*
X57567990Y-64107411D01*
X57679932Y-63837158D01*
X57737000Y-63550260D01*
X57737000Y-63257740D01*
X57679932Y-62970842D01*
X57567990Y-62700589D01*
X57405475Y-62457368D01*
X57198632Y-62250525D01*
X57024240Y-62134000D01*
X57198632Y-62017475D01*
X57405475Y-61810632D01*
X57532909Y-61619913D01*
X57603067Y-61613003D01*
X57746328Y-61569546D01*
X57878357Y-61498974D01*
X57994082Y-61404001D01*
X58089055Y-61288276D01*
X58159627Y-61156247D01*
X58203084Y-61012986D01*
X58217758Y-60864000D01*
X58203084Y-60715014D01*
X58159627Y-60571753D01*
X58089055Y-60439724D01*
X57994082Y-60323999D01*
X57878357Y-60229026D01*
X57746328Y-60158454D01*
X57603067Y-60114997D01*
X57532909Y-60108087D01*
X57431736Y-59956670D01*
X57454081Y-59958871D01*
X57533995Y-59951000D01*
X57534006Y-59951000D01*
X57773029Y-59927458D01*
X58079719Y-59834425D01*
X58362367Y-59683346D01*
X58610110Y-59480029D01*
X58661061Y-59417945D01*
X64543145Y-53535861D01*
X64605229Y-53484910D01*
X64808546Y-53237167D01*
X64959625Y-52954519D01*
X65052658Y-52647829D01*
X65076200Y-52408806D01*
X65084072Y-52328881D01*
X65076200Y-52248956D01*
X65076200Y-47059334D01*
X65104000Y-47062072D01*
X65618250Y-47059000D01*
X65777000Y-46900250D01*
X65777000Y-45751000D01*
X66031000Y-45751000D01*
X66031000Y-46900250D01*
X66189750Y-47059000D01*
X66704000Y-47062072D01*
X66828482Y-47049812D01*
X66948180Y-47013502D01*
X67058494Y-46954537D01*
X67155185Y-46875185D01*
X67234537Y-46778494D01*
X67293502Y-46668180D01*
X67329812Y-46548482D01*
X67342072Y-46424000D01*
X67339000Y-45909750D01*
X67180250Y-45751000D01*
X66031000Y-45751000D01*
X65777000Y-45751000D01*
X65757000Y-45751000D01*
X65757000Y-45497000D01*
X65777000Y-45497000D01*
X65777000Y-44347750D01*
X66031000Y-44347750D01*
X66031000Y-45497000D01*
X67180250Y-45497000D01*
X67339000Y-45338250D01*
X67342072Y-44824000D01*
X67329812Y-44699518D01*
X67293502Y-44579820D01*
X67234537Y-44469506D01*
X67155185Y-44372815D01*
X67058494Y-44293463D01*
X66948180Y-44234498D01*
X66828482Y-44198188D01*
X66704000Y-44185928D01*
X66189750Y-44189000D01*
X66031000Y-44347750D01*
X65777000Y-44347750D01*
X65618250Y-44189000D01*
X65104000Y-44185928D01*
X65076200Y-44188666D01*
X65076200Y-23727314D01*
X65084071Y-23647399D01*
X65076200Y-23567485D01*
X65076200Y-23567475D01*
X65052658Y-23328452D01*
X64959625Y-23021762D01*
X64808546Y-22739114D01*
X64767742Y-22689394D01*
X64656178Y-22553452D01*
X64656175Y-22553449D01*
X64605229Y-22491371D01*
X64543152Y-22440426D01*
X62171178Y-20068453D01*
X62120228Y-20006370D01*
X61872485Y-19803053D01*
X61589837Y-19651974D01*
X61283147Y-19558941D01*
X61044124Y-19535399D01*
X61044113Y-19535399D01*
X60964199Y-19527528D01*
X60884285Y-19535399D01*
X55950212Y-19535399D01*
X55870287Y-19527527D01*
X55790362Y-19535399D01*
X55551339Y-19558941D01*
X55244649Y-19651974D01*
X54962001Y-19803053D01*
X54776339Y-19955421D01*
X54776336Y-19955424D01*
X54714258Y-20006370D01*
X54663312Y-20068448D01*
X53634049Y-21097711D01*
X53571972Y-21148657D01*
X53521026Y-21210735D01*
X53521022Y-21210739D01*
X53465690Y-21278162D01*
X53368655Y-21396400D01*
X53217575Y-21679048D01*
X53180991Y-21799648D01*
X52953455Y-21678028D01*
X52578226Y-21564203D01*
X52285785Y-21535400D01*
X52090215Y-21535400D01*
X51797774Y-21564203D01*
X51422545Y-21678028D01*
X51076731Y-21862869D01*
X51032705Y-21899000D01*
X50380723Y-21899000D01*
X50300798Y-21891128D01*
X50220873Y-21899000D01*
X49981850Y-21922542D01*
X49675160Y-22015575D01*
X49392512Y-22166654D01*
X49144769Y-22369971D01*
X49093818Y-22432055D01*
X48690050Y-22835823D01*
X48627972Y-22886769D01*
X48577026Y-22948847D01*
X48577022Y-22948851D01*
X48424654Y-23134513D01*
X48295034Y-23377015D01*
X48273576Y-23417160D01*
X48180543Y-23723850D01*
X48159217Y-23940375D01*
X48149129Y-24042798D01*
X48157001Y-24122722D01*
X48157000Y-35198166D01*
X48149129Y-35278081D01*
X48157000Y-35357995D01*
X48157000Y-35358005D01*
X48180542Y-35597028D01*
X48273575Y-35903718D01*
X48424654Y-36186366D01*
X48627971Y-36434110D01*
X48690055Y-36485061D01*
X51302939Y-39097945D01*
X51353890Y-39160029D01*
X51601633Y-39363346D01*
X51884281Y-39514425D01*
X51998975Y-39549217D01*
X51960005Y-39607539D01*
X51810975Y-39967330D01*
X51735000Y-40349282D01*
X51735000Y-40738718D01*
X51810975Y-41120670D01*
X51960005Y-41480461D01*
X52176364Y-41804264D01*
X52451736Y-42079636D01*
X52552232Y-42146786D01*
X52396010Y-42380589D01*
X52284068Y-42650842D01*
X52227000Y-42937740D01*
X52227000Y-43230260D01*
X52284068Y-43517158D01*
X52396010Y-43787411D01*
X52536053Y-43997000D01*
X52296725Y-43997000D01*
X52216800Y-43989128D01*
X52136875Y-43997000D01*
X45533531Y-43997000D01*
X45412777Y-43916315D01*
X45062085Y-43771053D01*
X44689793Y-43697000D01*
X44310207Y-43697000D01*
X43937915Y-43771053D01*
X43587223Y-43916315D01*
X43271609Y-44127201D01*
X43003201Y-44395609D01*
X42792315Y-44711223D01*
X42647053Y-45061915D01*
X42573000Y-45434207D01*
X42573000Y-45813793D01*
X42647053Y-46186085D01*
X42792315Y-46536777D01*
X43003201Y-46852391D01*
X43271609Y-47120799D01*
X43587223Y-47331685D01*
X43937915Y-47476947D01*
X44310207Y-47551000D01*
X44689793Y-47551000D01*
X45062085Y-47476947D01*
X45412777Y-47331685D01*
X45533531Y-47251000D01*
X48447675Y-47251000D01*
X47343850Y-48354825D01*
X47281772Y-48405771D01*
X47230826Y-48467849D01*
X47230822Y-48467853D01*
X47078454Y-48653515D01*
X46943057Y-48906825D01*
X46927376Y-48936162D01*
X46834343Y-49242852D01*
X46815027Y-49438970D01*
X46802929Y-49561800D01*
X46810801Y-49641724D01*
X46810800Y-59050276D01*
X45581149Y-60279928D01*
X45579000Y-59867750D01*
X45420250Y-59709000D01*
X44196000Y-59709000D01*
X44196000Y-59729000D01*
X43942000Y-59729000D01*
X43942000Y-59709000D01*
X42717750Y-59709000D01*
X42559000Y-59867750D01*
X42555928Y-60457000D01*
X42568188Y-60581482D01*
X42604498Y-60701180D01*
X42609398Y-60710346D01*
X42513945Y-60805799D01*
X42294850Y-61133697D01*
X42143936Y-61498038D01*
X42067000Y-61884820D01*
X31802642Y-61884820D01*
X31804369Y-58707000D01*
X42555928Y-58707000D01*
X42559000Y-59296250D01*
X42717750Y-59455000D01*
X43942000Y-59455000D01*
X43942000Y-58230750D01*
X44196000Y-58230750D01*
X44196000Y-59455000D01*
X45420250Y-59455000D01*
X45579000Y-59296250D01*
X45582072Y-58707000D01*
X45569812Y-58582518D01*
X45533502Y-58462820D01*
X45474537Y-58352506D01*
X45395185Y-58255815D01*
X45298494Y-58176463D01*
X45188180Y-58117498D01*
X45068482Y-58081188D01*
X44944000Y-58068928D01*
X44354750Y-58072000D01*
X44196000Y-58230750D01*
X43942000Y-58230750D01*
X43783250Y-58072000D01*
X43194000Y-58068928D01*
X43069518Y-58081188D01*
X42949820Y-58117498D01*
X42839506Y-58176463D01*
X42742815Y-58255815D01*
X42663463Y-58352506D01*
X42604498Y-58462820D01*
X42568188Y-58582518D01*
X42555928Y-58707000D01*
X31804369Y-58707000D01*
X31811045Y-46424000D01*
X39561928Y-46424000D01*
X39574188Y-46548482D01*
X39610498Y-46668180D01*
X39669463Y-46778494D01*
X39748815Y-46875185D01*
X39845506Y-46954537D01*
X39955820Y-47013502D01*
X40075518Y-47049812D01*
X40200000Y-47062072D01*
X40714250Y-47059000D01*
X40873000Y-46900250D01*
X40873000Y-45751000D01*
X41127000Y-45751000D01*
X41127000Y-46900250D01*
X41285750Y-47059000D01*
X41800000Y-47062072D01*
X41924482Y-47049812D01*
X42044180Y-47013502D01*
X42154494Y-46954537D01*
X42251185Y-46875185D01*
X42330537Y-46778494D01*
X42389502Y-46668180D01*
X42425812Y-46548482D01*
X42438072Y-46424000D01*
X42435000Y-45909750D01*
X42276250Y-45751000D01*
X41127000Y-45751000D01*
X40873000Y-45751000D01*
X39723750Y-45751000D01*
X39565000Y-45909750D01*
X39561928Y-46424000D01*
X31811045Y-46424000D01*
X31811914Y-44824000D01*
X39561928Y-44824000D01*
X39565000Y-45338250D01*
X39723750Y-45497000D01*
X40873000Y-45497000D01*
X40873000Y-44347750D01*
X41127000Y-44347750D01*
X41127000Y-45497000D01*
X42276250Y-45497000D01*
X42435000Y-45338250D01*
X42438072Y-44824000D01*
X42425812Y-44699518D01*
X42389502Y-44579820D01*
X42330537Y-44469506D01*
X42251185Y-44372815D01*
X42154494Y-44293463D01*
X42044180Y-44234498D01*
X41924482Y-44198188D01*
X41800000Y-44185928D01*
X41285750Y-44189000D01*
X41127000Y-44347750D01*
X40873000Y-44347750D01*
X40714250Y-44189000D01*
X40200000Y-44185928D01*
X40075518Y-44198188D01*
X39955820Y-44234498D01*
X39845506Y-44293463D01*
X39748815Y-44372815D01*
X39669463Y-44469506D01*
X39610498Y-44579820D01*
X39574188Y-44699518D01*
X39561928Y-44824000D01*
X31811914Y-44824000D01*
X31822809Y-24779872D01*
X37765000Y-24779872D01*
X37765000Y-25220128D01*
X37850890Y-25651925D01*
X38019369Y-26058669D01*
X38263962Y-26424729D01*
X38575271Y-26736038D01*
X38941331Y-26980631D01*
X39348075Y-27149110D01*
X39779872Y-27235000D01*
X40220128Y-27235000D01*
X40651925Y-27149110D01*
X41058669Y-26980631D01*
X41424729Y-26736038D01*
X41736038Y-26424729D01*
X41980631Y-26058669D01*
X42149110Y-25651925D01*
X42235000Y-25220128D01*
X42235000Y-24779872D01*
X42149110Y-24348075D01*
X41980631Y-23941331D01*
X41736038Y-23575271D01*
X41424729Y-23263962D01*
X41058669Y-23019369D01*
X40651925Y-22850890D01*
X40220128Y-22765000D01*
X39779872Y-22765000D01*
X39348075Y-22850890D01*
X38941331Y-23019369D01*
X38575271Y-23263962D01*
X38263962Y-23575271D01*
X38019369Y-23941331D01*
X37850890Y-24348075D01*
X37765000Y-24779872D01*
X31822809Y-24779872D01*
X31826117Y-18694376D01*
X106783039Y-18680247D01*
X106686114Y-18732054D01*
X106438371Y-18935371D01*
X106387420Y-18997455D01*
X104688050Y-20696825D01*
X104625972Y-20747771D01*
X104575026Y-20809849D01*
X104575022Y-20809853D01*
X104422654Y-20995515D01*
X104420425Y-20999686D01*
X104271576Y-21278162D01*
X104178543Y-21584852D01*
X104155000Y-21823875D01*
X104155000Y-21823886D01*
X104147129Y-21903800D01*
X104155000Y-21983714D01*
X104155000Y-22336626D01*
X104078606Y-22273931D01*
X103818264Y-22134775D01*
X103535777Y-22049084D01*
X103315619Y-22027400D01*
X103168381Y-22027400D01*
X102948223Y-22049084D01*
X102665736Y-22134775D01*
X102405394Y-22273931D01*
X102177203Y-22461203D01*
X101989931Y-22689394D01*
X101850775Y-22949736D01*
X101765084Y-23232223D01*
X101736149Y-23526000D01*
X101765084Y-23819777D01*
X101790299Y-23902899D01*
X95630378Y-30062821D01*
X95616524Y-30070226D01*
X95500799Y-30165199D01*
X95477001Y-30194197D01*
X94078603Y-31592596D01*
X94049599Y-31616399D01*
X93994471Y-31683574D01*
X93954626Y-31732124D01*
X93899812Y-31834673D01*
X93884054Y-31864154D01*
X93840597Y-32007415D01*
X93829600Y-32119068D01*
X93829600Y-32119078D01*
X93825924Y-32156400D01*
X93829600Y-32193722D01*
X93829601Y-45327068D01*
X93825924Y-45364400D01*
X93829601Y-45401733D01*
X93832800Y-45434207D01*
X93840598Y-45513385D01*
X93884054Y-45656646D01*
X93954626Y-45788676D01*
X94015397Y-45862725D01*
X94049600Y-45904401D01*
X94078598Y-45928199D01*
X95346601Y-47196203D01*
X95370399Y-47225201D01*
X95486124Y-47320174D01*
X95618153Y-47390746D01*
X95761414Y-47434203D01*
X95873067Y-47445200D01*
X95873076Y-47445200D01*
X95910399Y-47448876D01*
X95947722Y-47445200D01*
X99095478Y-47445200D01*
X99132800Y-47448876D01*
X99170122Y-47445200D01*
X99170133Y-47445200D01*
X99281786Y-47434203D01*
X99425047Y-47390746D01*
X99557076Y-47320174D01*
X99672801Y-47225201D01*
X99696604Y-47196197D01*
X101859593Y-45033210D01*
X102079740Y-45077000D01*
X102372260Y-45077000D01*
X102659158Y-45019932D01*
X102929411Y-44907990D01*
X103172632Y-44745475D01*
X103379475Y-44538632D01*
X103495311Y-44365271D01*
X103737603Y-44440792D01*
X104586395Y-43592000D01*
X103737603Y-42743208D01*
X103495311Y-42818729D01*
X103379475Y-42645368D01*
X103172632Y-42438525D01*
X102929411Y-42276010D01*
X102659158Y-42164068D01*
X102372260Y-42107000D01*
X102079740Y-42107000D01*
X101792842Y-42164068D01*
X101522589Y-42276010D01*
X101279368Y-42438525D01*
X101072525Y-42645368D01*
X100956000Y-42819760D01*
X100839475Y-42645368D01*
X100632632Y-42438525D01*
X100446000Y-42313822D01*
X100446000Y-28823201D01*
X101909727Y-27359475D01*
X101927215Y-27380785D01*
X102023906Y-27460137D01*
X102134220Y-27519102D01*
X102253918Y-27555412D01*
X102378400Y-27567672D01*
X104105600Y-27567672D01*
X104230082Y-27555412D01*
X104349780Y-27519102D01*
X104460094Y-27460137D01*
X104556785Y-27380785D01*
X104636137Y-27284094D01*
X104695102Y-27173780D01*
X104714624Y-27109426D01*
X104771707Y-27172854D01*
X105007056Y-27348684D01*
X105272186Y-27475222D01*
X105422974Y-27520958D01*
X105655000Y-27399817D01*
X105655000Y-26193000D01*
X105635000Y-26193000D01*
X105635000Y-25939000D01*
X105655000Y-25939000D01*
X105655000Y-25919000D01*
X105909000Y-25919000D01*
X105909000Y-25939000D01*
X105929000Y-25939000D01*
X105929000Y-26193000D01*
X105909000Y-26193000D01*
X105909000Y-27399817D01*
X106141026Y-27520958D01*
X106291814Y-27475222D01*
X106556944Y-27348684D01*
X106792293Y-27172854D01*
X106988817Y-26954488D01*
X107046137Y-26858090D01*
X107069931Y-26902606D01*
X107257203Y-27130797D01*
X107485394Y-27318069D01*
X107565574Y-27360926D01*
X107572998Y-27436300D01*
X107580065Y-27459597D01*
X107616454Y-27579560D01*
X107687026Y-27711590D01*
X107757016Y-27796872D01*
X107782000Y-27827315D01*
X107810998Y-27851113D01*
X109086000Y-29126117D01*
X109086001Y-42313821D01*
X108908786Y-42432232D01*
X108841636Y-42331736D01*
X108566264Y-42056364D01*
X108242461Y-41840005D01*
X107882670Y-41690975D01*
X107500718Y-41615000D01*
X107111282Y-41615000D01*
X106729330Y-41690975D01*
X106369539Y-41840005D01*
X106045736Y-42056364D01*
X105770364Y-42331736D01*
X105616735Y-42561657D01*
X105614791Y-42563601D01*
X105537157Y-42314528D01*
X105273117Y-42188629D01*
X104989589Y-42116661D01*
X104697469Y-42101389D01*
X104407981Y-42143401D01*
X104132253Y-42241081D01*
X103994843Y-42314528D01*
X103917208Y-42563603D01*
X104766000Y-43412395D01*
X104780143Y-43398253D01*
X104959748Y-43577858D01*
X104945605Y-43592000D01*
X104959748Y-43606143D01*
X104780143Y-43785748D01*
X104766000Y-43771605D01*
X103917208Y-44620397D01*
X103994843Y-44869472D01*
X104258883Y-44995371D01*
X104542411Y-45067339D01*
X104834531Y-45082611D01*
X105124019Y-45040599D01*
X105399747Y-44942919D01*
X105537157Y-44869472D01*
X105614791Y-44620399D01*
X105616735Y-44622343D01*
X105678883Y-44715354D01*
X105671129Y-44794081D01*
X105679000Y-44873995D01*
X105679000Y-44874005D01*
X105702542Y-45113028D01*
X105795575Y-45419718D01*
X105946654Y-45702366D01*
X106149971Y-45950110D01*
X106212054Y-46001060D01*
X108701344Y-48490351D01*
X108752290Y-48552429D01*
X108814368Y-48603375D01*
X108814371Y-48603378D01*
X108947195Y-48712383D01*
X109000033Y-48755746D01*
X109282681Y-48906825D01*
X109589371Y-48999858D01*
X109720691Y-49012792D01*
X109908319Y-49031272D01*
X109988244Y-49023400D01*
X116556886Y-49023400D01*
X116636800Y-49031271D01*
X116716714Y-49023400D01*
X116716725Y-49023400D01*
X116955748Y-48999858D01*
X117262438Y-48906825D01*
X117545086Y-48755746D01*
X117792829Y-48552429D01*
X117843780Y-48490345D01*
X120194545Y-46139580D01*
X120256629Y-46088629D01*
X120459946Y-45840886D01*
X120611025Y-45558238D01*
X120704058Y-45251548D01*
X120727600Y-45012525D01*
X120727600Y-45012515D01*
X120735471Y-44932601D01*
X120727600Y-44852686D01*
X120727600Y-25530714D01*
X120735471Y-25450799D01*
X120727600Y-25370885D01*
X120727600Y-25370875D01*
X120704058Y-25131852D01*
X120611025Y-24825162D01*
X120563301Y-24735876D01*
X120459946Y-24542514D01*
X120307578Y-24356852D01*
X120307575Y-24356849D01*
X120256629Y-24294771D01*
X120194552Y-24243826D01*
X114948179Y-18997454D01*
X114897229Y-18935371D01*
X114649486Y-18732054D01*
X114549822Y-18678783D01*
X135111795Y-18674907D01*
X135052400Y-18706654D01*
X134866738Y-18859022D01*
X134866735Y-18859025D01*
X134804657Y-18909971D01*
X134753711Y-18972049D01*
X132628050Y-21097711D01*
X132565972Y-21148657D01*
X132515026Y-21210735D01*
X132515022Y-21210739D01*
X132459690Y-21278162D01*
X132362655Y-21396400D01*
X132211575Y-21679048D01*
X132118542Y-21985738D01*
X132095000Y-22224761D01*
X132095000Y-22224772D01*
X132087129Y-22304686D01*
X132089859Y-22332407D01*
X132018606Y-22273931D01*
X131758264Y-22134775D01*
X131475777Y-22049084D01*
X131255619Y-22027400D01*
X131108381Y-22027400D01*
X130888223Y-22049084D01*
X130605736Y-22134775D01*
X130345394Y-22273931D01*
X130117203Y-22461203D01*
X129929931Y-22689394D01*
X129790775Y-22949736D01*
X129705084Y-23232223D01*
X129676149Y-23526000D01*
X129705084Y-23819777D01*
X129730299Y-23902899D01*
X123478577Y-30154622D01*
X123464723Y-30162027D01*
X123348998Y-30257000D01*
X123325200Y-30285998D01*
X121942403Y-31668796D01*
X121913399Y-31692599D01*
X121866880Y-31749283D01*
X121818426Y-31808324D01*
X121804342Y-31834673D01*
X121747854Y-31940354D01*
X121704397Y-32083615D01*
X121693400Y-32195268D01*
X121693400Y-32195278D01*
X121689724Y-32232600D01*
X121693400Y-32269922D01*
X121693401Y-45098468D01*
X121689724Y-45135800D01*
X121693401Y-45173133D01*
X121697566Y-45215415D01*
X121704398Y-45284785D01*
X121747854Y-45428046D01*
X121818426Y-45560076D01*
X121870888Y-45624000D01*
X121913400Y-45675801D01*
X121942398Y-45699599D01*
X123007201Y-46764403D01*
X123030999Y-46793401D01*
X123146724Y-46888374D01*
X123278753Y-46958946D01*
X123422014Y-47002403D01*
X123533667Y-47013400D01*
X127467278Y-47013400D01*
X127504600Y-47017076D01*
X127541922Y-47013400D01*
X127541933Y-47013400D01*
X127653586Y-47002403D01*
X127796847Y-46958946D01*
X127928876Y-46888374D01*
X128044601Y-46793401D01*
X128068404Y-46764397D01*
X129799592Y-45033210D01*
X130019740Y-45077000D01*
X130312260Y-45077000D01*
X130599158Y-45019932D01*
X130869411Y-44907990D01*
X131112632Y-44745475D01*
X131319475Y-44538632D01*
X131435311Y-44365271D01*
X131677603Y-44440792D01*
X132526395Y-43592000D01*
X131677603Y-42743208D01*
X131435311Y-42818729D01*
X131319475Y-42645368D01*
X131112632Y-42438525D01*
X130869411Y-42276010D01*
X130599158Y-42164068D01*
X130312260Y-42107000D01*
X130185802Y-42107000D01*
X131693008Y-40599795D01*
X131722001Y-40576001D01*
X131745795Y-40547008D01*
X131745799Y-40547004D01*
X131816973Y-40460277D01*
X131816974Y-40460276D01*
X131887546Y-40328247D01*
X131931003Y-40184986D01*
X131942000Y-40073333D01*
X131942000Y-40073324D01*
X131945676Y-40036001D01*
X131942000Y-39998678D01*
X131942000Y-27567672D01*
X132045600Y-27567672D01*
X132170082Y-27555412D01*
X132289780Y-27519102D01*
X132400094Y-27460137D01*
X132496785Y-27380785D01*
X132576137Y-27284094D01*
X132635102Y-27173780D01*
X132654624Y-27109426D01*
X132711707Y-27172854D01*
X132947056Y-27348684D01*
X133212186Y-27475222D01*
X133362974Y-27520958D01*
X133595000Y-27399817D01*
X133595000Y-26193000D01*
X133575000Y-26193000D01*
X133575000Y-25939000D01*
X133595000Y-25939000D01*
X133595000Y-25919000D01*
X133849000Y-25919000D01*
X133849000Y-25939000D01*
X133869000Y-25939000D01*
X133869000Y-26193000D01*
X133849000Y-26193000D01*
X133849000Y-27399817D01*
X134081026Y-27520958D01*
X134231814Y-27475222D01*
X134496944Y-27348684D01*
X134732293Y-27172854D01*
X134928817Y-26954488D01*
X134986137Y-26858090D01*
X135009931Y-26902606D01*
X135197203Y-27130797D01*
X135425394Y-27318069D01*
X135685736Y-27457225D01*
X135968223Y-27542916D01*
X136188381Y-27564600D01*
X136335619Y-27564600D01*
X136555777Y-27542916D01*
X136838264Y-27457225D01*
X137026000Y-27356878D01*
X137026001Y-42313821D01*
X136848786Y-42432232D01*
X136781636Y-42331736D01*
X136506264Y-42056364D01*
X136182461Y-41840005D01*
X135822670Y-41690975D01*
X135440718Y-41615000D01*
X135051282Y-41615000D01*
X134669330Y-41690975D01*
X134309539Y-41840005D01*
X133985736Y-42056364D01*
X133710364Y-42331736D01*
X133556735Y-42561657D01*
X133554791Y-42563601D01*
X133477157Y-42314528D01*
X133213117Y-42188629D01*
X132929589Y-42116661D01*
X132637469Y-42101389D01*
X132347981Y-42143401D01*
X132072253Y-42241081D01*
X131934843Y-42314528D01*
X131857208Y-42563603D01*
X132706000Y-43412395D01*
X132720143Y-43398253D01*
X132899748Y-43577858D01*
X132885605Y-43592000D01*
X132899748Y-43606143D01*
X132720143Y-43785748D01*
X132706000Y-43771605D01*
X131857208Y-44620397D01*
X131934843Y-44869472D01*
X132198883Y-44995371D01*
X132482411Y-45067339D01*
X132774531Y-45082611D01*
X133064019Y-45040599D01*
X133339747Y-44942919D01*
X133477157Y-44869472D01*
X133554791Y-44620399D01*
X133556735Y-44622343D01*
X133618883Y-44715354D01*
X133611129Y-44794081D01*
X133619000Y-44873995D01*
X133619000Y-44874005D01*
X133642542Y-45113028D01*
X133735575Y-45419718D01*
X133886654Y-45702366D01*
X134089971Y-45950110D01*
X134152054Y-46001060D01*
X136641344Y-48490351D01*
X136692290Y-48552429D01*
X136754368Y-48603375D01*
X136754371Y-48603378D01*
X136887195Y-48712383D01*
X136940033Y-48755746D01*
X137222681Y-48906825D01*
X137529371Y-48999858D01*
X137660691Y-49012792D01*
X137848319Y-49031272D01*
X137928244Y-49023400D01*
X145538286Y-49023400D01*
X145618200Y-49031271D01*
X145698114Y-49023400D01*
X145698125Y-49023400D01*
X145937148Y-48999858D01*
X146243838Y-48906825D01*
X146526486Y-48755746D01*
X146774229Y-48552429D01*
X146825179Y-48490346D01*
X148032951Y-47282575D01*
X148095029Y-47231629D01*
X148145975Y-47169551D01*
X148145978Y-47169548D01*
X148298346Y-46983886D01*
X148449424Y-46701240D01*
X148449425Y-46701238D01*
X148542458Y-46394548D01*
X148566000Y-46155525D01*
X148566000Y-46155515D01*
X148573871Y-46075601D01*
X148566000Y-45995686D01*
X148566000Y-24895725D01*
X148573872Y-24815800D01*
X148570334Y-24779872D01*
X152765000Y-24779872D01*
X152765000Y-25220128D01*
X152850890Y-25651925D01*
X153019369Y-26058669D01*
X153263962Y-26424729D01*
X153575271Y-26736038D01*
X153941331Y-26980631D01*
X154348075Y-27149110D01*
X154779872Y-27235000D01*
X155220128Y-27235000D01*
X155651925Y-27149110D01*
X156058669Y-26980631D01*
X156424729Y-26736038D01*
X156736038Y-26424729D01*
X156980631Y-26058669D01*
X157149110Y-25651925D01*
X157235000Y-25220128D01*
X157235000Y-24779872D01*
X157149110Y-24348075D01*
X156980631Y-23941331D01*
X156736038Y-23575271D01*
X156424729Y-23263962D01*
X156058669Y-23019369D01*
X155651925Y-22850890D01*
X155220128Y-22765000D01*
X154779872Y-22765000D01*
X154348075Y-22850890D01*
X153941331Y-23019369D01*
X153575271Y-23263962D01*
X153263962Y-23575271D01*
X153019369Y-23941331D01*
X152850890Y-24348075D01*
X152765000Y-24779872D01*
X148570334Y-24779872D01*
X148542458Y-24496852D01*
X148523479Y-24434286D01*
X148449425Y-24190162D01*
X148298346Y-23907514D01*
X148095029Y-23659771D01*
X148032947Y-23608822D01*
X143396180Y-18972055D01*
X143345229Y-18909971D01*
X143097486Y-18706654D01*
X143035297Y-18673413D01*
X166319200Y-18669024D01*
X166319200Y-111887000D01*
X166319200Y-111887000D01*
G37*
X166319200Y-111887000D02*
X31775469Y-111887000D01*
X31779331Y-104779872D01*
X37765000Y-104779872D01*
X37765000Y-105220128D01*
X37850890Y-105651925D01*
X38019369Y-106058669D01*
X38263962Y-106424729D01*
X38575271Y-106736038D01*
X38941331Y-106980631D01*
X39348075Y-107149110D01*
X39779872Y-107235000D01*
X40220128Y-107235000D01*
X40651925Y-107149110D01*
X41058669Y-106980631D01*
X41424729Y-106736038D01*
X41736038Y-106424729D01*
X41980631Y-106058669D01*
X42149110Y-105651925D01*
X42235000Y-105220128D01*
X42235000Y-104779872D01*
X152765000Y-104779872D01*
X152765000Y-105220128D01*
X152850890Y-105651925D01*
X153019369Y-106058669D01*
X153263962Y-106424729D01*
X153575271Y-106736038D01*
X153941331Y-106980631D01*
X154348075Y-107149110D01*
X154779872Y-107235000D01*
X155220128Y-107235000D01*
X155651925Y-107149110D01*
X156058669Y-106980631D01*
X156424729Y-106736038D01*
X156736038Y-106424729D01*
X156980631Y-106058669D01*
X157149110Y-105651925D01*
X157235000Y-105220128D01*
X157235000Y-104779872D01*
X157149110Y-104348075D01*
X156980631Y-103941331D01*
X156736038Y-103575271D01*
X156424729Y-103263962D01*
X156058669Y-103019369D01*
X155651925Y-102850890D01*
X155220128Y-102765000D01*
X154779872Y-102765000D01*
X154348075Y-102850890D01*
X153941331Y-103019369D01*
X153575271Y-103263962D01*
X153263962Y-103575271D01*
X153019369Y-103941331D01*
X152850890Y-104348075D01*
X152765000Y-104779872D01*
X42235000Y-104779872D01*
X42149110Y-104348075D01*
X41980631Y-103941331D01*
X41736038Y-103575271D01*
X41424729Y-103263962D01*
X41058669Y-103019369D01*
X40651925Y-102850890D01*
X40220128Y-102765000D01*
X39779872Y-102765000D01*
X39348075Y-102850890D01*
X38941331Y-103019369D01*
X38575271Y-103263962D01*
X38263962Y-103575271D01*
X38019369Y-103941331D01*
X37850890Y-104348075D01*
X37765000Y-104779872D01*
X31779331Y-104779872D01*
X31786700Y-91219000D01*
X42555928Y-91219000D01*
X42559000Y-91808250D01*
X42717750Y-91967000D01*
X43942000Y-91967000D01*
X43942000Y-90742750D01*
X44196000Y-90742750D01*
X44196000Y-91967000D01*
X45420250Y-91967000D01*
X45579000Y-91808250D01*
X45582072Y-91219000D01*
X45569812Y-91094518D01*
X45533502Y-90974820D01*
X45474537Y-90864506D01*
X45395185Y-90767815D01*
X45298494Y-90688463D01*
X45188180Y-90629498D01*
X45068482Y-90593188D01*
X44944000Y-90580928D01*
X44354750Y-90584000D01*
X44196000Y-90742750D01*
X43942000Y-90742750D01*
X43783250Y-90584000D01*
X43194000Y-90580928D01*
X43069518Y-90593188D01*
X42949820Y-90629498D01*
X42839506Y-90688463D01*
X42742815Y-90767815D01*
X42663463Y-90864506D01*
X42604498Y-90974820D01*
X42568188Y-91094518D01*
X42555928Y-91219000D01*
X31786700Y-91219000D01*
X31789355Y-86332531D01*
X52221389Y-86332531D01*
X52263401Y-86622019D01*
X52361081Y-86897747D01*
X52434528Y-87035157D01*
X52683603Y-87112792D01*
X53532395Y-86264000D01*
X52683603Y-85415208D01*
X52434528Y-85492843D01*
X52308629Y-85756883D01*
X52236661Y-86040411D01*
X52221389Y-86332531D01*
X31789355Y-86332531D01*
X31796842Y-72556400D01*
X42555928Y-72556400D01*
X42559000Y-73145650D01*
X42717750Y-73304400D01*
X43942000Y-73304400D01*
X43942000Y-72080150D01*
X44196000Y-72080150D01*
X44196000Y-73304400D01*
X45420250Y-73304400D01*
X45579000Y-73145650D01*
X45582072Y-72556400D01*
X45569812Y-72431918D01*
X45533502Y-72312220D01*
X45474537Y-72201906D01*
X45395185Y-72105215D01*
X45298494Y-72025863D01*
X45188180Y-71966898D01*
X45068482Y-71930588D01*
X44944000Y-71918328D01*
X44354750Y-71921400D01*
X44196000Y-72080150D01*
X43942000Y-72080150D01*
X43783250Y-71921400D01*
X43194000Y-71918328D01*
X43069518Y-71930588D01*
X42949820Y-71966898D01*
X42839506Y-72025863D01*
X42742815Y-72105215D01*
X42663463Y-72201906D01*
X42604498Y-72312220D01*
X42568188Y-72431918D01*
X42555928Y-72556400D01*
X31796842Y-72556400D01*
X31802642Y-61884820D01*
X42067000Y-61884820D01*
X42067000Y-62279180D01*
X42143936Y-62665962D01*
X42294850Y-63030303D01*
X42513945Y-63358201D01*
X42792799Y-63637055D01*
X43120697Y-63856150D01*
X43485038Y-64007064D01*
X43871820Y-64084000D01*
X44266180Y-64084000D01*
X44652962Y-64007064D01*
X45017303Y-63856150D01*
X45237528Y-63709000D01*
X45634675Y-63709000D01*
X47141000Y-65215326D01*
X47141001Y-72508475D01*
X45580832Y-74068644D01*
X45579000Y-73717150D01*
X45420250Y-73558400D01*
X44196000Y-73558400D01*
X44196000Y-73578400D01*
X43942000Y-73578400D01*
X43942000Y-73558400D01*
X42717750Y-73558400D01*
X42559000Y-73717150D01*
X42555928Y-74306400D01*
X42568188Y-74430882D01*
X42604498Y-74550580D01*
X42609398Y-74559746D01*
X42513945Y-74655199D01*
X42294850Y-74983097D01*
X42143936Y-75347438D01*
X42067000Y-75734220D01*
X42067000Y-76128580D01*
X42143936Y-76515362D01*
X42294850Y-76879703D01*
X42513945Y-77207601D01*
X42792799Y-77486455D01*
X43120697Y-77705550D01*
X43485038Y-77856464D01*
X43871820Y-77933400D01*
X44266180Y-77933400D01*
X44652962Y-77856464D01*
X45017303Y-77705550D01*
X45237528Y-77558400D01*
X45939088Y-77558400D01*
X46019002Y-77566271D01*
X46098916Y-77558400D01*
X46098927Y-77558400D01*
X46337950Y-77534858D01*
X46644640Y-77441825D01*
X46927288Y-77290746D01*
X47175031Y-77087429D01*
X47225981Y-77025346D01*
X49861951Y-74389377D01*
X49924029Y-74338431D01*
X49974975Y-74276353D01*
X49974978Y-74276350D01*
X50127346Y-74090688D01*
X50278424Y-73808042D01*
X50278425Y-73808040D01*
X50371458Y-73501350D01*
X50395000Y-73262327D01*
X50395000Y-73262317D01*
X50402871Y-73182403D01*
X50395000Y-73102488D01*
X50395000Y-64621325D01*
X50402872Y-64541400D01*
X50371458Y-64222452D01*
X50278425Y-63915763D01*
X50278425Y-63915762D01*
X50127346Y-63633114D01*
X49974978Y-63447452D01*
X49974975Y-63447449D01*
X49924029Y-63385371D01*
X49861952Y-63334426D01*
X48495226Y-61967701D01*
X49531752Y-60931176D01*
X49593829Y-60880231D01*
X49644775Y-60818153D01*
X49644778Y-60818150D01*
X49797146Y-60632488D01*
X49853560Y-60526945D01*
X49948225Y-60349840D01*
X50041258Y-60043150D01*
X50064800Y-59804127D01*
X50064800Y-59804119D01*
X50072671Y-59724202D01*
X50064800Y-59644285D01*
X50064800Y-50235725D01*
X52229851Y-48070675D01*
X52221389Y-48232531D01*
X52263401Y-48522019D01*
X52361081Y-48797747D01*
X52434528Y-48935157D01*
X52683603Y-49012792D01*
X53532395Y-48164000D01*
X53518253Y-48149858D01*
X53697858Y-47970253D01*
X53712000Y-47984395D01*
X53726143Y-47970253D01*
X53905748Y-48149858D01*
X53891605Y-48164000D01*
X54740397Y-49012792D01*
X54982000Y-48937486D01*
X55223601Y-49012791D01*
X55221657Y-49014735D01*
X54991736Y-49168364D01*
X54716364Y-49443736D01*
X54649214Y-49544232D01*
X54485271Y-49434689D01*
X54560792Y-49192397D01*
X53712000Y-48343605D01*
X52863208Y-49192397D01*
X52938729Y-49434689D01*
X52765368Y-49550525D01*
X52558525Y-49757368D01*
X52396010Y-50000589D01*
X52284068Y-50270842D01*
X52227000Y-50557740D01*
X52227000Y-50850260D01*
X52284068Y-51137158D01*
X52396010Y-51407411D01*
X52558525Y-51650632D01*
X52765368Y-51857475D01*
X52939760Y-51974000D01*
X52765368Y-52090525D01*
X52558525Y-52297368D01*
X52396010Y-52540589D01*
X52284068Y-52810842D01*
X52227000Y-53097740D01*
X52227000Y-53390260D01*
X52284068Y-53677158D01*
X52384319Y-53919186D01*
X52281724Y-53974025D01*
X52239147Y-54008968D01*
X52166000Y-54068998D01*
X52142197Y-54098002D01*
X51736803Y-54503396D01*
X51707799Y-54527199D01*
X51652671Y-54594374D01*
X51612826Y-54642924D01*
X51597321Y-54671932D01*
X51542254Y-54774954D01*
X51498797Y-54918215D01*
X51487800Y-55029868D01*
X51487800Y-55029878D01*
X51484124Y-55067200D01*
X51487800Y-55104523D01*
X51487801Y-58509668D01*
X51484124Y-58547000D01*
X51498798Y-58695985D01*
X51542254Y-58839246D01*
X51612826Y-58971276D01*
X51622820Y-58983453D01*
X51707800Y-59087001D01*
X51736798Y-59110799D01*
X52552453Y-59926455D01*
X52396010Y-60160589D01*
X52284068Y-60430842D01*
X52227000Y-60717740D01*
X52227000Y-61010260D01*
X52284068Y-61297158D01*
X52396010Y-61567411D01*
X52558525Y-61810632D01*
X52765368Y-62017475D01*
X52939760Y-62134000D01*
X52765368Y-62250525D01*
X52558525Y-62457368D01*
X52396010Y-62700589D01*
X52284068Y-62970842D01*
X52227000Y-63257740D01*
X52227000Y-63550260D01*
X52284068Y-63837158D01*
X52396010Y-64107411D01*
X52558525Y-64350632D01*
X52765368Y-64557475D01*
X52939760Y-64674000D01*
X52765368Y-64790525D01*
X52558525Y-64997368D01*
X52396010Y-65240589D01*
X52284068Y-65510842D01*
X52227000Y-65797740D01*
X52227000Y-66090260D01*
X52284068Y-66377158D01*
X52396010Y-66647411D01*
X52558525Y-66890632D01*
X52765368Y-67097475D01*
X52939760Y-67214000D01*
X52765368Y-67330525D01*
X52558525Y-67537368D01*
X52396010Y-67780589D01*
X52284068Y-68050842D01*
X52227000Y-68337740D01*
X52227000Y-68630260D01*
X52284068Y-68917158D01*
X52396010Y-69187411D01*
X52558525Y-69430632D01*
X52765368Y-69637475D01*
X52939760Y-69754000D01*
X52765368Y-69870525D01*
X52558525Y-70077368D01*
X52396010Y-70320589D01*
X52284068Y-70590842D01*
X52227000Y-70877740D01*
X52227000Y-71170260D01*
X52284068Y-71457158D01*
X52396010Y-71727411D01*
X52558525Y-71970632D01*
X52765368Y-72177475D01*
X52939760Y-72294000D01*
X52765368Y-72410525D01*
X52558525Y-72617368D01*
X52396010Y-72860589D01*
X52284068Y-73130842D01*
X52227000Y-73417740D01*
X52227000Y-73710260D01*
X52284068Y-73997158D01*
X52396010Y-74267411D01*
X52558525Y-74510632D01*
X52765368Y-74717475D01*
X52939760Y-74834000D01*
X52765368Y-74950525D01*
X52558525Y-75157368D01*
X52396010Y-75400589D01*
X52284068Y-75670842D01*
X52227000Y-75957740D01*
X52227000Y-76250260D01*
X52284068Y-76537158D01*
X52396010Y-76807411D01*
X52558525Y-77050632D01*
X52765368Y-77257475D01*
X52939760Y-77374000D01*
X52765368Y-77490525D01*
X52558525Y-77697368D01*
X52396010Y-77940589D01*
X52284068Y-78210842D01*
X52227000Y-78497740D01*
X52227000Y-78790260D01*
X52284068Y-79077158D01*
X52396010Y-79347411D01*
X52558525Y-79590632D01*
X52765368Y-79797475D01*
X52939760Y-79914000D01*
X52765368Y-80030525D01*
X52558525Y-80237368D01*
X52396010Y-80480589D01*
X52284068Y-80750842D01*
X52227000Y-81037740D01*
X52227000Y-81330260D01*
X52284068Y-81617158D01*
X52396010Y-81887411D01*
X52558525Y-82130632D01*
X52765368Y-82337475D01*
X52939760Y-82454000D01*
X52765368Y-82570525D01*
X52558525Y-82777368D01*
X52396010Y-83020589D01*
X52284068Y-83290842D01*
X52227000Y-83577740D01*
X52227000Y-83870260D01*
X52284068Y-84157158D01*
X52396010Y-84427411D01*
X52558525Y-84670632D01*
X52765368Y-84877475D01*
X52938729Y-84993311D01*
X52863208Y-85235603D01*
X53712000Y-86084395D01*
X54560792Y-85235603D01*
X54485271Y-84993311D01*
X54658632Y-84877475D01*
X54865475Y-84670632D01*
X54982000Y-84496240D01*
X55098525Y-84670632D01*
X55305368Y-84877475D01*
X55479760Y-84994000D01*
X55305368Y-85110525D01*
X55098525Y-85317368D01*
X54982689Y-85490729D01*
X54740397Y-85415208D01*
X53891605Y-86264000D01*
X54740397Y-87112792D01*
X54982689Y-87037271D01*
X55098525Y-87210632D01*
X55305368Y-87417475D01*
X55479760Y-87534000D01*
X55305368Y-87650525D01*
X55098525Y-87857368D01*
X54982000Y-88031760D01*
X54865475Y-87857368D01*
X54658632Y-87650525D01*
X54485271Y-87534689D01*
X54560792Y-87292397D01*
X53712000Y-86443605D01*
X52863208Y-87292397D01*
X52938729Y-87534689D01*
X52765368Y-87650525D01*
X52558525Y-87857368D01*
X52396010Y-88100589D01*
X52284068Y-88370842D01*
X52227000Y-88657740D01*
X52227000Y-88950260D01*
X52284068Y-89237158D01*
X52396010Y-89507411D01*
X52558525Y-89750632D01*
X52765368Y-89957475D01*
X52939760Y-90074000D01*
X52765368Y-90190525D01*
X52558525Y-90397368D01*
X52396010Y-90640589D01*
X52284068Y-90910842D01*
X52227000Y-91197740D01*
X52227000Y-91490260D01*
X52284068Y-91777158D01*
X52396010Y-92047411D01*
X52558525Y-92290632D01*
X52765368Y-92497475D01*
X52939760Y-92614000D01*
X52765368Y-92730525D01*
X52558525Y-92937368D01*
X52433822Y-93124000D01*
X45560554Y-93124000D01*
X45569812Y-93093482D01*
X45582072Y-92969000D01*
X45579000Y-92379750D01*
X45420250Y-92221000D01*
X44196000Y-92221000D01*
X44196000Y-92241000D01*
X43942000Y-92241000D01*
X43942000Y-92221000D01*
X42717750Y-92221000D01*
X42559000Y-92379750D01*
X42555928Y-92969000D01*
X42568188Y-93093482D01*
X42604498Y-93213180D01*
X42663463Y-93323494D01*
X42742815Y-93420185D01*
X42839506Y-93499537D01*
X42949820Y-93558502D01*
X42964564Y-93562974D01*
X42896107Y-93631431D01*
X42730856Y-93878747D01*
X42617029Y-94153549D01*
X42559000Y-94445278D01*
X42559000Y-94742722D01*
X42617029Y-95034451D01*
X42730856Y-95309253D01*
X42896107Y-95556569D01*
X43106431Y-95766893D01*
X43221830Y-95844000D01*
X43106431Y-95921107D01*
X42896107Y-96131431D01*
X42730856Y-96378747D01*
X42617029Y-96653549D01*
X42559000Y-96945278D01*
X42559000Y-97242722D01*
X42617029Y-97534451D01*
X42730856Y-97809253D01*
X42896107Y-98056569D01*
X43106431Y-98266893D01*
X43353747Y-98432144D01*
X43628549Y-98545971D01*
X43920278Y-98604000D01*
X44217722Y-98604000D01*
X44509451Y-98545971D01*
X44784253Y-98432144D01*
X45031569Y-98266893D01*
X45241893Y-98056569D01*
X45407144Y-97809253D01*
X45520971Y-97534451D01*
X45579000Y-97242722D01*
X45579000Y-96945278D01*
X45541591Y-96757211D01*
X46288802Y-96010000D01*
X52284993Y-96010000D01*
X52236661Y-96200411D01*
X52221389Y-96492531D01*
X52263401Y-96782019D01*
X52361081Y-97057747D01*
X52434528Y-97195157D01*
X52683603Y-97272792D01*
X53532395Y-96424000D01*
X53518253Y-96409858D01*
X53697858Y-96230253D01*
X53712000Y-96244395D01*
X53726143Y-96230253D01*
X53905748Y-96409858D01*
X53891605Y-96424000D01*
X54740397Y-97272792D01*
X54982689Y-97197271D01*
X55098525Y-97370632D01*
X55305368Y-97577475D01*
X55479760Y-97694000D01*
X55305368Y-97810525D01*
X55098525Y-98017368D01*
X54982000Y-98191760D01*
X54865475Y-98017368D01*
X54658632Y-97810525D01*
X54485271Y-97694689D01*
X54560792Y-97452397D01*
X53712000Y-96603605D01*
X52863208Y-97452397D01*
X52938729Y-97694689D01*
X52765368Y-97810525D01*
X52558525Y-98017368D01*
X52396010Y-98260589D01*
X52284068Y-98530842D01*
X52227000Y-98817740D01*
X52227000Y-99110260D01*
X52284068Y-99397158D01*
X52396010Y-99667411D01*
X52558525Y-99910632D01*
X52765368Y-100117475D01*
X53008589Y-100279990D01*
X53278842Y-100391932D01*
X53565740Y-100449000D01*
X53858260Y-100449000D01*
X54145158Y-100391932D01*
X54415411Y-100279990D01*
X54658632Y-100117475D01*
X54865475Y-99910632D01*
X54982000Y-99736240D01*
X55098525Y-99910632D01*
X55305368Y-100117475D01*
X55548589Y-100279990D01*
X55818842Y-100391932D01*
X56105740Y-100449000D01*
X56398260Y-100449000D01*
X56685158Y-100391932D01*
X56955411Y-100279990D01*
X57198632Y-100117475D01*
X57405475Y-99910632D01*
X57567990Y-99667411D01*
X57679932Y-99397158D01*
X57737000Y-99110260D01*
X57737000Y-98817740D01*
X57679932Y-98530842D01*
X57567990Y-98260589D01*
X57405475Y-98017368D01*
X57198632Y-97810525D01*
X57024240Y-97694000D01*
X57198632Y-97577475D01*
X57405475Y-97370632D01*
X57567990Y-97127411D01*
X57679932Y-96857158D01*
X57737000Y-96570260D01*
X57737000Y-96277740D01*
X57693210Y-96057592D01*
X58426603Y-95324200D01*
X75580399Y-95324200D01*
X75839400Y-95583202D01*
X75863199Y-95612201D01*
X75978924Y-95707174D01*
X76020122Y-95729195D01*
X75930629Y-95916883D01*
X75858661Y-96200411D01*
X75843389Y-96492531D01*
X75885401Y-96782019D01*
X75983081Y-97057747D01*
X76056528Y-97195157D01*
X76305603Y-97272792D01*
X77154395Y-96424000D01*
X77140253Y-96409858D01*
X77319858Y-96230253D01*
X77334000Y-96244395D01*
X77348143Y-96230253D01*
X77527748Y-96409858D01*
X77513605Y-96424000D01*
X78362397Y-97272792D01*
X78604689Y-97197271D01*
X78720525Y-97370632D01*
X78927368Y-97577475D01*
X79101760Y-97694000D01*
X78927368Y-97810525D01*
X78720525Y-98017368D01*
X78604000Y-98191760D01*
X78487475Y-98017368D01*
X78280632Y-97810525D01*
X78107271Y-97694689D01*
X78182792Y-97452397D01*
X77334000Y-96603605D01*
X76485208Y-97452397D01*
X76560729Y-97694689D01*
X76387368Y-97810525D01*
X76180525Y-98017368D01*
X76018010Y-98260589D01*
X75906068Y-98530842D01*
X75849000Y-98817740D01*
X75849000Y-99110260D01*
X75906068Y-99397158D01*
X76018010Y-99667411D01*
X76180525Y-99910632D01*
X76387368Y-100117475D01*
X76630589Y-100279990D01*
X76900842Y-100391932D01*
X77187740Y-100449000D01*
X77480260Y-100449000D01*
X77767158Y-100391932D01*
X78037411Y-100279990D01*
X78280632Y-100117475D01*
X78487475Y-99910632D01*
X78604000Y-99736240D01*
X78720525Y-99910632D01*
X78927368Y-100117475D01*
X79170589Y-100279990D01*
X79440842Y-100391932D01*
X79727740Y-100449000D01*
X80020260Y-100449000D01*
X80307158Y-100391932D01*
X80577411Y-100279990D01*
X80820632Y-100117475D01*
X81027475Y-99910632D01*
X81189990Y-99667411D01*
X81301932Y-99397158D01*
X81359000Y-99110260D01*
X81359000Y-98817740D01*
X81301932Y-98530842D01*
X81189990Y-98260589D01*
X81027475Y-98017368D01*
X80820632Y-97810525D01*
X80646240Y-97694000D01*
X80820632Y-97577475D01*
X81027475Y-97370632D01*
X81189990Y-97127411D01*
X81301932Y-96857158D01*
X81359000Y-96570260D01*
X81359000Y-96277740D01*
X81301932Y-95990842D01*
X81229654Y-95816347D01*
X81605601Y-95440400D01*
X108416928Y-95440400D01*
X108429188Y-95564882D01*
X108465498Y-95684580D01*
X108524463Y-95794894D01*
X108603815Y-95891585D01*
X108700506Y-95970937D01*
X108810820Y-96029902D01*
X108930518Y-96066212D01*
X109055000Y-96078472D01*
X109569250Y-96075400D01*
X109728000Y-95916650D01*
X109728000Y-94767400D01*
X109982000Y-94767400D01*
X109982000Y-95916650D01*
X110140750Y-96075400D01*
X110655000Y-96078472D01*
X110779482Y-96066212D01*
X110899180Y-96029902D01*
X111009494Y-95970937D01*
X111106185Y-95891585D01*
X111185537Y-95794894D01*
X111244502Y-95684580D01*
X111280812Y-95564882D01*
X111293072Y-95440400D01*
X136382328Y-95440400D01*
X136394588Y-95564882D01*
X136430898Y-95684580D01*
X136489863Y-95794894D01*
X136569215Y-95891585D01*
X136665906Y-95970937D01*
X136776220Y-96029902D01*
X136895918Y-96066212D01*
X137020400Y-96078472D01*
X137534650Y-96075400D01*
X137693400Y-95916650D01*
X137693400Y-94767400D01*
X137947400Y-94767400D01*
X137947400Y-95916650D01*
X138106150Y-96075400D01*
X138620400Y-96078472D01*
X138744882Y-96066212D01*
X138864580Y-96029902D01*
X138974894Y-95970937D01*
X139071585Y-95891585D01*
X139150937Y-95794894D01*
X139209902Y-95684580D01*
X139246212Y-95564882D01*
X139258472Y-95440400D01*
X139255400Y-94926150D01*
X139096650Y-94767400D01*
X137947400Y-94767400D01*
X137693400Y-94767400D01*
X136544150Y-94767400D01*
X136385400Y-94926150D01*
X136382328Y-95440400D01*
X111293072Y-95440400D01*
X111290000Y-94926150D01*
X111131250Y-94767400D01*
X109982000Y-94767400D01*
X109728000Y-94767400D01*
X108578750Y-94767400D01*
X108420000Y-94926150D01*
X108416928Y-95440400D01*
X81605601Y-95440400D01*
X83017202Y-94028800D01*
X86449678Y-94028800D01*
X86487000Y-94032476D01*
X86524322Y-94028800D01*
X86524333Y-94028800D01*
X86635986Y-94017803D01*
X86779247Y-93974346D01*
X86911276Y-93903774D01*
X86988497Y-93840400D01*
X108416928Y-93840400D01*
X108420000Y-94354650D01*
X108578750Y-94513400D01*
X109728000Y-94513400D01*
X109728000Y-93364150D01*
X109982000Y-93364150D01*
X109982000Y-94513400D01*
X111131250Y-94513400D01*
X111290000Y-94354650D01*
X111293072Y-93840400D01*
X136382328Y-93840400D01*
X136385400Y-94354650D01*
X136544150Y-94513400D01*
X137693400Y-94513400D01*
X137693400Y-93364150D01*
X137947400Y-93364150D01*
X137947400Y-94513400D01*
X139096650Y-94513400D01*
X139255400Y-94354650D01*
X139258472Y-93840400D01*
X139246212Y-93715918D01*
X139209902Y-93596220D01*
X139150937Y-93485906D01*
X139071585Y-93389215D01*
X138974894Y-93309863D01*
X138864580Y-93250898D01*
X138744882Y-93214588D01*
X138620400Y-93202328D01*
X138106150Y-93205400D01*
X137947400Y-93364150D01*
X137693400Y-93364150D01*
X137534650Y-93205400D01*
X137020400Y-93202328D01*
X136895918Y-93214588D01*
X136776220Y-93250898D01*
X136665906Y-93309863D01*
X136569215Y-93389215D01*
X136489863Y-93485906D01*
X136430898Y-93596220D01*
X136394588Y-93715918D01*
X136382328Y-93840400D01*
X111293072Y-93840400D01*
X111280812Y-93715918D01*
X111244502Y-93596220D01*
X111185537Y-93485906D01*
X111106185Y-93389215D01*
X111009494Y-93309863D01*
X110899180Y-93250898D01*
X110779482Y-93214588D01*
X110655000Y-93202328D01*
X110140750Y-93205400D01*
X109982000Y-93364150D01*
X109728000Y-93364150D01*
X109569250Y-93205400D01*
X109055000Y-93202328D01*
X108930518Y-93214588D01*
X108810820Y-93250898D01*
X108700506Y-93309863D01*
X108603815Y-93389215D01*
X108524463Y-93485906D01*
X108465498Y-93596220D01*
X108429188Y-93715918D01*
X108416928Y-93840400D01*
X86988497Y-93840400D01*
X87027001Y-93808801D01*
X87050804Y-93779797D01*
X97203601Y-83627001D01*
X97672679Y-83627001D01*
X97710001Y-83630677D01*
X97747323Y-83627001D01*
X97747334Y-83627001D01*
X97858987Y-83616004D01*
X98002248Y-83572547D01*
X98134277Y-83501975D01*
X98250002Y-83407002D01*
X98273804Y-83377999D01*
X98779509Y-82872296D01*
X98982589Y-83007990D01*
X99252842Y-83119932D01*
X99539740Y-83177000D01*
X99832260Y-83177000D01*
X100119158Y-83119932D01*
X100389411Y-83007990D01*
X100632632Y-82845475D01*
X100757710Y-82720397D01*
X101377208Y-82720397D01*
X101454843Y-82969472D01*
X101718883Y-83095371D01*
X102002411Y-83167339D01*
X102294531Y-83182611D01*
X102584019Y-83140599D01*
X102859747Y-83042919D01*
X102997157Y-82969472D01*
X103074792Y-82720397D01*
X102226000Y-81871605D01*
X101377208Y-82720397D01*
X100757710Y-82720397D01*
X100839475Y-82638632D01*
X100955311Y-82465271D01*
X101197603Y-82540792D01*
X102046395Y-81692000D01*
X101197603Y-80843208D01*
X100955311Y-80918729D01*
X100839475Y-80745368D01*
X100632632Y-80538525D01*
X100446000Y-80413822D01*
X100446000Y-80310192D01*
X101679445Y-80310192D01*
X101592253Y-80341081D01*
X101454843Y-80414528D01*
X101377208Y-80663603D01*
X102226000Y-81512395D01*
X103074792Y-80663603D01*
X102997157Y-80414528D01*
X102778340Y-80310192D01*
X104221488Y-80310192D01*
X104062589Y-80376010D01*
X103819368Y-80538525D01*
X103612525Y-80745368D01*
X103496689Y-80918729D01*
X103254397Y-80843208D01*
X102405605Y-81692000D01*
X103254397Y-82540792D01*
X103496689Y-82465271D01*
X103612525Y-82638632D01*
X103819368Y-82845475D01*
X104062589Y-83007990D01*
X104332842Y-83119932D01*
X104619740Y-83177000D01*
X104912260Y-83177000D01*
X105199158Y-83119932D01*
X105469411Y-83007990D01*
X105712632Y-82845475D01*
X105919475Y-82638632D01*
X106036000Y-82464240D01*
X106152525Y-82638632D01*
X106359368Y-82845475D01*
X106602589Y-83007990D01*
X106872842Y-83119932D01*
X107159740Y-83177000D01*
X107452260Y-83177000D01*
X107739158Y-83119932D01*
X108009411Y-83007990D01*
X108219000Y-82867947D01*
X108219001Y-87185465D01*
X108211128Y-87265400D01*
X108219000Y-87345325D01*
X108219001Y-90120337D01*
X108147315Y-90227623D01*
X108002053Y-90578315D01*
X107928000Y-90950607D01*
X107928000Y-91330193D01*
X108002053Y-91702485D01*
X108147315Y-92053177D01*
X108358201Y-92368791D01*
X108626609Y-92637199D01*
X108942223Y-92848085D01*
X109292915Y-92993347D01*
X109665207Y-93067400D01*
X110044793Y-93067400D01*
X110417085Y-92993347D01*
X110767777Y-92848085D01*
X111083391Y-92637199D01*
X111351799Y-92368791D01*
X111562685Y-92053177D01*
X111707947Y-91702485D01*
X111782000Y-91330193D01*
X111782000Y-90950607D01*
X111707947Y-90578315D01*
X111562685Y-90227623D01*
X111473000Y-90093400D01*
X111473000Y-87957325D01*
X112535526Y-86894800D01*
X135216075Y-86894800D01*
X136159000Y-87837726D01*
X136159001Y-90158351D01*
X136112715Y-90227623D01*
X135967453Y-90578315D01*
X135893400Y-90950607D01*
X135893400Y-91330193D01*
X135967453Y-91702485D01*
X136112715Y-92053177D01*
X136323601Y-92368791D01*
X136592009Y-92637199D01*
X136907623Y-92848085D01*
X137258315Y-92993347D01*
X137630607Y-93067400D01*
X138010193Y-93067400D01*
X138382485Y-92993347D01*
X138733177Y-92848085D01*
X139048791Y-92637199D01*
X139317199Y-92368791D01*
X139528085Y-92053177D01*
X139673347Y-91702485D01*
X139747400Y-91330193D01*
X139747400Y-90950607D01*
X139673347Y-90578315D01*
X139528085Y-90227623D01*
X139413000Y-90055386D01*
X139413000Y-87243717D01*
X139420871Y-87163800D01*
X139413000Y-87083883D01*
X139413000Y-82815529D01*
X139475265Y-82722343D01*
X139477209Y-82720399D01*
X139554843Y-82969472D01*
X139818883Y-83095371D01*
X140102411Y-83167339D01*
X140394531Y-83182611D01*
X140684019Y-83140599D01*
X140959747Y-83042919D01*
X141097157Y-82969472D01*
X141174792Y-82720397D01*
X140326000Y-81871605D01*
X140311858Y-81885748D01*
X140132253Y-81706143D01*
X140146395Y-81692000D01*
X140505605Y-81692000D01*
X141354397Y-82540792D01*
X141596689Y-82465271D01*
X141712525Y-82638632D01*
X141919368Y-82845475D01*
X142162589Y-83007990D01*
X142432842Y-83119932D01*
X142719740Y-83177000D01*
X143012260Y-83177000D01*
X143299158Y-83119932D01*
X143569411Y-83007990D01*
X143812632Y-82845475D01*
X144019475Y-82638632D01*
X144181990Y-82395411D01*
X144293932Y-82125158D01*
X144351000Y-81838260D01*
X144351000Y-81545740D01*
X144293932Y-81258842D01*
X144181990Y-80988589D01*
X144019475Y-80745368D01*
X143812632Y-80538525D01*
X143569411Y-80376010D01*
X143299158Y-80264068D01*
X143012260Y-80207000D01*
X142719740Y-80207000D01*
X142432842Y-80264068D01*
X142162589Y-80376010D01*
X141919368Y-80538525D01*
X141712525Y-80745368D01*
X141596689Y-80918729D01*
X141354397Y-80843208D01*
X140505605Y-81692000D01*
X140146395Y-81692000D01*
X140132253Y-81677858D01*
X140311858Y-81498253D01*
X140326000Y-81512395D01*
X141174792Y-80663603D01*
X141097157Y-80414528D01*
X140833117Y-80288629D01*
X140549589Y-80216661D01*
X140257469Y-80201389D01*
X139967981Y-80243401D01*
X139692253Y-80341081D01*
X139554843Y-80414528D01*
X139477209Y-80663601D01*
X139475265Y-80661657D01*
X139321636Y-80431736D01*
X139046264Y-80156364D01*
X138824222Y-80008000D01*
X145544001Y-80008000D01*
X145544000Y-87796529D01*
X145540324Y-87833851D01*
X145544000Y-87871173D01*
X145544000Y-87871183D01*
X145554997Y-87982836D01*
X145593646Y-88110248D01*
X145598454Y-88126097D01*
X145669026Y-88258127D01*
X145699712Y-88295517D01*
X145763999Y-88373852D01*
X145793002Y-88397654D01*
X146104986Y-88709639D01*
X146054438Y-88760187D01*
X145908339Y-88978841D01*
X145807704Y-89221795D01*
X145756400Y-89479714D01*
X145756400Y-89742686D01*
X145807704Y-90000605D01*
X145908339Y-90243559D01*
X146054438Y-90462213D01*
X146240387Y-90648162D01*
X146459041Y-90794261D01*
X146701995Y-90894896D01*
X146959914Y-90946200D01*
X147222886Y-90946200D01*
X147480805Y-90894896D01*
X147723759Y-90794261D01*
X147942413Y-90648162D01*
X148128362Y-90462213D01*
X148274461Y-90243559D01*
X148375096Y-90000605D01*
X148426400Y-89742686D01*
X148426400Y-89479714D01*
X148375096Y-89221795D01*
X148274461Y-88978841D01*
X148128362Y-88760187D01*
X147942413Y-88574238D01*
X147843968Y-88508460D01*
X147840403Y-88472265D01*
X147796946Y-88329004D01*
X147726374Y-88196975D01*
X147631401Y-88081250D01*
X147602402Y-88057452D01*
X147064000Y-87519050D01*
X147064000Y-79398400D01*
X148573599Y-79398400D01*
X150473747Y-81298550D01*
X150415000Y-81593891D01*
X150415000Y-81906109D01*
X150475911Y-82212327D01*
X150595391Y-82500779D01*
X150754021Y-82738186D01*
X150695506Y-82769463D01*
X150598815Y-82848815D01*
X150519463Y-82945506D01*
X150460498Y-83055820D01*
X150424188Y-83175518D01*
X150411928Y-83300000D01*
X150411928Y-85200000D01*
X150424188Y-85324482D01*
X150460498Y-85444180D01*
X150519463Y-85554494D01*
X150598815Y-85651185D01*
X150695506Y-85730537D01*
X150805820Y-85789502D01*
X150925518Y-85825812D01*
X151050000Y-85838072D01*
X152950000Y-85838072D01*
X153074482Y-85825812D01*
X153194180Y-85789502D01*
X153304494Y-85730537D01*
X153401185Y-85651185D01*
X153457618Y-85582420D01*
X153951400Y-86076203D01*
X153951401Y-88507902D01*
X153762845Y-88662645D01*
X153596018Y-88865925D01*
X153472053Y-89097846D01*
X153395717Y-89349494D01*
X153369941Y-89611200D01*
X153395717Y-89872906D01*
X153472053Y-90124554D01*
X153596018Y-90356475D01*
X153762845Y-90559755D01*
X153966125Y-90726582D01*
X154198046Y-90850547D01*
X154449694Y-90926883D01*
X154645821Y-90946200D01*
X154776979Y-90946200D01*
X154973106Y-90926883D01*
X155224754Y-90850547D01*
X155456675Y-90726582D01*
X155659955Y-90559755D01*
X155826782Y-90356475D01*
X155950747Y-90124554D01*
X156027083Y-89872906D01*
X156052859Y-89611200D01*
X156027083Y-89349494D01*
X155950747Y-89097846D01*
X155826782Y-88865925D01*
X155659955Y-88662645D01*
X155471400Y-88507902D01*
X155471400Y-85798722D01*
X155475076Y-85761399D01*
X155471400Y-85724076D01*
X155471400Y-85724067D01*
X155460403Y-85612414D01*
X155416946Y-85469153D01*
X155346374Y-85337124D01*
X155330161Y-85317368D01*
X155275199Y-85250396D01*
X155275195Y-85250392D01*
X155251401Y-85221399D01*
X155222409Y-85197606D01*
X153763803Y-83739002D01*
X153740001Y-83709999D01*
X153624276Y-83615026D01*
X153588072Y-83595674D01*
X153588072Y-83300000D01*
X153575812Y-83175518D01*
X153539502Y-83055820D01*
X153480537Y-82945506D01*
X153401185Y-82848815D01*
X153304494Y-82769463D01*
X153245979Y-82738186D01*
X153404609Y-82500779D01*
X153524089Y-82212327D01*
X153585000Y-81906109D01*
X153585000Y-81593891D01*
X153524089Y-81287673D01*
X153404609Y-80999221D01*
X153231150Y-80739621D01*
X153010379Y-80518850D01*
X152982168Y-80500000D01*
X153010379Y-80481150D01*
X153231150Y-80260379D01*
X153404609Y-80000779D01*
X153524089Y-79712327D01*
X153585000Y-79406109D01*
X153585000Y-79093891D01*
X153524089Y-78787673D01*
X153404609Y-78499221D01*
X153231150Y-78239621D01*
X153010379Y-78018850D01*
X152750779Y-77845391D01*
X152462327Y-77725911D01*
X152156109Y-77665000D01*
X151843891Y-77665000D01*
X151537673Y-77725911D01*
X151249221Y-77845391D01*
X150989621Y-78018850D01*
X150768850Y-78239621D01*
X150595391Y-78499221D01*
X150475911Y-78787673D01*
X150415613Y-79090811D01*
X149452204Y-78127402D01*
X149428401Y-78098399D01*
X149312676Y-78003426D01*
X149180647Y-77932854D01*
X149037386Y-77889397D01*
X148925733Y-77878400D01*
X148925722Y-77878400D01*
X148888400Y-77874724D01*
X148851078Y-77878400D01*
X128176933Y-77878400D01*
X128139600Y-77874723D01*
X128102267Y-77878400D01*
X127990614Y-77889397D01*
X127847353Y-77932854D01*
X127715324Y-78003426D01*
X127599599Y-78098399D01*
X127575801Y-78127397D01*
X125452408Y-80250791D01*
X125232260Y-80207000D01*
X124939740Y-80207000D01*
X124719592Y-80250790D01*
X123057986Y-78589185D01*
X123034183Y-78560181D01*
X122918458Y-78465208D01*
X122786429Y-78394636D01*
X122643168Y-78351179D01*
X122531515Y-78340182D01*
X122531504Y-78340182D01*
X122494182Y-78336506D01*
X122456860Y-78340182D01*
X99775140Y-78340182D01*
X99737817Y-78336506D01*
X99700494Y-78340182D01*
X99700485Y-78340182D01*
X99588832Y-78351179D01*
X99445571Y-78394636D01*
X99313542Y-78465208D01*
X99197817Y-78560181D01*
X99174019Y-78589179D01*
X97512408Y-80250791D01*
X97292260Y-80207000D01*
X96999740Y-80207000D01*
X96712842Y-80264068D01*
X96442589Y-80376010D01*
X96199368Y-80538525D01*
X95992525Y-80745368D01*
X95830010Y-80988589D01*
X95718068Y-81258842D01*
X95661000Y-81545740D01*
X95661000Y-81838260D01*
X95704790Y-82058408D01*
X85914799Y-91848400D01*
X81272423Y-91848400D01*
X81301932Y-91777158D01*
X81359000Y-91490260D01*
X81359000Y-91197740D01*
X81301932Y-90910842D01*
X81189990Y-90640589D01*
X81027475Y-90397368D01*
X80820632Y-90190525D01*
X80646240Y-90074000D01*
X80820632Y-89957475D01*
X81027475Y-89750632D01*
X81189990Y-89507411D01*
X81301932Y-89237158D01*
X81359000Y-88950260D01*
X81359000Y-88657740D01*
X81301932Y-88370842D01*
X81189990Y-88100589D01*
X81027475Y-87857368D01*
X80820632Y-87650525D01*
X80646240Y-87534000D01*
X80820632Y-87417475D01*
X81027475Y-87210632D01*
X81189990Y-86967411D01*
X81301932Y-86697158D01*
X81359000Y-86410260D01*
X81359000Y-86117740D01*
X81301932Y-85830842D01*
X81189990Y-85560589D01*
X81027475Y-85317368D01*
X80820632Y-85110525D01*
X80646240Y-84994000D01*
X80820632Y-84877475D01*
X81027475Y-84670632D01*
X81189990Y-84427411D01*
X81301932Y-84157158D01*
X81359000Y-83870260D01*
X81359000Y-83577740D01*
X81301932Y-83290842D01*
X81189990Y-83020589D01*
X81027475Y-82777368D01*
X80820632Y-82570525D01*
X80646240Y-82454000D01*
X80820632Y-82337475D01*
X81027475Y-82130632D01*
X81189990Y-81887411D01*
X81301932Y-81617158D01*
X81359000Y-81330260D01*
X81359000Y-81037740D01*
X81301932Y-80750842D01*
X81189990Y-80480589D01*
X81027475Y-80237368D01*
X80820632Y-80030525D01*
X80646240Y-79914000D01*
X80820632Y-79797475D01*
X81027475Y-79590632D01*
X81189990Y-79347411D01*
X81301932Y-79077158D01*
X81359000Y-78790260D01*
X81359000Y-78497740D01*
X81301932Y-78210842D01*
X81189990Y-77940589D01*
X81027475Y-77697368D01*
X80820632Y-77490525D01*
X80647271Y-77374689D01*
X80722792Y-77132397D01*
X79874000Y-76283605D01*
X79025208Y-77132397D01*
X79100729Y-77374689D01*
X78927368Y-77490525D01*
X78720525Y-77697368D01*
X78604000Y-77871760D01*
X78487475Y-77697368D01*
X78280632Y-77490525D01*
X78106240Y-77374000D01*
X78280632Y-77257475D01*
X78487475Y-77050632D01*
X78603311Y-76877271D01*
X78845603Y-76952792D01*
X79694395Y-76104000D01*
X80053605Y-76104000D01*
X80902397Y-76952792D01*
X81151472Y-76875157D01*
X81277371Y-76611117D01*
X81349339Y-76327589D01*
X81364611Y-76035469D01*
X81322599Y-75745981D01*
X81224919Y-75470253D01*
X81151472Y-75332843D01*
X80902397Y-75255208D01*
X80053605Y-76104000D01*
X79694395Y-76104000D01*
X78845603Y-75255208D01*
X78603311Y-75330729D01*
X78487475Y-75157368D01*
X78280632Y-74950525D01*
X78106240Y-74834000D01*
X78280632Y-74717475D01*
X78487475Y-74510632D01*
X78604000Y-74336240D01*
X78720525Y-74510632D01*
X78927368Y-74717475D01*
X79100729Y-74833311D01*
X79025208Y-75075603D01*
X79874000Y-75924395D01*
X80722792Y-75075603D01*
X80647271Y-74833311D01*
X80820632Y-74717475D01*
X81027475Y-74510632D01*
X81189990Y-74267411D01*
X81301932Y-73997158D01*
X81359000Y-73710260D01*
X81359000Y-73417740D01*
X81301932Y-73130842D01*
X81189990Y-72860589D01*
X81027475Y-72617368D01*
X80820632Y-72410525D01*
X80646240Y-72294000D01*
X80820632Y-72177475D01*
X81027475Y-71970632D01*
X81189990Y-71727411D01*
X81301932Y-71457158D01*
X81359000Y-71170260D01*
X81359000Y-70877740D01*
X81301932Y-70590842D01*
X81189990Y-70320589D01*
X81027475Y-70077368D01*
X80820632Y-69870525D01*
X80646240Y-69754000D01*
X80820632Y-69637475D01*
X81027475Y-69430632D01*
X81189990Y-69187411D01*
X81301932Y-68917158D01*
X81359000Y-68630260D01*
X81359000Y-68337740D01*
X81301932Y-68050842D01*
X81189990Y-67780589D01*
X81027475Y-67537368D01*
X80820632Y-67330525D01*
X80646240Y-67214000D01*
X80820632Y-67097475D01*
X81027475Y-66890632D01*
X81189990Y-66647411D01*
X81301932Y-66377158D01*
X81359000Y-66090260D01*
X81359000Y-65797740D01*
X81301932Y-65510842D01*
X81189990Y-65240589D01*
X81027475Y-64997368D01*
X80820632Y-64790525D01*
X80646240Y-64674000D01*
X80820632Y-64557475D01*
X81027475Y-64350632D01*
X81189990Y-64107411D01*
X81301932Y-63837158D01*
X81359000Y-63550260D01*
X81359000Y-63257740D01*
X81301932Y-62970842D01*
X81189990Y-62700589D01*
X81027475Y-62457368D01*
X80820632Y-62250525D01*
X80646240Y-62134000D01*
X80820632Y-62017475D01*
X81027475Y-61810632D01*
X81189990Y-61567411D01*
X81301932Y-61297158D01*
X81359000Y-61010260D01*
X81359000Y-60717740D01*
X81301932Y-60430842D01*
X81189990Y-60160589D01*
X81053736Y-59956670D01*
X81076081Y-59958871D01*
X81155995Y-59951000D01*
X81156006Y-59951000D01*
X81395029Y-59927458D01*
X81701719Y-59834425D01*
X81984367Y-59683346D01*
X82232110Y-59480029D01*
X82283061Y-59417945D01*
X87352345Y-54348661D01*
X87414429Y-54297710D01*
X87465380Y-54235626D01*
X91289345Y-50411661D01*
X91351429Y-50360710D01*
X91554746Y-50112967D01*
X91705825Y-49830319D01*
X91798858Y-49523629D01*
X91822400Y-49284606D01*
X91830272Y-49204681D01*
X91822400Y-49124756D01*
X91822400Y-26241925D01*
X91830272Y-26162000D01*
X91798858Y-25843052D01*
X91757579Y-25706973D01*
X91705825Y-25536362D01*
X91554746Y-25253714D01*
X91351429Y-25005971D01*
X91289347Y-24955022D01*
X86402779Y-20068454D01*
X86351828Y-20006370D01*
X86104085Y-19803053D01*
X85821437Y-19651974D01*
X85514747Y-19558941D01*
X85275724Y-19535399D01*
X85275713Y-19535399D01*
X85195799Y-19527528D01*
X85115885Y-19535399D01*
X79951212Y-19535399D01*
X79871287Y-19527527D01*
X79791362Y-19535399D01*
X79552339Y-19558941D01*
X79245649Y-19651974D01*
X78963001Y-19803053D01*
X78777339Y-19955421D01*
X78777336Y-19955424D01*
X78715258Y-20006370D01*
X78664312Y-20068448D01*
X77635049Y-21097711D01*
X77572972Y-21148657D01*
X77522026Y-21210735D01*
X77522022Y-21210739D01*
X77466690Y-21278162D01*
X77369655Y-21396400D01*
X77218575Y-21679048D01*
X77181991Y-21799648D01*
X76954455Y-21678028D01*
X76579226Y-21564203D01*
X76286785Y-21535400D01*
X76091215Y-21535400D01*
X75798774Y-21564203D01*
X75423545Y-21678028D01*
X75077731Y-21862869D01*
X75033705Y-21899000D01*
X74381715Y-21899000D01*
X74301798Y-21891129D01*
X74221881Y-21899000D01*
X74221873Y-21899000D01*
X73982850Y-21922542D01*
X73676160Y-22015575D01*
X73393512Y-22166654D01*
X73145769Y-22369971D01*
X73094818Y-22432055D01*
X72731454Y-22795419D01*
X72669370Y-22846370D01*
X72466053Y-23094114D01*
X72314974Y-23376762D01*
X72221941Y-23683452D01*
X72198399Y-23922475D01*
X72198399Y-23922485D01*
X72190528Y-24002399D01*
X72198399Y-24082314D01*
X72198400Y-34415475D01*
X72190528Y-34495399D01*
X72198400Y-34575324D01*
X72221942Y-34814347D01*
X72290875Y-35041588D01*
X72314975Y-35121037D01*
X72466053Y-35403684D01*
X72618421Y-35589346D01*
X72618425Y-35589350D01*
X72669371Y-35651428D01*
X72731449Y-35702374D01*
X75389083Y-38360009D01*
X75432975Y-38580670D01*
X75582005Y-38940461D01*
X75798364Y-39264264D01*
X75808100Y-39274000D01*
X75798364Y-39283736D01*
X75582005Y-39607539D01*
X75432975Y-39967330D01*
X75357000Y-40349282D01*
X75357000Y-40738718D01*
X75432975Y-41120670D01*
X75582005Y-41480461D01*
X75798364Y-41804264D01*
X76073736Y-42079636D01*
X76174232Y-42146786D01*
X76018010Y-42380589D01*
X75906068Y-42650842D01*
X75849000Y-42937740D01*
X75849000Y-43230260D01*
X75906068Y-43517158D01*
X76018010Y-43787411D01*
X76158053Y-43997000D01*
X70737531Y-43997000D01*
X70616777Y-43916315D01*
X70266085Y-43771053D01*
X69893793Y-43697000D01*
X69514207Y-43697000D01*
X69141915Y-43771053D01*
X68791223Y-43916315D01*
X68475609Y-44127201D01*
X68207201Y-44395609D01*
X67996315Y-44711223D01*
X67851053Y-45061915D01*
X67777000Y-45434207D01*
X67777000Y-45813793D01*
X67851053Y-46186085D01*
X67996315Y-46536777D01*
X68207201Y-46852391D01*
X68475609Y-47120799D01*
X68791223Y-47331685D01*
X69141915Y-47476947D01*
X69514207Y-47551000D01*
X69893793Y-47551000D01*
X70266085Y-47476947D01*
X70616777Y-47331685D01*
X70737531Y-47251000D01*
X76210471Y-47251000D01*
X76303657Y-47313265D01*
X76305601Y-47315209D01*
X76056528Y-47392843D01*
X75930629Y-47656883D01*
X75858661Y-47940411D01*
X75843389Y-48232531D01*
X75885401Y-48522019D01*
X75983081Y-48797747D01*
X76056528Y-48935157D01*
X76305603Y-49012792D01*
X77154395Y-48164000D01*
X77140253Y-48149858D01*
X77319858Y-47970253D01*
X77334000Y-47984395D01*
X77348143Y-47970253D01*
X77527748Y-48149858D01*
X77513605Y-48164000D01*
X78362397Y-49012792D01*
X78604000Y-48937486D01*
X78845601Y-49012791D01*
X78843657Y-49014735D01*
X78613736Y-49168364D01*
X78338364Y-49443736D01*
X78271214Y-49544232D01*
X78107271Y-49434689D01*
X78182792Y-49192397D01*
X77334000Y-48343605D01*
X76485208Y-49192397D01*
X76560729Y-49434689D01*
X76387368Y-49550525D01*
X76180525Y-49757368D01*
X76018010Y-50000589D01*
X75906068Y-50270842D01*
X75849000Y-50557740D01*
X75849000Y-50850260D01*
X75906068Y-51137158D01*
X76018010Y-51407411D01*
X76180525Y-51650632D01*
X76387368Y-51857475D01*
X76561760Y-51974000D01*
X76387368Y-52090525D01*
X76180525Y-52297368D01*
X76018010Y-52540589D01*
X75906068Y-52810842D01*
X75849000Y-53097740D01*
X75849000Y-53390260D01*
X75906068Y-53677158D01*
X75977247Y-53848999D01*
X75603334Y-53848999D01*
X75566001Y-53845322D01*
X75528668Y-53848999D01*
X75417015Y-53859996D01*
X75273754Y-53903453D01*
X75141725Y-53974025D01*
X75026000Y-54068998D01*
X75002202Y-54097996D01*
X74088802Y-55011396D01*
X74059799Y-55035199D01*
X74033537Y-55067200D01*
X73964826Y-55150924D01*
X73953134Y-55172798D01*
X73894254Y-55282954D01*
X73850797Y-55426215D01*
X73839800Y-55537868D01*
X73839800Y-55537878D01*
X73836124Y-55575200D01*
X73839800Y-55612523D01*
X73839801Y-57481468D01*
X73836124Y-57518800D01*
X73850798Y-57667785D01*
X73894254Y-57811046D01*
X73964826Y-57943076D01*
X74015689Y-58005052D01*
X74059800Y-58058801D01*
X74088798Y-58082599D01*
X76077602Y-60071404D01*
X76018010Y-60160589D01*
X75906068Y-60430842D01*
X75849000Y-60717740D01*
X75849000Y-61010260D01*
X75906068Y-61297158D01*
X76018010Y-61567411D01*
X76180525Y-61810632D01*
X76387368Y-62017475D01*
X76561760Y-62134000D01*
X76387368Y-62250525D01*
X76180525Y-62457368D01*
X76018010Y-62700589D01*
X75906068Y-62970842D01*
X75849000Y-63257740D01*
X75849000Y-63550260D01*
X75906068Y-63837158D01*
X76018010Y-64107411D01*
X76180525Y-64350632D01*
X76387368Y-64557475D01*
X76561760Y-64674000D01*
X76387368Y-64790525D01*
X76180525Y-64997368D01*
X76018010Y-65240589D01*
X75906068Y-65510842D01*
X75849000Y-65797740D01*
X75849000Y-66090260D01*
X75906068Y-66377158D01*
X76018010Y-66647411D01*
X76180525Y-66890632D01*
X76387368Y-67097475D01*
X76561760Y-67214000D01*
X76387368Y-67330525D01*
X76180525Y-67537368D01*
X76018010Y-67780589D01*
X75906068Y-68050842D01*
X75849000Y-68337740D01*
X75849000Y-68630260D01*
X75906068Y-68917158D01*
X76018010Y-69187411D01*
X76180525Y-69430632D01*
X76387368Y-69637475D01*
X76561760Y-69754000D01*
X76387368Y-69870525D01*
X76180525Y-70077368D01*
X76018010Y-70320589D01*
X75906068Y-70590842D01*
X75849000Y-70877740D01*
X75849000Y-71170260D01*
X75906068Y-71457158D01*
X76018010Y-71727411D01*
X76180525Y-71970632D01*
X76387368Y-72177475D01*
X76561760Y-72294000D01*
X76387368Y-72410525D01*
X76180525Y-72617368D01*
X76018010Y-72860589D01*
X75906068Y-73130842D01*
X75849000Y-73417740D01*
X75849000Y-73710260D01*
X75906068Y-73997158D01*
X76018010Y-74267411D01*
X76180525Y-74510632D01*
X76387368Y-74717475D01*
X76561760Y-74834000D01*
X76387368Y-74950525D01*
X76180525Y-75157368D01*
X76018010Y-75400589D01*
X75906068Y-75670842D01*
X75849000Y-75957740D01*
X75849000Y-76250260D01*
X75906068Y-76537158D01*
X76018010Y-76807411D01*
X76180525Y-77050632D01*
X76387368Y-77257475D01*
X76561760Y-77374000D01*
X76387368Y-77490525D01*
X76180525Y-77697368D01*
X76018010Y-77940589D01*
X75906068Y-78210842D01*
X75849000Y-78497740D01*
X75849000Y-78790260D01*
X75906068Y-79077158D01*
X76018010Y-79347411D01*
X76180525Y-79590632D01*
X76387368Y-79797475D01*
X76561760Y-79914000D01*
X76387368Y-80030525D01*
X76180525Y-80237368D01*
X76018010Y-80480589D01*
X75906068Y-80750842D01*
X75849000Y-81037740D01*
X75849000Y-81330260D01*
X75906068Y-81617158D01*
X76018010Y-81887411D01*
X76180525Y-82130632D01*
X76387368Y-82337475D01*
X76561760Y-82454000D01*
X76387368Y-82570525D01*
X76180525Y-82777368D01*
X76018010Y-83020589D01*
X75906068Y-83290842D01*
X75849000Y-83577740D01*
X75849000Y-83870260D01*
X75906068Y-84157158D01*
X76018010Y-84427411D01*
X76180525Y-84670632D01*
X76387368Y-84877475D01*
X76560729Y-84993311D01*
X76485208Y-85235603D01*
X77334000Y-86084395D01*
X78182792Y-85235603D01*
X78107271Y-84993311D01*
X78280632Y-84877475D01*
X78487475Y-84670632D01*
X78604000Y-84496240D01*
X78720525Y-84670632D01*
X78927368Y-84877475D01*
X79101760Y-84994000D01*
X78927368Y-85110525D01*
X78720525Y-85317368D01*
X78604689Y-85490729D01*
X78362397Y-85415208D01*
X77513605Y-86264000D01*
X78362397Y-87112792D01*
X78604689Y-87037271D01*
X78720525Y-87210632D01*
X78927368Y-87417475D01*
X79101760Y-87534000D01*
X78927368Y-87650525D01*
X78720525Y-87857368D01*
X78604000Y-88031760D01*
X78487475Y-87857368D01*
X78280632Y-87650525D01*
X78107271Y-87534689D01*
X78182792Y-87292397D01*
X77334000Y-86443605D01*
X76485208Y-87292397D01*
X76560729Y-87534689D01*
X76387368Y-87650525D01*
X76180525Y-87857368D01*
X76018010Y-88100589D01*
X75906068Y-88370842D01*
X75849000Y-88657740D01*
X75849000Y-88950260D01*
X75906068Y-89237158D01*
X76018010Y-89507411D01*
X76180525Y-89750632D01*
X76387368Y-89957475D01*
X76561760Y-90074000D01*
X76387368Y-90190525D01*
X76180525Y-90397368D01*
X76018010Y-90640589D01*
X75906068Y-90910842D01*
X75849000Y-91197740D01*
X75849000Y-91490260D01*
X75906068Y-91777158D01*
X76018010Y-92047411D01*
X76180525Y-92290632D01*
X76387368Y-92497475D01*
X76561760Y-92614000D01*
X76387368Y-92730525D01*
X76180525Y-92937368D01*
X76055822Y-93124000D01*
X58384802Y-93124000D01*
X57463938Y-92203137D01*
X57567990Y-92047411D01*
X57679932Y-91777158D01*
X57737000Y-91490260D01*
X57737000Y-91197740D01*
X57679932Y-90910842D01*
X57567990Y-90640589D01*
X57405475Y-90397368D01*
X57198632Y-90190525D01*
X57024240Y-90074000D01*
X57198632Y-89957475D01*
X57405475Y-89750632D01*
X57567990Y-89507411D01*
X57679932Y-89237158D01*
X57737000Y-88950260D01*
X57737000Y-88657740D01*
X57679932Y-88370842D01*
X57567990Y-88100589D01*
X57405475Y-87857368D01*
X57198632Y-87650525D01*
X57024240Y-87534000D01*
X57198632Y-87417475D01*
X57405475Y-87210632D01*
X57567990Y-86967411D01*
X57679932Y-86697158D01*
X57737000Y-86410260D01*
X57737000Y-86332531D01*
X75843389Y-86332531D01*
X75885401Y-86622019D01*
X75983081Y-86897747D01*
X76056528Y-87035157D01*
X76305603Y-87112792D01*
X77154395Y-86264000D01*
X76305603Y-85415208D01*
X76056528Y-85492843D01*
X75930629Y-85756883D01*
X75858661Y-86040411D01*
X75843389Y-86332531D01*
X57737000Y-86332531D01*
X57737000Y-86117740D01*
X57679932Y-85830842D01*
X57567990Y-85560589D01*
X57405475Y-85317368D01*
X57198632Y-85110525D01*
X57024240Y-84994000D01*
X57198632Y-84877475D01*
X57405475Y-84670632D01*
X57567990Y-84427411D01*
X57679932Y-84157158D01*
X57737000Y-83870260D01*
X57737000Y-83577740D01*
X57679932Y-83290842D01*
X57567990Y-83020589D01*
X57405475Y-82777368D01*
X57198632Y-82570525D01*
X57024240Y-82454000D01*
X57198632Y-82337475D01*
X57405475Y-82130632D01*
X57567990Y-81887411D01*
X57679932Y-81617158D01*
X57737000Y-81330260D01*
X57737000Y-81037740D01*
X57679932Y-80750842D01*
X57567990Y-80480589D01*
X57405475Y-80237368D01*
X57198632Y-80030525D01*
X57024240Y-79914000D01*
X57198632Y-79797475D01*
X57405475Y-79590632D01*
X57567990Y-79347411D01*
X57679932Y-79077158D01*
X57737000Y-78790260D01*
X57737000Y-78497740D01*
X57679932Y-78210842D01*
X57567990Y-77940589D01*
X57405475Y-77697368D01*
X57198632Y-77490525D01*
X57025271Y-77374689D01*
X57100792Y-77132397D01*
X56252000Y-76283605D01*
X55403208Y-77132397D01*
X55478729Y-77374689D01*
X55305368Y-77490525D01*
X55098525Y-77697368D01*
X54982000Y-77871760D01*
X54865475Y-77697368D01*
X54658632Y-77490525D01*
X54484240Y-77374000D01*
X54658632Y-77257475D01*
X54865475Y-77050632D01*
X54981311Y-76877271D01*
X55223603Y-76952792D01*
X56072395Y-76104000D01*
X56431605Y-76104000D01*
X57280397Y-76952792D01*
X57529472Y-76875157D01*
X57655371Y-76611117D01*
X57727339Y-76327589D01*
X57742611Y-76035469D01*
X57700599Y-75745981D01*
X57602919Y-75470253D01*
X57529472Y-75332843D01*
X57280397Y-75255208D01*
X56431605Y-76104000D01*
X56072395Y-76104000D01*
X55223603Y-75255208D01*
X54981311Y-75330729D01*
X54865475Y-75157368D01*
X54658632Y-74950525D01*
X54484240Y-74834000D01*
X54658632Y-74717475D01*
X54865475Y-74510632D01*
X54982000Y-74336240D01*
X55098525Y-74510632D01*
X55305368Y-74717475D01*
X55478729Y-74833311D01*
X55403208Y-75075603D01*
X56252000Y-75924395D01*
X57100792Y-75075603D01*
X57025271Y-74833311D01*
X57198632Y-74717475D01*
X57405475Y-74510632D01*
X57567990Y-74267411D01*
X57679932Y-73997158D01*
X57737000Y-73710260D01*
X57737000Y-73417740D01*
X57679932Y-73130842D01*
X57567990Y-72860589D01*
X57405475Y-72617368D01*
X57198632Y-72410525D01*
X57024240Y-72294000D01*
X57198632Y-72177475D01*
X57405475Y-71970632D01*
X57567990Y-71727411D01*
X57679932Y-71457158D01*
X57737000Y-71170260D01*
X57737000Y-70877740D01*
X57679932Y-70590842D01*
X57567990Y-70320589D01*
X57405475Y-70077368D01*
X57198632Y-69870525D01*
X57024240Y-69754000D01*
X57198632Y-69637475D01*
X57405475Y-69430632D01*
X57567990Y-69187411D01*
X57679932Y-68917158D01*
X57737000Y-68630260D01*
X57737000Y-68337740D01*
X57679932Y-68050842D01*
X57567990Y-67780589D01*
X57405475Y-67537368D01*
X57198632Y-67330525D01*
X57024240Y-67214000D01*
X57198632Y-67097475D01*
X57405475Y-66890632D01*
X57567990Y-66647411D01*
X57679932Y-66377158D01*
X57737000Y-66090260D01*
X57737000Y-65797740D01*
X57679932Y-65510842D01*
X57567990Y-65240589D01*
X57405475Y-64997368D01*
X57198632Y-64790525D01*
X57024240Y-64674000D01*
X57198632Y-64557475D01*
X57405475Y-64350632D01*
X57567990Y-64107411D01*
X57679932Y-63837158D01*
X57737000Y-63550260D01*
X57737000Y-63257740D01*
X57679932Y-62970842D01*
X57567990Y-62700589D01*
X57405475Y-62457368D01*
X57198632Y-62250525D01*
X57024240Y-62134000D01*
X57198632Y-62017475D01*
X57405475Y-61810632D01*
X57532909Y-61619913D01*
X57603067Y-61613003D01*
X57746328Y-61569546D01*
X57878357Y-61498974D01*
X57994082Y-61404001D01*
X58089055Y-61288276D01*
X58159627Y-61156247D01*
X58203084Y-61012986D01*
X58217758Y-60864000D01*
X58203084Y-60715014D01*
X58159627Y-60571753D01*
X58089055Y-60439724D01*
X57994082Y-60323999D01*
X57878357Y-60229026D01*
X57746328Y-60158454D01*
X57603067Y-60114997D01*
X57532909Y-60108087D01*
X57431736Y-59956670D01*
X57454081Y-59958871D01*
X57533995Y-59951000D01*
X57534006Y-59951000D01*
X57773029Y-59927458D01*
X58079719Y-59834425D01*
X58362367Y-59683346D01*
X58610110Y-59480029D01*
X58661061Y-59417945D01*
X64543145Y-53535861D01*
X64605229Y-53484910D01*
X64808546Y-53237167D01*
X64959625Y-52954519D01*
X65052658Y-52647829D01*
X65076200Y-52408806D01*
X65084072Y-52328881D01*
X65076200Y-52248956D01*
X65076200Y-47059334D01*
X65104000Y-47062072D01*
X65618250Y-47059000D01*
X65777000Y-46900250D01*
X65777000Y-45751000D01*
X66031000Y-45751000D01*
X66031000Y-46900250D01*
X66189750Y-47059000D01*
X66704000Y-47062072D01*
X66828482Y-47049812D01*
X66948180Y-47013502D01*
X67058494Y-46954537D01*
X67155185Y-46875185D01*
X67234537Y-46778494D01*
X67293502Y-46668180D01*
X67329812Y-46548482D01*
X67342072Y-46424000D01*
X67339000Y-45909750D01*
X67180250Y-45751000D01*
X66031000Y-45751000D01*
X65777000Y-45751000D01*
X65757000Y-45751000D01*
X65757000Y-45497000D01*
X65777000Y-45497000D01*
X65777000Y-44347750D01*
X66031000Y-44347750D01*
X66031000Y-45497000D01*
X67180250Y-45497000D01*
X67339000Y-45338250D01*
X67342072Y-44824000D01*
X67329812Y-44699518D01*
X67293502Y-44579820D01*
X67234537Y-44469506D01*
X67155185Y-44372815D01*
X67058494Y-44293463D01*
X66948180Y-44234498D01*
X66828482Y-44198188D01*
X66704000Y-44185928D01*
X66189750Y-44189000D01*
X66031000Y-44347750D01*
X65777000Y-44347750D01*
X65618250Y-44189000D01*
X65104000Y-44185928D01*
X65076200Y-44188666D01*
X65076200Y-23727314D01*
X65084071Y-23647399D01*
X65076200Y-23567485D01*
X65076200Y-23567475D01*
X65052658Y-23328452D01*
X64959625Y-23021762D01*
X64808546Y-22739114D01*
X64767742Y-22689394D01*
X64656178Y-22553452D01*
X64656175Y-22553449D01*
X64605229Y-22491371D01*
X64543152Y-22440426D01*
X62171178Y-20068453D01*
X62120228Y-20006370D01*
X61872485Y-19803053D01*
X61589837Y-19651974D01*
X61283147Y-19558941D01*
X61044124Y-19535399D01*
X61044113Y-19535399D01*
X60964199Y-19527528D01*
X60884285Y-19535399D01*
X55950212Y-19535399D01*
X55870287Y-19527527D01*
X55790362Y-19535399D01*
X55551339Y-19558941D01*
X55244649Y-19651974D01*
X54962001Y-19803053D01*
X54776339Y-19955421D01*
X54776336Y-19955424D01*
X54714258Y-20006370D01*
X54663312Y-20068448D01*
X53634049Y-21097711D01*
X53571972Y-21148657D01*
X53521026Y-21210735D01*
X53521022Y-21210739D01*
X53465690Y-21278162D01*
X53368655Y-21396400D01*
X53217575Y-21679048D01*
X53180991Y-21799648D01*
X52953455Y-21678028D01*
X52578226Y-21564203D01*
X52285785Y-21535400D01*
X52090215Y-21535400D01*
X51797774Y-21564203D01*
X51422545Y-21678028D01*
X51076731Y-21862869D01*
X51032705Y-21899000D01*
X50380723Y-21899000D01*
X50300798Y-21891128D01*
X50220873Y-21899000D01*
X49981850Y-21922542D01*
X49675160Y-22015575D01*
X49392512Y-22166654D01*
X49144769Y-22369971D01*
X49093818Y-22432055D01*
X48690050Y-22835823D01*
X48627972Y-22886769D01*
X48577026Y-22948847D01*
X48577022Y-22948851D01*
X48424654Y-23134513D01*
X48295034Y-23377015D01*
X48273576Y-23417160D01*
X48180543Y-23723850D01*
X48159217Y-23940375D01*
X48149129Y-24042798D01*
X48157001Y-24122722D01*
X48157000Y-35198166D01*
X48149129Y-35278081D01*
X48157000Y-35357995D01*
X48157000Y-35358005D01*
X48180542Y-35597028D01*
X48273575Y-35903718D01*
X48424654Y-36186366D01*
X48627971Y-36434110D01*
X48690055Y-36485061D01*
X51302939Y-39097945D01*
X51353890Y-39160029D01*
X51601633Y-39363346D01*
X51884281Y-39514425D01*
X51998975Y-39549217D01*
X51960005Y-39607539D01*
X51810975Y-39967330D01*
X51735000Y-40349282D01*
X51735000Y-40738718D01*
X51810975Y-41120670D01*
X51960005Y-41480461D01*
X52176364Y-41804264D01*
X52451736Y-42079636D01*
X52552232Y-42146786D01*
X52396010Y-42380589D01*
X52284068Y-42650842D01*
X52227000Y-42937740D01*
X52227000Y-43230260D01*
X52284068Y-43517158D01*
X52396010Y-43787411D01*
X52536053Y-43997000D01*
X52296725Y-43997000D01*
X52216800Y-43989128D01*
X52136875Y-43997000D01*
X45533531Y-43997000D01*
X45412777Y-43916315D01*
X45062085Y-43771053D01*
X44689793Y-43697000D01*
X44310207Y-43697000D01*
X43937915Y-43771053D01*
X43587223Y-43916315D01*
X43271609Y-44127201D01*
X43003201Y-44395609D01*
X42792315Y-44711223D01*
X42647053Y-45061915D01*
X42573000Y-45434207D01*
X42573000Y-45813793D01*
X42647053Y-46186085D01*
X42792315Y-46536777D01*
X43003201Y-46852391D01*
X43271609Y-47120799D01*
X43587223Y-47331685D01*
X43937915Y-47476947D01*
X44310207Y-47551000D01*
X44689793Y-47551000D01*
X45062085Y-47476947D01*
X45412777Y-47331685D01*
X45533531Y-47251000D01*
X48447675Y-47251000D01*
X47343850Y-48354825D01*
X47281772Y-48405771D01*
X47230826Y-48467849D01*
X47230822Y-48467853D01*
X47078454Y-48653515D01*
X46943057Y-48906825D01*
X46927376Y-48936162D01*
X46834343Y-49242852D01*
X46815027Y-49438970D01*
X46802929Y-49561800D01*
X46810801Y-49641724D01*
X46810800Y-59050276D01*
X45581149Y-60279928D01*
X45579000Y-59867750D01*
X45420250Y-59709000D01*
X44196000Y-59709000D01*
X44196000Y-59729000D01*
X43942000Y-59729000D01*
X43942000Y-59709000D01*
X42717750Y-59709000D01*
X42559000Y-59867750D01*
X42555928Y-60457000D01*
X42568188Y-60581482D01*
X42604498Y-60701180D01*
X42609398Y-60710346D01*
X42513945Y-60805799D01*
X42294850Y-61133697D01*
X42143936Y-61498038D01*
X42067000Y-61884820D01*
X31802642Y-61884820D01*
X31804369Y-58707000D01*
X42555928Y-58707000D01*
X42559000Y-59296250D01*
X42717750Y-59455000D01*
X43942000Y-59455000D01*
X43942000Y-58230750D01*
X44196000Y-58230750D01*
X44196000Y-59455000D01*
X45420250Y-59455000D01*
X45579000Y-59296250D01*
X45582072Y-58707000D01*
X45569812Y-58582518D01*
X45533502Y-58462820D01*
X45474537Y-58352506D01*
X45395185Y-58255815D01*
X45298494Y-58176463D01*
X45188180Y-58117498D01*
X45068482Y-58081188D01*
X44944000Y-58068928D01*
X44354750Y-58072000D01*
X44196000Y-58230750D01*
X43942000Y-58230750D01*
X43783250Y-58072000D01*
X43194000Y-58068928D01*
X43069518Y-58081188D01*
X42949820Y-58117498D01*
X42839506Y-58176463D01*
X42742815Y-58255815D01*
X42663463Y-58352506D01*
X42604498Y-58462820D01*
X42568188Y-58582518D01*
X42555928Y-58707000D01*
X31804369Y-58707000D01*
X31811045Y-46424000D01*
X39561928Y-46424000D01*
X39574188Y-46548482D01*
X39610498Y-46668180D01*
X39669463Y-46778494D01*
X39748815Y-46875185D01*
X39845506Y-46954537D01*
X39955820Y-47013502D01*
X40075518Y-47049812D01*
X40200000Y-47062072D01*
X40714250Y-47059000D01*
X40873000Y-46900250D01*
X40873000Y-45751000D01*
X41127000Y-45751000D01*
X41127000Y-46900250D01*
X41285750Y-47059000D01*
X41800000Y-47062072D01*
X41924482Y-47049812D01*
X42044180Y-47013502D01*
X42154494Y-46954537D01*
X42251185Y-46875185D01*
X42330537Y-46778494D01*
X42389502Y-46668180D01*
X42425812Y-46548482D01*
X42438072Y-46424000D01*
X42435000Y-45909750D01*
X42276250Y-45751000D01*
X41127000Y-45751000D01*
X40873000Y-45751000D01*
X39723750Y-45751000D01*
X39565000Y-45909750D01*
X39561928Y-46424000D01*
X31811045Y-46424000D01*
X31811914Y-44824000D01*
X39561928Y-44824000D01*
X39565000Y-45338250D01*
X39723750Y-45497000D01*
X40873000Y-45497000D01*
X40873000Y-44347750D01*
X41127000Y-44347750D01*
X41127000Y-45497000D01*
X42276250Y-45497000D01*
X42435000Y-45338250D01*
X42438072Y-44824000D01*
X42425812Y-44699518D01*
X42389502Y-44579820D01*
X42330537Y-44469506D01*
X42251185Y-44372815D01*
X42154494Y-44293463D01*
X42044180Y-44234498D01*
X41924482Y-44198188D01*
X41800000Y-44185928D01*
X41285750Y-44189000D01*
X41127000Y-44347750D01*
X40873000Y-44347750D01*
X40714250Y-44189000D01*
X40200000Y-44185928D01*
X40075518Y-44198188D01*
X39955820Y-44234498D01*
X39845506Y-44293463D01*
X39748815Y-44372815D01*
X39669463Y-44469506D01*
X39610498Y-44579820D01*
X39574188Y-44699518D01*
X39561928Y-44824000D01*
X31811914Y-44824000D01*
X31822809Y-24779872D01*
X37765000Y-24779872D01*
X37765000Y-25220128D01*
X37850890Y-25651925D01*
X38019369Y-26058669D01*
X38263962Y-26424729D01*
X38575271Y-26736038D01*
X38941331Y-26980631D01*
X39348075Y-27149110D01*
X39779872Y-27235000D01*
X40220128Y-27235000D01*
X40651925Y-27149110D01*
X41058669Y-26980631D01*
X41424729Y-26736038D01*
X41736038Y-26424729D01*
X41980631Y-26058669D01*
X42149110Y-25651925D01*
X42235000Y-25220128D01*
X42235000Y-24779872D01*
X42149110Y-24348075D01*
X41980631Y-23941331D01*
X41736038Y-23575271D01*
X41424729Y-23263962D01*
X41058669Y-23019369D01*
X40651925Y-22850890D01*
X40220128Y-22765000D01*
X39779872Y-22765000D01*
X39348075Y-22850890D01*
X38941331Y-23019369D01*
X38575271Y-23263962D01*
X38263962Y-23575271D01*
X38019369Y-23941331D01*
X37850890Y-24348075D01*
X37765000Y-24779872D01*
X31822809Y-24779872D01*
X31826117Y-18694376D01*
X106783039Y-18680247D01*
X106686114Y-18732054D01*
X106438371Y-18935371D01*
X106387420Y-18997455D01*
X104688050Y-20696825D01*
X104625972Y-20747771D01*
X104575026Y-20809849D01*
X104575022Y-20809853D01*
X104422654Y-20995515D01*
X104420425Y-20999686D01*
X104271576Y-21278162D01*
X104178543Y-21584852D01*
X104155000Y-21823875D01*
X104155000Y-21823886D01*
X104147129Y-21903800D01*
X104155000Y-21983714D01*
X104155000Y-22336626D01*
X104078606Y-22273931D01*
X103818264Y-22134775D01*
X103535777Y-22049084D01*
X103315619Y-22027400D01*
X103168381Y-22027400D01*
X102948223Y-22049084D01*
X102665736Y-22134775D01*
X102405394Y-22273931D01*
X102177203Y-22461203D01*
X101989931Y-22689394D01*
X101850775Y-22949736D01*
X101765084Y-23232223D01*
X101736149Y-23526000D01*
X101765084Y-23819777D01*
X101790299Y-23902899D01*
X95630378Y-30062821D01*
X95616524Y-30070226D01*
X95500799Y-30165199D01*
X95477001Y-30194197D01*
X94078603Y-31592596D01*
X94049599Y-31616399D01*
X93994471Y-31683574D01*
X93954626Y-31732124D01*
X93899812Y-31834673D01*
X93884054Y-31864154D01*
X93840597Y-32007415D01*
X93829600Y-32119068D01*
X93829600Y-32119078D01*
X93825924Y-32156400D01*
X93829600Y-32193722D01*
X93829601Y-45327068D01*
X93825924Y-45364400D01*
X93829601Y-45401733D01*
X93832800Y-45434207D01*
X93840598Y-45513385D01*
X93884054Y-45656646D01*
X93954626Y-45788676D01*
X94015397Y-45862725D01*
X94049600Y-45904401D01*
X94078598Y-45928199D01*
X95346601Y-47196203D01*
X95370399Y-47225201D01*
X95486124Y-47320174D01*
X95618153Y-47390746D01*
X95761414Y-47434203D01*
X95873067Y-47445200D01*
X95873076Y-47445200D01*
X95910399Y-47448876D01*
X95947722Y-47445200D01*
X99095478Y-47445200D01*
X99132800Y-47448876D01*
X99170122Y-47445200D01*
X99170133Y-47445200D01*
X99281786Y-47434203D01*
X99425047Y-47390746D01*
X99557076Y-47320174D01*
X99672801Y-47225201D01*
X99696604Y-47196197D01*
X101859593Y-45033210D01*
X102079740Y-45077000D01*
X102372260Y-45077000D01*
X102659158Y-45019932D01*
X102929411Y-44907990D01*
X103172632Y-44745475D01*
X103379475Y-44538632D01*
X103495311Y-44365271D01*
X103737603Y-44440792D01*
X104586395Y-43592000D01*
X103737603Y-42743208D01*
X103495311Y-42818729D01*
X103379475Y-42645368D01*
X103172632Y-42438525D01*
X102929411Y-42276010D01*
X102659158Y-42164068D01*
X102372260Y-42107000D01*
X102079740Y-42107000D01*
X101792842Y-42164068D01*
X101522589Y-42276010D01*
X101279368Y-42438525D01*
X101072525Y-42645368D01*
X100956000Y-42819760D01*
X100839475Y-42645368D01*
X100632632Y-42438525D01*
X100446000Y-42313822D01*
X100446000Y-28823201D01*
X101909727Y-27359475D01*
X101927215Y-27380785D01*
X102023906Y-27460137D01*
X102134220Y-27519102D01*
X102253918Y-27555412D01*
X102378400Y-27567672D01*
X104105600Y-27567672D01*
X104230082Y-27555412D01*
X104349780Y-27519102D01*
X104460094Y-27460137D01*
X104556785Y-27380785D01*
X104636137Y-27284094D01*
X104695102Y-27173780D01*
X104714624Y-27109426D01*
X104771707Y-27172854D01*
X105007056Y-27348684D01*
X105272186Y-27475222D01*
X105422974Y-27520958D01*
X105655000Y-27399817D01*
X105655000Y-26193000D01*
X105635000Y-26193000D01*
X105635000Y-25939000D01*
X105655000Y-25939000D01*
X105655000Y-25919000D01*
X105909000Y-25919000D01*
X105909000Y-25939000D01*
X105929000Y-25939000D01*
X105929000Y-26193000D01*
X105909000Y-26193000D01*
X105909000Y-27399817D01*
X106141026Y-27520958D01*
X106291814Y-27475222D01*
X106556944Y-27348684D01*
X106792293Y-27172854D01*
X106988817Y-26954488D01*
X107046137Y-26858090D01*
X107069931Y-26902606D01*
X107257203Y-27130797D01*
X107485394Y-27318069D01*
X107565574Y-27360926D01*
X107572998Y-27436300D01*
X107580065Y-27459597D01*
X107616454Y-27579560D01*
X107687026Y-27711590D01*
X107757016Y-27796872D01*
X107782000Y-27827315D01*
X107810998Y-27851113D01*
X109086000Y-29126117D01*
X109086001Y-42313821D01*
X108908786Y-42432232D01*
X108841636Y-42331736D01*
X108566264Y-42056364D01*
X108242461Y-41840005D01*
X107882670Y-41690975D01*
X107500718Y-41615000D01*
X107111282Y-41615000D01*
X106729330Y-41690975D01*
X106369539Y-41840005D01*
X106045736Y-42056364D01*
X105770364Y-42331736D01*
X105616735Y-42561657D01*
X105614791Y-42563601D01*
X105537157Y-42314528D01*
X105273117Y-42188629D01*
X104989589Y-42116661D01*
X104697469Y-42101389D01*
X104407981Y-42143401D01*
X104132253Y-42241081D01*
X103994843Y-42314528D01*
X103917208Y-42563603D01*
X104766000Y-43412395D01*
X104780143Y-43398253D01*
X104959748Y-43577858D01*
X104945605Y-43592000D01*
X104959748Y-43606143D01*
X104780143Y-43785748D01*
X104766000Y-43771605D01*
X103917208Y-44620397D01*
X103994843Y-44869472D01*
X104258883Y-44995371D01*
X104542411Y-45067339D01*
X104834531Y-45082611D01*
X105124019Y-45040599D01*
X105399747Y-44942919D01*
X105537157Y-44869472D01*
X105614791Y-44620399D01*
X105616735Y-44622343D01*
X105678883Y-44715354D01*
X105671129Y-44794081D01*
X105679000Y-44873995D01*
X105679000Y-44874005D01*
X105702542Y-45113028D01*
X105795575Y-45419718D01*
X105946654Y-45702366D01*
X106149971Y-45950110D01*
X106212054Y-46001060D01*
X108701344Y-48490351D01*
X108752290Y-48552429D01*
X108814368Y-48603375D01*
X108814371Y-48603378D01*
X108947195Y-48712383D01*
X109000033Y-48755746D01*
X109282681Y-48906825D01*
X109589371Y-48999858D01*
X109720691Y-49012792D01*
X109908319Y-49031272D01*
X109988244Y-49023400D01*
X116556886Y-49023400D01*
X116636800Y-49031271D01*
X116716714Y-49023400D01*
X116716725Y-49023400D01*
X116955748Y-48999858D01*
X117262438Y-48906825D01*
X117545086Y-48755746D01*
X117792829Y-48552429D01*
X117843780Y-48490345D01*
X120194545Y-46139580D01*
X120256629Y-46088629D01*
X120459946Y-45840886D01*
X120611025Y-45558238D01*
X120704058Y-45251548D01*
X120727600Y-45012525D01*
X120727600Y-45012515D01*
X120735471Y-44932601D01*
X120727600Y-44852686D01*
X120727600Y-25530714D01*
X120735471Y-25450799D01*
X120727600Y-25370885D01*
X120727600Y-25370875D01*
X120704058Y-25131852D01*
X120611025Y-24825162D01*
X120563301Y-24735876D01*
X120459946Y-24542514D01*
X120307578Y-24356852D01*
X120307575Y-24356849D01*
X120256629Y-24294771D01*
X120194552Y-24243826D01*
X114948179Y-18997454D01*
X114897229Y-18935371D01*
X114649486Y-18732054D01*
X114549822Y-18678783D01*
X135111795Y-18674907D01*
X135052400Y-18706654D01*
X134866738Y-18859022D01*
X134866735Y-18859025D01*
X134804657Y-18909971D01*
X134753711Y-18972049D01*
X132628050Y-21097711D01*
X132565972Y-21148657D01*
X132515026Y-21210735D01*
X132515022Y-21210739D01*
X132459690Y-21278162D01*
X132362655Y-21396400D01*
X132211575Y-21679048D01*
X132118542Y-21985738D01*
X132095000Y-22224761D01*
X132095000Y-22224772D01*
X132087129Y-22304686D01*
X132089859Y-22332407D01*
X132018606Y-22273931D01*
X131758264Y-22134775D01*
X131475777Y-22049084D01*
X131255619Y-22027400D01*
X131108381Y-22027400D01*
X130888223Y-22049084D01*
X130605736Y-22134775D01*
X130345394Y-22273931D01*
X130117203Y-22461203D01*
X129929931Y-22689394D01*
X129790775Y-22949736D01*
X129705084Y-23232223D01*
X129676149Y-23526000D01*
X129705084Y-23819777D01*
X129730299Y-23902899D01*
X123478577Y-30154622D01*
X123464723Y-30162027D01*
X123348998Y-30257000D01*
X123325200Y-30285998D01*
X121942403Y-31668796D01*
X121913399Y-31692599D01*
X121866880Y-31749283D01*
X121818426Y-31808324D01*
X121804342Y-31834673D01*
X121747854Y-31940354D01*
X121704397Y-32083615D01*
X121693400Y-32195268D01*
X121693400Y-32195278D01*
X121689724Y-32232600D01*
X121693400Y-32269922D01*
X121693401Y-45098468D01*
X121689724Y-45135800D01*
X121693401Y-45173133D01*
X121697566Y-45215415D01*
X121704398Y-45284785D01*
X121747854Y-45428046D01*
X121818426Y-45560076D01*
X121870888Y-45624000D01*
X121913400Y-45675801D01*
X121942398Y-45699599D01*
X123007201Y-46764403D01*
X123030999Y-46793401D01*
X123146724Y-46888374D01*
X123278753Y-46958946D01*
X123422014Y-47002403D01*
X123533667Y-47013400D01*
X127467278Y-47013400D01*
X127504600Y-47017076D01*
X127541922Y-47013400D01*
X127541933Y-47013400D01*
X127653586Y-47002403D01*
X127796847Y-46958946D01*
X127928876Y-46888374D01*
X128044601Y-46793401D01*
X128068404Y-46764397D01*
X129799592Y-45033210D01*
X130019740Y-45077000D01*
X130312260Y-45077000D01*
X130599158Y-45019932D01*
X130869411Y-44907990D01*
X131112632Y-44745475D01*
X131319475Y-44538632D01*
X131435311Y-44365271D01*
X131677603Y-44440792D01*
X132526395Y-43592000D01*
X131677603Y-42743208D01*
X131435311Y-42818729D01*
X131319475Y-42645368D01*
X131112632Y-42438525D01*
X130869411Y-42276010D01*
X130599158Y-42164068D01*
X130312260Y-42107000D01*
X130185802Y-42107000D01*
X131693008Y-40599795D01*
X131722001Y-40576001D01*
X131745795Y-40547008D01*
X131745799Y-40547004D01*
X131816973Y-40460277D01*
X131816974Y-40460276D01*
X131887546Y-40328247D01*
X131931003Y-40184986D01*
X131942000Y-40073333D01*
X131942000Y-40073324D01*
X131945676Y-40036001D01*
X131942000Y-39998678D01*
X131942000Y-27567672D01*
X132045600Y-27567672D01*
X132170082Y-27555412D01*
X132289780Y-27519102D01*
X132400094Y-27460137D01*
X132496785Y-27380785D01*
X132576137Y-27284094D01*
X132635102Y-27173780D01*
X132654624Y-27109426D01*
X132711707Y-27172854D01*
X132947056Y-27348684D01*
X133212186Y-27475222D01*
X133362974Y-27520958D01*
X133595000Y-27399817D01*
X133595000Y-26193000D01*
X133575000Y-26193000D01*
X133575000Y-25939000D01*
X133595000Y-25939000D01*
X133595000Y-25919000D01*
X133849000Y-25919000D01*
X133849000Y-25939000D01*
X133869000Y-25939000D01*
X133869000Y-26193000D01*
X133849000Y-26193000D01*
X133849000Y-27399817D01*
X134081026Y-27520958D01*
X134231814Y-27475222D01*
X134496944Y-27348684D01*
X134732293Y-27172854D01*
X134928817Y-26954488D01*
X134986137Y-26858090D01*
X135009931Y-26902606D01*
X135197203Y-27130797D01*
X135425394Y-27318069D01*
X135685736Y-27457225D01*
X135968223Y-27542916D01*
X136188381Y-27564600D01*
X136335619Y-27564600D01*
X136555777Y-27542916D01*
X136838264Y-27457225D01*
X137026000Y-27356878D01*
X137026001Y-42313821D01*
X136848786Y-42432232D01*
X136781636Y-42331736D01*
X136506264Y-42056364D01*
X136182461Y-41840005D01*
X135822670Y-41690975D01*
X135440718Y-41615000D01*
X135051282Y-41615000D01*
X134669330Y-41690975D01*
X134309539Y-41840005D01*
X133985736Y-42056364D01*
X133710364Y-42331736D01*
X133556735Y-42561657D01*
X133554791Y-42563601D01*
X133477157Y-42314528D01*
X133213117Y-42188629D01*
X132929589Y-42116661D01*
X132637469Y-42101389D01*
X132347981Y-42143401D01*
X132072253Y-42241081D01*
X131934843Y-42314528D01*
X131857208Y-42563603D01*
X132706000Y-43412395D01*
X132720143Y-43398253D01*
X132899748Y-43577858D01*
X132885605Y-43592000D01*
X132899748Y-43606143D01*
X132720143Y-43785748D01*
X132706000Y-43771605D01*
X131857208Y-44620397D01*
X131934843Y-44869472D01*
X132198883Y-44995371D01*
X132482411Y-45067339D01*
X132774531Y-45082611D01*
X133064019Y-45040599D01*
X133339747Y-44942919D01*
X133477157Y-44869472D01*
X133554791Y-44620399D01*
X133556735Y-44622343D01*
X133618883Y-44715354D01*
X133611129Y-44794081D01*
X133619000Y-44873995D01*
X133619000Y-44874005D01*
X133642542Y-45113028D01*
X133735575Y-45419718D01*
X133886654Y-45702366D01*
X134089971Y-45950110D01*
X134152054Y-46001060D01*
X136641344Y-48490351D01*
X136692290Y-48552429D01*
X136754368Y-48603375D01*
X136754371Y-48603378D01*
X136887195Y-48712383D01*
X136940033Y-48755746D01*
X137222681Y-48906825D01*
X137529371Y-48999858D01*
X137660691Y-49012792D01*
X137848319Y-49031272D01*
X137928244Y-49023400D01*
X145538286Y-49023400D01*
X145618200Y-49031271D01*
X145698114Y-49023400D01*
X145698125Y-49023400D01*
X145937148Y-48999858D01*
X146243838Y-48906825D01*
X146526486Y-48755746D01*
X146774229Y-48552429D01*
X146825179Y-48490346D01*
X148032951Y-47282575D01*
X148095029Y-47231629D01*
X148145975Y-47169551D01*
X148145978Y-47169548D01*
X148298346Y-46983886D01*
X148449424Y-46701240D01*
X148449425Y-46701238D01*
X148542458Y-46394548D01*
X148566000Y-46155525D01*
X148566000Y-46155515D01*
X148573871Y-46075601D01*
X148566000Y-45995686D01*
X148566000Y-24895725D01*
X148573872Y-24815800D01*
X148570334Y-24779872D01*
X152765000Y-24779872D01*
X152765000Y-25220128D01*
X152850890Y-25651925D01*
X153019369Y-26058669D01*
X153263962Y-26424729D01*
X153575271Y-26736038D01*
X153941331Y-26980631D01*
X154348075Y-27149110D01*
X154779872Y-27235000D01*
X155220128Y-27235000D01*
X155651925Y-27149110D01*
X156058669Y-26980631D01*
X156424729Y-26736038D01*
X156736038Y-26424729D01*
X156980631Y-26058669D01*
X157149110Y-25651925D01*
X157235000Y-25220128D01*
X157235000Y-24779872D01*
X157149110Y-24348075D01*
X156980631Y-23941331D01*
X156736038Y-23575271D01*
X156424729Y-23263962D01*
X156058669Y-23019369D01*
X155651925Y-22850890D01*
X155220128Y-22765000D01*
X154779872Y-22765000D01*
X154348075Y-22850890D01*
X153941331Y-23019369D01*
X153575271Y-23263962D01*
X153263962Y-23575271D01*
X153019369Y-23941331D01*
X152850890Y-24348075D01*
X152765000Y-24779872D01*
X148570334Y-24779872D01*
X148542458Y-24496852D01*
X148523479Y-24434286D01*
X148449425Y-24190162D01*
X148298346Y-23907514D01*
X148095029Y-23659771D01*
X148032947Y-23608822D01*
X143396180Y-18972055D01*
X143345229Y-18909971D01*
X143097486Y-18706654D01*
X143035297Y-18673413D01*
X166319200Y-18669024D01*
X166319200Y-111887000D01*
G36*
X136525736Y-80156364D02*
G01*
X136250364Y-80431736D01*
X136183214Y-80532232D01*
X135949411Y-80376010D01*
X135679158Y-80264068D01*
X135392260Y-80207000D01*
X135099740Y-80207000D01*
X134812842Y-80264068D01*
X134542589Y-80376010D01*
X134299368Y-80538525D01*
X134092525Y-80745368D01*
X133976000Y-80919760D01*
X133859475Y-80745368D01*
X133652632Y-80538525D01*
X133409411Y-80376010D01*
X133139158Y-80264068D01*
X132852260Y-80207000D01*
X132559740Y-80207000D01*
X132272842Y-80264068D01*
X132002589Y-80376010D01*
X131759368Y-80538525D01*
X131552525Y-80745368D01*
X131436689Y-80918729D01*
X131194397Y-80843208D01*
X130345605Y-81692000D01*
X131194397Y-82540792D01*
X131436689Y-82465271D01*
X131552525Y-82638632D01*
X131759368Y-82845475D01*
X132002589Y-83007990D01*
X132272842Y-83119932D01*
X132559740Y-83177000D01*
X132852260Y-83177000D01*
X133139158Y-83119932D01*
X133409411Y-83007990D01*
X133652632Y-82845475D01*
X133859475Y-82638632D01*
X133976000Y-82464240D01*
X134092525Y-82638632D01*
X134299368Y-82845475D01*
X134542589Y-83007990D01*
X134812842Y-83119932D01*
X135099740Y-83177000D01*
X135392260Y-83177000D01*
X135679158Y-83119932D01*
X135949411Y-83007990D01*
X136159000Y-82867947D01*
X136159000Y-83659423D01*
X135969925Y-83640800D01*
X135969914Y-83640800D01*
X135890000Y-83632929D01*
X135810086Y-83640800D01*
X111941514Y-83640800D01*
X111861599Y-83632929D01*
X111781685Y-83640800D01*
X111781675Y-83640800D01*
X111542652Y-83664342D01*
X111473000Y-83685471D01*
X111473000Y-82815529D01*
X111535265Y-82722343D01*
X111537209Y-82720399D01*
X111614843Y-82969472D01*
X111878883Y-83095371D01*
X112162411Y-83167339D01*
X112454531Y-83182611D01*
X112744019Y-83140599D01*
X113019747Y-83042919D01*
X113157157Y-82969472D01*
X113234792Y-82720397D01*
X112386000Y-81871605D01*
X112371858Y-81885748D01*
X112192253Y-81706143D01*
X112206395Y-81692000D01*
X112192253Y-81677858D01*
X112371858Y-81498253D01*
X112386000Y-81512395D01*
X113234792Y-80663603D01*
X113157157Y-80414528D01*
X112938340Y-80310192D01*
X114381488Y-80310192D01*
X114222589Y-80376010D01*
X113979368Y-80538525D01*
X113772525Y-80745368D01*
X113656689Y-80918729D01*
X113414397Y-80843208D01*
X112565605Y-81692000D01*
X113414397Y-82540792D01*
X113656689Y-82465271D01*
X113772525Y-82638632D01*
X113979368Y-82845475D01*
X114222589Y-83007990D01*
X114492842Y-83119932D01*
X114779740Y-83177000D01*
X115072260Y-83177000D01*
X115359158Y-83119932D01*
X115629411Y-83007990D01*
X115872632Y-82845475D01*
X116079475Y-82638632D01*
X116241990Y-82395411D01*
X116353932Y-82125158D01*
X116411000Y-81838260D01*
X116411000Y-81545740D01*
X116353932Y-81258842D01*
X116241990Y-80988589D01*
X116079475Y-80745368D01*
X115872632Y-80538525D01*
X115629411Y-80376010D01*
X115470512Y-80310192D01*
X120890389Y-80310192D01*
X123958200Y-83378004D01*
X123981998Y-83407002D01*
X124097723Y-83501975D01*
X124229752Y-83572547D01*
X124373013Y-83616004D01*
X124484666Y-83627001D01*
X124484675Y-83627001D01*
X124521998Y-83630677D01*
X124559321Y-83627001D01*
X126413677Y-83627001D01*
X126450999Y-83630677D01*
X126488321Y-83627001D01*
X126488332Y-83627001D01*
X126599985Y-83616004D01*
X126743246Y-83572547D01*
X126875275Y-83501975D01*
X126991000Y-83407002D01*
X127014803Y-83377998D01*
X127259592Y-83133209D01*
X127479740Y-83177000D01*
X127772260Y-83177000D01*
X128059158Y-83119932D01*
X128329411Y-83007990D01*
X128572632Y-82845475D01*
X128697710Y-82720397D01*
X129317208Y-82720397D01*
X129394843Y-82969472D01*
X129658883Y-83095371D01*
X129942411Y-83167339D01*
X130234531Y-83182611D01*
X130524019Y-83140599D01*
X130799747Y-83042919D01*
X130937157Y-82969472D01*
X131014792Y-82720397D01*
X130166000Y-81871605D01*
X129317208Y-82720397D01*
X128697710Y-82720397D01*
X128779475Y-82638632D01*
X128895311Y-82465271D01*
X129137603Y-82540792D01*
X129986395Y-81692000D01*
X129137603Y-80843208D01*
X128895311Y-80918729D01*
X128779475Y-80745368D01*
X128697710Y-80663603D01*
X129317208Y-80663603D01*
X130166000Y-81512395D01*
X131014792Y-80663603D01*
X130937157Y-80414528D01*
X130673117Y-80288629D01*
X130389589Y-80216661D01*
X130097469Y-80201389D01*
X129807981Y-80243401D01*
X129532253Y-80341081D01*
X129394843Y-80414528D01*
X129317208Y-80663603D01*
X128697710Y-80663603D01*
X128572632Y-80538525D01*
X128386000Y-80413822D01*
X128386000Y-80384601D01*
X128762602Y-80008000D01*
X136747778Y-80008000D01*
X136525736Y-80156364D01*
X136525736Y-80156364D01*
G37*
X136525736Y-80156364D02*
X136250364Y-80431736D01*
X136183214Y-80532232D01*
X135949411Y-80376010D01*
X135679158Y-80264068D01*
X135392260Y-80207000D01*
X135099740Y-80207000D01*
X134812842Y-80264068D01*
X134542589Y-80376010D01*
X134299368Y-80538525D01*
X134092525Y-80745368D01*
X133976000Y-80919760D01*
X133859475Y-80745368D01*
X133652632Y-80538525D01*
X133409411Y-80376010D01*
X133139158Y-80264068D01*
X132852260Y-80207000D01*
X132559740Y-80207000D01*
X132272842Y-80264068D01*
X132002589Y-80376010D01*
X131759368Y-80538525D01*
X131552525Y-80745368D01*
X131436689Y-80918729D01*
X131194397Y-80843208D01*
X130345605Y-81692000D01*
X131194397Y-82540792D01*
X131436689Y-82465271D01*
X131552525Y-82638632D01*
X131759368Y-82845475D01*
X132002589Y-83007990D01*
X132272842Y-83119932D01*
X132559740Y-83177000D01*
X132852260Y-83177000D01*
X133139158Y-83119932D01*
X133409411Y-83007990D01*
X133652632Y-82845475D01*
X133859475Y-82638632D01*
X133976000Y-82464240D01*
X134092525Y-82638632D01*
X134299368Y-82845475D01*
X134542589Y-83007990D01*
X134812842Y-83119932D01*
X135099740Y-83177000D01*
X135392260Y-83177000D01*
X135679158Y-83119932D01*
X135949411Y-83007990D01*
X136159000Y-82867947D01*
X136159000Y-83659423D01*
X135969925Y-83640800D01*
X135969914Y-83640800D01*
X135890000Y-83632929D01*
X135810086Y-83640800D01*
X111941514Y-83640800D01*
X111861599Y-83632929D01*
X111781685Y-83640800D01*
X111781675Y-83640800D01*
X111542652Y-83664342D01*
X111473000Y-83685471D01*
X111473000Y-82815529D01*
X111535265Y-82722343D01*
X111537209Y-82720399D01*
X111614843Y-82969472D01*
X111878883Y-83095371D01*
X112162411Y-83167339D01*
X112454531Y-83182611D01*
X112744019Y-83140599D01*
X113019747Y-83042919D01*
X113157157Y-82969472D01*
X113234792Y-82720397D01*
X112386000Y-81871605D01*
X112371858Y-81885748D01*
X112192253Y-81706143D01*
X112206395Y-81692000D01*
X112192253Y-81677858D01*
X112371858Y-81498253D01*
X112386000Y-81512395D01*
X113234792Y-80663603D01*
X113157157Y-80414528D01*
X112938340Y-80310192D01*
X114381488Y-80310192D01*
X114222589Y-80376010D01*
X113979368Y-80538525D01*
X113772525Y-80745368D01*
X113656689Y-80918729D01*
X113414397Y-80843208D01*
X112565605Y-81692000D01*
X113414397Y-82540792D01*
X113656689Y-82465271D01*
X113772525Y-82638632D01*
X113979368Y-82845475D01*
X114222589Y-83007990D01*
X114492842Y-83119932D01*
X114779740Y-83177000D01*
X115072260Y-83177000D01*
X115359158Y-83119932D01*
X115629411Y-83007990D01*
X115872632Y-82845475D01*
X116079475Y-82638632D01*
X116241990Y-82395411D01*
X116353932Y-82125158D01*
X116411000Y-81838260D01*
X116411000Y-81545740D01*
X116353932Y-81258842D01*
X116241990Y-80988589D01*
X116079475Y-80745368D01*
X115872632Y-80538525D01*
X115629411Y-80376010D01*
X115470512Y-80310192D01*
X120890389Y-80310192D01*
X123958200Y-83378004D01*
X123981998Y-83407002D01*
X124097723Y-83501975D01*
X124229752Y-83572547D01*
X124373013Y-83616004D01*
X124484666Y-83627001D01*
X124484675Y-83627001D01*
X124521998Y-83630677D01*
X124559321Y-83627001D01*
X126413677Y-83627001D01*
X126450999Y-83630677D01*
X126488321Y-83627001D01*
X126488332Y-83627001D01*
X126599985Y-83616004D01*
X126743246Y-83572547D01*
X126875275Y-83501975D01*
X126991000Y-83407002D01*
X127014803Y-83377998D01*
X127259592Y-83133209D01*
X127479740Y-83177000D01*
X127772260Y-83177000D01*
X128059158Y-83119932D01*
X128329411Y-83007990D01*
X128572632Y-82845475D01*
X128697710Y-82720397D01*
X129317208Y-82720397D01*
X129394843Y-82969472D01*
X129658883Y-83095371D01*
X129942411Y-83167339D01*
X130234531Y-83182611D01*
X130524019Y-83140599D01*
X130799747Y-83042919D01*
X130937157Y-82969472D01*
X131014792Y-82720397D01*
X130166000Y-81871605D01*
X129317208Y-82720397D01*
X128697710Y-82720397D01*
X128779475Y-82638632D01*
X128895311Y-82465271D01*
X129137603Y-82540792D01*
X129986395Y-81692000D01*
X129137603Y-80843208D01*
X128895311Y-80918729D01*
X128779475Y-80745368D01*
X128697710Y-80663603D01*
X129317208Y-80663603D01*
X130166000Y-81512395D01*
X131014792Y-80663603D01*
X130937157Y-80414528D01*
X130673117Y-80288629D01*
X130389589Y-80216661D01*
X130097469Y-80201389D01*
X129807981Y-80243401D01*
X129532253Y-80341081D01*
X129394843Y-80414528D01*
X129317208Y-80663603D01*
X128697710Y-80663603D01*
X128572632Y-80538525D01*
X128386000Y-80413822D01*
X128386000Y-80384601D01*
X128762602Y-80008000D01*
X136747778Y-80008000D01*
X136525736Y-80156364D01*
G36*
X53905748Y-58309858D02*
G01*
X53891605Y-58324000D01*
X53905748Y-58338143D01*
X53726143Y-58517748D01*
X53712000Y-58503605D01*
X53697858Y-58517748D01*
X53518253Y-58338143D01*
X53532395Y-58324000D01*
X53518253Y-58309858D01*
X53697858Y-58130253D01*
X53712000Y-58144395D01*
X53726143Y-58130253D01*
X53905748Y-58309858D01*
X53905748Y-58309858D01*
G37*
X53905748Y-58309858D02*
X53891605Y-58324000D01*
X53905748Y-58338143D01*
X53726143Y-58517748D01*
X53712000Y-58503605D01*
X53697858Y-58517748D01*
X53518253Y-58338143D01*
X53532395Y-58324000D01*
X53518253Y-58309858D01*
X53697858Y-58130253D01*
X53712000Y-58144395D01*
X53726143Y-58130253D01*
X53905748Y-58309858D01*
G36*
X75849000Y-55637740D02*
G01*
X75849000Y-55930260D01*
X75906068Y-56217158D01*
X76018010Y-56487411D01*
X76180525Y-56730632D01*
X76387368Y-56937475D01*
X76560729Y-57053311D01*
X76485208Y-57295603D01*
X77334000Y-58144395D01*
X77348143Y-58130253D01*
X77527748Y-58309858D01*
X77513605Y-58324000D01*
X77527748Y-58338143D01*
X77348143Y-58517748D01*
X77334000Y-58503605D01*
X77319858Y-58517748D01*
X77140253Y-58338143D01*
X77154395Y-58324000D01*
X76305603Y-57475208D01*
X76056528Y-57552843D01*
X75944207Y-57788406D01*
X75359800Y-57203999D01*
X75359800Y-55890001D01*
X75880803Y-55368999D01*
X75902456Y-55368999D01*
X75849000Y-55637740D01*
X75849000Y-55637740D01*
G37*
X75849000Y-55637740D02*
X75849000Y-55930260D01*
X75906068Y-56217158D01*
X76018010Y-56487411D01*
X76180525Y-56730632D01*
X76387368Y-56937475D01*
X76560729Y-57053311D01*
X76485208Y-57295603D01*
X77334000Y-58144395D01*
X77348143Y-58130253D01*
X77527748Y-58309858D01*
X77513605Y-58324000D01*
X77527748Y-58338143D01*
X77348143Y-58517748D01*
X77334000Y-58503605D01*
X77319858Y-58517748D01*
X77140253Y-58338143D01*
X77154395Y-58324000D01*
X76305603Y-57475208D01*
X76056528Y-57552843D01*
X75944207Y-57788406D01*
X75359800Y-57203999D01*
X75359800Y-55890001D01*
X75880803Y-55368999D01*
X75902456Y-55368999D01*
X75849000Y-55637740D01*
G36*
X56445748Y-48149858D02*
G01*
X56431605Y-48164000D01*
X56445748Y-48178143D01*
X56266143Y-48357748D01*
X56252000Y-48343605D01*
X56237858Y-48357748D01*
X56058253Y-48178143D01*
X56072395Y-48164000D01*
X56058253Y-48149858D01*
X56237858Y-47970253D01*
X56252000Y-47984395D01*
X56266143Y-47970253D01*
X56445748Y-48149858D01*
X56445748Y-48149858D01*
G37*
X56445748Y-48149858D02*
X56431605Y-48164000D01*
X56445748Y-48178143D01*
X56266143Y-48357748D01*
X56252000Y-48343605D01*
X56237858Y-48357748D01*
X56058253Y-48178143D01*
X56072395Y-48164000D01*
X56058253Y-48149858D01*
X56237858Y-47970253D01*
X56252000Y-47984395D01*
X56266143Y-47970253D01*
X56445748Y-48149858D01*
G36*
X80067748Y-48149858D02*
G01*
X80053605Y-48164000D01*
X80067748Y-48178143D01*
X79888143Y-48357748D01*
X79874000Y-48343605D01*
X79859858Y-48357748D01*
X79680253Y-48178143D01*
X79694395Y-48164000D01*
X79680253Y-48149858D01*
X79859858Y-47970253D01*
X79874000Y-47984395D01*
X79888143Y-47970253D01*
X80067748Y-48149858D01*
X80067748Y-48149858D01*
G37*
X80067748Y-48149858D02*
X80053605Y-48164000D01*
X80067748Y-48178143D01*
X79888143Y-48357748D01*
X79874000Y-48343605D01*
X79859858Y-48357748D01*
X79680253Y-48178143D01*
X79694395Y-48164000D01*
X79680253Y-48149858D01*
X79859858Y-47970253D01*
X79874000Y-47984395D01*
X79888143Y-47970253D01*
X80067748Y-48149858D01*
G36*
X78856000Y-25939000D02*
G01*
X78876000Y-25939000D01*
X78876000Y-26193000D01*
X78856000Y-26193000D01*
X78856000Y-27399817D01*
X79088026Y-27520958D01*
X79238814Y-27475222D01*
X79503944Y-27348684D01*
X79739293Y-27172854D01*
X79935817Y-26954488D01*
X79993137Y-26858090D01*
X80016931Y-26902606D01*
X80204203Y-27130797D01*
X80432394Y-27318069D01*
X80692736Y-27457225D01*
X80975223Y-27542916D01*
X81195381Y-27564600D01*
X81342619Y-27564600D01*
X81562777Y-27542916D01*
X81845264Y-27457225D01*
X82105606Y-27318069D01*
X82333797Y-27130797D01*
X82521069Y-26902606D01*
X82660225Y-26642264D01*
X82745916Y-26359777D01*
X82771206Y-26103007D01*
X87352600Y-30684402D01*
X87352601Y-44475633D01*
X87341724Y-44459355D01*
X87087245Y-44204876D01*
X86788009Y-44004934D01*
X86455516Y-43867211D01*
X86102544Y-43797000D01*
X85742656Y-43797000D01*
X85389684Y-43867211D01*
X85076345Y-43997000D01*
X81049947Y-43997000D01*
X81189990Y-43787411D01*
X81301932Y-43517158D01*
X81359000Y-43230260D01*
X81359000Y-42937740D01*
X81301932Y-42650842D01*
X81189990Y-42380589D01*
X81053736Y-42176670D01*
X81076081Y-42178871D01*
X81155995Y-42171000D01*
X81156006Y-42171000D01*
X81395029Y-42147458D01*
X81701719Y-42054425D01*
X81984367Y-41903346D01*
X82232110Y-41700029D01*
X82283060Y-41637946D01*
X83317952Y-40603055D01*
X83380030Y-40552109D01*
X83430976Y-40490031D01*
X83430979Y-40490028D01*
X83583347Y-40304366D01*
X83625741Y-40225052D01*
X83734426Y-40021718D01*
X83827459Y-39715028D01*
X83851001Y-39476005D01*
X83851001Y-39475995D01*
X83858872Y-39396081D01*
X83851001Y-39316166D01*
X83851001Y-36955913D01*
X83858872Y-36875998D01*
X83851001Y-36796084D01*
X83851001Y-36796074D01*
X83827459Y-36557051D01*
X83734426Y-36250361D01*
X83583347Y-35967713D01*
X83490637Y-35854745D01*
X83430979Y-35782051D01*
X83430976Y-35782048D01*
X83380030Y-35719970D01*
X83317953Y-35669025D01*
X77816000Y-30167073D01*
X77816000Y-27761030D01*
X77853365Y-27730365D01*
X77994200Y-27558757D01*
X78075504Y-27406647D01*
X78219186Y-27475222D01*
X78369974Y-27520958D01*
X78602000Y-27399817D01*
X78602000Y-26193000D01*
X78582000Y-26193000D01*
X78582000Y-25939000D01*
X78602000Y-25939000D01*
X78602000Y-25919000D01*
X78856000Y-25919000D01*
X78856000Y-25939000D01*
X78856000Y-25939000D01*
G37*
X78856000Y-25939000D02*
X78876000Y-25939000D01*
X78876000Y-26193000D01*
X78856000Y-26193000D01*
X78856000Y-27399817D01*
X79088026Y-27520958D01*
X79238814Y-27475222D01*
X79503944Y-27348684D01*
X79739293Y-27172854D01*
X79935817Y-26954488D01*
X79993137Y-26858090D01*
X80016931Y-26902606D01*
X80204203Y-27130797D01*
X80432394Y-27318069D01*
X80692736Y-27457225D01*
X80975223Y-27542916D01*
X81195381Y-27564600D01*
X81342619Y-27564600D01*
X81562777Y-27542916D01*
X81845264Y-27457225D01*
X82105606Y-27318069D01*
X82333797Y-27130797D01*
X82521069Y-26902606D01*
X82660225Y-26642264D01*
X82745916Y-26359777D01*
X82771206Y-26103007D01*
X87352600Y-30684402D01*
X87352601Y-44475633D01*
X87341724Y-44459355D01*
X87087245Y-44204876D01*
X86788009Y-44004934D01*
X86455516Y-43867211D01*
X86102544Y-43797000D01*
X85742656Y-43797000D01*
X85389684Y-43867211D01*
X85076345Y-43997000D01*
X81049947Y-43997000D01*
X81189990Y-43787411D01*
X81301932Y-43517158D01*
X81359000Y-43230260D01*
X81359000Y-42937740D01*
X81301932Y-42650842D01*
X81189990Y-42380589D01*
X81053736Y-42176670D01*
X81076081Y-42178871D01*
X81155995Y-42171000D01*
X81156006Y-42171000D01*
X81395029Y-42147458D01*
X81701719Y-42054425D01*
X81984367Y-41903346D01*
X82232110Y-41700029D01*
X82283060Y-41637946D01*
X83317952Y-40603055D01*
X83380030Y-40552109D01*
X83430976Y-40490031D01*
X83430979Y-40490028D01*
X83583347Y-40304366D01*
X83625741Y-40225052D01*
X83734426Y-40021718D01*
X83827459Y-39715028D01*
X83851001Y-39476005D01*
X83851001Y-39475995D01*
X83858872Y-39396081D01*
X83851001Y-39316166D01*
X83851001Y-36955913D01*
X83858872Y-36875998D01*
X83851001Y-36796084D01*
X83851001Y-36796074D01*
X83827459Y-36557051D01*
X83734426Y-36250361D01*
X83583347Y-35967713D01*
X83490637Y-35854745D01*
X83430979Y-35782051D01*
X83430976Y-35782048D01*
X83380030Y-35719970D01*
X83317953Y-35669025D01*
X77816000Y-30167073D01*
X77816000Y-27761030D01*
X77853365Y-27730365D01*
X77994200Y-27558757D01*
X78075504Y-27406647D01*
X78219186Y-27475222D01*
X78369974Y-27520958D01*
X78602000Y-27399817D01*
X78602000Y-26193000D01*
X78582000Y-26193000D01*
X78582000Y-25939000D01*
X78602000Y-25939000D01*
X78602000Y-25919000D01*
X78856000Y-25919000D01*
X78856000Y-25939000D01*
G36*
X54855000Y-25939000D02*
G01*
X54875000Y-25939000D01*
X54875000Y-26193000D01*
X54855000Y-26193000D01*
X54855000Y-26213000D01*
X54601000Y-26213000D01*
X54601000Y-26193000D01*
X54581000Y-26193000D01*
X54581000Y-25939000D01*
X54601000Y-25939000D01*
X54601000Y-25919000D01*
X54855000Y-25919000D01*
X54855000Y-25939000D01*
X54855000Y-25939000D01*
G37*
X54855000Y-25939000D02*
X54875000Y-25939000D01*
X54875000Y-26193000D01*
X54855000Y-26193000D01*
X54855000Y-26213000D01*
X54601000Y-26213000D01*
X54601000Y-26193000D01*
X54581000Y-26193000D01*
X54581000Y-25939000D01*
X54601000Y-25939000D01*
X54601000Y-25919000D01*
X54855000Y-25919000D01*
X54855000Y-25939000D01*
M02*
